<svg width="16" height="16" viewBox="0 0 16 16" fill="none" xmlns="http://www.w3.org/2000/svg">
<path d="M8 2C4.68966 2 2 4.68966 2 8C2 11.3103 4.68966 14 8 14C11.3103 14 14 11.3103 14 8C14 4.68966 11.2069 2 8 2ZM8 12.3448C5.62069 12.3448 3.55172 10.3793 3.55172 7.89655C3.55172 5.41379 5.51724 3.44828 8 3.44828C10.4828 3.44828 12.3448 5.51724 12.3448 8C12.3448 10.4828 10.3793 12.3448 8 12.3448Z" fill="#0571B3"/>
<path d="M7.89656 5.10345C6.34483 5.10345 5.10345 6.34483 5.10345 7.89656C5.10345 9.44828 6.34483 10.6897 7.89656 10.6897C9.44828 10.6897 10.6897 9.44828 10.6897 7.89656C10.6897 6.34483 9.55173 5.10345 7.89656 5.10345Z" fill="#0571B3"/>
</svg>
