<svg width="16" height="16" viewBox="0 0 16 16" fill="none" xmlns="http://www.w3.org/2000/svg">
<path d="M3.89914 6.45951V9.99922C3.89914 10.5172 3.5538 10.8626 3.0358 10.8626C2.60413 10.8626 2.08612 10.5172 2.08612 9.99922V6.45951C2.08612 6.02784 2.51779 5.59617 3.0358 5.59617C3.46747 5.59617 3.89914 5.94151 3.89914 6.45951ZM4.15814 11.2942C4.15814 11.8122 4.58981 12.2439 5.10782 12.2439H5.71216V14.1433C5.71216 15.2656 7.43884 15.2656 7.43884 14.1433V12.2439H8.56119V14.0569C8.56119 15.1793 10.2879 15.1793 10.2879 14.0569V12.1576H10.8922C11.4102 12.1576 11.8419 11.7259 11.8419 11.2079V5.76884H4.15814V11.2942ZM11.8419 5.4235H4.15814C4.15814 4.12849 4.93515 2.91981 6.14383 2.31547L5.53949 1.27946C5.45316 1.10679 5.62582 1.02046 5.71216 1.19313L6.3165 2.31547C7.35251 1.79747 8.64752 1.8838 9.68353 2.31547L10.2879 1.19313C10.3742 1.02046 10.5469 1.19313 10.4605 1.27946L9.8562 2.4018C11.0649 3.00614 11.8419 4.12849 11.8419 5.4235ZM6.5755 3.69682C6.5755 3.52415 6.40283 3.35148 6.23016 3.35148C6.05749 3.43782 5.97116 3.52415 5.97116 3.69682C5.97116 3.86949 6.14383 4.04215 6.3165 4.04215C6.40283 4.04215 6.5755 3.86949 6.5755 3.69682ZM10.1152 3.69682C10.1152 3.52415 9.94253 3.35148 9.76987 3.35148C9.5972 3.43782 9.42453 3.52415 9.42453 3.69682C9.42453 3.86949 9.5972 4.04215 9.76987 4.04215C9.94253 4.04215 10.1152 3.86949 10.1152 3.69682ZM12.9642 5.59617C12.5326 5.59617 12.1009 5.94151 12.1009 6.45951V9.99922C12.1009 10.5172 12.4462 10.8626 12.9642 10.8626C13.4822 10.8626 13.9139 10.5172 13.9139 9.99922V6.45951C13.9139 5.94151 13.4822 5.59617 12.9642 5.59617Z" fill="#2A3843"/>
</svg>
