<svg width="16" height="16" viewBox="0 0 16 16" fill="none" xmlns="http://www.w3.org/2000/svg">
<path d="M11.8839 8.45697C11.8839 7.33495 12.4018 6.47186 13.4375 5.86769C12.8333 5.0046 11.9702 4.57305 10.8482 4.48674C9.72619 4.31413 8.51786 5.09091 8.08632 5.09091C7.65477 5.09091 6.53275 4.48674 5.75597 4.48674C4.02978 4.48674 2.21729 5.86769 2.21729 8.54328C2.21729 9.32007 2.3899 10.1832 2.64883 11.0463C3.08038 12.1683 4.46133 15.0165 5.92859 14.9302C6.70537 14.9302 7.22322 14.4123 8.25894 14.4123C9.20834 14.4123 9.72619 14.9302 10.5893 14.9302C12.0565 14.9302 13.3512 12.4272 13.7827 11.2189C11.7976 10.2695 11.8839 8.45697 11.8839 8.45697ZM10.1577 3.36472C11.0208 2.32901 10.9345 1.46592 10.9345 1.12068C10.1577 1.20699 9.29465 1.63854 8.8631 2.15639C8.25894 2.84687 8.00001 3.53734 8.00001 4.40044C8.8631 4.48674 9.55358 4.0552 10.1577 3.36472Z" fill="#2A3843"/>
</svg>
