<svg width="16" height="16" viewBox="0 0 16 16" fill="none" xmlns="http://www.w3.org/2000/svg">
<path d="M13.7655 5.60735C14.0092 4.95743 14.3342 4.06378 14.3342 3.41385C14.3342 1.54531 12.3032 0.895381 8.97227 2.43896C6.21008 2.19524 3.61037 4.22626 2.96044 7.15093C3.77285 6.25728 4.91023 5.03867 6.0476 4.55122C4.6665 5.76984 3.52913 7.31341 2.63548 8.93823C2.06679 9.91312 1.49811 11.4567 1.49811 12.5941C1.49811 15.1125 3.85409 14.7876 6.0476 13.6502C6.86001 14.0564 7.75366 14.0564 8.64731 14.0564C11.0845 14.0564 13.3593 12.6753 14.1717 10.3193H11.0845C9.78468 12.5941 6.0476 11.7004 6.0476 9.10071H14.4154C14.5779 8.04458 14.4154 6.74473 13.7655 5.60735ZM3.12293 10.3193C3.61037 11.6192 4.50402 12.7566 5.64139 13.4877C3.44789 14.7063 1.25439 14.2189 3.12293 10.3193ZM6.0476 7.55714C6.12884 6.17604 7.34745 5.11991 8.64731 5.11991C10.0284 5.11991 11.247 6.0948 11.247 7.55714H6.0476ZM10.7596 2.84516C11.3283 2.60144 11.9782 2.27648 12.6281 2.27648C13.4405 2.27648 14.0092 2.84516 14.0092 3.65757C14.0092 4.14502 13.8467 4.87619 13.603 5.36363C12.9531 4.3075 11.9782 3.25137 10.7596 2.84516Z" fill="#2A3843"/>
</svg>
