<svg width="16" height="16" viewBox="0 0 16 16" fill="none" xmlns="http://www.w3.org/2000/svg">
<path d="M7.08286 3.9C7.08286 3.8 7.18286 3.8 7.08286 3.9C7.28286 3.7 7.38286 3.7 7.38286 3.8H7.28286C7.28286 3.9 7.28286 3.9 7.08286 3.9C7.08286 3.9 7.18286 3.9 7.08286 3.9ZM7.88286 3.9C7.88286 3.9 7.98286 3.9 7.88286 3.9C7.98286 4 8.08286 3.9 8.08286 3.9C8.08286 3.8 7.98286 3.8 7.88286 3.9C7.88286 3.7 7.88286 3.7 7.88286 3.9C7.78286 3.8 7.78286 3.8 7.78286 3.8C7.78286 3.8 7.88286 3.8 7.88286 3.9ZM14.5829 13.5C14.5829 13.8 14.3829 13.9 14.1829 14.1C13.6829 14.4 12.9829 14.6 12.5829 15.1L12.4829 15L12.5829 15.1C12.1829 15.6 11.5829 15.9 11.0829 16C10.5829 16 10.0829 15.8 9.78286 15.3C9.78286 15.2 9.68286 15.2 9.68286 15.1C8.98286 15.1 8.38286 14.9 7.98286 15C7.28286 15 6.88286 15.2 6.48286 15.2C6.38286 15.5 6.08286 15.7 5.68286 15.8C5.18286 15.9 4.58286 15.8 3.98286 15.5V15.4V15.5C3.38286 15.2 2.68286 15.2 2.08286 15.1C1.78286 15 1.58286 14.9 1.48286 14.7C1.38286 14.5 1.38286 14.2 1.58286 13.7C1.68286 13.5 1.58286 13.3 1.58286 13.1C1.58286 13 1.58286 12.9 1.58286 12.7C1.58286 12.6 1.58286 12.4 1.68286 12.3C1.78286 12 2.08286 11.9 2.28286 11.8C2.48286 11.7 2.68286 11.7 2.78286 11.5C2.98286 11.3 3.08286 11.1 3.28286 10.9C3.18286 10.4 3.28286 9.8 3.48286 9.2C3.88286 8 4.68286 6.9 5.28286 6.2C5.78286 5.5 5.88286 4.9 5.98286 4.2C5.98286 3.2 5.18286 0 8.38286 0C10.8829 0 10.7829 2.7 10.7829 4.1C10.7829 5 11.2829 5.7 11.7829 6.3C12.2829 6.9 12.8829 7.7 13.2829 8.6C13.5829 9.4 13.6829 10.2 13.3829 11.1C13.3829 11.1 13.4829 11.1 13.4829 11.2L13.5829 11.3C13.7829 11.5 13.8829 11.7 13.8829 12C13.9829 12.3 13.9829 12.5 14.0829 12.6C14.4829 13 14.5829 13.3 14.5829 13.5ZM7.88286 3.4C7.98286 3.4 8.18286 3.5 8.28286 3.5C8.18286 3.2 8.48286 2.8 8.68286 2.8C8.98286 2.8 9.08286 3.3 8.98286 3.7C8.98286 3.8 8.88286 3.8 8.88286 3.8C9.08286 3.9 9.18286 4 9.18286 4C9.48286 3.7 9.58286 3.2 9.38286 2.7C9.08286 2 8.28286 2 7.98286 2.7C7.88286 3 7.88286 3.2 7.88286 3.4ZM6.48286 4C6.68286 3.8 6.68286 3.9 6.68286 3.8C6.38286 3.6 6.38286 3 6.68286 2.9C6.88286 2.9 6.98286 3.2 6.98286 3.5C7.08286 3.4 7.18286 3.4 7.28286 3.4C7.38286 2.8 6.98286 2.4 6.68286 2.4C6.08286 2.4 5.98286 3.5 6.48286 4ZM6.18286 4.6C6.18286 4.8 6.38286 5 6.58286 5.1C6.78286 5.2 6.98286 5.5 7.18286 5.6C7.28286 5.6 7.38286 5.7 7.48286 5.7C8.08286 5.7 8.28286 5.3 8.68286 5.2C9.08286 5.1 9.38286 4.9 9.48286 4.6C9.58286 4.4 9.38286 4.2 9.08286 4.1C8.78286 3.9 8.58286 3.9 8.38286 3.8C8.08286 3.6 7.78286 3.5 7.58286 3.5C7.18286 3.5 6.88286 3.8 6.68286 3.9C6.68286 3.9 6.48286 4.1 6.28286 4.2C6.18286 4.4 6.08286 4.5 6.18286 4.6ZM5.08286 12.5L4.48286 11.4C4.28286 11.1 4.08286 10.9 3.78286 10.9C3.58286 10.9 3.38286 10.9 3.18286 11.1C3.08286 11.3 2.88286 11.5 2.78286 11.7C2.58286 11.9 2.48286 11.9 2.18286 12C1.98286 12.1 1.78286 12.1 1.68286 12.4C1.58286 12.6 1.58286 12.8 1.68286 13C1.68286 13.2 1.78286 13.5 1.68286 13.7C1.48286 14.1 1.48286 14.4 1.58286 14.5C1.78286 15 3.08286 14.7 3.98286 15.2C4.98286 15.7 6.28286 15.7 6.38286 14.6C6.48286 14.1 5.38286 13.2 5.08286 12.5ZM9.88286 13.7C9.98286 13.4 10.0829 13 10.0829 12.8C10.0829 12.3 10.0829 11.9 10.1829 11.6C10.2829 11.2 10.4829 10.9 10.8829 10.7C10.9829 10 11.4829 10 12.0829 10.3C12.6829 10.6 12.8829 10.8 12.7829 11.1H12.8829C13.0829 10.6 12.4829 10.2 11.8829 10C11.9829 9.6 11.9829 9.2 11.8829 8.9C11.7829 8.1 11.2829 7.4 10.8829 7C10.7829 7 10.8829 7.1 10.9829 7.2C11.3829 7.5 12.1829 8.7 11.6829 9.9C11.5829 9.9 11.4829 9.9 11.3829 9.9C11.1829 9 10.8829 8.2 10.6829 7.9C10.2829 7.2 9.78286 5.9 9.48286 4.9C9.28286 5 9.08286 5.2 8.78286 5.3C8.68286 5.3 8.48286 5.5 8.28286 5.6C7.88286 5.8 7.38286 5.9 6.98286 5.6C6.78286 5.4 6.68286 5.3 6.58286 5.2L6.38286 5.1C6.28286 6.3 5.48286 7.8 5.18286 8.6C4.88286 9.2 4.78286 9.9 4.78286 10.5C3.98286 9.6 4.48286 8.5 4.78286 8C5.08286 7.5 5.08286 7.3 5.08286 7.4C4.78286 7.8 4.38286 8.5 4.18286 9.2C4.08286 9.6 4.08286 9.9 4.18286 10.3C4.28286 10.6 4.48286 11 4.98286 11.2C4.98286 11.2 5.78286 11.6 6.18286 12.2C6.38286 12.5 6.48286 12.8 6.38286 13C6.28286 13.2 6.08286 13.3 5.88286 13.3C5.98286 13.5 6.18286 13.7 6.28286 13.9C7.48286 14.7 8.88286 14.4 9.88286 13.7ZM13.9829 12.8C13.6829 12.4 13.7829 11.8 13.4829 11.5C13.2829 11.3 13.0829 11.3 12.7829 11.3C12.5829 11.6 11.9829 11.9 11.5829 11.8C11.1829 11.7 10.9829 11.3 10.9829 10.9C10.7829 11 10.6829 11.2 10.5829 11.6C10.3829 11.9 10.3829 12.3 10.3829 12.8C10.3829 13.2 10.1829 13.6 10.0829 14.1C9.98286 14.5 9.88286 14.9 10.0829 15.2C10.2829 15.7 10.6829 15.8 11.1829 15.8C11.5829 15.8 12.0829 15.5 12.5829 15C13.2829 14.2 14.4829 14.1 14.5829 13.5C14.3829 13.4 14.2829 13.1 13.9829 12.8ZM6.38286 4.6C6.48286 4.7 6.48286 4.7 6.58286 4.8C6.88286 5 7.18286 5.2 7.48286 5.2C7.88286 5.2 8.18286 5 8.48286 4.9C8.68286 4.8 8.78286 4.7 8.98286 4.6C9.08286 4.5 9.18286 4.4 9.08286 4.4C8.98286 4.4 8.98286 4.5 8.88286 4.6C8.78286 4.6 8.58286 4.7 8.48286 4.8C8.18286 4.9 7.78286 5.1 7.48286 5.1C7.18286 5.1 6.88286 5 6.68286 4.8C6.58286 4.7 6.58286 4.7 6.38286 4.6C6.38286 4.5 6.38286 4.4 6.28286 4.4C6.28286 4.4 6.28286 4.6 6.38286 4.6Z" fill="#2A3843"/>
</svg>
