<svg width="16" height="16" viewBox="0 0 16 16" fill="none" xmlns="http://www.w3.org/2000/svg">
<path d="M13.5162 6.08941C13.226 5.9443 12.9358 5.89593 12.6456 5.89593C12.5972 6.18615 12.5489 6.71821 12.3554 7.10517C12.5005 6.47636 12.4037 5.9443 12.3554 5.89593C12.1135 3.96116 10.4206 2.46171 8.43746 2.46171C6.7929 2.46171 5.39019 3.47746 4.80976 4.88018C4.80976 4.88018 4.56791 5.41224 4.51954 6.18615C4.4228 5.65408 4.4228 5.07365 4.47117 4.83181C3.98748 4.73507 3.55216 4.78344 3.11683 4.92854C1.52064 5.41224 0.649996 7.10516 1.13369 8.65298V8.70135C1.56901 9.95896 2.68151 10.5394 3.35868 10.6845C5.14835 11.0231 4.9065 12.8127 5.39019 12.9095C5.43856 12.9095 5.48693 12.9095 5.5353 12.9095C5.68041 12.8611 5.92225 12.6193 6.1641 12.1839C6.11573 11.6035 5.24508 9.95896 5.39019 10.1524C5.39019 10.1524 5.97062 11.2166 6.40595 11.7486C7.22823 12.8611 8.09887 13.5383 8.43746 13.5383C8.48583 13.5383 8.5342 13.5383 8.63094 13.4899C9.21137 13.1997 8.43746 11.41 9.84017 10.2492C9.84017 10.2492 10.5173 9.76548 10.8559 9.572C11.0978 9.42689 10.2271 10.1041 9.88854 10.6361C10.082 11.6519 10.4206 12.3774 10.6624 12.5225C10.7108 12.5225 10.7108 12.5225 10.7592 12.5225C11.1945 12.4742 11.1461 11.0231 12.694 10.878C13.2744 10.8296 14.2418 10.4426 14.7255 9.42689C14.7255 9.42689 14.7255 9.37852 14.7738 9.37852C15.3543 8.12092 14.7738 6.66984 13.5162 6.08941ZM4.37444 8.99157C3.69726 9.18505 2.97172 8.79809 2.77825 8.12092C2.58477 7.44375 2.92336 6.76658 3.60053 6.5731C3.89074 6.47636 4.22933 6.47636 4.47117 6.62147C4.47117 7.34701 4.61628 8.07255 4.80976 8.74972C4.71302 8.84646 4.51954 8.9432 4.37444 8.99157ZM8.43746 8.12092C7.51844 8.12092 6.74453 7.34701 6.74453 6.42799C6.74453 5.50898 7.51844 4.73507 8.43746 4.73507C9.35648 4.73507 10.1304 5.50898 10.1304 6.42799C10.1304 7.34701 9.40485 8.12092 8.43746 8.12092ZM13.4679 8.79809C13.226 9.33015 12.5972 9.572 12.0652 9.33015C11.8233 9.23342 11.6298 9.03994 11.5331 8.84646C11.8717 8.41114 12.1135 7.92744 12.2586 7.34701C12.4521 7.29864 12.694 7.29864 12.8874 7.39538C13.4679 7.63723 13.7097 8.26603 13.4679 8.79809Z" fill="#2A3843"/>
</svg>
