<svg width="16" height="17" viewBox="0 0 16 17" fill="none" xmlns="http://www.w3.org/2000/svg">
<path fill-rule="evenodd" clip-rule="evenodd" d="M7.1306 3.35975C7.396 3.21033 7.69542 3.13184 7.99999 3.13184C8.30455 3.13184 8.60398 3.21033 8.86937 3.35975C9.13476 3.50917 9.35717 3.72447 9.51512 3.98487L9.51692 3.98784L14.38 12.1064C14.5347 12.3743 14.6165 12.6782 14.6174 12.9876C14.6183 13.297 14.5381 13.6013 14.3849 13.8701C14.2316 14.1389 14.0107 14.3629 13.744 14.5199C13.4773 14.6768 13.1742 14.7612 12.8648 14.7646L12.8579 14.7646L3.13518 14.7646C2.82577 14.7612 2.52265 14.6768 2.25597 14.5199C1.98928 14.3629 1.76834 14.1389 1.61511 13.8701C1.46188 13.6013 1.38171 13.297 1.38258 12.9876C1.38344 12.6782 1.46531 12.3744 1.62005 12.1064L1.62505 12.0977L6.42578 4.0625L6.44531 4.01953L6.46875 3.98487C6.62671 3.72447 6.86521 3.50917 7.1306 3.35975ZM7.55434 4.63194L7.5536 4.63316L2.70053 12.735C2.65624 12.8131 2.63282 12.9013 2.63257 12.9911C2.63232 13.0823 2.65593 13.1719 2.70108 13.2511C2.74622 13.3303 2.81132 13.3963 2.88989 13.4425C2.96766 13.4883 3.05594 13.5131 3.14613 13.5146H12.8538C12.944 13.5131 13.0323 13.4883 13.1101 13.4425C13.1887 13.3963 13.2537 13.3303 13.2989 13.2511C13.344 13.1719 13.3677 13.0823 13.3674 12.9911C13.3672 12.9013 13.3437 12.8131 13.2995 12.735L8.44637 4.63316L8.44563 4.63194C8.39914 4.55576 8.3339 4.49277 8.25612 4.44898C8.17793 4.40496 8.08972 4.38184 7.99999 4.38184C7.91026 4.38184 7.82204 4.40496 7.74385 4.44898C7.66607 4.49277 7.60083 4.55576 7.55434 4.63194Z" fill="#6D7782"/>
<path fill-rule="evenodd" clip-rule="evenodd" d="M8 6.63205C8.34518 6.63205 8.625 6.91187 8.625 7.25705V9.55123C8.625 9.89641 8.34518 10.1762 8 10.1762C7.65482 10.1762 7.375 9.89641 7.375 9.55123V7.25705C7.375 6.91187 7.65482 6.63205 8 6.63205Z" fill="#6D7782"/>
<path fill-rule="evenodd" clip-rule="evenodd" d="M7.375 11.8454C7.375 11.5002 7.65482 11.2204 8 11.2204H8.00766C8.35284 11.2204 8.63266 11.5002 8.63266 11.8454C8.63266 12.1906 8.35284 12.4704 8.00766 12.4704H8C7.65482 12.4704 7.375 12.1906 7.375 11.8454Z" fill="#6D7782"/>
</svg>
