<svg width="16" height="17" viewBox="0 0 16 17" fill="none" xmlns="http://www.w3.org/2000/svg">
<path d="M8.03555 15.8087L8.25652 15.5877C8.40295 15.4413 8.40295 15.2039 8.25652 15.0574L2.67858 9.47944L14.425 9.47944C14.6321 9.47944 14.8 9.31154 14.8 9.10444L14.8 8.79194C14.8 8.58485 14.6321 8.41694 14.425 8.41694L2.67858 8.41694L8.25652 2.839C8.40296 2.69256 8.40296 2.45512 8.25652 2.30865L8.03555 2.08772C7.88911 1.94128 7.65167 1.94128 7.50524 2.08772L0.909892 8.68303C0.763454 8.82947 0.763454 9.06691 0.909892 9.21338L7.50524 15.8087C7.65167 15.9551 7.88911 15.9551 8.03555 15.8087Z" fill="#6D7782"/>
</svg>
