<svg width="16" height="17" viewBox="0 0 16 17" fill="none" xmlns="http://www.w3.org/2000/svg">
<path d="M7.56455 2.08773L7.34358 2.30866C7.19714 2.4551 7.19714 2.69254 7.34358 2.83901L12.9215 8.41695H1.17505C0.967955 8.41695 0.800049 8.58486 0.800049 8.79195V9.10445C0.800049 9.31154 0.967955 9.47945 1.17505 9.47945H12.9215L7.34358 15.0574C7.19714 15.2038 7.19714 15.4413 7.34358 15.5877L7.56455 15.8087C7.71099 15.9551 7.94842 15.9551 8.09486 15.8087L14.6902 9.21336C14.8366 9.06692 14.8366 8.82948 14.6902 8.68301L8.09486 2.08773C7.94842 1.94126 7.71099 1.94126 7.56455 2.08773Z" fill="#6D7782"/>
</svg>
