<svg width="16" height="17" viewBox="0 0 16 17" fill="none" xmlns="http://www.w3.org/2000/svg">
<path d="M14.6604 8.71271L14.4395 8.49174C14.293 8.34531 14.0556 8.34531 13.9091 8.49174L8.33119 14.0697L8.33119 2.32321C8.33119 2.11612 8.16328 1.94821 7.95619 1.94821L7.64369 1.94821C7.4366 1.94821 7.26869 2.11612 7.26869 2.32321L7.26869 14.0697L1.69075 8.49174C1.54431 8.34531 1.30687 8.34531 1.1604 8.49174L0.939466 8.71271C0.793028 8.85915 0.793028 9.09659 0.939466 9.24302L7.53478 15.8384C7.68122 15.9848 7.91866 15.9848 8.06513 15.8384L14.6604 9.24303C14.8069 9.09659 14.8069 8.85915 14.6604 8.71271Z" fill="#6D7782"/>
</svg>
