<svg width="16" height="17" viewBox="0 0 16 17" fill="none" xmlns="http://www.w3.org/2000/svg">
<path d="M13.3 1.94821H2.30005C1.47161 1.94821 0.800049 2.61977 0.800049 3.44821V14.4482C0.800049 15.2766 1.47161 15.9482 2.30005 15.9482H13.3C14.1285 15.9482 14.8 15.2766 14.8 14.4482V3.44821C14.8 2.61977 14.1285 1.94821 13.3 1.94821ZM13.3 2.94821C13.5758 2.94821 13.8 3.17252 13.8 3.44821V14.4482C13.8 14.7239 13.5758 14.9482 13.3 14.9482H2.30005C2.02436 14.9482 1.80005 14.7239 1.80005 14.4482V3.44821C1.80005 3.17252 2.02436 2.94821 2.30005 2.94821H13.3Z" fill="#6D7782"/>
</svg>
