<svg width="16" height="16" viewBox="0 0 16 16" fill="none" xmlns="http://www.w3.org/2000/svg">
<path fill-rule="evenodd" clip-rule="evenodd" d="M3.35117 2.64803C2.96279 2.64803 2.64795 2.96287 2.64795 3.35124V12.6488C2.64795 13.0371 2.96279 13.352 3.35117 13.352H12.6487C13.0371 13.352 13.3519 13.0371 13.3519 12.6488V3.35124C13.3519 2.96287 13.0371 2.64803 12.6487 2.64803H3.35117ZM1.39795 3.35124C1.39795 2.27251 2.27243 1.39803 3.35117 1.39803H12.6487C13.7274 1.39803 14.6019 2.27251 14.6019 3.35124V12.6488C14.6019 13.7275 13.7274 14.602 12.6487 14.602H3.35117C2.27243 14.602 1.39795 13.7275 1.39795 12.6488V3.35124Z" fill="#6D7782"/>
<path fill-rule="evenodd" clip-rule="evenodd" d="M5.56563 5.56573C5.8097 5.32166 6.20543 5.32166 6.44951 5.56573L10.4342 9.55039C10.6782 9.79446 10.6782 10.1902 10.4342 10.4343C10.1901 10.6783 9.79436 10.6783 9.55028 10.4343L5.56563 6.44962C5.32155 6.20554 5.32155 5.80981 5.56563 5.56573Z" fill="#6D7782"/>
<path fill-rule="evenodd" clip-rule="evenodd" d="M10.4342 5.56573C10.6782 5.80981 10.6782 6.20554 10.4342 6.44962L6.44951 10.4343C6.20543 10.6783 5.8097 10.6783 5.56563 10.4343C5.32155 10.1902 5.32155 9.79446 5.56563 9.55039L9.55028 5.56573C9.79436 5.32166 10.1901 5.32166 10.4342 5.56573Z" fill="#6D7782"/>
</svg>
