<svg width="16" height="17" viewBox="0 0 16 17" fill="none" xmlns="http://www.w3.org/2000/svg">
<g clip-path="url(#clip0_24_135)">
<path d="M13.1595 3.58525L10.5376 0.963376C10.2563 0.682126 9.8751 0.522751 9.47822 0.522751H3.1001C2.27197 0.525876 1.6001 1.19775 1.6001 2.02588V15.0259C1.6001 15.854 2.27197 16.5259 3.1001 16.5259H12.1001C12.9282 16.5259 13.6001 15.854 13.6001 15.0259V4.64775C13.6001 4.25087 13.4407 3.8665 13.1595 3.58525ZM12.4532 4.29462C12.5188 4.36025 12.5626 4.43838 12.5845 4.52588H9.6001V1.5415C9.6876 1.56338 9.76572 1.60713 9.83135 1.67275L12.4532 4.29462ZM12.1001 15.5259H3.1001C2.8251 15.5259 2.6001 15.3009 2.6001 15.0259V2.02588C2.6001 1.75088 2.8251 1.52588 3.1001 1.52588H8.6001V4.77588C8.6001 5.1915 8.93447 5.52587 9.3501 5.52587H12.6001V15.0259C12.6001 15.3009 12.3751 15.5259 12.1001 15.5259Z" fill="#6D7782"/>
</g>
<defs>
<clipPath id="clip0_24_135">
<rect width="16" height="16" fill="white" transform="translate(0 0.525894)"/>
</clipPath>
</defs>
</svg>
