<svg width="16" height="17" viewBox="0 0 16 17" fill="none" xmlns="http://www.w3.org/2000/svg">
<path d="M14.8571 3.07518H1.14286C0.839753 3.07518 0.549062 3.19318 0.334735 3.40322C0.120408 3.61326 0 3.89814 0 4.19518V13.1552C0 13.4522 0.120408 13.7371 0.334735 13.9471C0.549062 14.1572 0.839753 14.2752 1.14286 14.2752H14.8571C15.1602 14.2752 15.4509 14.1572 15.6653 13.9471C15.8796 13.7371 16 13.4522 16 13.1552V4.19518C16 3.89814 15.8796 3.61326 15.6653 3.40322C15.4509 3.19318 15.1602 3.07518 14.8571 3.07518V3.07518ZM13.6 4.19518L8 7.99198L2.4 4.19518H13.6ZM1.14286 13.1552V4.70478L7.67429 9.13438C7.76994 9.19941 7.88358 9.23426 8 9.23426C8.11642 9.23426 8.23006 9.19941 8.32571 9.13438L14.8571 4.70478V13.1552H1.14286Z" fill="#6D7782"/>
</svg>
