<svg width="16" height="17" viewBox="0 0 16 17" fill="none" xmlns="http://www.w3.org/2000/svg">
<g clip-path="url(#clip0_24_119)">
<path d="M11.4969 10.9802C11.3525 11.1458 11.1912 11.2958 11 11.4067V12.1236C13.0787 12.4155 14.5 13.0002 14.5 13.6752C14.5 14.6417 11.59 15.4252 8 15.4252C4.41 15.4252 1.5 14.6417 1.5 13.6752C1.5 13.0002 2.92125 12.4158 5 12.1236V11.4067C4.80875 11.2958 4.6475 11.1458 4.50313 10.9802C1.83969 11.4671 0 12.4892 0 13.6752C0 15.3321 3.58187 16.6752 8 16.6752C12.4181 16.6752 16 15.3321 16 13.6752C16 12.4892 14.1603 11.4671 11.4969 10.9802ZM8 4.67518C9.10469 4.67518 10 3.77987 10 2.67518C10 1.57049 9.10469 0.675179 8 0.675179C6.89531 0.675179 6 1.57049 6 2.67518C6 3.77987 6.89531 4.67518 8 4.67518ZM6 10.6752V13.6752C6 14.2274 6.44781 14.6752 7 14.6752H9C9.55219 14.6752 10 14.2274 10 13.6752V10.6752C10.5522 10.6752 11 10.2274 11 9.67518V6.67518C11 5.84674 10.3284 5.17518 9.5 5.17518H9.13125C8.78531 5.33237 8.40437 5.42518 8 5.42518C7.59563 5.42518 7.21469 5.33237 6.86875 5.17518H6.5C5.67156 5.17518 5 5.84674 5 6.67518V9.67518C5 10.2274 5.44781 10.6752 6 10.6752Z" fill="#6D7782"/>
</g>
<defs>
<clipPath id="clip0_24_119">
<rect width="16" height="16" fill="white" transform="translate(0 0.675179)"/>
</clipPath>
</defs>
</svg>
