<svg width="16" height="17" viewBox="0 0 16 17" fill="none" xmlns="http://www.w3.org/2000/svg">
<g clip-path="url(#clip0_24_107)">
<path d="M9.15364 1.94821C9.36892 1.94821 9.54002 2.12906 9.52808 2.34402L9.06974 10.594C9.05871 10.7927 8.89433 10.9482 8.6953 10.9482H6.9048C6.70577 10.9482 6.54142 10.7927 6.53036 10.594L6.07202 2.34402C6.06008 2.12906 6.23117 1.94821 6.44646 1.94821H9.15364ZM7.80005 11.9482C8.90286 11.9482 9.80005 12.8454 9.80005 13.9482C9.80005 15.051 8.90286 15.9482 7.80005 15.9482C6.69724 15.9482 5.80005 15.051 5.80005 13.9482C5.80005 12.8454 6.69724 11.9482 7.80005 11.9482ZM9.15364 0.948212H6.44646C5.65808 0.948212 5.02983 1.61215 5.07358 2.39949L5.53192 10.6495C5.5523 11.016 5.71517 11.3426 5.96486 11.5765C5.25671 12.1258 4.80005 12.9847 4.80005 13.9482C4.80005 15.6024 6.14583 16.9482 7.80005 16.9482C9.45427 16.9482 10.8 15.6024 10.8 13.9482C10.8 12.9847 10.3434 12.1258 9.63524 11.5765C9.88496 11.3426 10.0478 11.016 10.0682 10.6495L10.5265 2.39949C10.5703 1.61231 9.94217 0.948212 9.15364 0.948212Z" fill="#6D7782"/>
</g>
<defs>
<clipPath id="clip0_24_107">
<rect width="16" height="16" fill="white" transform="translate(0 0.948212)"/>
</clipPath>
</defs>
</svg>
