<svg width="16" height="17" viewBox="0 0 16 17" fill="none" xmlns="http://www.w3.org/2000/svg">
<g clip-path="url(#clip0_24_83)">
<path d="M0.387097 1.19131H0.709677C0.923451 1.19131 1.09677 1.36464 1.09677 1.57841V4.63083C2.49019 2.25735 5.07222 0.665993 8.02558 0.675218C12.4252 0.688993 16.0069 4.28838 16 8.68796C15.9931 13.1004 12.414 16.6752 8 16.6752C5.93787 16.6752 4.058 15.895 2.63942 14.6136C2.47448 14.4647 2.46671 14.2084 2.62387 14.0513L2.8519 13.8232C2.99716 13.678 3.2309 13.6712 3.38358 13.8086C4.60587 14.9087 6.22371 15.5784 8 15.5784C11.7982 15.5784 14.9032 12.5032 14.9032 8.67518C14.9032 4.87699 11.828 1.77196 8 1.77196C5.32703 1.77196 3.00848 3.29057 1.86164 5.51389H5.03226C5.24603 5.51389 5.41935 5.68722 5.41935 5.90099V6.22357C5.41935 6.43734 5.24603 6.61067 5.03226 6.61067H0.387097C0.173322 6.61067 0 6.43734 0 6.22357V1.57841C0 1.36464 0.173322 1.19131 0.387097 1.19131ZM10.7628 11.3602L10.9146 11.1515C11.0403 10.9786 11.0021 10.7365 10.8292 10.6107L8.51612 8.9285V4.15906C8.51612 3.94528 8.3428 3.77196 8.12903 3.77196H7.87096C7.65719 3.77196 7.48387 3.94528 7.48387 4.15906V9.45412L10.2221 11.4455C10.395 11.5713 10.6371 11.5331 10.7628 11.3602V11.3602Z" fill="#6D7782"/>
</g>
<defs>
<clipPath id="clip0_24_83">
<rect width="16" height="16" fill="white" transform="translate(0 0.675179)"/>
</clipPath>
</defs>
</svg>
