<svg width="16" height="17" viewBox="0 0 16 17" fill="none" xmlns="http://www.w3.org/2000/svg">
<path fill-rule="evenodd" clip-rule="evenodd" d="M0.378174 8.5259C0.378174 8.18072 0.657996 7.9009 1.00317 7.9009H5.20132C5.41029 7.9009 5.60543 8.00534 5.72135 8.17921L6.93519 9.99997H9.06497L10.2788 8.17921C10.3947 8.00534 10.5899 7.9009 10.7988 7.9009H14.997C15.3422 7.9009 15.622 8.18072 15.622 8.5259C15.622 8.87108 15.3422 9.1509 14.997 9.1509H11.1333L9.91949 10.9717C9.80358 11.1455 9.60843 11.25 9.39946 11.25H6.6007C6.39173 11.25 6.19658 11.1455 6.08067 10.9717L4.86683 9.1509H1.00317C0.657996 9.1509 0.378174 8.87108 0.378174 8.5259Z" fill="#6D7782"/>
<path fill-rule="evenodd" clip-rule="evenodd" d="M4.66955 2.30337L11.3306 2.30337C11.7072 2.30357 12.0767 2.40883 12.3967 2.60731C12.7166 2.80564 12.9748 3.0892 13.1424 3.42615C13.1425 3.4264 13.1423 3.4259 13.1424 3.42615L15.5558 8.24606C15.5993 8.33293 15.622 8.42874 15.622 8.52589V12.724C15.622 13.2609 15.4087 13.7758 15.0291 14.1555C14.6494 14.5351 14.1345 14.7484 13.5976 14.7484H2.40255C1.86566 14.7484 1.35075 14.5351 0.971101 14.1555C0.591456 13.7758 0.378174 13.2609 0.378174 12.724V8.52589C0.378174 8.42874 0.400822 8.33293 0.444319 8.24606L2.8574 3.4269C2.85755 3.42659 2.85771 3.42628 2.85786 3.42597C3.02547 3.08911 3.28365 2.80561 3.60343 2.60731C3.9235 2.40883 4.29293 2.30357 4.66955 2.30337ZM3.41709 3.70502L3.97596 3.98486L1.62817 8.67363V12.724C1.62817 12.9294 1.70976 13.1264 1.85498 13.2716C2.00021 13.4168 2.19718 13.4984 2.40255 13.4984H13.5976C13.803 13.4984 14 13.4168 14.1452 13.2716C14.2904 13.1264 14.372 12.9294 14.372 12.724V8.67363L12.0242 3.98486L12.0233 3.98315C11.9592 3.85413 11.8604 3.74556 11.738 3.66963C11.6156 3.59373 11.4744 3.55346 11.3304 3.55337C11.3303 3.55337 11.3304 3.55337 11.3304 3.55337H4.66988C4.52582 3.55344 4.38463 3.59371 4.26219 3.66963C4.13975 3.74556 4.04092 3.85413 3.97681 3.98315L3.41709 3.70502Z" fill="#6D7782"/>
</svg>
