<svg width="16" height="17" viewBox="0 0 16 17" fill="none" xmlns="http://www.w3.org/2000/svg">
<g clip-path="url(#clip0_24_122)">
<path d="M7.80005 0.675179C8.90461 0.675179 9.80005 1.57062 9.80005 2.67518C9.80005 3.77974 8.90461 4.67518 7.80005 4.67518C6.69549 4.67518 5.80005 3.77974 5.80005 2.67518C5.80005 1.57062 6.69549 0.675179 7.80005 0.675179ZM9.30005 5.17518H8.94505C8.23533 5.50152 7.39536 5.51562 6.65505 5.17518H6.30005C5.47161 5.17518 4.80005 5.84674 4.80005 6.67518V10.9252C4.80005 11.3394 5.13583 11.6752 5.55005 11.6752H6.05005V15.9252C6.05005 16.3394 6.38583 16.6752 6.80005 16.6752H8.80005C9.21427 16.6752 9.55005 16.3394 9.55005 15.9252V11.6752H10.05C10.4643 11.6752 10.8 11.3394 10.8 10.9252V6.67518C10.8 5.84674 10.1285 5.17518 9.30005 5.17518Z" fill="#6D7782"/>
</g>
<defs>
<clipPath id="clip0_24_122">
<rect width="16" height="16" fill="white" transform="translate(0 0.675179)"/>
</clipPath>
</defs>
</svg>
