<svg width="16" height="17" viewBox="0 0 16 17" fill="none" xmlns="http://www.w3.org/2000/svg">
<path fill-rule="evenodd" clip-rule="evenodd" d="M1.63474 2.33591C1.81382 2.15683 2.08326 2.10352 2.31704 2.20092L14.1635 7.13636C14.4035 7.23635 14.5565 7.47448 14.5478 7.73433C14.539 7.99418 14.3703 8.22148 14.1241 8.30509L9.25703 9.9582L7.60392 14.8253C7.5203 15.0715 7.29301 15.2402 7.03316 15.249C6.77331 15.2577 6.53518 15.1047 6.43519 14.8647L1.49975 3.01821C1.40235 2.78443 1.45566 2.51499 1.63474 2.33591ZM3.23727 3.93845L6.95258 12.8562L8.17252 9.26448C8.23498 9.08057 8.3794 8.93615 8.56331 8.87369L12.1551 7.65376L3.23727 3.93845Z" fill="#6D7782"/>
<path fill-rule="evenodd" clip-rule="evenodd" d="M8.61543 9.31674C8.85951 9.07266 9.25524 9.07266 9.49931 9.31674L13.6878 13.5052C13.9319 13.7493 13.9319 14.145 13.6878 14.3891C13.4437 14.6332 13.048 14.6332 12.8039 14.3891L8.61543 10.2006C8.37135 9.95654 8.37135 9.56081 8.61543 9.31674Z" fill="#6D7782"/>
</svg>
