<svg width="16" height="17" viewBox="0 0 16 17" fill="none" xmlns="http://www.w3.org/2000/svg">
<path fill-rule="evenodd" clip-rule="evenodd" d="M1.21143 6.73679C1.21127 6.74252 1.21118 6.74824 1.21118 6.75397V6.75482V13.5349C1.21118 14.5581 2.04574 15.3927 3.06893 15.3927H12.9309C13.9541 15.3927 14.7886 14.5581 14.7886 13.5349V7.61347C14.7888 7.60761 14.7889 7.60173 14.7889 7.59583V6.03036C14.7889 5.82641 14.6894 5.63529 14.5223 5.51834L12.9983 4.45158V3.67592C12.9983 2.84966 12.3249 2.17623 11.4986 2.17623L9.74784 2.17623L8.35856 1.20373C8.14336 1.05309 7.85693 1.05309 7.64173 1.20373L6.25245 2.17623L4.50116 2.17623C3.67491 2.17623 3.00148 2.84966 3.00148 3.67591L3.00148 4.45191L1.47801 5.51834C1.31093 5.63529 1.21143 5.82641 1.21143 6.03036V6.73679ZM2.46143 6.42954L3.00148 6.80758V5.97773L2.46143 6.35577V6.42954ZM4.25148 7.68258L7.99995 10.3065L11.7483 7.68264V3.67592C11.7483 3.54002 11.6345 3.42623 11.4986 3.42623L4.50116 3.42623C4.36527 3.42623 4.25148 3.54001 4.25148 3.67591L4.25148 7.68258ZM12.9983 6.80765L13.5389 6.42928V6.35577L12.9983 5.9774V6.80765ZM2.46118 13.5349V7.95519L7.64154 11.5814C7.85674 11.7321 8.14317 11.7321 8.35837 11.5814L13.5386 7.95527V13.5349C13.5386 13.8677 13.2637 14.1427 12.9309 14.1427H3.06893C2.73609 14.1427 2.46118 13.8677 2.46118 13.5349Z" fill="#6D7782"/>
</svg>
