<svg width="16" height="16" viewBox="0 0 16 16" fill="none" xmlns="http://www.w3.org/2000/svg">
<path d="M13.3 1H2.30005C1.47161 1 0.800049 1.67156 0.800049 2.5V13.5C0.800049 14.3284 1.47161 15 2.30005 15H13.3C14.1285 15 14.8 14.3284 14.8 13.5V2.5C14.8 1.67156 14.1285 1 13.3 1ZM13.8 13.5C13.8 13.7757 13.5757 14 13.3 14H2.30005C2.02436 14 1.80005 13.7757 1.80005 13.5V2.5C1.80005 2.22431 2.02436 2 2.30005 2H13.3C13.5757 2 13.8 2.22431 13.8 2.5V13.5ZM3.90989 11.7134C3.76346 11.5669 3.76346 11.3295 3.90989 11.183L10.0083 5.08459L9.98624 5.0625L7.17505 5.07319C6.96796 5.07319 6.80005 4.90528 6.80005 4.69819V4.38572C6.80005 4.17859 6.96792 4.01072 7.17505 4.01072L11.425 4C11.6321 4 11.8 4.16788 11.8 4.375L11.7893 8.625C11.7893 8.83209 11.6214 9 11.4143 9H11.1019C10.8948 9 10.7269 8.83209 10.7269 8.625L10.7375 5.81381L10.7155 5.79172L4.61702 11.8902C4.47058 12.0366 4.23314 12.0366 4.08667 11.8902L3.90989 11.7134V11.7134Z" fill="#6D7782"/>
</svg>
