<svg width="16" height="17" viewBox="0 0 16 17" fill="none" xmlns="http://www.w3.org/2000/svg">
<g clip-path="url(#clip0_24_70)">
<path fill-rule="evenodd" clip-rule="evenodd" d="M8.6562 1.07321H7.3437C7.22703 1.07321 7.1687 1.13154 7.1687 1.24821V8.11697H0.650098C0.533431 8.11697 0.475098 8.17531 0.475098 8.29197V9.60447C0.475098 9.72114 0.533431 9.77947 0.650098 9.77947H7.1687V16.6482C7.1687 16.7649 7.22703 16.8232 7.3437 16.8232H8.6562C8.77287 16.8232 8.8312 16.7649 8.8312 16.6482V9.77947H15.3501C15.4668 9.77947 15.5251 9.72114 15.5251 9.60447V8.29197C15.5251 8.17531 15.4668 8.11697 15.3501 8.11697H8.8312V1.24821C8.8312 1.13154 8.77287 1.07321 8.6562 1.07321Z" fill="#6D7782"/>
</g>
<defs>
<clipPath id="clip0_24_70">
<rect width="16" height="16" fill="white" transform="translate(0 0.948212)"/>
</clipPath>
</defs>
</svg>
