<svg width="16" height="17" viewBox="0 0 16 17" fill="none" xmlns="http://www.w3.org/2000/svg">
<g clip-path="url(#clip0_24_18)">
<path d="M15.9312 7.13527L14 5.58214V3.20714C14 3.10401 13.9156 3.01964 13.8125 3.01964H13.1875C13.0843 3.01964 13 3.10401 13 3.20714V4.77276L8.6281 1.24776C8.26248 0.95089 7.73748 0.95089 7.37185 1.24776L0.0687261 7.13527C-0.0125239 7.20089 -0.0250239 7.31964 0.0406011 7.39776L0.434351 7.88527C0.499976 7.96652 0.618726 7.97902 0.699976 7.91339L1.99998 6.86651V14.0228C1.99998 14.5759 2.44685 15.0228 2.99998 15.0228H6.62498C6.83123 15.0228 6.99998 14.854 6.99998 14.6478V10.5196L8.99998 10.529V14.6603C8.99998 14.8665 9.16873 15.0353 9.37498 15.0353L13 15.0259C13.5531 15.0259 14 14.579 14 14.0259V6.86964L15.3 7.91652C15.3812 7.98214 15.5 7.96964 15.5656 7.88839L15.9593 7.40089C16.025 7.31964 16.0093 7.20089 15.9312 7.13527V7.13527ZM13 14.0259L9.99997 14.0353V9.90089C9.99997 9.69464 9.83122 9.52589 9.62498 9.52589L6.37498 9.51652C6.16873 9.51652 5.99998 9.68527 5.99998 9.89152V14.0259H2.99998V6.06027L7.88123 2.12276C7.94998 2.06651 8.04685 2.06651 8.1156 2.12276L12.9968 6.06027V14.0259H13Z" fill="#6D7782"/>
</g>
<defs>
<clipPath id="clip0_24_18">
<rect width="16" height="16" fill="white" transform="translate(0 0.0258942)"/>
</clipPath>
</defs>
</svg>
