<svg width="16" height="17" viewBox="0 0 16 17" fill="none" xmlns="http://www.w3.org/2000/svg">
<g clip-path="url(#clip0_24_104)">
<path d="M8 11.3002C7.51675 11.3002 7.125 11.6919 7.125 12.1752C7.125 12.6584 7.51675 13.0502 8 13.0502C8.48325 13.0502 8.875 12.6584 8.875 12.1752C8.875 11.6919 8.48325 11.3002 8 11.3002ZM8.23969 10.5502H7.73969C7.53259 10.5502 7.36469 10.3823 7.36469 10.1752V10.1633C7.36469 7.96505 9.78469 8.17518 9.78469 6.80677C9.78469 6.18127 9.22966 5.55018 7.98969 5.55018C7.07894 5.55018 6.60641 5.85171 6.13934 6.4468C6.01722 6.60243 5.79391 6.63415 5.63159 6.52105L5.22116 6.23512C5.04537 6.11265 5.00678 5.86727 5.1385 5.69833C5.80181 4.84749 6.58881 4.30018 7.98969 4.30018C9.62469 4.30018 11.0347 5.2299 11.0347 6.80677C11.0347 8.91346 8.61469 8.80205 8.61469 10.1633V10.1752C8.61469 10.3823 8.44678 10.5502 8.23969 10.5502ZM8 1.92518C11.7069 1.92518 14.75 4.92752 14.75 8.67518C14.75 12.403 11.7309 15.4252 8 15.4252C4.27362 15.4252 1.25 12.4076 1.25 8.67518C1.25 4.95008 4.26881 1.92518 8 1.92518ZM8 0.925179C3.72009 0.925179 0.25 4.39652 0.25 8.67518C0.25 12.9563 3.72009 16.4252 8 16.4252C12.2799 16.4252 15.75 12.9563 15.75 8.67518C15.75 4.39652 12.2799 0.925179 8 0.925179Z" fill="#6D7782"/>
</g>
<defs>
<clipPath id="clip0_24_104">
<rect width="16" height="16" fill="white" transform="translate(0 0.675179)"/>
</clipPath>
</defs>
</svg>
