<svg width="16" height="17" viewBox="0 0 16 17" fill="none" xmlns="http://www.w3.org/2000/svg">
<g clip-path="url(#clip0_24_36)">
<path d="M15.375 0.925179H15.0625C14.8554 0.925179 14.6875 1.09308 14.6875 1.30018V4.75727C13.3415 2.46458 10.8507 0.925179 8 0.925179C3.85087 0.925179 0.46325 4.18574 0.259688 8.28433C0.249094 8.4974 0.421094 8.67518 0.634406 8.67518H0.947406C1.14594 8.67518 1.31134 8.52052 1.32169 8.32227C1.50491 4.80693 4.40928 1.98768 8 1.98768C10.5894 1.98768 12.8355 3.45883 13.9465 5.61268H10.375C10.1679 5.61268 10 5.78058 10 5.98768V6.30018C10 6.50727 10.1679 6.67518 10.375 6.67518H15.375C15.5821 6.67518 15.75 6.50727 15.75 6.30018V1.30018C15.75 1.09308 15.5821 0.925179 15.375 0.925179ZM15.3656 8.67518H15.0526C14.8541 8.67518 14.6887 8.82983 14.6783 9.02808C14.495 12.5551 11.5796 15.3627 8 15.3627C5.4185 15.3627 3.1665 13.8954 2.05316 11.7377H5.625C5.83209 11.7377 6 11.5698 6 11.3627V11.0502C6 10.8431 5.83209 10.6752 5.625 10.6752H0.625C0.417906 10.6752 0.25 10.8431 0.25 11.0502V16.0502C0.25 16.2573 0.417906 16.4252 0.625 16.4252H0.9375C1.14459 16.4252 1.3125 16.2573 1.3125 16.0502V12.5931C2.65847 14.8858 5.14928 16.4252 8 16.4252C12.1492 16.4252 15.5368 13.1646 15.7403 9.06602C15.7509 8.85296 15.5789 8.67518 15.3656 8.67518Z" fill="#6D7782"/>
</g>
<defs>
<clipPath id="clip0_24_36">
<rect width="16" height="16" fill="white" transform="translate(0 0.675179)"/>
</clipPath>
</defs>
</svg>
