<svg width="16" height="17" viewBox="0 0 16 17" fill="none" xmlns="http://www.w3.org/2000/svg">
<g clip-path="url(#clip0_24_74)">
<path d="M6.13343 10.3761H5.6001C5.45343 10.3761 5.33343 10.4886 5.33343 10.6261V13.6261C5.33343 13.7636 5.45343 13.8761 5.6001 13.8761H6.13343C6.2801 13.8761 6.4001 13.7636 6.4001 13.6261V10.6261C6.4001 10.4886 6.2801 10.3761 6.13343 10.3761ZM8.26676 7.37607H7.73343C7.58676 7.37607 7.46676 7.48857 7.46676 7.62607V13.6261C7.46676 13.7636 7.58676 13.8761 7.73343 13.8761H8.26676C8.41343 13.8761 8.53343 13.7636 8.53343 13.6261V7.62607C8.53343 7.48857 8.41343 7.37607 8.26676 7.37607ZM9.6001 9.62607V13.6261C9.6001 13.7636 9.7201 13.8761 9.86676 13.8761H10.4001C10.5468 13.8761 10.6668 13.7636 10.6668 13.6261V9.62607C10.6668 9.48857 10.5468 9.37607 10.4001 9.37607H9.86676C9.7201 9.37607 9.6001 9.48857 9.6001 9.62607ZM13.9301 3.43795L11.1341 0.816697C10.8341 0.535447 10.4274 0.376072 10.0044 0.376072H3.19976C2.31676 0.379197 1.6001 1.05107 1.6001 1.87888V14.8764C1.6001 15.7042 2.31676 16.3761 3.19976 16.3761H12.8004C13.6834 16.3761 14.4001 15.7042 14.4001 14.8764V4.50013C14.4001 4.10357 14.2301 3.7192 13.9301 3.43795V3.43795ZM10.1344 1.39451C10.2278 1.41638 10.3111 1.46013 10.3811 1.52576L13.1771 4.14701C13.2471 4.21263 13.2938 4.29076 13.3171 4.37826H10.1344V1.39451V1.39451ZM13.3338 14.8764C13.3338 15.1514 13.0938 15.3764 12.8004 15.3764H3.19976C2.90643 15.3764 2.66643 15.1514 2.66643 14.8764V1.87888C2.66643 1.60388 2.90643 1.37607 3.19976 1.37607H9.06776V4.62826C9.06776 5.04388 9.42443 5.37607 9.86776 5.37607H13.3338V14.8764Z" fill="#6D7782"/>
</g>
<defs>
<clipPath id="clip0_24_74">
<rect width="16" height="16" fill="white" transform="translate(0 0.376072)"/>
</clipPath>
</defs>
</svg>
