<svg width="16" height="17" viewBox="0 0 16 17" fill="none" xmlns="http://www.w3.org/2000/svg">
<g clip-path="url(#clip0_24_125)">
<path fill-rule="evenodd" clip-rule="evenodd" d="M14.7331 2.56377C14.9284 2.75904 14.9284 3.07562 14.7331 3.27088L7.71561 10.2884C7.52035 10.4837 7.20377 10.4837 7.00851 10.2884C6.81325 10.0931 6.81325 9.77656 7.00851 9.5813L14.026 2.56377C14.2213 2.36851 14.5379 2.36851 14.7331 2.56377Z" fill="#6D7782"/>
<path fill-rule="evenodd" clip-rule="evenodd" d="M14.733 2.56377C14.8689 2.69959 14.9149 2.90121 14.8514 3.0825L10.3857 15.8416C10.318 16.0351 10.139 16.1677 9.93418 16.176C9.72934 16.1844 9.54016 16.0669 9.45689 15.8795L6.98317 10.3137L1.41729 7.83993C1.22995 7.75667 1.11242 7.56748 1.12078 7.36264C1.12914 7.1578 1.26169 6.97882 1.45519 6.91109L14.2143 2.4454C14.3956 2.38194 14.5972 2.42795 14.733 2.56377ZM2.9759 7.43833L7.56504 9.47794C7.67816 9.52822 7.76861 9.61867 7.81888 9.73178L9.8585 14.3209L13.5645 3.73231L2.9759 7.43833Z" fill="#6D7782"/>
</g>
<defs>
<clipPath id="clip0_24_125">
<rect width="16" height="16" fill="white" transform="translate(0 0.948212)"/>
</clipPath>
</defs>
</svg>
