<svg width="16" height="16" viewBox="0 0 16 16" fill="none" xmlns="http://www.w3.org/2000/svg">
<path d="M14.8 13C14.8 14.6568 13.4569 16 11.8 16C10.1432 16 8.80005 14.6568 8.80005 13C8.80005 12.5948 8.88055 12.2085 9.02614 11.8559L6.04333 9.99166C5.49377 10.6102 4.69249 11 3.80005 11C2.14321 11 0.800049 9.65684 0.800049 8C0.800049 6.34316 2.14321 5 3.80005 5C4.69249 5 5.49377 5.38984 6.0433 6.00834L9.02611 4.14406C8.88055 3.79147 8.80005 3.40516 8.80005 3C8.80005 1.34316 10.1432 0 11.8 0C13.4569 0 14.8 1.34316 14.8 3C14.8 4.65684 13.4569 6 11.8 6C10.9076 6 10.1063 5.61016 9.5568 4.99166L6.57396 6.85591C6.87586 7.58703 6.87524 8.41434 6.57396 9.14403L9.5568 11.0083C10.1063 10.3898 10.9076 10 11.8 10C13.4569 10 14.8 11.3432 14.8 13ZM11.8 1C10.6972 1 9.80005 1.89719 9.80005 3C9.80005 4.10281 10.6972 5 11.8 5C12.9029 5 13.8 4.10281 13.8 3C13.8 1.89719 12.9029 1 11.8 1ZM3.80005 6C2.69724 6 1.80005 6.89719 1.80005 8C1.80005 9.10281 2.69724 10 3.80005 10C4.90286 10 5.80005 9.10281 5.80005 8C5.80005 6.89719 4.90286 6 3.80005 6ZM11.8 11C10.6972 11 9.80005 11.8972 9.80005 13C9.80005 14.1028 10.6972 15 11.8 15C12.9029 15 13.8 14.1028 13.8 13C13.8 11.8972 12.9029 11 11.8 11Z" fill="#6D7782"/>
</svg>
