<svg width="16" height="17" viewBox="0 0 16 17" fill="none" xmlns="http://www.w3.org/2000/svg">
<path d="M8.86725 10.2852L8.72941 10.1474C8.63804 10.056 8.4899 10.056 8.39851 10.1474L4.91834 13.6276L4.91834 6.29873C4.91834 6.16952 4.81358 6.06476 4.68437 6.06476L4.4894 6.06476C4.36019 6.06476 4.25543 6.16952 4.25543 6.29873L4.25543 13.6276L0.775253 10.1474C0.683888 10.056 0.535746 10.056 0.444362 10.1474L0.306515 10.2852C0.21515 10.3766 0.21515 10.5248 0.306515 10.6161L4.42145 14.7311C4.51281 14.8224 4.66095 14.8224 4.75234 14.7311L8.86725 10.6161C8.95864 10.5248 8.95864 10.3766 8.86725 10.2852Z" fill="#6D7782"/>
<path fill-rule="evenodd" clip-rule="evenodd" d="M8.8708 10.006L9.00862 10.1438C9.00863 10.1438 9.00861 10.1438 9.00862 10.1438C9.1781 10.3133 9.17812 10.5881 9.00864 10.7575C9.00863 10.7575 9.00864 10.7575 9.00864 10.7575L4.89373 14.8725C4.72425 15.0419 4.44947 15.042 4.27999 14.8725L0.165058 10.7575C-0.00440861 10.5881 -0.00441165 10.3133 0.165048 10.1438C0.165051 10.1438 0.165045 10.1438 0.165048 10.1438L0.302895 10.006C0.472372 9.83652 0.747161 9.83647 0.916639 10.0059L4.05539 13.1447L4.05539 6.29871C4.05539 6.05905 4.2497 5.86475 4.48936 5.86475L4.68434 5.86475C4.924 5.86475 5.1183 6.05905 5.1183 6.29871L5.1183 13.1447L8.25706 10.0059C8.42653 9.83651 8.70132 9.83648 8.8708 10.006ZM4.9183 13.6275L4.9183 6.29871C4.9183 6.16951 4.81355 6.06475 4.68434 6.06475L4.48936 6.06475C4.36015 6.06475 4.25539 6.16951 4.25539 6.29871L4.25539 13.6275L0.775217 10.1474C0.683852 10.056 0.535711 10.056 0.444326 10.1474L0.306479 10.2852C0.215114 10.3766 0.215114 10.5247 0.306479 10.6161L4.42141 14.7311C4.51278 14.8224 4.66092 14.8224 4.7523 14.7311L8.86722 10.6161C8.9586 10.5247 8.9586 10.3766 8.86722 10.2852L8.72937 10.1474C8.638 10.056 8.48986 10.056 8.39848 10.1474L4.9183 13.6275Z" fill="#6D7782"/>
<path d="M7.13275 7.61116L7.27059 7.74903C7.36196 7.84039 7.5101 7.84039 7.60148 7.74903L11.0817 4.26886L11.0817 11.5977C11.0817 11.7269 11.1864 11.8316 11.3156 11.8316L11.5106 11.8316C11.6398 11.8316 11.7446 11.7269 11.7446 11.5977L11.7446 4.26886L15.2247 7.74903C15.3161 7.84039 15.4643 7.84039 15.5556 7.74903L15.6935 7.61116C15.7848 7.5198 15.7848 7.37166 15.6935 7.28029L11.5786 3.16534C11.4872 3.07398 11.339 3.07398 11.2477 3.16534L7.13275 7.28029C7.04136 7.37166 7.04136 7.5198 7.13275 7.61116Z" fill="#6D7782"/>
<path fill-rule="evenodd" clip-rule="evenodd" d="M7.1292 7.89044L6.99138 7.7526C6.99137 7.75259 6.99139 7.7526 6.99138 7.7526C6.8219 7.58313 6.82188 7.30833 6.99136 7.13887C6.99137 7.13886 6.99136 7.13887 6.99136 7.13887L11.1063 3.02392C11.2758 2.85448 11.5505 2.85444 11.72 3.02392L15.8349 7.13887C16.0044 7.30833 16.0044 7.5831 15.835 7.75257C15.8349 7.75257 15.835 7.75257 15.835 7.75257L15.6971 7.89044C15.5276 8.05988 15.2528 8.05992 15.0834 7.89045L11.9446 4.7517L11.9446 11.5977C11.9446 11.8373 11.7503 12.0316 11.5106 12.0316L11.3157 12.0316C11.076 12.0316 10.8817 11.8373 10.8817 11.5977L10.8817 4.7517L7.74294 7.89045C7.57347 8.05989 7.29868 8.05991 7.1292 7.89044ZM11.0817 4.26885L11.0817 11.5977C11.0817 11.7269 11.1865 11.8316 11.3157 11.8316L11.5106 11.8316C11.6398 11.8316 11.7446 11.7269 11.7446 11.5977L11.7446 4.26885L15.2248 7.74903C15.3161 7.84039 15.4643 7.84039 15.5557 7.74903L15.6935 7.61116C15.7849 7.51979 15.7849 7.37165 15.6935 7.28029L11.5786 3.16534C11.4872 3.07398 11.3391 3.07398 11.2477 3.16534L7.13278 7.28029C7.0414 7.37165 7.0414 7.51979 7.13278 7.61116L7.27063 7.74903C7.362 7.84039 7.51014 7.84039 7.60152 7.74903L11.0817 4.26885Z" fill="#6D7782"/>
</svg>
