<svg width="16" height="17" viewBox="0 0 16 17" fill="none" xmlns="http://www.w3.org/2000/svg">
<g clip-path="url(#clip0_24_51)">
<path d="M15.857 4.52602C15.7838 4.23008 15.5551 3.9954 15.2613 3.91321C14.9654 3.83165 14.6473 3.91321 14.4285 4.13133L12.4326 6.12727L11.0498 5.89727L10.8191 4.51477L12.8151 2.51883C13.032 2.30258 13.1157 1.98477 13.0338 1.68946C12.952 1.39352 12.7154 1.16352 12.4166 1.08946C10.8001 0.688521 9.12352 1.15258 7.94195 2.33258C6.75945 3.51602 6.31039 5.22383 6.73508 6.85446L0.693516 12.8948C-0.231172 13.8207 -0.231172 15.327 0.693516 16.2526C1.14195 16.701 1.73852 16.9482 2.3732 16.9482C3.00789 16.9482 3.60352 16.701 4.05164 16.2526L10.0873 10.2179C11.7132 10.647 13.4248 10.1954 14.6151 9.00477C15.7966 7.82321 16.2613 6.14883 15.857 4.52602V4.52602ZM13.9082 8.2979C12.9123 9.29196 11.4573 9.63008 10.1029 9.18008L9.80977 9.08196L3.34477 15.5457C2.82539 16.0651 1.92008 16.0651 1.4007 15.5457C0.865703 15.0101 0.865703 14.1376 1.4007 13.6016L7.86977 7.13352L7.7732 6.84165C7.32602 5.48383 7.66195 4.02727 8.64914 3.03946C9.35883 2.32946 10.2951 1.94821 11.2676 1.94821C11.4823 1.94821 11.6991 1.96665 11.9151 2.00477L9.74914 4.17196L10.1807 6.76633L12.7763 7.19821L14.942 5.03102C15.152 6.22633 14.7751 7.43071 13.9082 8.2979ZM2.50008 13.9482C2.22383 13.9482 2.00008 14.172 2.00008 14.4482C2.00008 14.7245 2.22383 14.9482 2.50008 14.9482C2.77633 14.9482 3.00008 14.7245 3.00008 14.4482C3.00008 14.172 2.77633 13.9482 2.50008 13.9482Z" fill="#6D7782"/>
</g>
<defs>
<clipPath id="clip0_24_51">
<rect width="16" height="16" fill="white" transform="translate(0 0.948212)"/>
</clipPath>
</defs>
</svg>
