<svg width="16" height="17" viewBox="0 0 16 17" fill="none" xmlns="http://www.w3.org/2000/svg">
<g clip-path="url(#clip0_24_63)">
<path d="M6.49582 4.9628C6.34938 4.81637 6.34938 4.57893 6.49582 4.43246L9.06328 1.86499C10.6511 0.277085 13.221 0.277398 14.8085 1.86499C16.3964 3.4528 16.3961 6.02274 14.8085 7.61021L12.241 10.1777C12.0946 10.3241 11.8572 10.3241 11.7107 10.1777L11.4455 9.91252C11.2991 9.76608 11.2991 9.52865 11.4455 9.38218L14.013 6.81471C15.1611 5.66655 15.161 3.80846 14.013 2.66046C12.8648 1.5123 11.0068 1.51246 9.85872 2.66043L7.29125 5.2279C7.14482 5.37434 6.90738 5.37434 6.76091 5.2279L6.49582 4.9628V4.9628ZM6.13985 14.6907C4.99454 15.8361 3.13091 15.8361 1.98557 14.6907C0.837568 13.5427 0.837475 11.6846 1.98557 10.5365L4.55401 7.96802C4.70044 7.82158 4.70044 7.58415 4.55401 7.43768L4.28885 7.17252C4.14241 7.02608 3.90497 7.02608 3.7585 7.17252L1.19007 9.74093C-0.397494 11.3284 -0.397838 13.8984 1.19007 15.4862C2.77401 17.0702 5.35138 17.0701 6.93529 15.4862L9.50372 12.9177C9.65016 12.7713 9.65016 12.5339 9.50372 12.3874L9.2386 12.1223C9.09216 11.9758 8.85472 11.9758 8.70825 12.1223L6.13985 14.6907V14.6907ZM0.374256 0.784054L0.1091 1.04921C-0.0373379 1.19565 -0.0373379 1.43309 0.1091 1.57955L15.094 16.5644C15.2404 16.7108 15.4778 16.7108 15.6243 16.5644L15.8895 16.2992C16.0359 16.1528 16.0359 15.9153 15.8895 15.7689L0.904599 0.784054C0.758162 0.637585 0.520724 0.637585 0.374256 0.784054V0.784054Z" fill="#6D7782"/>
</g>
<defs>
<clipPath id="clip0_24_63">
<rect width="16" height="16" fill="white" transform="translate(0 0.675179)"/>
</clipPath>
</defs>
</svg>
