<svg width="16" height="16" viewBox="0 0 16 16" fill="none" xmlns="http://www.w3.org/2000/svg">
<path fill-rule="evenodd" clip-rule="evenodd" d="M2.14142 4.30853C2.14142 3.82528 2.53317 3.43353 3.01642 3.43353L13.0232 3.43353C13.5065 3.43353 13.8982 3.82528 13.8982 4.30853C13.8982 4.79178 13.5065 5.18353 13.0232 5.18353L3.01642 5.18353C2.53317 5.18353 2.14142 4.79178 2.14142 4.30853Z" fill="#2A3843"/>
<path fill-rule="evenodd" clip-rule="evenodd" d="M2.14142 7.89949C2.14142 7.41624 2.53317 7.02449 3.01642 7.02449H8.00001C8.48326 7.02449 8.87501 7.41624 8.87501 7.89949C8.87501 8.38274 8.48326 8.77449 8.00001 8.77449H3.01642C2.53317 8.77449 2.14142 8.38274 2.14142 7.89949Z" fill="#2A3843"/>
<path fill-rule="evenodd" clip-rule="evenodd" d="M2.14142 11.551C2.14142 11.0677 2.53317 10.676 3.01642 10.676L10.673 10.676C11.1563 10.676 11.548 11.0677 11.548 11.551C11.548 12.0342 11.1563 12.426 10.673 12.426L3.01642 12.426C2.53317 12.426 2.14142 12.0342 2.14142 11.551Z" fill="#2A3843"/>
</svg>
