<svg width="16" height="16" viewBox="0 0 16 16" fill="none" xmlns="http://www.w3.org/2000/svg">
<path fill-rule="evenodd" clip-rule="evenodd" d="M2.14142 4.30853C2.14142 3.82528 2.53317 3.43353 3.01642 3.43353L13.0232 3.43353C13.5065 3.43353 13.8982 3.82528 13.8982 4.30853C13.8982 4.79178 13.5065 5.18353 13.0232 5.18353L3.01642 5.18353C2.53317 5.18353 2.14142 4.79178 2.14142 4.30853Z" fill="#2A3843"/>
<path fill-rule="evenodd" clip-rule="evenodd" d="M4.65302 7.89949C4.65302 7.41624 5.04477 7.02449 5.52802 7.02449H10.5116C10.9949 7.02449 11.3866 7.41624 11.3866 7.89949C11.3866 8.38274 10.9949 8.77449 10.5116 8.77449H5.52802C5.04477 8.77449 4.65302 8.38274 4.65302 7.89949Z" fill="#2A3843"/>
<path fill-rule="evenodd" clip-rule="evenodd" d="M3.3165 11.551C3.3165 11.0677 3.70825 10.676 4.1915 10.676L11.8481 10.676C12.3314 10.676 12.7231 11.0677 12.7231 11.551C12.7231 12.0342 12.3314 12.426 11.8481 12.426L4.1915 12.426C3.70825 12.426 3.3165 12.0342 3.3165 11.551Z" fill="#2A3843"/>
</svg>
