<svg width="16" height="16" viewBox="0 0 16 16" fill="none" xmlns="http://www.w3.org/2000/svg">
<path fill-rule="evenodd" clip-rule="evenodd" d="M2.14142 4.30853C2.14142 3.82528 2.53317 3.43353 3.01642 3.43353L13.0232 3.43353C13.5065 3.43353 13.8982 3.82528 13.8982 4.30853C13.8982 4.79178 13.5065 5.18353 13.0232 5.18353L3.01642 5.18353C2.53317 5.18353 2.14142 4.79178 2.14142 4.30853Z" fill="#2A3843"/>
<path fill-rule="evenodd" clip-rule="evenodd" d="M7.16461 7.89949C7.16461 7.41624 7.55636 7.02449 8.03961 7.02449H13.0232C13.5065 7.02449 13.8982 7.41624 13.8982 7.89949C13.8982 8.38274 13.5065 8.77449 13.0232 8.77449H8.03961C7.55636 8.77449 7.16461 8.38274 7.16461 7.89949Z" fill="#2A3843"/>
<path fill-rule="evenodd" clip-rule="evenodd" d="M4.49158 11.551C4.49158 11.0677 4.88333 10.676 5.36658 10.676L13.0232 10.676C13.5065 10.676 13.8982 11.0677 13.8982 11.551C13.8982 12.0342 13.5064 12.426 13.0232 12.426L5.36658 12.426C4.88333 12.426 4.49158 12.0342 4.49158 11.551Z" fill="#2A3843"/>
</svg>
