<svg width="16" height="16" viewBox="0 0 16 16" fill="none" xmlns="http://www.w3.org/2000/svg">
<path d="M8.0867 8.70877H3.62616C3.43818 8.70877 3.2579 8.6341 3.12498 8.50118C2.99206 8.36826 2.91739 8.18798 2.91739 8C2.91739 7.81202 2.99206 7.63174 3.12498 7.49882C3.2579 7.3659 3.43818 7.29123 3.62616 7.29123H8.0867C8.27468 7.29123 8.45496 7.3659 8.58788 7.49882C8.7208 7.63174 8.79547 7.81202 8.79547 8C8.79547 8.18798 8.7208 8.36826 8.58788 8.50118C8.45496 8.6341 8.27468 8.70877 8.0867 8.70877Z" fill="#2A3843"/>
<path d="M14.786 12.1084H1.21402C1.02578 12.106 0.84593 12.0302 0.712811 11.897C0.579692 11.7639 0.503833 11.5841 0.501404 11.3958V4.60417C0.503833 4.41593 0.579692 4.23608 0.712811 4.10296C0.84593 3.96984 1.02578 3.89399 1.21402 3.89156H14.786C14.9742 3.89399 15.1541 3.96984 15.2872 4.10296C15.4203 4.23608 15.4962 4.41593 15.4986 4.60417V11.3958C15.4962 11.5841 15.4203 11.7639 15.2872 11.897C15.1541 12.0302 14.9742 12.106 14.786 12.1084ZM1.89851 10.702H14.1015V5.29804H1.89851V10.702Z" fill="#2A3843"/>
</svg>
