<svg width="16" height="16" viewBox="0 0 16 16" fill="none" xmlns="http://www.w3.org/2000/svg">
<path d="M9.93129 7.05437C9.66564 6.92514 9.34257 6.98258 9.12718 7.1836C8.3518 7.92309 6.51385 9.7036 6.20513 10.3713C5.98257 10.8451 5.95385 11.3692 6.13334 11.8646C6.30565 12.3528 6.66462 12.7477 7.13847 12.9703C7.40411 13.0995 7.69129 13.1569 7.97129 13.1569C8.70359 13.1569 9.40718 12.7477 9.73744 12.0441C10.0533 11.3764 10.2687 8.8277 10.3477 7.76514C10.3621 7.45642 10.1969 7.17642 9.93129 7.05437ZM8.43077 11.4267C8.37334 11.5487 8.26564 11.6421 8.13641 11.6923C8.00718 11.7354 7.87077 11.7282 7.74154 11.6708C7.61949 11.6133 7.52616 11.5057 7.4759 11.3764C7.42565 11.2472 7.44 11.1108 7.49744 10.9887C7.59795 10.7949 8.10052 10.2421 8.72513 9.59591C8.6318 10.4862 8.51693 11.2185 8.43077 11.4267Z" fill="#2A3843"/>
<path d="M14.9856 9.06462C14.9856 9.04308 14.9928 9.01436 14.9928 8.99282C14.9928 5.13744 11.8554 2 8 2C4.14462 2 1 5.13744 1 9C1 9.02154 1.00718 9.05026 1.00718 9.0718C1.00718 9.07897 1 9.08615 1 9.09333C1 9.11487 1.00718 9.12923 1.01436 9.15077C1.04308 10.4718 1.43077 11.7426 2.1559 12.8482C2.37128 13.1785 2.81641 13.2718 3.15385 13.0492C3.4841 12.8338 3.57744 12.3887 3.35487 12.0513C2.90256 11.3692 2.61538 10.6082 2.50051 9.81128H3.06051C3.45538 9.81128 3.77846 9.48821 3.77846 9.09333C3.77846 8.69846 3.45538 8.37538 3.06051 8.37538H2.47179C2.57949 7.41333 2.93846 6.52308 3.46974 5.77641L3.94359 6.25026C4.08718 6.39385 4.26667 6.45846 4.45333 6.45846C4.64 6.45846 4.81949 6.38667 4.96308 6.25026C5.24308 5.97026 5.24308 5.51795 4.96308 5.23795L4.44615 4.72103C5.2359 4.06769 6.21231 3.62974 7.27487 3.48615V4.05333C7.27487 4.44821 7.59795 4.77128 7.99282 4.77128C8.38769 4.77128 8.71077 4.44821 8.71077 4.05333V3.48615C9.80923 3.62974 10.8 4.08923 11.6041 4.77128L11.1446 5.23077C10.8646 5.51077 10.8646 5.96308 11.1446 6.24308C11.2882 6.38667 11.4677 6.45128 11.6544 6.45128C11.841 6.45128 12.0205 6.37949 12.1641 6.24308L12.5733 5.83385C13.0831 6.57333 13.4205 7.43487 13.521 8.36821H12.9395C12.5446 8.36821 12.2215 8.69128 12.2215 9.08615C12.2215 9.48103 12.5446 9.8041 12.9395 9.8041H13.4995C13.3846 10.601 13.0903 11.3621 12.6451 12.0441C12.4297 12.3744 12.5159 12.8195 12.8462 13.0421C12.9682 13.121 13.1046 13.1641 13.241 13.1641C13.4708 13.1641 13.7005 13.0492 13.8441 12.841C14.5692 11.7354 14.9569 10.4646 14.9856 9.14359C14.9856 9.12205 15 9.10769 15 9.08615C14.9928 9.08615 14.9856 9.07897 14.9856 9.06462Z" fill="#2A3843"/>
</svg>
