<svg width="16" height="16" viewBox="0 0 16 16" fill="none" xmlns="http://www.w3.org/2000/svg">
<g clip-path="url(#clip0_1808_227)">
<path d="M4.0778 10.2771C4.52199 10.8147 5.5038 10.9081 6.71796 10.4584C6.82528 11.1679 7.17049 12.0108 7.81681 12.4453C8.25962 12.8137 8.86878 12.8426 9.47516 12.5331C10.2163 12.1549 10.0732 11.2089 9.96312 10.1611C9.78427 8.97853 9.74294 8.06548 10.11 7.45354C10.2462 7.55391 10.4153 7.55252 10.6174 7.44937L12.7735 6.34913C13.1104 6.17722 13.2093 5.87195 13.0374 5.53507L10.7682 1.08825C10.6307 0.818743 10.291 0.652386 9.95411 0.824298L7.79808 1.92454C7.66333 1.9933 7.56296 2.12944 7.49697 2.33296C7.39521 2.29997 7.26046 2.36873 7.1587 2.33574C6.3804 2.3083 5.46736 2.34963 4.65884 2.76221C3.31132 3.44986 2.98139 4.46745 2.92095 5.3475C2.69555 6.73635 3.12203 9.23621 4.0778 10.2771ZM8.81983 2.76188L10.0326 2.14299L11.7861 5.57917L10.5733 6.19805L8.81983 2.76188ZM4.03891 5.5413C4.2011 4.69424 4.36607 4.18544 5.17458 3.77286C5.71359 3.4978 6.49188 3.52523 7.16842 3.51968C7.43932 3.55128 7.7432 3.48113 7.91234 3.47974L9.42516 6.44429C8.41869 7.46743 8.66909 9.123 8.84795 10.3056C8.88511 10.7112 8.95804 11.3534 8.89205 11.5569C8.62255 11.6944 8.4864 11.594 8.38465 11.561C7.87446 11.2269 7.66261 10.1461 7.69283 9.70611C7.69144 9.53698 7.65567 9.30047 7.41777 9.16711C7.17987 9.03374 7.01074 9.03513 6.80861 9.13828C5.52846 9.79154 4.9523 9.66096 4.81615 9.56059C4.3032 8.88822 3.8795 6.72663 4.03891 5.5413Z" fill="#2A3843"/>
<path fill-rule="evenodd" clip-rule="evenodd" d="M9.78442 15.8495C9.51332 15.902 9.25096 15.7248 9.19842 15.4537L8.87206 13.7698C8.81952 13.4987 8.9967 13.2364 9.2678 13.1838C9.5389 13.1313 9.80126 13.3085 9.8538 13.5796L10.1802 15.2635C10.2327 15.5346 10.0555 15.7969 9.78442 15.8495Z" fill="#2A3843"/>
<path fill-rule="evenodd" clip-rule="evenodd" d="M12.7594 13.3785C12.6507 13.6323 12.3568 13.7501 12.103 13.6414L10.7633 13.068C10.5094 12.9594 10.3917 12.6655 10.5003 12.4116C10.609 12.1578 10.9029 12.04 11.1567 12.1487L12.4964 12.7221C12.7503 12.8307 12.868 13.1246 12.7594 13.3785Z" fill="#2A3843"/>
<path fill-rule="evenodd" clip-rule="evenodd" d="M12.3768 10.3133C12.4581 10.5772 12.3101 10.857 12.0462 10.9383L11.2828 11.1734C11.0189 11.2547 10.7391 11.1066 10.6578 10.8427C10.5765 10.5788 10.7246 10.299 10.9885 10.2177L11.7518 9.98258C12.0157 9.9013 12.2955 10.0493 12.3768 10.3133Z" fill="#2A3843"/>
<path fill-rule="evenodd" clip-rule="evenodd" d="M6.28594 14.6914C6.05977 14.533 6.00486 14.2212 6.1633 13.995L6.79389 13.0949C6.95233 12.8687 7.26411 12.8138 7.49028 12.9722C7.71645 13.1307 7.77135 13.4425 7.61291 13.6686L6.98233 14.5688C6.82389 14.7949 6.5121 14.8498 6.28594 14.6914Z" fill="#2A3843"/>
</g>
<defs>
<clipPath id="clip0_1808_227">
<rect width="16" height="16" fill="white"/>
</clipPath>
</defs>
</svg>
