<svg width="16" height="16" viewBox="0 0 16 16" fill="none" xmlns="http://www.w3.org/2000/svg">
<path d="M2.01089 9.66848C2.19146 10.481 3.18455 11.113 4.71934 11.2936C4.4485 12.1061 4.35822 13.1895 4.80962 14.002C5.08047 14.634 5.71244 14.9951 6.52498 14.9951C7.51808 14.9951 7.8792 13.9117 8.33061 12.7381C8.78202 11.3838 9.23343 10.3907 9.95568 9.93933C10.046 10.1199 10.2265 10.2102 10.4974 10.2102L13.3864 10.2102C13.8378 10.2102 14.1086 9.93933 14.1086 9.48792L14.1086 3.52932C14.1086 3.1682 13.8378 2.80707 13.3864 2.80707L10.4974 2.80707C10.3168 2.80707 10.1362 2.89735 9.95568 3.07791C9.8654 2.98763 9.68484 2.98763 9.59456 2.89735C8.78202 2.44594 7.78892 1.99453 6.70554 1.99453C4.89991 1.99453 3.99709 2.89735 3.4554 3.80017C2.4623 5.15439 1.55948 8.04341 2.01089 9.66848ZM11.1293 4.25158L12.7544 4.25158L12.7544 8.85594L11.1293 8.85594L11.1293 4.25158ZM4.53878 4.6127C5.17075 3.80017 5.62216 3.34876 6.70554 3.34876C7.4278 3.34876 8.24033 3.80017 8.96259 4.16129C9.23343 4.34186 9.59456 4.43214 9.77512 4.52242L9.77512 8.49482C8.15005 9.03651 7.51808 10.9324 7.06667 12.2866C6.8861 12.7381 6.61526 13.4603 6.4347 13.6409C6.07357 13.6409 5.98329 13.4603 5.89301 13.37C5.53188 12.7381 5.89301 11.4741 6.16385 11.0227C6.25413 10.8421 6.34441 10.5713 6.16385 10.3005C5.98329 10.0296 5.80272 9.93932 5.53188 9.93932C3.81653 9.93932 3.27484 9.48792 3.18455 9.30735C3.00399 8.31425 3.72624 5.78637 4.53878 4.6127Z" fill="#2A3843"/>
</svg>
