<svg width="16" height="16" viewBox="0 0 16 16" fill="none" xmlns="http://www.w3.org/2000/svg">
<path fill-rule="evenodd" clip-rule="evenodd" d="M10.3877 9.6713C10.6413 9.99886 10.5813 10.4699 10.2537 10.7235L8.76512 11.8757C8.31463 12.2244 7.68537 12.2244 7.23489 11.8757L5.7463 10.7235C5.41874 10.4699 5.35874 9.99886 5.61228 9.6713C5.86582 9.34375 6.33688 9.28374 6.66444 9.53728L7.25 9.99052L7.25001 7.74463C7.25001 7.33042 7.5858 6.99463 8.00001 6.99463C8.41422 6.99464 8.75001 7.33042 8.75001 7.74464L8.75 9.99053L9.33557 9.53728C9.66313 9.28374 10.1342 9.34375 10.3877 9.6713Z" fill="#2A3843"/>
<path fill-rule="evenodd" clip-rule="evenodd" d="M11.595 12.995V5.5687L9.32472 3.005H4.40497V12.995H11.595ZM10.2985 1.84203L12.8437 4.71616C13.0056 4.89904 13.095 5.13486 13.095 5.37913V13.495C13.095 14.0473 12.6473 14.495 12.095 14.495H3.90497C3.35268 14.495 2.90497 14.0473 2.90497 13.495V2.505C2.90497 1.95272 3.35268 1.505 3.90497 1.505H9.54982C9.8361 1.505 10.1087 1.6277 10.2985 1.84203Z" fill="#2A3843"/>
<path fill-rule="evenodd" clip-rule="evenodd" d="M8.91968 2.14146C9.33389 2.14146 9.66968 2.47725 9.66968 2.89146V4.98967C9.66968 5.12774 9.78161 5.23967 9.91968 5.23967H11.8875C12.3017 5.23967 12.6375 5.57546 12.6375 5.98967C12.6375 6.40388 12.3017 6.73967 11.8875 6.73967H9.91968C8.95318 6.73967 8.16968 5.95617 8.16968 4.98967V2.89146C8.16968 2.47725 8.50546 2.14146 8.91968 2.14146Z" fill="#2A3843"/>
</svg>
