<svg width="16" height="16" viewBox="0 0 16 16" fill="none" xmlns="http://www.w3.org/2000/svg">
<path d="M13.8 9.69999L11.8 9.39999C11.4 9.39999 11 9.59999 11 10.1C10.9 10.5 11.2 10.8 11.6 10.9L13 11.1V12.5H3.5V11.1L4.8 10.9C5.2 10.8 5.5 10.5 5.4 10.1C5.4 9.59999 5.1 9.39999 4.7 9.39999L2.7 9.69999C2.3 9.69999 2 9.99999 2 10.4V13.2C2 13.6 2.3 14 2.8 14H13.8C14.2 14 14.6 13.7 14.6 13.2V10.4C14.5 9.99999 14.2 9.69999 13.8 9.69999Z" fill="#2A3843"/>
<path d="M7.79996 10.2C7.79996 10.2 7.89996 10.2 7.89996 10.3C7.89996 10.3 7.99996 10.3 7.99996 10.4C8.09996 10.4 8.19996 10.5 8.29996 10.5C8.39996 10.5 8.49996 10.5 8.59996 10.4C8.59996 10.4 8.69996 10.4 8.69996 10.3C8.69996 10.3 8.79996 10.3 8.79996 10.2L11.8 7.7C12.1 7.4 12.2 7 11.9 6.6C11.6 6.4 11.1 6.3 10.8 6.6L8.99996 8.1V2.8C8.99996 2.3 8.69996 2 8.19996 2C7.69996 2 7.49996 2.3 7.49996 2.8V8.1L5.69996 6.6C5.39996 6.3 4.89996 6.4 4.59996 6.7C4.39996 7 4.39996 7.5 4.69996 7.8L7.79996 10.2Z" fill="#2A3843"/>
</svg>
