<svg width="16" height="16" viewBox="0 0 16 16" fill="none" xmlns="http://www.w3.org/2000/svg">
<path d="M13.1296 3.04297H11.7306V2.46473C11.7306 2.27921 11.6569 2.1013 11.5257 1.97012C11.3945 1.83894 11.2166 1.76524 11.0311 1.76524C10.8456 1.76524 10.6677 1.83894 10.5365 1.97012C10.4053 2.1013 10.3316 2.27921 10.3316 2.46473V3.04297H5.63106V2.46473C5.63106 2.27921 5.55737 2.1013 5.42619 1.97012C5.29501 1.83894 5.11709 1.76524 4.93158 1.76524C4.74606 1.76524 4.56815 1.83894 4.43697 1.97012C4.30579 2.1013 4.23209 2.27921 4.23209 2.46473V3.04297H2.87042C2.37572 3.04297 1.90127 3.23949 1.55146 3.58931C1.20165 3.93912 1.00513 4.41356 1.00513 4.90827V12.3695C1.00513 12.8642 1.20165 13.3386 1.55146 13.6884C1.90127 14.0382 2.37572 14.2348 2.87042 14.2348H13.1296C13.6243 14.2348 14.0987 14.0382 14.4485 13.6884C14.7983 13.3386 14.9949 12.8642 14.9949 12.3695V4.90827C14.9949 4.66332 14.9466 4.42076 14.8529 4.19445C14.7591 3.96814 14.6217 3.76251 14.4485 3.58931C14.2753 3.4161 14.0697 3.2787 13.8434 3.18496C13.6171 3.09122 13.3745 3.04297 13.1296 3.04297V3.04297ZM13.5959 12.3695C13.5935 12.4924 13.5436 12.6096 13.4567 12.6966C13.3697 12.7835 13.2525 12.8334 13.1296 12.8358H2.87042C2.7475 12.8334 2.63027 12.7835 2.54333 12.6966C2.45638 12.6096 2.40649 12.4924 2.4041 12.3695V4.90827C2.40649 4.78534 2.45638 4.66811 2.54333 4.58117C2.63027 4.49423 2.7475 4.44433 2.87042 4.44195H4.2694V5.26268C4.2694 5.44819 4.34309 5.62611 4.47427 5.75729C4.60545 5.88847 4.78337 5.96216 4.96888 5.96216C5.1544 5.96216 5.33232 5.88847 5.4635 5.75729C5.59468 5.62611 5.66837 5.44819 5.66837 5.26268V4.44195H10.4062V5.26268C10.4062 5.44819 10.4799 5.62611 10.6111 5.75729C10.7423 5.88847 10.9202 5.96216 11.1057 5.96216C11.2912 5.96216 11.4691 5.88847 11.6003 5.75729C11.7315 5.62611 11.8052 5.44819 11.8052 5.26268V4.44195H13.1296C13.2525 4.44433 13.3697 4.49423 13.4567 4.58117C13.5436 4.66811 13.5935 4.78534 13.5959 4.90827V12.3695Z" fill="#2A3843"/>
<path d="M9.24973 7.14663L7.46837 9.4969L6.63831 8.80674C6.50077 8.70091 6.32841 8.65079 6.15557 8.66634C5.98273 8.6819 5.82209 8.762 5.70566 8.89068C5.64319 8.95804 5.5946 9.03704 5.56266 9.12318C5.53073 9.20932 5.51608 9.30091 5.51954 9.39271C5.523 9.48452 5.54452 9.57474 5.58285 9.65823C5.62119 9.74171 5.6756 9.81683 5.74297 9.87929L7.13261 11.0358C7.25838 11.1399 7.417 11.1961 7.58028 11.1943H7.6549C7.74872 11.1852 7.83957 11.1563 7.92152 11.1097C8.00347 11.0631 8.07469 10.9998 8.13055 10.9239L10.3596 7.99534C10.46 7.85224 10.5023 7.67639 10.4781 7.50328C10.4538 7.33018 10.3648 7.17271 10.229 7.06269C10.0875 6.94509 9.90543 6.88797 9.72214 6.90368C9.53885 6.91939 9.36912 7.00667 9.24973 7.14663V7.14663Z" fill="#2A3843"/>
</svg>
