<svg width="16" height="16" viewBox="0 0 16 16" fill="none" xmlns="http://www.w3.org/2000/svg">
<path fill-rule="evenodd" clip-rule="evenodd" d="M11.8655 7.99406C11.8655 8.44004 12.2271 8.80158 12.6731 8.80158C13.119 8.80158 13.4806 8.44004 13.4806 7.99406V3.42602C13.4806 2.98004 13.119 2.6185 12.6731 2.6185H8.10503C7.65905 2.6185 7.29751 2.98004 7.29751 3.42602C7.29751 3.872 7.65905 4.23354 8.10503 4.23354L10.6124 4.23354L6.98825 7.85774C6.64654 8.19945 6.64654 8.75347 6.98825 9.09518C7.32995 9.43689 7.88397 9.43689 8.22568 9.09518L11.8655 5.45532V7.99406Z" fill="#2A3843"/>
<path fill-rule="evenodd" clip-rule="evenodd" d="M5.48664 11.888H7.99406C8.44004 11.888 8.80158 12.2496 8.80158 12.6956C8.80158 13.1415 8.44004 13.5031 7.99406 13.5031H3.42602C2.98004 13.5031 2.6185 13.1415 2.6185 12.6956V8.12752C2.6185 7.68154 2.98004 7.32 3.42602 7.32C3.872 7.32 4.23354 7.68154 4.23354 8.12752L4.23354 10.6663L7.87341 7.02639C8.21511 6.68468 8.76913 6.68468 9.11084 7.02639C9.45255 7.3681 9.45255 7.92212 9.11084 8.26383L5.48664 11.888Z" fill="#2A3843"/>
</svg>
