<svg width="16" height="16" viewBox="0 0 16 16" fill="none" xmlns="http://www.w3.org/2000/svg">
<path d="M13.8443 8.28688C13.8443 8.18033 13.8443 8.18033 13.8443 8.28688C13.9508 8.07377 13.9508 7.96721 13.9508 7.86065C13.9508 7.7541 13.9508 7.64754 13.8443 7.54098C13.8443 7.54098 13.8443 7.43442 13.7377 7.43442C13.7377 7.43442 13.7377 7.32787 13.6311 7.32787L11.0738 4.13115C10.8607 3.81148 10.3279 3.70492 10.0082 4.02459C9.58196 4.34426 9.58196 4.87705 9.90164 5.19672L11.5 7.11475H5.85246C5.31967 7.11475 5 7.54098 5 7.96721C5 8.39344 5.31967 8.71311 5.85246 8.71311H11.5L9.90164 10.6311C9.68852 10.9508 9.68852 11.4836 10.0082 11.6967C10.2213 11.8033 10.3279 11.9098 10.541 11.9098C10.7541 11.9098 10.9672 11.8033 11.1803 11.5902L13.7377 8.39344C13.8443 8.28688 13.8443 8.28688 13.8443 8.28688Z" fill="#2A3843"/>
<path d="M3.87706 13.7213L6.00821 13.7213C6.54099 13.7213 6.86067 13.4016 6.86067 12.8689C6.86067 12.3361 6.54099 12.123 6.11477 12.123L3.98362 12.123C3.23772 12.123 2.59837 11.4836 2.59837 10.7377L2.59837 4.87706C2.59837 4.13115 3.23772 3.49181 3.98362 3.49181L6.11477 3.49181C6.541 3.49181 6.96723 3.17214 6.96723 2.63935C6.96723 2.10657 6.541 2.00001 6.11477 2.00001L3.98362 2.00001C2.38526 2.00001 1.00002 3.2787 1.00001 4.98361L1.00001 10.7377C1.00001 12.4426 2.2787 13.7213 3.87706 13.7213Z" fill="#2A3843"/>
<path d="M13.8443 8.28688C13.8443 8.18033 13.8443 8.18033 13.8443 8.28688C13.9508 8.07377 13.9508 7.96721 13.9508 7.86065C13.9508 7.7541 13.9508 7.64754 13.8443 7.54098C13.8443 7.54098 13.8443 7.43442 13.7377 7.43442C13.7377 7.43442 13.7377 7.32787 13.6311 7.32787L11.0738 4.13115C10.8607 3.81148 10.3279 3.70492 10.0082 4.02459C9.58196 4.34426 9.58196 4.87705 9.90164 5.19672L11.5 7.11475H5.85246C5.31967 7.11475 5 7.54098 5 7.96721C5 8.39344 5.31967 8.71311 5.85246 8.71311H11.5L9.90164 10.6311C9.68852 10.9508 9.68852 11.4836 10.0082 11.6967C10.2213 11.8033 10.3279 11.9098 10.541 11.9098C10.7541 11.9098 10.9672 11.8033 11.1803 11.5902L13.7377 8.39344C13.8443 8.28688 13.8443 8.28688 13.8443 8.28688Z" fill="#2A3843"/>
</svg>
