<svg width="16" height="16" viewBox="0 0 16 16" xmlns="http://www.w3.org/2000/svg">
<path fill-rule="evenodd" clip-rule="evenodd" d="M11.595 12.995V5.5687L9.32472 3.005H4.40497V12.995H11.595ZM10.2985 1.84203L12.8437 4.71616C13.0056 4.89904 13.095 5.13486 13.095 5.37913V13.495C13.095 14.0473 12.6473 14.495 12.095 14.495H3.90497C3.35268 14.495 2.90497 14.0473 2.90497 13.495V2.505C2.90497 1.95272 3.35268 1.505 3.90497 1.505H9.54982C9.8361 1.505 10.1087 1.6277 10.2985 1.84203Z"/>
<path fill-rule="evenodd" clip-rule="evenodd" d="M8.91968 2.14146C9.33389 2.14146 9.66968 2.47725 9.66968 2.89146V4.98967C9.66968 5.12774 9.78161 5.23967 9.91968 5.23967H11.8875C12.3017 5.23967 12.6375 5.57546 12.6375 5.98967C12.6375 6.40388 12.3017 6.73967 11.8875 6.73967H9.91968C8.95318 6.73967 8.16968 5.95617 8.16968 4.98967V2.89146C8.16968 2.47725 8.50546 2.14146 8.91968 2.14146Z"/>
</svg>
