<svg width="16" height="16" viewBox="0 0 16 16" fill="none" xmlns="http://www.w3.org/2000/svg">
<path d="M13.6849 4.66909H11.4548V3.22048C11.4548 2.74188 11.2653 2.28274 10.9278 1.94343C10.5903 1.60412 10.1321 1.41223 9.65354 1.40971H2.35329C1.87381 1.41222 1.41469 1.6038 1.07565 1.94284C0.736604 2.28188 0.545024 2.74101 0.54252 3.22048V7.65209C0.54 7.89149 0.584976 8.129 0.674847 8.3509C0.764717 8.5728 0.897698 8.77467 1.06609 8.94484C1.23449 9.11501 1.43496 9.2501 1.65591 9.34229C1.87685 9.43447 2.11388 9.48194 2.35329 9.48192H2.67732V10.5779C2.68214 10.766 2.759 10.945 2.89201 11.078C3.02503 11.211 3.20405 11.2879 3.3921 11.2927C3.51189 11.2937 3.62997 11.2642 3.73519 11.2069L4.58339 10.7495V10.9401C4.58339 11.4178 4.77316 11.8759 5.11096 12.2137C5.44876 12.5515 5.90691 12.7413 6.38463 12.7413H9.02454L12.2553 14.5044C12.3614 14.5595 12.4789 14.5889 12.5984 14.5902C12.7286 14.5924 12.857 14.5595 12.9701 14.4949C13.0749 14.429 13.1613 14.3376 13.2213 14.2293C13.2813 14.121 13.3129 13.9992 13.3132 13.8754V12.7413H13.6468C14.1254 12.7413 14.5845 12.5518 14.9238 12.2143C15.2631 11.8768 15.455 11.4187 15.4575 10.9401V6.47986C15.4552 6.00688 15.2689 5.55338 14.938 5.21539C14.6071 4.8774 14.1577 4.68147 13.6849 4.66909V4.66909ZM3.43022 8.05237H2.35329C2.25555 8.0427 2.16531 7.99567 2.10139 7.9211C2.03748 7.84653 2.00481 7.75016 2.01019 7.65209V3.22048C2.02232 3.13472 2.06261 3.05541 2.12471 2.99504C2.18681 2.93466 2.26722 2.89663 2.35329 2.88692H9.65354C9.75221 2.89171 9.8454 2.93369 9.91436 3.00442C9.98332 3.07515 10.0229 3.16937 10.0252 3.26813V7.65209C10.0228 7.74991 9.98287 7.84305 9.91368 7.91224C9.8445 7.98143 9.75135 8.02136 9.65354 8.02378H6.79443C6.67781 8.02396 6.56311 8.05345 6.46087 8.10955L4.14499 9.38662V8.76715C4.14499 8.57757 4.06969 8.39577 3.93564 8.26172C3.80159 8.12768 3.61979 8.05237 3.43022 8.05237ZM14.0661 10.9115C14.0636 11.0109 14.0223 11.1055 13.9511 11.1749C13.8799 11.2443 13.7844 11.2832 13.6849 11.2832H12.6365C12.447 11.2832 12.2652 11.3585 12.1311 11.4925C11.9971 11.6266 11.9218 11.8084 11.9218 11.9979V12.646L9.58683 11.3975C9.48459 11.3414 9.36988 11.3119 9.25326 11.3117H6.39416C6.29634 11.3093 6.2032 11.2694 6.13401 11.2002C6.06482 11.131 6.02489 11.0379 6.02247 10.9401V9.98703L6.97551 9.47239H9.65354C9.89169 9.4724 10.1275 9.42519 10.3473 9.33348C10.5671 9.24177 10.7665 9.10738 10.934 8.9381C11.1015 8.76882 11.2338 8.56799 11.3232 8.34725C11.4126 8.12651 11.4573 7.89024 11.4548 7.65209V6.09865H13.6849C13.7852 6.10106 13.8808 6.14201 13.9518 6.21298C14.0227 6.28395 14.0637 6.37952 14.0661 6.47986V10.9115Z" fill="#2A3843"/>
</svg>
