<svg width="12" height="12" viewBox="0 0 12 12" fill="none" xmlns="http://www.w3.org/2000/svg">
<rect x="0.0154114" y="1.70986" width="1.70987" height="1.70987" fill="#2A3843"/>
<rect x="0.0154114" y="5.12961" width="1.70987" height="1.70987" fill="#2A3843"/>
<rect x="0.0154114" y="8.54935" width="1.70987" height="1.70987" fill="#2A3843"/>
<rect x="1.72531" y="-7.62939e-06" width="1.70987" height="1.70987" fill="#2A3843"/>
<rect x="1.72531" y="10.2592" width="1.70987" height="1.70987" fill="#2A3843"/>
<rect x="3.43518" y="5.12961" width="1.70987" height="1.70987" fill="#2A3843"/>
<rect x="3.43518" y="8.54935" width="1.70987" height="1.70987" fill="#2A3843"/>
<rect x="5.14505" y="-7.62939e-06" width="1.70987" height="1.70987" fill="#2A3843"/>
<rect x="5.14505" y="3.41975" width="1.70987" height="1.70987" fill="#2A3843"/>
<rect x="8.56482" y="3.41975" width="1.70987" height="1.70987" fill="#2A3843"/>
<rect x="10.2747" y="5.12961" width="1.70987" height="1.70987" fill="#2A3843"/>
<rect x="0.0154114" width="1.70987" height="1.70987" fill="#2A3843"/>
<rect x="0.0154114" y="3.41975" width="1.70987" height="1.70987" fill="#2A3843"/>
<rect x="1.72531" y="5.12961" width="1.70987" height="1.70987" fill="#2A3843"/>
<rect x="3.43518" y="-7.62939e-06" width="1.70987" height="1.70987" fill="#2A3843"/>
<rect x="2.58026" y="2.5648" width="1.70987" height="1.70987" fill="#2A3843"/>
<rect x="3.43518" y="6.83948" width="1.70987" height="1.70987" fill="#2A3843"/>
<rect x="5.14505" y="1.70986" width="1.70987" height="1.70987" fill="#2A3843"/>
<rect x="5.14505" y="5.12961" width="1.70987" height="1.70987" fill="#2A3843"/>
<rect x="5.14505" y="8.54935" width="1.70987" height="1.70987" fill="#2A3843"/>
<rect x="6.85492" y="3.41975" width="1.70987" height="1.70987" fill="#2A3843"/>
<rect x="6.85492" y="6.83948" width="1.70987" height="1.70987" fill="#2A3843"/>
<rect x="6.85492" y="10.2592" width="1.70987" height="1.70987" fill="#2A3843"/>
<rect x="8.56482" y="1.70986" width="1.70987" height="1.70987" fill="#2A3843"/>
<rect x="8.56482" y="5.12961" width="1.70987" height="1.70987" fill="#2A3843"/>
<rect x="10.2747" y="-7.62939e-06" width="1.70987" height="1.70987" fill="#2A3843"/>
<rect x="10.2747" y="3.41975" width="1.70987" height="1.70987" fill="#2A3843"/>
<rect x="10.2747" y="6.83948" width="1.70987" height="1.70987" fill="#2A3843"/>
<rect x="10.2747" y="10.2592" width="1.70987" height="1.70987" fill="#2A3843"/>
</svg>
