<svg width="16" height="16" viewBox="0 0 16 16" fill="none" xmlns="http://www.w3.org/2000/svg">
<path d="M13.6408 4.66501C12.6662 4.4878 11.5143 4.4878 10.8054 4.5764C10.894 3.86754 10.6282 3.07007 10.1851 2.62704C9.6535 2.00678 8.94464 1.82957 8.23578 2.184C7.52692 2.44982 7.2611 3.15868 6.90667 3.86754C6.46363 4.93083 6.1092 5.63969 5.40034 5.81691C5.31173 5.63969 5.04591 5.55109 4.86869 5.55109H2.21046C1.85603 5.55109 1.59021 5.81691 1.59021 6.25995V11.4878C1.59021 11.8422 1.85603 12.1967 2.29907 12.1967H4.9573C5.13451 12.1967 5.31173 12.108 5.40034 12.0194C5.48894 12.108 5.57755 12.108 5.66616 12.1967C6.37502 12.5511 7.2611 12.9941 8.23578 12.9941C10.5396 12.9941 11.6915 10.7789 11.9573 8.74096C11.9573 8.56375 12.2231 8.47514 13.1978 8.47514H13.375C14.8813 8.47514 15.5016 7.58906 15.5902 6.8802C15.5902 5.7283 14.7927 4.84223 13.6408 4.66501ZM4.24844 10.7789H2.91932V6.8802H4.24844V10.7789ZM13.375 7.05742H13.1978C12.3117 7.05742 10.894 7.05742 10.6282 8.47514C10.5396 9.00678 10.0965 11.665 8.23578 11.665C7.61553 11.665 6.90667 11.3106 6.28641 10.9562C6.02059 10.7789 5.75477 10.6017 5.57755 10.5131V7.14602C7.17249 6.79159 7.79274 5.37387 8.23578 4.39919C8.32439 4.04476 8.59021 3.42451 8.67882 3.42451C9.03325 3.3359 9.12186 3.42451 9.21046 3.51311C9.47629 3.77894 9.56489 4.4878 9.38768 4.93083C9.21046 5.19666 9.29907 5.37387 9.38768 5.63969C9.56489 5.81691 9.74211 5.90552 10.0079 5.90552C10.0079 5.90552 11.8687 5.7283 13.4636 5.99413C13.9953 5.99413 14.2611 6.43716 14.1725 6.61438C14.1725 6.8802 13.7295 7.05742 13.375 7.05742Z" fill="#2A3843"/>
</svg>
