<svg width="16" height="16" viewBox="0 0 16 16" fill="none" xmlns="http://www.w3.org/2000/svg">
<path d="M14.2594 7.0336L8.41604 1.99932C8.14635 1.81952 7.78676 1.81952 7.51706 1.99932L1.6737 7.0336C1.404 7.3033 1.31411 7.66289 1.5838 8.02248C1.85349 8.29217 2.21308 8.38207 2.57268 8.11238L2.75247 7.93258V13.4164C2.75247 13.7759 3.02217 14.1355 3.38176 14.1355H6.52818C6.88778 14.1355 7.24737 13.8658 7.24737 13.4164V9.37095H8.59584V13.3265C8.59584 13.686 8.86553 14.0456 9.31502 14.0456H12.6412C13.0008 14.0456 13.3604 13.7759 13.3604 13.3265V7.93258L13.5402 8.11238C13.6301 8.20227 13.8099 8.29217 13.9897 8.29217C14.1695 8.29217 14.3493 8.20227 14.5291 8.02248C14.619 7.66289 14.619 7.3033 14.2594 7.0336ZM11.9221 12.6972H9.94431V8.74166C9.94431 8.38207 9.67461 8.02248 9.22512 8.02248H6.52818C6.16859 8.02248 5.809 8.29217 5.809 8.74166V12.6972H4.01104V6.76391L7.96655 3.34779L11.9221 6.76391V12.6972V12.6972Z" fill="#2A3843"/>
</svg>
