<svg width="16" height="16" viewBox="0 0 16 16" fill="none" xmlns="http://www.w3.org/2000/svg">
<path d="M14.1871 2H1.72258C1.27097 2 1 2.27273 1 2.72728V13.2727C1 13.6364 1.27097 14 1.72258 14H14.2774C14.6387 14 15 13.7273 15 13.2727V2.72728C14.9097 2.27273 14.5484 2 14.1871 2ZM13.5548 3.36364V10.6364L11.0258 8C10.9355 7.90909 10.7548 7.81819 10.5742 7.81819C10.3935 7.81819 10.2129 7.90909 10.1226 8L8.76774 9.18182L5.87742 6.54546C5.7871 6.36364 5.60645 6.36364 5.42581 6.36364C5.24516 6.36364 5.06452 6.45455 4.97419 6.63637L2.35484 10.1818V3.36364H13.5548ZM13.4645 12.5455H2.35484L5.51613 8.09091L8.31613 10.6364C8.5871 10.9091 9.03871 10.9091 9.21935 10.6364L10.3935 9.36364L13.4645 12.5455Z" fill="#2A3843"/>
<path d="M9 7C9.58333 7 10 6.56522 10 5.95653C10 5.43479 9.5 5 9 5C8.41667 5 8 5.43479 8 5.95653C8 6.56522 8.41667 7 9 7Z" fill="#2A3843"/>
</svg>
