<svg width="16" height="16" viewBox="0 0 16 16" fill="none" xmlns="http://www.w3.org/2000/svg">
<path d="M6.15574 7.43443C6.15574 7.54099 6.15574 7.54099 6.15574 7.43443C6.04919 7.64754 6.04919 7.7541 6.04919 7.86066C6.04919 7.96722 6.04919 8.07377 6.15574 8.18033C6.15574 8.18033 6.15574 8.28689 6.2623 8.28689C6.2623 8.28689 6.2623 8.39345 6.36886 8.39345L8.92623 11.5902C9.13935 11.9098 9.67213 12.0164 9.99181 11.6967C10.418 11.3771 10.418 10.8443 10.0984 10.5246L8.5 8.60656L14.1475 8.60656C14.6803 8.60656 15 8.18033 15 7.7541C15 7.32787 14.6803 7.0082 14.1475 7.0082L8.5 7.0082L10.0984 5.09017C10.3115 4.7705 10.3115 4.23771 9.99181 4.0246C9.77869 3.91804 9.67213 3.81148 9.45902 3.81148C9.24591 3.81148 9.03279 3.91804 8.81968 4.13115L6.2623 7.32787C6.15574 7.43443 6.15574 7.43443 6.15574 7.43443Z" fill="#2A3843"/>
<path d="M4.87706 13.7213L7.00821 13.7213C7.54099 13.7213 7.86067 13.4016 7.86067 12.8689C7.86067 12.3361 7.54099 12.123 7.11477 12.123L4.98362 12.123C4.23772 12.123 3.59837 11.4836 3.59837 10.7377L3.59837 4.87706C3.59837 4.13115 4.23772 3.49181 4.98362 3.49181L7.11477 3.49181C7.541 3.49181 7.96723 3.17214 7.96723 2.63935C7.96723 2.10657 7.541 2.00001 7.11477 2.00001L4.98362 2.00001C3.38526 2.00001 2.00002 3.2787 2.00001 4.98361L2.00001 10.7377C2.00001 12.4426 3.2787 13.7213 4.87706 13.7213Z" fill="#2A3843"/>
</svg>
