<svg width="16" height="16" viewBox="0 0 16 16" fill="none" xmlns="http://www.w3.org/2000/svg">
<path d="M8.00001 1.02278C4.11271 1.02278 1.0228 4.11269 1.0228 7.99999C1.0228 11.8873 4.11271 14.9772 8.00001 14.9772C11.8873 14.9772 14.9772 11.8873 14.9772 7.99999C14.9772 4.11269 11.7876 1.02278 8.00001 1.02278ZM8.00001 13.4821C5.00978 13.4821 2.51791 10.9902 2.51791 7.99999C2.51791 5.00976 5.00978 2.5179 8.00001 2.5179C10.9902 2.5179 13.4821 5.00976 13.4821 7.99999C13.4821 10.9902 10.9902 13.4821 8.00001 13.4821Z" fill="#2A3843"/>
<path d="M8.87799 10.2943V7.91869C8.78063 7.52928 8.48857 7.23721 8.09915 7.23721H7.32031C6.93089 7.23721 6.63882 7.52928 6.63882 7.91869C6.63882 8.30811 6.93089 8.60018 7.32031 8.69753V10.2943C6.93089 10.2943 6.63882 10.5863 6.63882 10.9757C6.63882 11.3652 6.93089 11.7546 7.41766 11.7546H8.87799C9.26741 11.7546 9.65682 11.4625 9.65682 10.9757C9.65682 10.489 9.26741 10.2943 8.87799 10.2943Z" fill="#2A3843"/>
<circle cx="8.00952" cy="5.29944" r="1.05405" fill="#2A3843"/>
</svg>
