<svg width="16" height="16" viewBox="0 0 16 16" fill="none" xmlns="http://www.w3.org/2000/svg">
<path d="M13.9891 6.32662C13.8085 5.51409 12.8154 4.88211 11.2807 4.70155C11.5515 3.88902 11.6418 2.80563 11.1904 1.9931C10.9195 1.36113 10.2876 1 9.47502 1C8.48192 1 8.1208 2.08338 7.66939 3.25704C7.21798 4.61127 6.76657 5.60437 6.04432 6.05578C5.95403 5.87521 5.77347 5.78493 5.50263 5.78493H2.61361C2.1622 5.78493 1.89136 6.05578 1.89136 6.50719V12.4658C1.89136 12.8269 2.1622 13.188 2.61361 13.188H5.50263C5.68319 13.188 5.86375 13.0978 6.04432 12.9172C6.1346 13.0075 6.31516 13.0075 6.40544 13.0978C7.21798 13.5492 8.21108 14.0006 9.29446 14.0006C11.1001 14.0006 12.0029 13.0978 12.5446 12.1949C13.5377 10.8407 14.4405 7.95169 13.9891 6.32662ZM4.87065 11.7435H3.24558V7.13916H4.87065V11.7435ZM11.4612 11.3824C10.8292 12.1949 10.3778 12.6463 9.29446 12.6463C8.5722 12.6463 7.75967 12.1949 7.03742 11.8338C6.76657 11.6532 6.40544 11.563 6.22488 11.4727V7.50028C7.84995 6.95859 8.48192 5.06268 8.93333 3.70845C9.1139 3.25704 9.38474 2.53479 9.5653 2.35423C9.92643 2.35423 10.0167 2.53479 10.107 2.62507C10.4681 3.25704 10.107 4.52099 9.83615 4.9724C9.74587 5.15296 9.65559 5.4238 9.83615 5.69465C10.0167 5.96549 10.1973 6.05578 10.4681 6.05578C12.1835 6.05578 12.7252 6.50719 12.8154 6.68775C12.996 7.68085 12.2738 10.2087 11.4612 11.3824Z" fill="#2A3843"/>
</svg>
