<svg width="16" height="16" viewBox="0 0 16 16" fill="none" xmlns="http://www.w3.org/2000/svg">
<path d="M7.99896 1C4.73482 1 2 3.78205 2 7.10256C2 12.0385 7.55786 14.8205 7.7343 14.9103C7.82252 14.9103 7.91074 15 7.99896 15C8.08718 15 8.1754 15 8.26362 14.9103C8.52828 14.8205 13.9979 12.0385 13.9979 7.10256C14.0861 3.78205 11.3513 1 7.99896 1ZM7.99896 13.5641C6.94032 12.9359 3.3233 10.6923 3.3233 7.10256C3.3233 4.5 5.44058 2.34615 7.99896 2.34615C10.5573 2.34615 12.6746 4.5 12.6746 7.10256C12.7628 10.6923 9.0576 12.9359 7.99896 13.5641ZM7.99896 4.05128C6.49922 4.05128 5.26414 5.30769 5.26414 6.83333C5.26414 8.35897 6.49922 9.61539 7.99896 9.61539C9.4987 9.61539 10.7338 8.35897 10.7338 6.83333C10.7338 5.30769 9.4987 4.05128 7.99896 4.05128ZM7.99896 8.26923C7.2932 8.26923 6.67566 7.64103 6.67566 6.83333C6.67566 6.02564 7.2932 5.39744 7.99896 5.39744C8.70472 5.39744 9.41048 6.02564 9.41048 6.83333C9.41048 7.64103 8.79294 8.26923 7.99896 8.26923Z" fill="#2A3843"/>
</svg>
