<svg width="16" height="16" viewBox="0 0 16 16" fill="none" xmlns="http://www.w3.org/2000/svg">
<path d="M7.99999 7.10219C7.54015 7.10219 7.09915 7.28329 6.774 7.60566C6.44884 7.92803 6.26617 8.36525 6.26617 8.82115C6.26617 10.2674 7.99999 11.2237 7.99999 11.2237C7.99999 11.2237 9.73381 10.2674 9.73381 8.82115C9.73381 8.36525 9.55114 7.92803 9.22599 7.60566C8.90083 7.28329 8.45983 7.10219 7.99999 7.10219Z" fill="#2A3843"/>
<path fill-rule="evenodd" clip-rule="evenodd" d="M3.74187 3.2753C3.48417 3.2753 3.27527 3.4842 3.27527 3.7419V12.2581C3.27527 12.5158 3.48417 12.7247 3.74187 12.7247H12.258C12.5157 12.7247 12.7246 12.5158 12.7246 12.2581V3.7419C12.7246 3.4842 12.5157 3.2753 12.258 3.2753H3.74187ZM1.77527 3.7419C1.77527 2.65577 2.65574 1.7753 3.74187 1.7753H12.258C13.3442 1.7753 14.2246 2.65577 14.2246 3.7419V12.2581C14.2246 13.3442 13.3442 14.2247 12.258 14.2247H3.74187C2.65574 14.2247 1.77527 13.3442 1.77527 12.2581V3.7419Z" fill="#2A3843"/>
<path fill-rule="evenodd" clip-rule="evenodd" d="M2.29132 5.29761C2.29132 4.88339 2.59927 4.54761 2.97915 4.54761H13.0208C13.4007 4.54761 13.7087 4.88339 13.7087 5.29761C13.7087 5.71182 13.4007 6.04761 13.0208 6.04761H2.97915C2.59927 6.04761 2.29132 5.71182 2.29132 5.29761Z" fill="#2A3843"/>
</svg>
