<svg width="16" height="16" viewBox="0 0 16 16" fill="none" xmlns="http://www.w3.org/2000/svg">
<path d="M5.91429 8.70877H3.19734C3.00937 8.70877 2.82909 8.6341 2.69617 8.50118C2.56325 8.36826 2.48857 8.18798 2.48857 8C2.48857 7.81202 2.56325 7.63174 2.69617 7.49882C2.82909 7.3659 3.00937 7.29123 3.19734 7.29123H5.91429C6.10227 7.29123 6.28255 7.3659 6.41547 7.49882C6.54839 7.63174 6.62307 7.81202 6.62307 8C6.62307 8.18798 6.54839 8.36826 6.41547 8.50118C6.28255 8.6341 6.10227 8.70877 5.91429 8.70877Z" fill="#2A3843"/>
<path d="M15.2731 11.6425H0.766451C0.578208 11.6401 0.398359 11.5642 0.26524 11.4311C0.132121 11.298 0.0562622 11.1181 0.053833 10.9299V5.07013C0.0562622 4.88188 0.132121 4.70204 0.26524 4.56892C0.398359 4.4358 0.578208 4.35994 0.766451 4.35751H15.2731C15.4614 4.35994 15.6412 4.4358 15.7744 4.56892C15.9075 4.70204 15.9833 4.88188 15.9858 5.07013V10.9299C15.9833 11.1181 15.9075 11.298 15.7744 11.4311C15.6412 11.5642 15.4614 11.6401 15.2731 11.6425ZM1.45094 10.236H14.5887V5.76399H1.45094V10.236Z" fill="#2A3843"/>
<circle cx="12.8423" cy="8" r="0.708772" fill="#2A3843"/>
<circle cx="10.7231" cy="8" r="0.708772" fill="#2A3843"/>
</svg>
