<svg width="16" height="16" viewBox="0 0 16 16" fill="none" xmlns="http://www.w3.org/2000/svg">
<g clip-path="url(#clip0_168_547)">
<path d="M10.6871 1.43629H5.40092C4.51989 1.43629 3.81506 2.14112 3.81506 3.02216V13.0659C3.81506 13.947 4.51989 14.6518 5.40092 14.6518H10.6871C11.5682 14.6518 12.273 13.947 12.273 13.0659V3.02216C12.1849 2.14112 11.4801 1.43629 10.6871 1.43629ZM10.8633 12.9778C10.8633 13.0659 10.7752 13.2421 10.599 13.2421H5.31282C5.22472 13.2421 5.04851 13.154 5.04851 12.9778V3.02216C5.04851 2.93405 5.13661 2.75785 5.31282 2.75785H10.599C10.7752 2.75785 10.8633 2.84595 10.8633 3.02216V12.9778Z" fill="#2A3843"/>
<path d="M8.13213 11.3039C7.77972 11.3039 7.42731 11.5682 7.42731 12.0087C7.42731 12.4492 7.69162 12.7135 8.13213 12.7135C8.48455 12.7135 8.83696 12.4492 8.83696 12.0087C8.83696 11.5682 8.48455 11.3039 8.13213 11.3039Z" fill="#2A3843"/>
</g>
<defs>
<clipPath id="clip0_168_547">
<rect width="8.36982" height="13.1274" fill="white" transform="translate(3.81506 1.43629)"/>
</clipPath>
</defs>
</svg>
