<svg width="16" height="16" viewBox="0 0 16 16" fill="none" xmlns="http://www.w3.org/2000/svg">
<path fill-rule="evenodd" clip-rule="evenodd" d="M3.74187 3.2753C3.48417 3.2753 3.27527 3.4842 3.27527 3.7419V12.2581C3.27527 12.5158 3.48417 12.7247 3.74187 12.7247H12.258C12.5157 12.7247 12.7246 12.5158 12.7246 12.2581V3.7419C12.7246 3.4842 12.5157 3.2753 12.258 3.2753H3.74187ZM1.77527 3.7419C1.77527 2.65577 2.65574 1.7753 3.74187 1.7753H12.258C13.3442 1.7753 14.2246 2.65577 14.2246 3.7419V12.2581C14.2246 13.3442 13.3442 14.2247 12.258 14.2247H3.74187C2.65574 14.2247 1.77527 13.3442 1.77527 12.2581V3.7419Z" fill="#2A3843"/>
<path fill-rule="evenodd" clip-rule="evenodd" d="M1.77527 6.17512C1.77527 5.76091 2.11105 5.42512 2.52527 5.42512H13.4746C13.8889 5.42512 14.2246 5.76091 14.2246 6.17512C14.2246 6.58934 13.8889 6.92512 13.4746 6.92512H2.52527C2.11105 6.92512 1.77527 6.58934 1.77527 6.17512Z" fill="#2A3843"/>
<path fill-rule="evenodd" clip-rule="evenodd" d="M6.17505 5.42512C6.58926 5.42512 6.92505 5.76091 6.92505 6.17512V13.4747C6.92505 13.8889 6.58926 14.2247 6.17505 14.2247C5.76084 14.2247 5.42505 13.8889 5.42505 13.4747V6.17512C5.42505 5.76091 5.76084 5.42512 6.17505 5.42512Z" fill="#2A3843"/>
</svg>
