<svg width="16" height="16" viewBox="0 0 16 16" fill="none" xmlns="http://www.w3.org/2000/svg">
<path d="M13.0922 4.54067H6.83623C6.58319 4.54067 6.34051 4.44015 6.16159 4.26123C5.98266 4.0823 5.88214 3.83962 5.88214 3.58658C5.88214 3.33354 5.98266 3.09087 6.16159 2.91194C6.34051 2.73301 6.58319 2.63249 6.83623 2.63249H13.0922C13.3452 2.63249 13.5879 2.73301 13.7668 2.91194C13.9457 3.09087 14.0463 3.33354 14.0463 3.58658C14.0463 3.83962 13.9457 4.0823 13.7668 4.26123C13.5879 4.44015 13.3452 4.54067 13.0922 4.54067Z" fill="#2A3843"/>
<path d="M13.0922 9.03573H6.83623C6.58319 9.03573 6.34051 8.93521 6.16159 8.75628C5.98266 8.57736 5.88214 8.33468 5.88214 8.08164C5.88214 7.8286 5.98266 7.58592 6.16159 7.40699C6.34051 7.22807 6.58319 7.12755 6.83623 7.12755H13.0922C13.3452 7.12755 13.5879 7.22807 13.7668 7.40699C13.9457 7.58592 14.0463 7.8286 14.0463 8.08164C14.0463 8.33468 13.9457 8.57736 13.7668 8.75628C13.5879 8.93521 13.3452 9.03573 13.0922 9.03573Z" fill="#2A3843"/>
<path d="M13.0922 13.3771H6.83623C6.58319 13.3771 6.34051 13.2766 6.16159 13.0977C5.98266 12.9188 5.88214 12.6761 5.88214 12.423C5.88214 12.17 5.98266 11.9273 6.16159 11.7484C6.34051 11.5695 6.58319 11.4689 6.83623 11.4689H13.0922C13.3452 11.4689 13.5879 11.5695 13.7668 11.7484C13.9457 11.9273 14.0463 12.17 14.0463 12.423C14.0463 12.6761 13.9457 12.9188 13.7668 13.0977C13.5879 13.2766 13.3452 13.3771 13.0922 13.3771Z" fill="#2A3843"/>
<path d="M3.41368 12.9129C3.28708 12.9104 3.16636 12.859 3.07682 12.7695C2.98729 12.68 2.9359 12.5592 2.93344 12.4326V3.73065C2.93344 3.60328 2.98404 3.48113 3.0741 3.39107C3.16416 3.30101 3.28631 3.25041 3.41368 3.25041C3.54105 3.25041 3.6632 3.30101 3.75327 3.39107C3.84333 3.48113 3.89392 3.60328 3.89392 3.73065V12.4326C3.89392 12.56 3.84333 12.6821 3.75327 12.7722C3.6632 12.8623 3.54105 12.9129 3.41368 12.9129V12.9129Z" fill="#2A3843"/>
<path d="M3.4137 5.03691C4.22 5.03691 4.87364 4.38327 4.87364 3.57697C4.87364 2.77067 4.22 2.11704 3.4137 2.11704C2.6074 2.11704 1.95377 2.77067 1.95377 3.57697C1.95377 4.38327 2.6074 5.03691 3.4137 5.03691Z" fill="#2A3843"/>
<path d="M3.4137 13.883C4.22 13.883 4.87364 13.2293 4.87364 12.423C4.87364 11.6167 4.22 10.9631 3.4137 10.9631C2.6074 10.9631 1.95377 11.6167 1.95377 12.423C1.95377 13.2293 2.6074 13.883 3.4137 13.883Z" fill="#2A3843"/>
<path d="M3.4137 9.46474C4.22 9.46474 4.87364 8.81111 4.87364 8.00481C4.87364 7.19851 4.22 6.54487 3.4137 6.54487C2.6074 6.54487 1.95377 7.19851 1.95377 8.00481C1.95377 8.81111 2.6074 9.46474 3.4137 9.46474Z" fill="#2A3843"/>
</svg>
