<svg width="16" height="16" viewBox="0 0 16 16" fill="none" xmlns="http://www.w3.org/2000/svg">
<path d="M0.429993 4C0.429993 3.44772 0.877708 3 1.42999 3H6.98999C7.54228 3 7.98999 3.44772 7.98999 4V12C7.98999 12.5523 7.54228 13 6.98999 13H1.42999C0.877708 13 0.429993 12.5523 0.429993 12V4Z" fill="#2A3843"/>
<path fill-rule="evenodd" clip-rule="evenodd" d="M8.99873 5.69492C8.99873 5.2807 9.33452 4.94492 9.74873 4.94492H14.542C14.9562 4.94492 15.292 5.2807 15.292 5.69492C15.292 6.10913 14.9562 6.44492 14.542 6.44492H9.74873C9.33452 6.44492 8.99873 6.10913 8.99873 5.69492Z" fill="#2A3843"/>
<path fill-rule="evenodd" clip-rule="evenodd" d="M9.65211 8.0108C9.65211 7.59659 9.9879 7.2608 10.4021 7.2608H13.8886C14.3028 7.2608 14.6386 7.59659 14.6386 8.0108C14.6386 8.42502 14.3028 8.7608 13.8886 8.7608H10.4021C9.9879 8.7608 9.65211 8.42502 9.65211 8.0108Z" fill="#2A3843"/>
<path fill-rule="evenodd" clip-rule="evenodd" d="M10.1118 10.3051C10.1118 9.89087 10.4476 9.55508 10.8618 9.55508H13.4289C13.8431 9.55508 14.1789 9.89087 14.1789 10.3051C14.1789 10.7193 13.8431 11.0551 13.4289 11.0551H10.8618C10.4476 11.0551 10.1118 10.7193 10.1118 10.3051Z" fill="#2A3843"/>
</svg>
