<svg width="16" height="16" viewBox="0 0 16 16" fill="none" xmlns="http://www.w3.org/2000/svg">
<path d="M8 4C8 3.44772 8.44772 3 9 3H14.56C15.1123 3 15.56 3.44772 15.56 4V12C15.56 12.5523 15.1123 13 14.56 13H9C8.44772 13 8 12.5523 8 12V4Z" fill="#2A3843"/>
<path fill-rule="evenodd" clip-rule="evenodd" d="M0.760223 5.69492C0.760223 5.2807 1.09601 4.94492 1.51022 4.94492H6.25017C6.66438 4.94492 7.00017 5.2807 7.00017 5.69492C7.00017 6.10913 6.66438 6.44492 6.25017 6.44492H1.51022C1.09601 6.44492 0.760223 6.10913 0.760223 5.69492Z" fill="#2A3843"/>
<path fill-rule="evenodd" clip-rule="evenodd" d="M1.40634 8.0108C1.40634 7.59659 1.74213 7.2608 2.15634 7.2608H5.60406C6.01828 7.2608 6.35407 7.59659 6.35407 8.0108C6.35407 8.42502 6.01828 8.7608 5.60406 8.7608H2.15634C1.74213 8.7608 1.40634 8.42502 1.40634 8.0108Z" fill="#2A3843"/>
<path fill-rule="evenodd" clip-rule="evenodd" d="M1.86093 10.3051C1.86093 9.89087 2.19672 9.55508 2.61093 9.55508H5.14949C5.5637 9.55508 5.89949 9.89087 5.89949 10.3051C5.89949 10.7193 5.5637 11.0551 5.14949 11.0551H2.61093C2.19672 11.0551 1.86093 10.7193 1.86093 10.3051Z" fill="#2A3843"/>
</svg>
