<svg width="16" height="16" viewBox="0 0 16 16" fill="none" xmlns="http://www.w3.org/2000/svg">
<path fill-rule="evenodd" clip-rule="evenodd" d="M3.72528 2.01546H5.43518H7.14505H7.71787H8.85492V3.72531V5.43518V5.4352H9.84738H10.5648H10.5648V3.72531H12.2747L12.2747 2.01546H13.9846V3.72533H12.2747L12.2747 5.4352H13.9846L13.9846 7.14507V8.85494V10.5648H12.2747V8.85494H10.5648V8.02937V7.14507H10.5648H9.84738H8.85492V8.27414V8.85494H7.14505V10.5648L8.85492 10.5648V12.2747H7.14505L7.14505 12.2747H5.43518V10.5648V8.85494H3.72528H3.18958H2.01541V7.68668V7.14507V5.4352V5.43518V3.72531V2.01546H3.18958H3.72528ZM8.85492 10.5648L10.5648 10.5648V8.85493L8.85492 8.85494V10.5648ZM7.14505 7.14507L7.14505 5.4352V5.43518V3.72533H5.43518H3.72528V5.43518V5.4352V7.14507H5.43518H5.97998H7.14505ZM3.72528 10.5648H2.01541V12.2747H3.72528V10.5648ZM5.43518 12.2747H3.72531V13.9846H5.43518V12.2747ZM4.58026 4.58025H6.29013V6.29012H4.58026V4.58025ZM10.5648 12.2747H8.85492V13.9846H10.5648V12.2747ZM13.9846 12.2747H12.2747V13.9846H13.9846V12.2747Z" fill="#2A3843"/>
</svg>
