<svg width="16" height="16" viewBox="0 0 16 16" fill="none" xmlns="http://www.w3.org/2000/svg">
<path d="M5.76 7.20334C5.57334 7.01667 5.2 6.92334 4.92 7.01667L4.36 7.29667C4.17334 6.36334 4.54667 5.24334 5.38667 4.40334C6.6 3.28333 8.18667 3.09667 9.96001 3.93667C10.3333 4.12333 10.7067 3.93667 10.8933 3.56333C11.08 3.19 10.8933 2.81667 10.6133 2.63C8.84001 1.79 6.88 1.79 5.2 2.63C3.24 3.65667 2.02667 5.80334 2.21333 8.13667L1.46667 8.41667C1.18667 8.51001 1 8.79001 1 9.07001C1 9.35001 1.18667 9.63001 1.37333 9.72334L3.8 10.75C3.89334 10.75 3.98667 10.8433 4.08 10.8433C4.36 10.8433 4.64 10.6567 4.73334 10.47L5.85334 8.04334C5.94667 7.76334 5.94667 7.39 5.76 7.20334Z" fill="#2A3843"/>
<path d="M14.44 5.89668L12.0133 4.77668C11.64 4.59001 11.2666 4.77668 11.08 5.15001L10.0533 7.57668C9.95998 7.85668 9.95998 8.13668 10.1466 8.32335C10.3333 8.51001 10.52 8.60335 10.7066 8.60335C10.8 8.60335 10.8933 8.60335 10.9866 8.60335L11.5466 8.41668C11.7333 9.35001 11.36 10.47 10.52 11.31C9.30665 12.43 7.71998 12.6167 5.94664 11.7767C5.57331 11.59 5.19998 11.7767 5.01331 12.15C4.82664 12.5233 5.01331 12.8967 5.29331 13.0833C6.22664 13.55 7.15998 13.7367 8.09331 13.7367C9.02665 13.7367 9.86665 13.55 10.7066 13.0833C12.76 12.0567 13.9733 9.81668 13.7867 7.57668L14.5333 7.29668C14.8133 7.20334 15 6.92334 15 6.64334C14.9067 6.27001 14.72 5.99001 14.44 5.89668Z" fill="#2A3843"/>
</svg>
