<svg width="16" height="16" viewBox="0 0 16 16" fill="none" xmlns="http://www.w3.org/2000/svg">
<path d="M13.328 5.072L11.408 2.768C11.024 2.288 10.352 2 9.872 2H2.96C2.48 2 2 2.48 2 2.96V13.04C2 13.52 2.48 14 2.96 14H13.04C13.616 14 14 13.52 14 13.04V6.8C14 6.224 13.712 5.456 13.328 5.072ZM6.8 4.304C6.8 3.92 7.184 3.632 7.568 3.632C7.952 3.632 8.24 3.92 8.24 4.304V4.88C8.24 5.264 7.952 5.648 7.472 5.648C6.992 5.648 6.8 5.264 6.8 4.88V4.304ZM10.16 12.56H5.744V9.68C5.744 9.584 5.84 9.392 6.032 9.392H9.872C9.968 9.392 10.16 9.488 10.16 9.68V12.56ZM12.56 12.56H11.6V9.68C11.6 8.72 10.832 7.952 9.872 7.952H6.032C5.072 7.952 4.304 8.72 4.304 9.68V12.56H3.44V3.44H4.304V5.264C4.304 5.936 4.88 6.512 5.552 6.512H8.048C8.72 6.512 9.296 5.936 9.296 5.264V3.44H9.872C9.968 3.44 10.256 3.536 10.352 3.632L12.272 5.936C12.368 6.128 12.56 6.608 12.56 6.8V12.56Z" fill="#2A3843"/>
</svg>
