<svg width="16" height="16" viewBox="0 0 16 16" fill="none" xmlns="http://www.w3.org/2000/svg">
<path fill-rule="evenodd" clip-rule="evenodd" d="M0.995544 3.48732C0.995544 2.99193 1.39714 2.59034 1.89253 2.59034H14.1075C14.6029 2.59034 15.0045 2.99193 15.0045 3.48732V9.5948C15.0045 10.0902 14.6029 10.4918 14.1075 10.4918H1.89253C1.39714 10.4918 0.995544 10.0902 0.995544 9.5948V3.48732ZM2.78951 4.3843V8.69782H13.2105V4.3843H2.78951Z" fill="#2A3843"/>
<path fill-rule="evenodd" clip-rule="evenodd" d="M2.44891 11.8238C2.44891 11.3836 2.80574 11.0268 3.24591 11.0268H12.754C13.1942 11.0268 13.551 11.3836 13.551 11.8238C13.551 12.264 13.1942 12.6208 12.754 12.6208H3.24591C2.80574 12.6208 2.44891 12.264 2.44891 11.8238Z" fill="#2A3843"/>
</svg>
