<svg width="16" height="16" viewBox="0 0 16 16" fill="none" xmlns="http://www.w3.org/2000/svg">
<path d="M5.2 14.1657C5.1 14.1657 5.1 14.1657 5 14.1657C4.7 14.0657 4.5 13.8657 4.5 13.5657L3.8 9.76569L0.6 8.96569C0.3 8.96569 0 8.66569 0 8.36569C0 8.06569 0.1 7.76569 0.4 7.56569L13.9 1.06569C14.2 0.965685 14.5 0.965685 14.7 1.16569C14.9 1.46569 15 1.76569 14.9 2.06569L11.9 10.8657C11.8 11.2657 11.4 11.4657 11 11.3657L8.7 10.8657L5.7 13.9657C5.6 14.0657 5.4 14.1657 5.2 14.1657ZM3 7.96569L4.6 8.36569C4.9 8.46569 5.1 8.66569 5.2 8.96569L5.7 11.7657L7 10.4657H6.9C6.5 10.3657 6.2 9.96568 6.3 9.46568C6.4 9.06568 6.8 8.86569 7.2 8.96569L8.6 9.26569L10.6 9.76569L12.8 3.26569L3 7.96569Z" fill="#2A3843"/>
</svg>
