<svg width="16" height="16" viewBox="0 0 16 16" fill="none" xmlns="http://www.w3.org/2000/svg">
<path d="M7.8 5.5C6.6 5.5 5.5 6.5 5.5 7.8C5.5 9.1 6.5 10 7.8 10C9.1 10 10 9 10 7.8C10 6.6 9 5.5 7.8 5.5ZM7.8 8.5C7.4 8.5 7 8.2 7 7.8C7 7.4 7.4 7 7.8 7C8.2 7 8.6 7.3 8.6 7.8C8.6 8.3 8.2 8.5 7.8 8.5Z" fill="#2A3843"/>
<path d="M14.1 6.2L12.8 5.7L13.4 4.5C13.5 4.2 13.5 3.9 13.2 3.7L11.9 2.4C11.7 2.2 11.3 2.1 11.1 2.2L9.9 2.7L9.4 1.5C9.3 1.2 9 1 8.7 1H6.9C6.6 1 6.3 1.2 6.2 1.5L5.7 2.7L4.5 2.2C4.2 2.1 3.9 2.1 3.6 2.3L2.3 3.6C2.1 3.9 2.1 4.2 2.2 4.5L2.8 5.7L1.5 6.2C1.2 6.3 1 6.6 1 6.9V8.7C1 9 1.2 9.3 1.5 9.4L2.8 9.9L2.2 11.1C2.1 11.4 2.1 11.7 2.4 11.9L3.7 13.2C3.9 13.4 4.3 13.5 4.5 13.4L5.7 12.8L6.2 14.1C6.3 14.4 6.6 14.6 6.9 14.6H8.7C9 14.6 9.3 14.4 9.4 14.1L9.9 12.8L11.1 13.4C11.4 13.5 11.7 13.5 11.9 13.2L13.2 11.9C13.4 11.7 13.5 11.3 13.4 11.1L12.8 9.9L14.1 9.4C14.4 9.3 14.6 9 14.6 8.7V6.9C14.6 6.6 14.4 6.3 14.1 6.2ZM13.1 8.2L11.6 8.8C11.4 8.9 11.2 9 11.2 9.2C11.2 9.4 11.1 9.6 11.2 9.8L11.9 11.3L11.3 11.9L9.8 11.2C9.6 11.1 9.4 11.1 9.2 11.2C9 11.3 8.9 11.4 8.8 11.6L8.2 13.1H7.4L6.8 11.6C6.7 11.4 6.6 11.2 6.4 11.2C6.2 11 6 11 5.8 11.1L4.3 11.8L3.7 11.2L4.4 9.7C4.5 9.5 4.5 9.3 4.4 9.1C4.3 8.9 4.2 8.8 4 8.7L2.5 8.2V7.4L4 6.8C4.2 6.7 4.4 6.6 4.4 6.4C4.4 6.2 4.5 6 4.4 5.8L3.8 4.3L4.4 3.7L5.9 4.4C6.1 4.5 6.3 4.5 6.5 4.4C6.6 4.4 6.7 4.2 6.8 4L7.4 2.5H8.2L8.7 4C8.8 4.2 9 4.4 9.2 4.5C9.4 4.6 9.6 4.6 9.8 4.5L11.3 3.8L11.9 4.4L11.2 5.9C11 6 11 6.2 11.1 6.4C11.2 6.6 11.3 6.7 11.5 6.8L13 7.4V8.2H13.1Z" fill="#2A3843"/>
</svg>
