<svg width="16" height="16" viewBox="0 0 16 16" fill="none" xmlns="http://www.w3.org/2000/svg">
<path d="M12 5.5C11.5 5.5 11.1 5.7 10.8 6L7 3.3C7 3.2 7 3.1 7 3C7 1.9 6.1 1 5 1C3.9 1 3 1.9 3 3C3 4.1 3.9 5 5 5C5.4 5 5.9 4.8 6.2 4.6L10 7.3C10 7.4 10 7.5 10 7.5C10 7.6 10 7.6 10 7.7L6.1 10.4C5.8 10.2 5.4 10.1 5 10.1C3.9 10.1 3 11 3 12.1C3 13.2 3.9 14.1 5 14.1C6.1 14.1 7 13.2 7 12.1C7 11.9 7 11.8 6.9 11.7L10.7 9.1C11.1 9.3 11.5 9.5 12 9.5C13.1 9.5 14 8.6 14 7.5C14 6.4 13.1 5.5 12 5.5ZM5 3.5C4.7 3.5 4.5 3.3 4.5 3C4.5 2.7 4.7 2.5 5 2.5C5.3 2.5 5.5 2.7 5.5 3C5.5 3.3 5.3 3.5 5 3.5ZM5 12.6C4.7 12.6 4.5 12.4 4.5 12.1C4.5 11.8 4.7 11.6 5 11.6C5.3 11.6 5.5 11.8 5.5 12.1C5.5 12.4 5.3 12.6 5 12.6ZM12 8C11.7 8 11.5 7.8 11.5 7.5C11.5 7.2 11.7 7 12 7C12.3 7 12.5 7.2 12.5 7.5C12.5 7.8 12.3 8 12 8Z" fill="#2A3843"/>
</svg>
