<svg width="16" height="16" viewBox="0 0 16 16" fill="none" xmlns="http://www.w3.org/2000/svg">
<path fill-rule="evenodd" clip-rule="evenodd" d="M7.5204 4.30853C7.5204 3.82528 7.91215 3.43353 8.3954 3.43353H14.188C14.6712 3.43353 15.063 3.82528 15.063 4.30853C15.063 4.79178 14.6712 5.18353 14.188 5.18353H8.3954C7.91215 5.18353 7.5204 4.79178 7.5204 4.30853ZM2.53111 9.03L3.10209 9.7062L3.10209 4.30853C3.10209 3.82528 3.49384 3.43353 3.97709 3.43353C4.46034 3.43353 4.85209 3.82528 4.85209 4.30853L4.85209 9.70622L5.4231 9.03C5.73487 8.66078 6.28693 8.61421 6.65616 8.92598C7.02538 9.23776 7.07195 9.78982 6.76017 10.159L5.02766 12.2108C4.47835 12.8613 3.47585 12.8613 2.92654 12.2108L1.19403 10.159C0.882254 9.78982 0.928826 9.23776 1.29805 8.92598C1.66727 8.61421 2.21933 8.66078 2.53111 9.03ZM8.3954 7.02449C7.91215 7.02449 7.5204 7.41624 7.5204 7.89949C7.5204 8.38274 7.91215 8.77449 8.3954 8.77449H12.5768C13.0601 8.77449 13.4518 8.38274 13.4518 7.89949C13.4518 7.41624 13.0601 7.02449 12.5768 7.02449H8.3954ZM8.3954 10.676C7.91215 10.676 7.5204 11.0677 7.5204 11.551C7.5204 12.0342 7.91215 12.426 8.3954 12.426L11.1959 12.426C11.6792 12.426 12.0709 12.0342 12.0709 11.551C12.0709 11.0677 11.6792 10.676 11.1959 10.676L8.3954 10.676Z" fill="#2A3843"/>
</svg>
