<svg width="16" height="16" viewBox="0 0 16 16" fill="none" xmlns="http://www.w3.org/2000/svg">
<path d="M14.8069 3.22069V1.77241C14.8069 1.38621 14.5172 1 14.0345 1H12.5862C12.2 1 11.8138 1.28966 11.8138 1.77241H3.89655C3.89655 1.28966 3.6069 1 3.22069 1H1.77241C1.28966 1 1 1.28966 1 1.77241V3.22069C1 3.6069 1.28966 3.89655 1.77241 3.89655V11.9103C1.28966 11.9103 1 12.2 1 12.5862V14.0345C1 14.4207 1.28966 14.8069 1.77241 14.8069H3.22069C3.6069 14.8069 3.9931 14.5172 3.9931 14.0345H12.0069C12.0069 14.4207 12.2966 14.8069 12.7793 14.8069H14.2276C14.6138 14.8069 15 14.5172 15 14.0345V12.5862C15 12.2 14.7103 11.8138 14.2276 11.8138V3.89655C14.4207 3.89655 14.8069 3.6069 14.8069 3.22069ZM12.5862 11.9103C12.2 11.9103 11.8138 12.2 11.8138 12.6828H3.89655C3.89655 12.2966 3.6069 11.9103 3.12414 11.9103V3.89655C3.6069 3.89655 3.89655 3.6069 3.89655 3.22069H11.9103C11.9103 3.6069 12.2 3.89655 12.5862 3.89655V11.9103Z" fill="#2A3843"/>
</svg>
