<svg width="16" height="16" viewBox="0 0 16 16" fill="none" xmlns="http://www.w3.org/2000/svg">
<g clip-path="url(#clip0_1186_231)">
<path d="M7.09192 1.43467C7.44934 0.659797 8.55062 0.659797 8.90804 1.43467L10.1733 4.17772C10.319 4.49353 10.6182 4.71097 10.9636 4.75192L13.9634 5.1076C14.8108 5.20807 15.1511 6.25545 14.5246 6.83482L12.3068 8.8858C12.0514 9.12192 11.9371 9.47376 12.0049 9.81487L12.5936 12.7777C12.7599 13.6147 11.869 14.262 11.1244 13.8452L8.48842 12.3697C8.18495 12.1999 7.81501 12.1999 7.51154 12.3697L4.8756 13.8452C4.13099 14.262 3.24003 13.6147 3.40634 12.7777L3.99506 9.81487C4.06283 9.47376 3.94852 9.12192 3.69318 8.8858L1.47536 6.83482C0.848864 6.25545 1.18918 5.20807 2.03657 5.1076L5.03636 4.75192C5.38172 4.71097 5.68101 4.49353 5.82667 4.17772L7.09192 1.43467Z" fill="#2A3843"/>
</g>
<defs>
<clipPath id="clip0_1186_231">
<rect width="16" height="16" fill="white"/>
</clipPath>
</defs>
</svg>
