<svg width="16" height="16" viewBox="0 0 16 16" fill="none" xmlns="http://www.w3.org/2000/svg">
<path d="M3.89193 5.60409C3.72154 5.6154 3.55241 5.56805 3.41266 5.46989L2.50206 4.70307C2.42654 4.64265 2.36365 4.56795 2.317 4.48322C2.27034 4.3985 2.24083 4.30542 2.23015 4.20929C2.21947 4.11316 2.22783 4.01587 2.25475 3.92297C2.28167 3.83007 2.32662 3.74339 2.38704 3.66786C2.44746 3.59233 2.52216 3.52945 2.60689 3.48279C2.69161 3.43614 2.78469 3.40663 2.88082 3.39595C2.97695 3.38527 3.07424 3.39363 3.16714 3.42054C3.26004 3.44746 3.34672 3.49242 3.42225 3.55284L3.75774 3.83081L4.77378 2.51763C4.88685 2.37803 5.04869 2.28655 5.2266 2.26164C5.40451 2.23673 5.58524 2.28026 5.7323 2.38343C5.80783 2.44008 5.87146 2.51104 5.91956 2.59228C5.96766 2.67351 5.99929 2.76342 6.01264 2.85688C6.02599 2.95034 6.0208 3.04551 5.99737 3.13697C5.97394 3.22842 5.93273 3.31436 5.87608 3.38989L4.39995 5.30694C4.34172 5.38415 4.26832 5.44864 4.18425 5.49645C4.10018 5.54425 4.00723 5.57436 3.9111 5.58492L3.89193 5.60409Z" fill="#2A3843"/>
<path d="M3.89193 9.67363C3.72154 9.68494 3.55241 9.63759 3.41266 9.53943L2.50206 8.77261C2.42654 8.71219 2.36365 8.63749 2.317 8.55276C2.27034 8.46804 2.24083 8.37496 2.23015 8.27883C2.21947 8.1827 2.22783 8.08541 2.25475 7.99251C2.28167 7.89961 2.32662 7.81293 2.38704 7.7374C2.44746 7.66187 2.52216 7.59899 2.60689 7.55233C2.69161 7.50568 2.78469 7.47617 2.88082 7.46549C2.97695 7.45481 3.07424 7.46317 3.16714 7.49008C3.26004 7.517 3.34672 7.56196 3.42225 7.62238L3.75774 7.90035L4.77378 6.58717C4.88685 6.44757 5.04869 6.35609 5.2266 6.33118C5.40451 6.30627 5.58524 6.3498 5.7323 6.45297C5.80783 6.50962 5.87146 6.58058 5.91956 6.66182C5.96766 6.74305 5.99929 6.83296 6.01264 6.92642C6.02599 7.01988 6.0208 7.11505 5.99737 7.20651C5.97394 7.29796 5.93273 7.3839 5.87608 7.45943L4.39995 9.37648C4.34172 9.45369 4.26832 9.51818 4.18425 9.56599C4.10018 9.61379 4.00723 9.6439 3.9111 9.65446L3.89193 9.67363Z" fill="#2A3843"/>
<path d="M3.89193 13.7436C3.72154 13.7549 3.55241 13.7075 3.41266 13.6094L2.50206 12.8426C2.42654 12.7821 2.36365 12.7074 2.317 12.6227C2.27034 12.538 2.24083 12.4449 2.23015 12.3488C2.21947 12.2526 2.22783 12.1554 2.25475 12.0625C2.28167 11.9696 2.32662 11.8829 2.38704 11.8073C2.44746 11.7318 2.52216 11.6689 2.60689 11.6223C2.69161 11.5756 2.78469 11.5461 2.88082 11.5354C2.97695 11.5248 3.07424 11.5331 3.16714 11.56C3.26004 11.5869 3.34672 11.6319 3.42225 11.6923L3.75774 11.9703L4.77378 10.6571C4.88685 10.5175 5.04869 10.426 5.2266 10.4011C5.40451 10.3762 5.58524 10.4197 5.7323 10.5229C5.80783 10.5796 5.87146 10.6505 5.91956 10.7318C5.96766 10.813 5.99929 10.9029 6.01264 10.9964C6.02599 11.0898 6.0208 11.185 5.99737 11.2764C5.97394 11.3679 5.93273 11.4538 5.87608 11.5294L4.39995 13.4464C4.34172 13.5236 4.26832 13.5881 4.18425 13.6359C4.10018 13.6837 4.00723 13.7138 3.9111 13.7244L3.89193 13.7436Z" fill="#2A3843"/>
<path d="M8.31564 4.84399H12.8762C13.1144 4.84399 13.3428 4.74936 13.5113 4.58093C13.6797 4.41249 13.7743 4.18404 13.7743 3.94583C13.7743 3.70763 13.6797 3.47918 13.5113 3.31074C13.3428 3.1423 13.1144 3.04768 12.8762 3.04768H8.31564C8.07743 3.04768 7.84898 3.1423 7.68054 3.31074C7.51211 3.47918 7.41748 3.70763 7.41748 3.94583C7.41748 4.18404 7.51211 4.41249 7.68054 4.58093C7.84898 4.74936 8.07743 4.84399 8.31564 4.84399Z" fill="#2A3843"/>
<path d="M8.31564 8.91353H12.8762C13.1144 8.91353 13.3428 8.8189 13.5113 8.65047C13.6797 8.48203 13.7743 8.25358 13.7743 8.01538C13.7743 7.77717 13.6797 7.54872 13.5113 7.38028C13.3428 7.21184 13.1144 7.11722 12.8762 7.11722H8.31564C8.07743 7.11722 7.84898 7.21184 7.68054 7.38028C7.51211 7.54872 7.41748 7.77717 7.41748 8.01538C7.41748 8.25358 7.51211 8.48203 7.68054 8.65047C7.84898 8.8189 8.07743 8.91353 8.31564 8.91353Z" fill="#2A3843"/>
<path d="M8.31564 12.9835H12.8762C13.1144 12.9835 13.3428 12.8888 13.5113 12.7204C13.6797 12.552 13.7743 12.3235 13.7743 12.0853C13.7743 11.8471 13.6797 11.6187 13.5113 11.4502C13.3428 11.2818 13.1144 11.1872 12.8762 11.1872H8.31564C8.07743 11.1872 7.84898 11.2818 7.68054 11.4502C7.51211 11.6187 7.41748 11.8471 7.41748 12.0853C7.41748 12.3235 7.51211 12.552 7.68054 12.7204C7.84898 12.8888 8.07743 12.9835 8.31564 12.9835Z" fill="#2A3843"/>
</svg>
