<svg width="16" height="16" viewBox="0 0 16 16" fill="none" xmlns="http://www.w3.org/2000/svg">
<g clip-path="url(#clip0_168_548)">
<path d="M13.5122 2.39821H2.57746C1.68117 2.39821 0.964142 3.11524 0.964142 4.01153V10.8233V12.0781C0.964142 12.9744 1.68117 13.6914 2.57746 13.6914H13.5122C14.4085 13.6914 15.1255 12.9744 15.1255 12.0781V10.7337V4.01153C15.0359 3.11524 14.3188 2.39821 13.5122 2.39821ZM7.95519 13.064C7.59667 13.064 7.23816 12.7951 7.23816 12.347C7.23816 11.8989 7.50704 11.63 7.95519 11.63C8.40333 11.63 8.67222 11.8989 8.67222 12.347C8.67222 12.7951 8.3137 13.064 7.95519 13.064ZM13.6914 10.7337C13.6914 10.8233 13.6018 11.0026 13.4225 11.0026H2.57746C2.48783 11.0026 2.30857 10.9129 2.30857 10.7337V4.01153C2.30857 3.9219 2.3982 3.74264 2.57746 3.74264H13.5122C13.6018 3.74264 13.7811 3.83227 13.7811 4.01153V10.7337H13.6914Z" fill="#2A3843"/>
</g>
<defs>
<clipPath id="clip0_168_548">
<rect width="14.0717" height="11.2036" fill="white" transform="translate(0.964142 2.39821)"/>
</clipPath>
</defs>
</svg>
