<svg width="16" height="16" viewBox="0 0 16 16" fill="none" xmlns="http://www.w3.org/2000/svg">
<path d="M14.3684 6.47368C14.6842 6.36842 14.7895 6.05263 14.7895 5.73684V3.84211C14.7895 3.42105 14.4737 3 13.9474 3H1.84211C1.31579 3 1 3.31579 1 3.84211V5.84211C1 6.15789 1.21053 6.47368 1.42105 6.57895C2.05263 6.68421 2.36842 7.21053 2.36842 7.8421C2.36842 8.36842 2.05263 8.89474 1.52632 9.21053C1.21053 9.31579 1 9.52632 1 9.8421V11.8421C1 12.2632 1.31579 12.6842 1.84211 12.6842H14.1579C14.5789 12.6842 15 12.3684 15 11.8421V9.8421C15 9.52632 14.7895 9.21053 14.5789 9.10526C14.0526 8.89474 13.7368 8.36842 13.7368 7.73684C13.5263 7.21053 13.8421 6.68421 14.3684 6.47368ZM13.3158 5.31579C12.4737 5.84211 11.9474 6.78947 11.9474 7.8421C11.9474 8.89474 12.4737 9.8421 13.3158 10.3684V11.1053H11.1053V10.6842C11.1053 10.2632 10.7895 9.8421 10.2632 9.8421C9.73684 9.8421 9.52632 10.2632 9.52632 10.6842V11.1053H2.57895V10.3684C3.42105 9.8421 3.94737 8.89474 3.94737 7.8421C3.94737 6.78947 3.42105 5.84211 2.57895 5.31579V4.57895H9.52632V5C9.52632 5.42105 9.84211 5.84211 10.3684 5.84211C10.8947 5.84211 11.2105 5.52632 11.2105 5V4.57895H13.4211V5.31579H13.3158Z" fill="#2A3843"/>
<path d="M10.3684 6.6842C9.94736 6.6842 9.52631 6.99999 9.52631 7.52631V8.26315C9.52631 8.6842 9.84209 9.10526 10.3684 9.10526C10.8947 9.10526 11.1053 8.6842 11.1053 8.26315V7.42105C11.1053 6.99999 10.7895 6.6842 10.3684 6.6842Z" fill="#2A3843"/>
</svg>
