<svg width="16" height="16" viewBox="0 0 16 16" fill="none" xmlns="http://www.w3.org/2000/svg">
<path d="M11.3654 6.48077V4.46154C11.3654 2.53846 9.82692 1 7.90385 1C5.98077 1 4.53846 2.53846 4.53846 4.46154V4.75C4.53846 5.13462 4.82692 5.51923 5.30769 5.51923C5.78846 5.51923 6.07692 5.23077 6.07692 4.75V4.46154C6.07692 3.40385 6.94231 2.44231 8.09615 2.44231C9.25 2.44231 10.1154 3.30769 10.1154 4.46154V6.57692H4.73077C3.76923 6.48077 3 7.25 3 8.21154V12.3462C3 13.3077 3.76923 14.0769 4.73077 14.0769H11.2692C12.2308 14.0769 13 13.3077 13 12.3462V8.21154C12.9038 7.34615 12.2308 6.57692 11.3654 6.48077ZM11.4615 12.3462C11.4615 12.4423 11.3654 12.6346 11.1731 12.6346H4.73077C4.63462 12.6346 4.44231 12.5385 4.44231 12.3462V8.21154C4.44231 8.11539 4.53846 7.92308 4.73077 7.92308H11.2692C11.3654 7.92308 11.5577 8.01923 11.5577 8.21154V12.3462H11.4615Z" fill="#2A3843"/>
</svg>
