<svg width="16" height="16" viewBox="0 0 16 16" fill="none" xmlns="http://www.w3.org/2000/svg">
<path fill-rule="evenodd" clip-rule="evenodd" d="M11.4093 10.0566L10.1762 9.62141C10.6839 9.04111 10.9741 8.17066 10.9741 7.08259C11.0466 4.68885 9.0881 4.03601 8.00004 4.03601C6.91197 4.03601 4.95346 4.68885 4.95346 7.08259C4.95346 8.17066 5.31614 9.04111 5.75137 9.62141L4.59077 10.0566C3.72032 10.3468 3.14001 11.2172 3.14001 12.1602C3.14001 12.7714 4.08137 13.0521 4.22808 12.9054V12.1602C4.22808 11.6525 4.51823 11.2898 4.95346 11.0722L6.69436 10.4193C7.12959 10.6369 7.56481 10.782 8.00004 10.782C8.43526 10.782 8.87049 10.6369 9.30572 10.4193L11.0466 11.0722C11.4818 11.2172 11.772 11.6525 11.772 12.1602V12.5229V12.8321C11.772 13.0815 12.8601 12.8847 12.8601 12.1602C12.7875 11.2172 12.2072 10.4193 11.4093 10.0566ZM7.99996 5.10229C8.35539 5.10229 9.9193 5.17338 9.9193 7.02163C9.9193 8.94097 8.56865 9.58075 7.99996 9.58075C7.43127 9.58075 6.08062 8.94097 6.08062 7.02163C6.08062 5.17338 7.64453 5.10229 7.99996 5.10229Z" fill="#2A3843"/>
<path d="M10.1762 9.62141L9.98802 9.45679L9.74512 9.73439L10.093 9.85716L10.1762 9.62141ZM11.4093 10.0566L11.5128 9.82905L11.5028 9.82453L11.4925 9.82089L11.4093 10.0566ZM10.9741 7.08259L10.7241 7.07502V7.08259H10.9741ZM5.75137 9.62141L5.83915 9.85549L6.15157 9.73834L5.95137 9.47141L5.75137 9.62141ZM4.59077 10.0566L4.66988 10.294L4.67855 10.2907L4.59077 10.0566ZM4.22808 12.9054L4.40486 13.0822L4.47808 13.009V12.9054H4.22808ZM4.95346 11.0722L4.86568 10.8381L4.85339 10.8427L4.84165 10.8486L4.95346 11.0722ZM6.69436 10.4193L6.80616 10.1957L6.70866 10.147L6.60658 10.1852L6.69436 10.4193ZM9.30572 10.4193L9.3935 10.1852L9.29142 10.147L9.19391 10.1957L9.30572 10.4193ZM11.0466 11.0722L10.9588 11.3064L10.9676 11.3093L11.0466 11.0722ZM12.8601 12.1602H13.1101V12.1506L13.1093 12.1411L12.8601 12.1602ZM10.093 9.85716L11.3261 10.2924L11.4925 9.82089L10.2594 9.38566L10.093 9.85716ZM10.7241 7.08259C10.7241 8.12928 10.4449 8.93467 9.98802 9.45679L10.3643 9.78604C10.923 9.14755 11.2241 8.21204 11.2241 7.08259H10.7241ZM8.00004 4.28601C8.50326 4.28601 9.20853 4.43883 9.77229 4.86165C10.3231 5.27479 10.758 5.95868 10.7242 7.07502L11.224 7.09017C11.2627 5.81276 10.7546 4.97336 10.0723 4.46165C9.4029 3.95961 8.58488 3.78601 8.00004 3.78601V4.28601ZM5.20346 7.08259C5.20346 5.96499 5.65548 5.27796 6.21732 4.86269C6.79102 4.43865 7.49723 4.28601 8.00004 4.28601V3.78601C7.41478 3.78601 6.5977 3.95979 5.92012 4.4606C5.23069 4.97019 4.70346 5.80645 4.70346 7.08259H5.20346ZM5.95137 9.47141C5.54724 8.93258 5.20346 8.11435 5.20346 7.08259H4.70346C4.70346 8.22697 5.08504 9.14964 5.55137 9.77141L5.95137 9.47141ZM4.67855 10.2907L5.83915 9.85549L5.66359 9.38733L4.50299 9.82256L4.67855 10.2907ZM3.39001 12.1602C3.39001 11.3143 3.91116 10.5467 4.66982 10.2938L4.51171 9.81947C3.52947 10.1469 2.89001 11.1202 2.89001 12.1602H3.39001ZM4.0513 12.7286C4.09033 12.6896 4.12505 12.6903 4.10698 12.6927C4.09603 12.6941 4.07086 12.6948 4.03082 12.6892C3.95157 12.6782 3.84641 12.6468 3.74182 12.5939C3.5191 12.4813 3.39001 12.3239 3.39001 12.1602H2.89001C2.89001 12.6077 3.23161 12.8963 3.51624 13.0402C3.66533 13.1155 3.82301 13.165 3.96153 13.1844C4.03038 13.194 4.10282 13.1974 4.17143 13.1885C4.23292 13.1805 4.32916 13.1579 4.40486 13.0822L4.0513 12.7286ZM3.97808 12.1602V12.9054H4.47808V12.1602H3.97808ZM4.84165 10.8486C4.34268 11.098 3.97808 11.5364 3.97808 12.1602H4.47808C4.47808 11.7685 4.69378 11.4815 5.06526 11.2958L4.84165 10.8486ZM6.60658 10.1852L4.86568 10.8381L5.04124 11.3062L6.78214 10.6534L6.60658 10.1852ZM8.00004 10.532C7.61946 10.532 7.22434 10.4048 6.80616 10.1957L6.58256 10.6429C7.03483 10.8691 7.51017 11.032 8.00004 11.032V10.532ZM9.19391 10.1957C8.77573 10.4048 8.38062 10.532 8.00004 10.532V11.032C8.48991 11.032 8.96524 10.8691 9.41752 10.6429L9.19391 10.1957ZM11.1344 10.8381L9.3935 10.1852L9.21793 10.6534L10.9588 11.3062L11.1344 10.8381ZM12.022 12.1602C12.022 11.5602 11.6769 11.0187 11.1257 10.835L10.9676 11.3093C11.2868 11.4158 11.522 11.7447 11.522 12.1602H12.022ZM12.022 12.5229V12.1602H11.522V12.5229H12.022ZM12.022 12.8321V12.5229H11.522V12.8321H12.022ZM12.6101 12.1602C12.6101 12.3749 12.4508 12.5384 12.2233 12.6292C12.1131 12.6732 12.0134 12.6876 11.955 12.6845C11.9235 12.6829 11.9251 12.6773 11.9432 12.6877C11.9707 12.7035 12.022 12.7524 12.022 12.8321H11.522C11.522 12.974 11.6073 13.0714 11.6943 13.1213C11.7719 13.1659 11.8585 13.1802 11.929 13.1839C12.0747 13.1914 12.247 13.1581 12.4087 13.0935C12.7253 12.9672 13.1101 12.67 13.1101 12.1602H12.6101ZM11.3059 10.2842C12.0209 10.6093 12.5453 11.3274 12.6108 12.1794L13.1093 12.1411C13.0298 11.1071 12.3935 10.2294 11.5128 9.82905L11.3059 10.2842ZM10.1693 7.02163C10.1693 6.01055 9.73262 5.44647 9.21695 5.1518C8.7233 4.86972 8.18915 4.85229 7.99996 4.85229V5.35229C8.1662 5.35229 8.59172 5.37041 8.96888 5.58593C9.32402 5.78886 9.6693 6.18445 9.6693 7.02163H10.1693ZM7.99996 9.83075C8.70151 9.83075 10.1693 9.08419 10.1693 7.02163H9.6693C9.6693 8.79774 8.43579 9.33075 7.99996 9.33075V9.83075ZM5.83062 7.02163C5.83062 9.08419 7.2984 9.83075 7.99996 9.83075V9.33075C7.56413 9.33075 6.33062 8.79774 6.33062 7.02163H5.83062ZM7.99996 4.85229C7.81077 4.85229 7.27662 4.86972 6.78297 5.1518C6.2673 5.44647 5.83062 6.01055 5.83062 7.02163H6.33062C6.33062 6.18445 6.6759 5.78886 7.03104 5.58593C7.4082 5.37041 7.83371 5.35229 7.99996 5.35229V4.85229Z" fill="#2A3843"/>
<path d="M7.99997 0.978485C4.10967 0.978485 0.978455 4.1097 0.978455 8C0.978455 11.8903 4.10967 15.0215 7.99997 15.0215C11.8903 15.0215 15.0215 11.8903 15.0215 8C15.0215 4.1097 11.7954 0.978485 7.99997 0.978485ZM7.99997 13.5982C4.96364 13.5982 2.40173 11.1312 2.40173 8C2.40173 4.86878 4.86875 2.40177 7.99997 2.40177C11.1312 2.40177 13.5982 4.86878 13.5982 8C13.5982 11.1312 11.0363 13.5982 7.99997 13.5982Z" fill="#2A3843"/>
</svg>
