<svg width="16" height="16" viewBox="0 0 16 16" fill="none" xmlns="http://www.w3.org/2000/svg">
<path fill-rule="evenodd" clip-rule="evenodd" d="M8.05691 5.87117C7.50674 5.87117 7.06073 6.31717 7.06073 6.86735C7.06073 7.41753 7.50674 7.86353 8.05691 7.86353C8.60709 7.86353 9.0531 7.41753 9.0531 6.86735C9.0531 6.31717 8.60709 5.87117 8.05691 5.87117ZM5.56073 6.86735C5.56073 5.48874 6.67831 4.37117 8.05691 4.37117C9.43552 4.37117 10.5531 5.48874 10.5531 6.86735C10.5531 8.24595 9.43552 9.36353 8.05691 9.36353C6.67831 9.36353 5.56073 8.24595 5.56073 6.86735Z" fill="#2A3843"/>
<path fill-rule="evenodd" clip-rule="evenodd" d="M8.28119 8.17253C8.44517 7.79216 8.88646 7.61674 9.26683 7.78072L10.4367 8.28504C10.4438 8.2881 10.4508 8.29127 10.4578 8.29455C10.8128 8.46081 11.1117 8.72702 11.3177 9.06052C11.5218 9.39094 11.6261 9.77322 11.6181 10.1614V10.7409C11.6181 11.1551 11.2823 11.4909 10.8681 11.4909C10.4539 11.4909 10.1181 11.1551 10.1181 10.7409V10.1527L10.1183 10.1332C10.121 10.033 10.0943 9.93418 10.0416 9.84888C9.99048 9.76614 9.91703 9.6996 9.82982 9.65688L8.673 9.15817C8.29263 8.99419 8.11721 8.5529 8.28119 8.17253Z" fill="#2A3843"/>
<path fill-rule="evenodd" clip-rule="evenodd" d="M7.83511 8.11736C7.99917 8.49771 7.82383 8.93902 7.44349 9.10308L6.16927 9.65268C6.08201 9.69564 6.00853 9.76233 5.95733 9.84521C5.90455 9.93064 5.87774 10.0297 5.88022 10.1303L5.88045 10.1488V10.737C5.88045 11.1512 5.54467 11.487 5.13045 11.487C4.71624 11.487 4.38045 11.1512 4.38045 10.737V10.157C4.37285 9.76916 4.47715 9.38716 4.68121 9.05685C4.88702 8.7237 5.18532 8.45761 5.53975 8.29105C5.54701 8.28763 5.55433 8.28434 5.5617 8.28116L6.8494 7.72574C7.22974 7.56168 7.67106 7.73702 7.83511 8.11736Z" fill="#2A3843"/>
<path fill-rule="evenodd" clip-rule="evenodd" d="M0.591751 11.2915C0.857065 10.6262 1.50101 10.1897 2.21726 10.1897H13.7827C14.499 10.1897 15.1429 10.6262 15.4082 11.2915L15.6107 11.7991C16.069 12.9483 15.2224 14.1973 13.9851 14.1973H2.01484C0.777559 14.1973 -0.0689863 12.9483 0.38933 11.7991L0.591751 11.2915ZM2.21726 11.6897C2.11494 11.6897 2.02295 11.7521 1.98505 11.8471L1.78263 12.3547C1.71715 12.5189 1.83809 12.6973 2.01484 12.6973H13.9851C14.1619 12.6973 14.2828 12.5189 14.2174 12.3547L14.0149 11.8471C13.977 11.7521 13.885 11.6897 13.7827 11.6897H2.21726Z" fill="#2A3843"/>
<path fill-rule="evenodd" clip-rule="evenodd" d="M1.2572 4.04227C1.2572 3.07577 2.0407 2.29227 3.0072 2.29227H12.9928C13.9593 2.29227 14.7428 3.07577 14.7428 4.04227V9.93973C14.7428 10.9062 13.9593 11.6897 12.9928 11.6897H3.0072C2.0407 11.6897 1.2572 10.9062 1.2572 9.93973V4.04227ZM3.0072 3.79227C2.86913 3.79227 2.7572 3.9042 2.7572 4.04227V9.93973C2.7572 10.0778 2.86913 10.1897 3.0072 10.1897H12.9928C13.1308 10.1897 13.2428 10.0778 13.2428 9.93973V4.04227C13.2428 3.9042 13.1308 3.79227 12.9928 3.79227H3.0072Z" fill="#2A3843"/>
</svg>
