<svg width="16" height="16" viewBox="0 0 16 16" fill="none" xmlns="http://www.w3.org/2000/svg">
<path d="M15 8.10849C15 8.01698 15 8.01698 14.9085 7.92548V7.83398C12.9869 4.99737 10.6078 3.44182 7.95425 3.44182C5.39216 3.44182 3.01307 4.99737 1.0915 7.83398V7.92548C1 8.01698 1 8.01698 1 8.10849V8.19999V8.29149C1 8.383 1 8.383 1.0915 8.4745V8.566C2.92157 11.4026 5.39216 12.9582 7.95425 12.9582C10.5163 12.9582 12.9869 11.4026 14.817 8.566V8.4745C14.817 8.383 14.9085 8.383 14.9085 8.29149V8.19999L15 8.10849ZM9.3268 5.45489C9.78431 5.45489 10.2418 5.8209 10.2418 6.36992C10.2418 6.91894 9.87582 7.28496 9.3268 7.28496C8.77778 7.28496 8.41177 6.91894 8.41177 6.36992C8.41177 5.8209 8.77778 5.45489 9.3268 5.45489ZM7.95425 11.6771C5.94118 11.6771 4.01961 10.4876 2.46405 8.29149C3.10458 7.37646 3.8366 6.64443 4.56863 6.09541C4.47712 6.36992 4.38562 6.73594 4.38562 7.01045C4.38562 8.93201 5.94118 10.5791 7.95425 10.5791C9.96732 10.5791 11.5229 9.02352 11.5229 7.01045C11.5229 6.64443 11.4314 6.36992 11.3399 6.09541C12.0719 6.64443 12.8039 7.37646 13.4444 8.29149C11.8889 10.4876 9.96732 11.6771 7.95425 11.6771Z" fill="#2A3843"/>
</svg>
