<svg width="16" height="17" viewBox="0 0 16 17" fill="none" xmlns="http://www.w3.org/2000/svg">
<path fill-rule="evenodd" clip-rule="evenodd" d="M2.11621 3.00758C2.46139 3.00758 2.74121 3.28741 2.74121 3.63258V6.78512H5.89374C6.23892 6.78512 6.51874 7.06494 6.51874 7.41012C6.51874 7.75529 6.23892 8.03512 5.89374 8.03512H2.11621C1.77103 8.03512 1.49121 7.75529 1.49121 7.41012V3.63258C1.49121 3.28741 1.77103 3.00758 2.11621 3.00758Z" fill="#6D7782"/>
<path fill-rule="evenodd" clip-rule="evenodd" d="M8.16428 2.44524C9.51497 2.25521 10.8908 2.50928 12.0846 3.16919C13.2783 3.8291 14.2252 4.85909 14.7827 6.10397C15.3401 7.34884 15.4779 8.74117 15.1753 10.0712C14.8726 11.4012 14.1459 12.5968 13.1047 13.4778C12.0634 14.3589 10.764 14.8777 9.40229 14.9561C8.04055 15.0345 6.69022 14.6682 5.55477 13.9124C4.41932 13.1566 3.56024 12.0522 3.107 10.7657C2.99229 10.4402 3.16323 10.0833 3.4888 9.96858C3.81436 9.85388 4.17126 10.0248 4.28596 10.3504C4.64916 11.3813 5.33754 12.2662 6.2474 12.8718C7.15725 13.4774 8.23929 13.771 9.33046 13.7081C10.4216 13.6453 11.4629 13.2296 12.2972 12.5236C13.1316 11.8176 13.7139 10.8595 13.9564 9.7938C14.1989 8.72806 14.0885 7.61237 13.6418 6.61483C13.1951 5.6173 12.4364 4.79195 11.4798 4.26316C10.5233 3.73437 9.42075 3.53077 8.33843 3.68305C7.2561 3.83533 6.25258 4.33523 5.47907 5.10743L5.46549 5.12059L2.5442 7.86559C2.29265 8.10196 1.89711 8.08966 1.66074 7.83811C1.42437 7.58656 1.43668 7.19102 1.68823 6.95465L4.60281 4.21595C5.56718 3.25617 6.81679 2.63482 8.16428 2.44524Z" fill="#6D7782"/>
</svg>
