<svg width="16" height="16" viewBox="0 0 16 16" fill="none" xmlns="http://www.w3.org/2000/svg">
<path d="M12.6001 15H4.2251C4.15635 15 4.1001 14.9438 4.1001 14.875V14C4.1001 13.9312 4.15635 13.875 4.2251 13.875H11.9751V3.125C11.9751 3.05625 12.0313 3 12.1001 3H12.9751C13.0438 3 13.1001 3.05625 13.1001 3.125V14.5C13.1001 14.7766 12.8767 15 12.6001 15ZM10.6001 13H2.6001C2.32354 13 2.1001 12.7766 2.1001 12.5V4.20781C2.1001 4.075 2.15322 3.94844 2.24697 3.85469L4.95479 1.14688C4.98916 1.1125 5.02822 1.08438 5.07041 1.06094V1.03125H5.13603C5.19072 1.01094 5.24853 1 5.30791 1H10.6001C10.8767 1 11.1001 1.22344 11.1001 1.5V12.5C11.1001 12.7766 10.8767 13 10.6001 13ZM5.06885 2.62187L3.72354 3.96875H5.06885V2.62187ZM9.9751 2.125H6.06885V4.34375C6.06885 4.68906 5.78916 4.96875 5.44385 4.96875H3.2251V11.875H9.9751V2.125Z" fill="#6D7782"/>
</svg>
