<svg width="16" height="17" viewBox="0 0 16 17" fill="none" xmlns="http://www.w3.org/2000/svg">
<g clip-path="url(#clip0_24_6)">
<path d="M9.80086 8.94822L14.3794 4.36965L15.3236 3.42545C15.4629 3.28616 15.4629 3.05982 15.3236 2.92054L14.3134 1.91027C14.1741 1.77098 13.9477 1.77098 13.8084 1.91027L8.28568 7.43304L2.76291 1.90982C2.62363 1.77054 2.39729 1.77054 2.258 1.90982L1.24729 2.92009C1.108 3.05938 1.108 3.28572 1.24729 3.425L6.7705 8.94822L1.24729 14.471C1.108 14.6103 1.108 14.8366 1.24729 14.9759L2.25755 15.9862C2.39684 16.1255 2.62318 16.1255 2.76246 15.9862L8.28568 10.4634L12.8642 15.042L13.8084 15.9862C13.9477 16.1255 14.1741 16.1255 14.3134 15.9862L15.3236 14.9759C15.4629 14.8366 15.4629 14.6103 15.3236 14.471L9.80086 8.94822Z" fill="#6D7782"/>
</g>
<defs>
<clipPath id="clip0_24_6">
<rect width="16" height="16" fill="white" transform="translate(0 0.948212)"/>
</clipPath>
</defs>
</svg>
