<svg width="16" height="16" viewBox="0 0 16 16" fill="none" xmlns="http://www.w3.org/2000/svg">
<path d="M11.5 2L10.45 0.6C10.1656 0.221875 9.72188 0 9.25 0H6.75C6.27812 0 5.83438 0.221875 5.55 0.6L4.5 2H1.25C0.834375 2 0.5 2.33437 0.5 2.75V2.8125C0.5 2.91562 0.584375 3 0.6875 3H1.34063L2.37812 14.6344C2.44687 15.4062 3.09375 16 3.87188 16H12.1281C12.9063 16 13.5531 15.4062 13.6219 14.6344L14.6594 3H15.3125C15.4156 3 15.5 2.91562 15.5 2.8125V2.75C15.5 2.33437 15.1656 2 14.75 2H11.5ZM6.75 1H9.25C9.40625 1 9.55625 1.075 9.65 1.2L10.25 2H5.75L6.35 1.2C6.44375 1.075 6.59375 1 6.75 1ZM12.625 14.5437C12.6031 14.8031 12.3875 15 12.1281 15H3.87188C3.6125 15 3.39687 14.8031 3.375 14.5437L2.34375 3H13.6562L12.625 14.5437Z" fill="#6D7782"/>
</svg>
