<svg width="16" height="17" viewBox="0 0 16 17" fill="none" xmlns="http://www.w3.org/2000/svg">
<g clip-path="url(#clip0_40_8)">
<path fill-rule="evenodd" clip-rule="evenodd" d="M2.14607 2.77563C2.22232 2.6184 2.38171 2.51855 2.55646 2.51855H13.4436C13.6162 2.51855 13.7741 2.61603 13.8514 2.77038C13.9287 2.92474 13.9123 3.10952 13.8089 3.24779L10.0305 8.30139V12.4719C10.0305 12.5891 9.98541 12.7018 9.90452 12.7867L6.96682 15.8677C6.83815 16.0026 6.6403 16.0456 6.4672 15.9763C6.2941 15.907 6.1806 15.7394 6.1806 15.5529V8.30792L2.19828 3.25707C2.09009 3.11984 2.06981 2.93286 2.14607 2.77563ZM3.49691 3.43078L6.99489 7.86733C7.05833 7.94779 7.09283 8.04727 7.09283 8.14973V14.4136L9.1183 12.2893V8.14973C9.1183 8.05128 9.15016 7.95547 9.20911 7.87661L12.5331 3.43078H3.49691Z" fill="#6D7782"/>
</g>
<defs>
<clipPath id="clip0_40_8">
<rect width="16" height="16" fill="white" transform="translate(0 0.948212)"/>
</clipPath>
</defs>
</svg>
