<svg width="16" height="17" viewBox="0 0 16 17" fill="none" xmlns="http://www.w3.org/2000/svg">
<g clip-path="url(#clip0_24_39)">
<path d="M14.5 1.67518H1.5C0.671562 1.67518 0 2.34674 0 3.17518V14.1752C0 15.0036 0.671562 15.6752 1.5 15.6752H14.5C15.3284 15.6752 16 15.0036 16 14.1752V3.17518C16 2.34674 15.3284 1.67518 14.5 1.67518ZM5 14.6752H1.5C1.22384 14.6752 1 14.4513 1 14.1752V11.6752H5V14.6752ZM5 10.6752H1V7.67518H5V10.6752ZM5 6.67518H1V3.67518H5V6.67518ZM10 14.6752H6V11.6752H10V14.6752ZM10 10.6752H6V7.67518H10V10.6752ZM10 6.67518H6V3.67518H10V6.67518ZM15 11.6752V14.1752C15 14.4513 14.7762 14.6752 14.5 14.6752H11V11.6752H15ZM15 10.6752H11V7.67518H15V10.6752ZM15 6.67518H11V3.67518H15V6.67518Z" fill="#6D7782"/>
</g>
<defs>
<clipPath id="clip0_24_39">
<rect width="16" height="16" fill="white" transform="translate(0 0.675179)"/>
</clipPath>
</defs>
</svg>
