<svg width="16" height="17" viewBox="0 0 16 17" fill="none" xmlns="http://www.w3.org/2000/svg">
<g clip-path="url(#clip0_24_144)">
<path d="M14.0064 12.2917C14.9601 11.4417 15.5002 10.3088 15.5002 9.13305C15.5002 7.88355 14.9152 6.71499 13.8531 5.84243C12.8193 4.99349 11.451 4.52589 10 4.52589C8.549 4.52589 7.18069 4.99349 6.14709 5.84249C5.08494 6.71499 4.5 7.88355 4.5 9.13305C4.5 10.3826 5.08494 11.5511 6.14709 12.4237C7.18069 13.2727 8.549 13.7402 10 13.7402C10.1933 13.7402 10.3879 13.7317 10.5808 13.7147L10.9103 14.0004C12.0457 14.9842 13.4977 15.5258 15 15.5259H15.5V14.4616L15.3536 14.3152C14.7759 13.7358 14.3181 13.0482 14.0064 12.2917V12.2917ZM11.5653 13.2446L10.904 12.6715L10.6835 12.6985C10.4567 12.7263 10.2285 12.7402 10 12.7402C7.51875 12.7402 5.5 11.122 5.5 9.13305C5.5 7.14408 7.51875 5.52589 10 5.52589C12.4813 5.52589 14.5 7.14405 14.5 9.13305C14.5 10.124 14.0056 11.0491 13.1079 11.738L12.82 11.959L12.9528 12.3351C13.2251 13.1032 13.6254 13.8197 14.1367 14.4543C13.1845 14.2954 12.2948 13.8768 11.5653 13.2446V13.2446Z" fill="#6D7782"/>
<path d="M1.88078 9.94702C2.34882 9.35456 2.7163 8.6892 2.96853 7.97755L3.10041 7.60333L2.81269 7.38252C1.96619 6.73296 1.5 5.86114 1.5 4.92768C1.5 3.05193 3.40653 1.52589 5.75 1.52589C7.474 1.52589 8.96147 2.35183 9.62741 3.53527C9.75106 3.52927 9.87525 3.52589 10 3.52589C10.2506 3.52589 10.4988 3.53805 10.7448 3.56236C10.4875 2.89564 10.0405 2.28702 9.42606 1.78233C8.43975 0.972113 7.13437 0.525894 5.75 0.525894C4.36563 0.525894 3.06025 0.972113 2.07387 1.78233C1.05894 2.61605 0.5 3.73308 0.5 4.92768C0.5 6.04643 1.011 7.12439 1.91406 7.93527C1.61936 8.64449 1.18874 9.28919 0.646469 9.83305L0.5 9.97949V11.0259H1C1.9246 11.0258 2.83648 10.8105 3.66347 10.397C3.57279 10.0533 3.51965 9.70075 3.505 9.34558C3.00306 9.63976 2.45327 9.84335 1.88078 9.94702V9.94702Z" fill="#6D7782"/>
</g>
<defs>
<clipPath id="clip0_24_144">
<rect width="16" height="16" fill="white" transform="translate(0 0.0258942)"/>
</clipPath>
</defs>
</svg>
