<svg width="16" height="16" viewBox="0 0 16 16" fill="none" xmlns="http://www.w3.org/2000/svg">
<path d="M7.6001 6.5C8.42822 6.5 9.1001 7.17188 9.1001 8C9.1001 8.82812 8.42822 9.5 7.6001 9.5C6.77197 9.5 6.1001 8.82812 6.1001 8C6.1001 7.17188 6.77197 6.5 7.6001 6.5ZM6.1001 3.25C6.1001 4.07812 6.77197 4.75 7.6001 4.75C8.42822 4.75 9.1001 4.07812 9.1001 3.25C9.1001 2.42188 8.42822 1.75 7.6001 1.75C6.77197 1.75 6.1001 2.42188 6.1001 3.25ZM6.1001 12.75C6.1001 13.5781 6.77197 14.25 7.6001 14.25C8.42822 14.25 9.1001 13.5781 9.1001 12.75C9.1001 11.9219 8.42822 11.25 7.6001 11.25C6.77197 11.25 6.1001 11.9219 6.1001 12.75Z" fill="#6D7782"/>
</svg>
