<svg width="16" height="17" viewBox="0 0 16 17" fill="none" xmlns="http://www.w3.org/2000/svg">
<path d="M14.6125 4.51071H0.987549C0.937821 4.51071 0.890129 4.49096 0.854966 4.45579C0.819803 4.42063 0.800049 4.37294 0.800049 4.32321V3.57321C0.800049 3.52348 0.819803 3.47579 0.854966 3.44063C0.890129 3.40547 0.937821 3.38571 0.987549 3.38571H14.6125C14.6623 3.38571 14.71 3.40547 14.7451 3.44063C14.7803 3.47579 14.8 3.52348 14.8 3.57321V4.32321C14.8 4.37294 14.7803 4.42063 14.7451 4.45579C14.71 4.49096 14.6623 4.51071 14.6125 4.51071ZM14.6125 9.51071H0.987549C0.937821 9.51071 0.890129 9.49096 0.854966 9.45579C0.819803 9.42063 0.800049 9.37294 0.800049 9.32321V8.57321C0.800049 8.52348 0.819803 8.47579 0.854966 8.44063C0.890129 8.40547 0.937821 8.38571 0.987549 8.38571H14.6125C14.6623 8.38571 14.71 8.40547 14.7451 8.44063C14.7803 8.47579 14.8 8.52348 14.8 8.57321V9.32321C14.8 9.37294 14.7803 9.42063 14.7451 9.45579C14.71 9.49096 14.6623 9.51071 14.6125 9.51071ZM14.6125 14.5107H0.987549C0.937821 14.5107 0.890129 14.491 0.854966 14.4558C0.819803 14.4206 0.800049 14.3729 0.800049 14.3232V13.5732C0.800049 13.5235 0.819803 13.4758 0.854966 13.4406C0.890129 13.4055 0.937821 13.3857 0.987549 13.3857H14.6125C14.6623 13.3857 14.71 13.4055 14.7451 13.4406C14.7803 13.4758 14.8 13.5235 14.8 13.5732V14.3232C14.8 14.3729 14.7803 14.4206 14.7451 14.4558C14.71 14.491 14.6623 14.5107 14.6125 14.5107Z" fill="#6D7782"/>
</svg>
