<svg width="16" height="17" viewBox="0 0 16 17" fill="none" xmlns="http://www.w3.org/2000/svg">
<g clip-path="url(#clip0_24_113)">
<path d="M10.88 9.02589C9.95755 9.02589 9.51398 9.52589 8.00005 9.52589C6.48612 9.52589 6.04576 9.02589 5.12005 9.02589C2.73505 9.02589 0.800049 10.9071 0.800049 13.2259V14.5259C0.800049 15.354 1.49112 16.0259 2.34291 16.0259H13.6572C14.509 16.0259 15.2 15.354 15.2 14.5259V13.2259C15.2 10.9071 13.265 9.02589 10.88 9.02589ZM14.1715 14.5259C14.1715 14.8009 13.94 15.0259 13.6572 15.0259H2.34291C2.06005 15.0259 1.82862 14.8009 1.82862 14.5259V13.2259C1.82862 11.4603 3.30398 10.0259 5.12005 10.0259C5.75005 10.0259 6.37683 10.5259 8.00005 10.5259C9.62005 10.5259 10.25 10.0259 10.88 10.0259C12.6961 10.0259 14.1715 11.4603 14.1715 13.2259V14.5259ZM8.00005 8.02589C10.2725 8.02589 12.1143 6.23527 12.1143 4.02589C12.1143 1.81652 10.2725 0.0258942 8.00005 0.0258942C5.72755 0.0258942 3.88576 1.81652 3.88576 4.02589C3.88576 6.23527 5.72755 8.02589 8.00005 8.02589ZM8.00005 1.02589C9.70041 1.02589 11.0858 2.37277 11.0858 4.02589C11.0858 5.67902 9.70041 7.02589 8.00005 7.02589C6.29969 7.02589 4.91433 5.67902 4.91433 4.02589C4.91433 2.37277 6.29969 1.02589 8.00005 1.02589Z" fill="#6D7782"/>
</g>
<defs>
<clipPath id="clip0_24_113">
<rect width="16" height="16" fill="white" transform="translate(0 0.0258942)"/>
</clipPath>
</defs>
</svg>
