<svg width="16" height="17" viewBox="0 0 16 17" fill="none" xmlns="http://www.w3.org/2000/svg">
<path fill-rule="evenodd" clip-rule="evenodd" d="M6.59101 14.2882C6.73939 14.4346 6.97998 14.4346 7.1284 14.2881L11.9762 9.50413C12.1246 9.35769 12.1246 9.12025 11.9762 8.97381L6.944 4.00782C6.87274 3.9375 6.77608 3.89799 6.6753 3.89798H1.8275C1.61762 3.89798 1.4475 4.06587 1.4475 4.27299L1.4475 9.057C1.4475 9.15645 1.48754 9.25184 1.5588 9.32216L6.59101 14.2882ZM14.7809 8.77812C15.0718 9.06519 15.1314 9.32916 14.801 9.65521L9.33126 15.053L9.33982 15.0615C9.54217 15.2612 9.55546 15.1271 9.82017 15.1453C10.1378 15.167 10.463 15.0581 10.7058 14.8185L15.5536 10.0345C15.9988 9.59513 15.9988 8.88281 15.5536 8.44348L10.5214 3.47749C10.3076 3.26651 10.0177 3.14799 9.7153 3.14798L8.8169 2.89266L14.7809 8.77812ZM7.4814 3.47749L12.5136 8.44348C12.9588 8.88281 12.9588 9.59513 12.5136 10.0345L7.6658 14.8185C7.22058 15.2578 6.49877 15.2578 6.0536 14.8185L1.0214 9.85249C0.807609 9.64152 0.687502 9.35537 0.6875 9.057L0.6875 4.27299C0.6875 3.65166 1.19789 3.14798 1.8275 3.14798L6.6753 3.14798C6.97765 3.14799 7.26761 3.26651 7.4814 3.47749Z" fill="#6D7782"/>
<path fill-rule="evenodd" clip-rule="evenodd" d="M2.94293 5.9142C2.94293 6.16932 3.14972 6.37611 3.40483 6.37611C3.65995 6.37611 3.86674 6.16932 3.86674 5.9142C3.86674 5.65909 3.65995 5.4523 3.40483 5.4523C3.14972 5.4523 2.94293 5.65909 2.94293 5.9142ZM3.40483 7.1142C2.74208 7.1142 2.20483 6.57695 2.20483 5.9142C2.20483 5.25145 2.74208 4.7142 3.40483 4.7142C4.06758 4.7142 4.60483 5.25145 4.60483 5.9142C4.60483 6.57695 4.06758 7.1142 3.40483 7.1142Z" fill="#6D7782"/>
</svg>
