<svg width="16" height="17" viewBox="0 0 16 17" fill="none" xmlns="http://www.w3.org/2000/svg">
<g clip-path="url(#clip0_24_48)">
<path d="M14.5 1.52589H1.5C0.671562 1.52589 0 2.19746 0 3.02589V14.0259C0 14.8543 0.671562 15.5259 1.5 15.5259H14.5C15.3284 15.5259 16 14.8543 16 14.0259V3.02589C16 2.19746 15.3284 1.52589 14.5 1.52589ZM7.5 14.5259H1.5C1.22384 14.5259 1 14.3021 1 14.0259V3.52589H7.5V14.5259ZM15 14.0259C15 14.3021 14.7762 14.5259 14.5 14.5259H8.5V3.52589H15V14.0259Z" fill="#6D7782"/>
</g>
<defs>
<clipPath id="clip0_24_48">
<rect width="16" height="16" fill="white" transform="translate(0 0.525894)"/>
</clipPath>
</defs>
</svg>
