<svg width="16" height="16" viewBox="0 0 16 16" fill="none" xmlns="http://www.w3.org/2000/svg">
<path d="M5.159 7.08532L3.36177 4.23972C4.48504 2.81691 6.20738 1.99319 8.0046 1.99319C9.05298 1.99319 10.1014 2.21784 11 2.81691C12.0484 3.41599 12.8721 4.3146 13.3214 5.2881L8.37902 4.98856C6.95622 4.91368 5.68319 5.7374 5.159 7.08532ZM5.98272 7.98393C5.98272 9.1072 6.88134 10.0058 8.0046 10.0058C9.12787 10.0058 10.0265 9.1072 10.0265 7.98393C10.0265 6.86067 9.12787 5.96206 8.0046 5.96206C6.88134 5.96206 5.98272 6.86067 5.98272 7.98393ZM13.6209 5.81229L10.2511 6.03694C11.1497 7.08532 11.1497 8.65789 10.4009 9.85604L7.70506 13.9747C8.82833 14.0496 9.95159 13.8249 11 13.151C13.6209 11.6533 14.6693 8.50812 13.6209 5.81229ZM5.23388 9.1072L2.98735 4.68902C2.38828 5.66252 2.01385 6.78578 2.01385 7.98393C2.01385 10.9793 4.1855 13.4505 7.10599 13.8998L8.67856 10.9044C7.25576 11.1291 5.90784 10.3802 5.23388 9.1072Z" fill="#2A3843"/>
</svg>
