<svg width="16" height="16" viewBox="0 0 16 16" fill="none" xmlns="http://www.w3.org/2000/svg">
<path d="M13.9587 7.71333C13.9587 6.59356 13.7188 5.55379 13.2389 4.59399C12.1191 2.6744 10.2795 1.63462 8.03998 1.63462C4.44075 1.63462 2.44117 4.35404 2.04126 7.31341C3.16102 5.71375 5.08061 4.19408 7.72005 4.11409C7.72005 4.11409 10.5195 4.11409 10.2795 6.83351H5.80046C5.96043 5.87372 6.28036 5.31384 6.68027 4.83394C4.6807 5.63377 3.48095 7.23343 3.56094 9.63292C3.56094 11.4725 4.84066 13.3921 6.68027 14.032C8.83981 14.8318 11.6392 14.1919 12.839 13.4721V10.7527C10.7594 12.1924 5.88044 12.3523 5.80046 8.99305H13.8787L13.9587 7.71333Z" fill="#2A3843"/>
</svg>
