<svg width="16" height="16" viewBox="0 0 16 16" fill="none" xmlns="http://www.w3.org/2000/svg">
<path d="M14.1728 7.39877C14.1728 7.3186 14.1728 7.23843 14.1728 7.23843C14.1728 7.23843 14.0926 7.3186 14.0124 7.39877C14.0124 7.15827 13.9323 6.83761 13.8521 6.59711C13.7719 6.27645 13.6116 5.95579 13.4513 5.63513C13.3711 5.39463 13.2108 5.2343 13.1306 5.07397C13.0504 4.99381 13.0504 4.91364 12.9703 4.83347C12.7298 4.43265 12.4893 4.19215 12.1686 3.79133C12.0083 3.47066 11.848 3.06984 11.7678 2.74918C11.6876 2.98967 11.6075 3.23017 11.6075 3.47066C11.2868 3.15 11.0463 2.90951 10.886 2.74918C10.0843 2.02769 10.1645 1.62686 10.1645 1.62686C10.1645 1.62686 8.64135 3.23017 9.28267 4.99381C9.52317 5.55496 9.92399 6.11612 10.405 6.51695C11.0463 7.0781 11.6876 7.47893 12.0885 8.52108C11.7678 7.95992 11.367 7.47893 10.8058 7.15827C10.9661 7.5591 11.0463 7.95992 11.0463 8.36075C11.0463 9.96406 9.76366 11.2467 8.16036 11.2467C7.91986 11.2467 7.75953 11.2467 7.51903 11.1665C7.27854 11.0864 7.03804 11.0062 6.79755 10.926C6.47689 10.6855 6.15622 10.445 5.91573 10.1244H5.99589C6.07606 10.2046 6.23639 10.2046 6.39672 10.2046C6.87771 10.2847 7.3587 10.2847 7.8397 10.0442C8.32069 9.80372 8.56118 9.64339 8.80168 9.64339C8.96201 9.72356 9.20251 9.56323 9.04218 9.32273C8.72151 9.00207 8.32069 8.76158 7.8397 8.84174C7.43887 8.92191 7.03804 9.24257 6.39672 8.92191L6.31655 8.84174C6.23639 8.84174 6.47689 8.84174 6.39672 8.84174C6.23639 8.84174 6.15622 8.76158 5.99589 8.68141H6.07606C5.91573 8.60124 5.83556 8.44091 5.67523 8.28058C5.59507 8.12025 5.59507 7.87976 5.67523 7.63926C5.7554 7.5591 5.83556 7.47893 5.91573 7.47893C5.99589 7.47893 6.07606 7.5591 6.07606 7.5591C6.07606 7.5591 6.07606 7.47893 5.99589 7.47893C6.07606 7.47893 6.23639 7.5591 6.31655 7.63926C6.39672 7.63926 6.39672 7.71943 6.47689 7.79959C6.47689 7.79959 6.47689 7.79959 6.47689 7.71943C6.47689 7.63926 6.39672 7.5591 6.31655 7.5591C6.39672 7.5591 6.39672 7.63926 6.47689 7.63926C6.55705 7.39877 6.55705 7.3186 6.55705 7.15827C6.55705 7.15827 6.55705 7.0781 6.55705 6.99794C6.55705 6.91777 6.55705 6.91777 6.63722 6.99794V6.91777L6.71738 6.83761C6.87771 6.75744 7.11821 6.59711 7.27854 6.51695C7.43887 6.35662 7.51903 6.35662 7.5992 6.35662C7.67937 6.35662 7.67937 6.27645 7.67937 6.27645C7.8397 6.19629 7.91986 6.03595 7.91986 5.79546V5.71529C7.91986 5.63513 7.75953 5.55496 6.95788 5.4748C6.71738 5.39463 6.47689 5.15414 6.39672 4.91364V4.99381V4.91364C6.55705 4.51281 6.79755 4.19215 7.19837 3.95166H7.11821C7.19837 3.95166 7.27854 3.87149 7.3587 3.87149C7.3587 3.87149 7.19837 3.79133 7.03804 3.79133C6.95788 3.79133 6.79755 3.79133 6.71738 3.87149C6.79755 3.87149 6.87771 3.79133 6.87771 3.79133C6.63722 3.71116 6.39672 3.79133 6.23639 3.95166C6.23639 3.95166 6.23639 3.95166 6.23639 3.87149C6.07606 3.95166 5.91573 4.03182 5.83556 4.19215V4.11199C5.7554 4.19215 5.67523 4.19215 5.67523 4.27232C5.19424 4.11199 4.71325 4.03182 4.23226 4.19215C4.15209 4.11199 4.07193 3.95166 3.99176 3.87149C3.99176 3.79133 3.9116 3.79133 3.9116 3.71116C3.9116 3.63099 3.83143 3.63099 3.83143 3.55083C3.83143 3.55083 3.83143 3.63099 3.83143 3.55083C3.6711 3.3905 3.6711 3.15 3.6711 2.90951C3.51077 2.98967 3.4306 3.15 3.35044 3.31033C3.35044 3.3905 3.35044 3.3905 3.35044 3.3905V3.31033C3.35044 3.3905 3.27027 3.3905 3.27027 3.47066C3.27027 3.55083 3.19011 3.55083 3.19011 3.63099V3.55083C2.94961 3.95166 2.86945 4.43265 2.86945 4.83347C2.86945 4.91364 2.86945 4.99381 2.86945 5.07397C2.70912 5.15414 2.54878 5.31447 2.46862 5.4748C2.14796 6.03595 1.90746 6.59711 1.8273 7.15827C1.90746 6.91777 2.06779 6.67728 2.22812 6.51695C1.90746 7.23843 1.74713 7.95992 1.74713 8.76158C1.8273 8.52108 1.8273 8.36075 1.90746 8.12025C1.8273 9.00207 2.06779 9.88389 2.38845 10.6855C2.86945 11.8079 3.75126 12.7698 4.79341 13.4112C5.19424 13.7318 5.67523 13.8922 6.15622 14.0525C6.23639 14.0525 6.31655 14.1327 6.31655 14.1327H6.23639C6.95788 14.293 7.51903 14.3731 8.16036 14.3731C10.3248 14.3731 11.0463 13.5715 11.1265 13.4913C11.2066 13.4112 11.2868 13.2508 11.367 13.1707C11.4471 13.1707 11.4471 13.1707 11.5273 13.0905H11.6075C11.9281 12.9302 12.2488 12.7698 12.4893 12.5293C12.8901 12.2087 13.2108 11.8079 13.3711 11.2467C13.4513 11.0864 13.4513 10.8459 13.3711 10.6855L13.4513 10.6054C13.9323 9.88389 14.1728 9.00207 14.2529 8.12025V7.95992C14.1728 7.79959 14.1728 7.5591 14.1728 7.39877Z" fill="#2A3843"/>
</svg>
