<svg width="16" height="16" viewBox="0 0 16 16" fill="none" xmlns="http://www.w3.org/2000/svg">
<path d="M13.5574 6.11679C13.2749 6.02263 12.9924 5.92847 12.8041 5.92847C12.8983 6.21096 12.8983 6.5876 12.8983 6.87008V6.96424C12.8983 7.0584 12.8983 7.24672 12.8983 7.34088H12.9924C13.5574 7.62336 13.7457 8.18832 13.5574 8.75328C13.2749 9.31824 12.7099 9.50656 12.145 9.31824C12.0508 9.31824 11.9567 9.22408 11.9567 9.22408C11.4859 9.69488 10.9209 10.0715 10.5443 10.2598C10.2618 10.4482 10.0735 10.5423 9.88513 10.6365C10.0735 11.6722 10.4501 12.4255 10.6384 12.5197H10.7326C11.2034 12.5197 11.1092 11.0131 12.7099 10.8248C13.2749 10.8248 14.3107 10.354 14.7815 9.4124C14.7815 9.4124 14.7815 9.4124 14.7815 9.31824C15.3464 8.18832 14.7815 6.68176 13.5574 6.11679Z" fill="#2A3843"/>
<path d="M4.32969 9.03577C3.67057 9.22409 2.91729 8.84745 2.72897 8.18833C2.54065 7.52921 2.91729 6.77593 3.57641 6.58761C3.67057 6.58761 3.76473 6.58761 3.85889 6.49345C3.85889 5.92848 4.04721 5.36352 4.32969 4.79856C3.95305 4.79856 3.57641 4.79856 3.10561 4.89272C1.50488 5.36352 0.657442 7.05841 1.12824 8.65913C1.12824 8.65913 1.12824 8.65913 1.12824 8.75329C1.50488 9.97737 2.63481 10.6365 3.38809 10.7307C5.17713 11.1073 4.89465 12.8963 5.45961 12.9905C5.55378 12.9905 5.55377 12.9905 5.64794 12.9905C5.83626 12.8963 6.11874 12.5197 6.49538 11.9547C5.55377 11.1073 4.89465 10.1657 4.32969 9.03577Z" fill="#2A3843"/>
<path d="M12.4275 6.49344C12.4275 4.23359 10.6385 2.44455 8.47278 2.44455C6.30709 2.44455 4.42389 4.23359 4.42389 6.39928V6.49344C4.42389 10.2599 7.62534 13.5555 8.37862 13.5555C8.47278 13.5555 8.47278 13.5555 8.56694 13.5555C9.22606 13.273 8.1903 11.1073 10.356 9.88321C11.2034 9.50657 12.4275 8.28249 12.4275 6.49344ZM8.47278 8.18832C7.53118 8.18832 6.7779 7.43504 6.7779 6.49344C6.7779 5.55184 7.53118 4.7044 8.47278 4.7044C9.41438 4.7044 10.1677 5.45768 10.1677 6.39928C10.1677 7.34088 9.41438 8.18832 8.47278 8.18832Z" fill="#2A3843"/>
</svg>
