<svg width="16" height="16" viewBox="0 0 16 16" fill="none" xmlns="http://www.w3.org/2000/svg">
<path d="M10.2764 2.02869C10.6046 1.45435 11.3431 1.20821 11.9174 1.61845C12.4917 1.94664 12.7379 2.68508 12.3277 3.25942C11.9995 3.83376 11.261 4.0799 10.6867 3.66966C10.1123 3.42351 9.94825 2.68508 10.2764 2.02869ZM2.07161 9.24895C1.41522 9.24895 0.840881 8.67461 0.840881 8.01822C0.840881 7.36183 1.41522 6.7875 2.07161 6.7875C2.72799 6.7875 3.30233 7.36183 3.30233 8.01822C3.30233 8.67461 2.72799 9.24895 2.07161 9.24895ZM3.13824 9.331C3.95872 8.67461 3.95872 7.36183 3.13824 6.6234C3.46643 5.39267 4.28691 4.32605 5.27149 3.58761L6.17402 5.14653C4.20486 6.54135 4.20486 9.49509 6.17402 10.8899L5.27149 12.4488C4.28691 11.7104 3.46643 10.6438 3.13824 9.331ZM11.9174 14.418C11.3431 14.7462 10.6046 14.5821 10.2764 14.0078C9.94825 13.4334 10.1123 12.695 10.6867 12.3668C11.261 12.0386 11.9995 12.2027 12.3277 12.777C12.7379 13.3514 12.4917 14.0898 11.9174 14.418ZM11.9174 11.7104C10.9328 11.3002 9.78415 11.9565 9.62006 13.0232C9.45596 13.1052 7.73294 13.5975 5.92788 12.695L6.83041 11.1361C9.04572 12.1206 11.5892 10.7258 11.7533 8.26437H13.5584C13.3943 9.65919 12.8199 10.8899 11.9174 11.7104ZM11.6713 7.69003C11.4251 5.31063 8.96367 3.83376 6.74836 4.81834L5.92788 3.34146C7.73294 2.43893 9.45596 2.93122 9.62006 3.01327C9.78415 4.0799 10.9328 4.73629 11.9174 4.32605C12.8199 5.22858 13.3943 6.37725 13.4763 7.69003H11.6713Z" fill="#2A3843"/>
</svg>
