<svg width="16" height="16" viewBox="0 0 16 16" fill="none" xmlns="http://www.w3.org/2000/svg">
<path d="M9.54471 2.9039C5.41281 2.9039 3.45954 8.31295 6.01381 11.4682C6.91532 12.5951 8.19245 13.2712 9.61984 13.2712C10.5213 13.2712 11.3477 12.9707 12.0239 12.52C10.9721 13.4966 9.54471 14.0225 8.0422 14.0225C7.96708 14.0225 7.81683 14.0225 7.7417 14.0225C4.5113 13.9474 1.95703 11.318 1.95703 8.08757C1.95703 4.78204 4.66155 2.07752 7.96708 2.07752C9.46959 2.07752 10.897 2.67853 11.9487 3.58003C11.2726 3.12928 10.4462 2.9039 9.54471 2.9039ZM12.0239 12.52C11.0472 13.121 9.84522 13.121 8.79346 12.3697C10.1457 11.8438 11.1975 10.116 11.1975 8.08757C11.1975 6.05918 10.2208 4.33129 8.86858 3.80541C9.84522 3.12928 11.0472 3.05415 12.099 3.65516C14.6533 6.05918 14.6533 10.116 12.0239 12.52Z" fill="#2A3843"/>
</svg>
