<svg width="16" height="16" viewBox="0 0 16 16" fill="none" xmlns="http://www.w3.org/2000/svg">
<path d="M7.54613 8C7.54613 7.77305 7.69743 7.54609 7.92438 7.54609C8.15134 7.54609 8.37829 7.69739 8.37829 7.92435C8.37829 8.1513 8.22699 8.37825 8.00003 8.37825C7.77308 8.37825 7.54613 8.22695 7.54613 8ZM14.0521 8C14.0521 11.3286 11.3287 14.052 8.00003 14.052C4.67141 14.052 1.948 11.3286 1.948 8C1.948 4.67138 4.67141 1.94796 8.00003 1.94796C11.3287 1.94796 14.0521 4.67138 14.0521 8ZM13.3712 8C13.3712 5.04963 10.9504 2.62881 8.00003 2.62881C5.04967 2.62881 2.62885 5.04963 2.62885 8C2.62885 10.9504 5.04967 13.3712 8.00003 13.3712C10.9504 13.3712 13.3712 10.9504 13.3712 8ZM11.6313 10.3452C11.6313 10.4208 11.9339 10.5721 12.0095 10.6478C11.3287 11.6312 10.2695 12.3877 9.13479 12.6903L9.05914 12.2364C9.05914 12.1608 8.98349 12.1608 8.98349 12.1608C8.90784 12.1608 8.90784 12.2364 8.90784 12.2364L8.98349 12.6903C8.68089 12.766 8.30264 12.766 8.00003 12.766C7.09223 12.766 6.26007 12.539 5.50357 12.0851C5.57922 12.0095 5.80617 11.6312 5.80617 11.5556C5.80617 11.4799 5.73052 11.4799 5.73052 11.4799C5.65487 11.4799 5.42792 11.8582 5.35227 11.9338C4.29316 11.3286 3.61231 10.2695 3.30971 9.13475L3.76361 9.0591C3.83926 9.0591 3.83926 8.98345 3.83926 8.98345C3.83926 8.9078 3.76361 8.9078 3.76361 8.9078H3.23406C3.23406 8.6052 3.15841 8.3026 3.15841 8C3.15841 7.09219 3.38536 6.18439 3.91491 5.42788C3.99056 5.50353 4.29316 5.73048 4.36881 5.73048C4.44446 5.73048 4.44446 5.73048 4.44446 5.65483C4.44446 5.57918 4.06621 5.35223 3.99056 5.35223C4.67141 4.29312 5.73052 3.53662 6.94093 3.30967L7.01658 3.76357C7.01658 3.83922 7.09223 3.83922 7.09223 3.83922L7.16788 3.76357L7.09223 3.23402C7.39483 3.23402 7.69743 3.15837 8.00003 3.15837C8.90784 3.15837 9.81565 3.38532 10.5722 3.91487C10.4965 3.99052 10.2695 4.29312 10.2695 4.36877C10.2695 4.44443 10.2695 4.44443 10.3452 4.44443C10.4208 4.44443 10.6478 4.06617 10.6478 3.99052C11.6313 4.67138 12.3878 5.73048 12.6147 6.86524L12.2365 6.94089C12.1608 6.94089 12.1608 7.01654 12.1608 7.01654C12.1608 7.09219 12.2365 7.09219 12.2365 7.09219L12.6147 7.01654C12.6904 7.31914 12.6904 7.62174 12.6904 7.92435C12.6904 8.83215 12.4634 9.66431 12.0095 10.4208C11.9339 10.4208 11.6313 10.1939 11.6313 10.1939C11.7069 10.2695 11.6313 10.3452 11.6313 10.3452ZM10.7991 4.44443C10.4965 4.74703 7.54613 7.47044 7.47048 7.62174L5.12532 11.5556C5.42792 11.253 8.37829 8.52955 8.45394 8.37825L10.7991 4.44443Z" fill="#2A3843"/>
</svg>
