<svg width="16" height="17" viewBox="0 0 16 17" fill="none" xmlns="http://www.w3.org/2000/svg">
<path d="M0.939441 9.18368L1.16038 9.40465C1.30682 9.55109 1.54425 9.55109 1.69072 9.40465L7.26866 3.82671L7.26867 15.5732C7.26867 15.7803 7.43657 15.9482 7.64367 15.9482L7.95617 15.9482C8.16326 15.9482 8.33117 15.7803 8.33117 15.5732L8.33117 3.82671L13.9091 9.40465C14.0555 9.55109 14.293 9.55109 14.4395 9.40465L14.6604 9.18368C14.8068 9.03724 14.8068 8.79981 14.6604 8.65337L8.06507 2.05803C7.91863 1.91159 7.6812 1.91159 7.53473 2.05803L0.939441 8.65337C0.792972 8.79981 0.792972 9.03724 0.939441 9.18368Z" fill="#6D7782"/>
</svg>
