<svg width="16" height="17" viewBox="0 0 16 17" fill="none" xmlns="http://www.w3.org/2000/svg">
<path d="M2.67822 2.08882L9.2751 8.68257C9.42197 8.82945 9.42197 9.06695 9.2751 9.21382L2.67822 15.8076C2.53135 15.9544 2.29385 15.9544 2.14697 15.8076L1.9251 15.5857C1.77822 15.4388 1.77822 15.2013 1.9251 15.0544L8.03447 8.9482L1.92822 2.83882C1.78135 2.69195 1.78135 2.45445 1.92822 2.30757L2.1501 2.0857C2.29385 1.94195 2.53135 1.94195 2.67822 2.08882ZM6.14697 2.08882L5.9251 2.3107C5.77822 2.45757 5.77822 2.69507 5.9251 2.84195L12.0345 8.9482L5.92822 15.0576C5.78135 15.2044 5.78135 15.4419 5.92822 15.5888L6.1501 15.8107C6.29697 15.9576 6.53447 15.9576 6.68135 15.8107L13.2782 9.21695C13.4251 9.07007 13.4251 8.83257 13.2782 8.6857L6.68135 2.09195C6.53135 1.94195 6.29385 1.94195 6.14697 2.08882V2.08882Z" fill="#6D7782"/>
</svg>
