<svg width="16" height="17" viewBox="0 0 16 17" fill="none" xmlns="http://www.w3.org/2000/svg">
<g clip-path="url(#clip0_24_101)">
<path d="M15.0842 10.3006L14.0651 9.71224C14.1292 9.20489 14.1292 8.6915 14.0651 8.18415L15.0842 7.59581C15.3834 7.42306 15.5278 7.06762 15.4294 6.7364C15.0789 5.55675 14.4551 4.4949 13.6314 3.62406C13.3928 3.37187 13.0121 3.31668 12.7115 3.49025L11.6939 4.07768C11.2869 3.76793 10.8423 3.51089 10.3708 3.31268V2.13725C10.3708 1.78943 10.1317 1.48712 9.79321 1.40703C8.61683 1.12862 7.38327 1.12859 6.20665 1.40703C5.86818 1.48712 5.62902 1.7894 5.62902 2.13725V3.31268C5.1575 3.51088 4.71294 3.76792 4.30593 4.07768L3.28836 3.49025C2.98771 3.31668 2.60699 3.37187 2.36846 3.62406C1.54471 4.4949 0.920926 5.55678 0.570489 6.7364C0.472083 7.06762 0.616426 7.42303 0.915676 7.59581L1.93474 8.18415C1.87068 8.6915 1.87068 9.20489 1.93474 9.71224L0.915676 10.3006C0.616426 10.4733 0.472083 10.8288 0.570489 11.16C0.920926 12.3396 1.54471 13.4015 2.36846 14.2723C2.60702 14.5245 2.98774 14.5797 3.28836 14.4062L4.30593 13.8187C4.71294 14.1285 5.1575 14.3855 5.62902 14.5837V15.7591C5.62902 16.107 5.86815 16.4093 6.20665 16.4894C7.38305 16.7678 8.61658 16.7678 9.79321 16.4894C10.1317 16.4093 10.3708 16.107 10.3708 15.7591V14.5837C10.8423 14.3855 11.2869 14.1285 11.6939 13.8187L12.7115 14.4062C13.0121 14.5797 13.3928 14.5246 13.6314 14.2723C14.4551 13.4015 15.0789 12.3396 15.4294 11.16C15.5278 10.8288 15.3834 10.4734 15.0842 10.3006V10.3006ZM13.038 13.44L11.5908 12.6044C10.7474 13.3253 10.4483 13.5067 9.37083 13.8875V15.5587C8.46642 15.7452 7.53344 15.7452 6.62902 15.5587V13.8875C5.57836 13.5162 5.27418 13.3439 4.40905 12.6044L2.96189 13.44C2.34596 12.7497 1.87786 11.9403 1.58911 11.0663L3.03689 10.2307C2.83268 9.1239 2.83258 8.77306 3.03689 7.66571L1.58911 6.83009C1.87786 5.95606 2.34599 5.14668 2.96189 4.45606L4.40905 5.29231C5.26458 4.56 5.56727 4.38403 6.62902 4.0089V2.33772C7.5334 2.15084 8.46645 2.15084 9.37083 2.33772V4.00893C10.4326 4.38409 10.7354 4.56009 11.5908 5.29234L13.038 4.45609C13.6539 5.14668 14.122 5.95606 14.4107 6.83012L12.963 7.66575C13.1672 8.77281 13.1673 9.12337 12.963 10.2307L14.4107 11.0663C14.122 11.9403 13.6539 12.7497 13.038 13.44V13.44ZM7.99993 5.94821C6.34571 5.94821 4.99993 7.294 4.99993 8.94821C4.99993 10.6024 6.34571 11.9482 7.99993 11.9482C9.65414 11.9482 10.9999 10.6024 10.9999 8.94821C10.9999 7.294 9.65414 5.94821 7.99993 5.94821ZM7.99993 10.9482C6.89711 10.9482 5.99993 10.051 5.99993 8.94821C5.99993 7.8454 6.89711 6.94821 7.99993 6.94821C9.10274 6.94821 9.99993 7.8454 9.99993 8.94821C9.99993 10.051 9.10274 10.9482 7.99993 10.9482Z" fill="#6D7782"/>
</g>
<defs>
<clipPath id="clip0_24_101">
<rect width="16" height="16" fill="white" transform="translate(0 0.948212)"/>
</clipPath>
</defs>
</svg>
