<svg width="16" height="17" viewBox="0 0 16 17" fill="none" xmlns="http://www.w3.org/2000/svg">
<g clip-path="url(#clip0_24_129)">
<path d="M6.64402 10.0884L7.75652 8.97588C7.83777 8.99776 7.91277 9.02588 8.00027 9.02588C8.55339 9.02588 9.00027 8.57901 9.00027 8.02588C9.00027 7.47276 8.55339 7.02588 8.00027 7.02588C7.44714 7.02588 7.00027 7.47276 7.00027 8.02588C7.00027 8.11338 7.02839 8.18838 7.05027 8.26963L5.93777 9.38213L1.75027 5.19463C1.63777 5.08213 1.48777 5.02588 1.34089 5.02588C1.15027 5.02588 0.962767 5.11963 0.865892 5.30401C-0.615359 8.06026 -0.193484 11.5696 2.13152 13.8946C3.55339 15.3165 5.41589 16.0259 7.27527 16.0259C8.46277 16.0259 9.65027 15.7384 10.7221 15.1603C11.0471 14.9853 11.0909 14.5353 10.8315 14.2728L6.64402 10.0884ZM7.27527 15.0259C5.60027 15.0259 4.02214 14.3728 2.83777 13.1884C1.04089 11.3915 0.522141 8.65401 1.48152 6.33838L9.68777 14.5446C8.92308 14.8622 8.10326 15.0257 7.27527 15.0259V15.0259ZM6.25652 3.02588C6.11589 3.01963 6.00027 3.13838 6.00027 3.27901V3.77901C6.00027 3.91338 6.10964 4.02276 6.24402 4.02901C9.36589 4.15401 11.8878 6.66026 12.0003 9.77901C12.0065 9.91338 12.1128 10.0228 12.2503 10.0228H12.744C12.8846 10.0228 13.0003 9.90713 12.9971 9.76651C12.8659 6.11026 9.91277 3.16026 6.25652 3.02588V3.02588ZM6.25652 0.0258798C6.11589 0.0227548 6.00027 0.13838 6.00027 0.279005V0.77588C6.00027 0.91338 6.10964 1.01963 6.24714 1.02275C11.0221 1.1415 14.8721 5.00088 15.0003 9.77588C15.0034 9.91338 15.1128 10.0228 15.2471 10.0228H15.7471C15.8878 10.0228 16.0034 9.90713 16.0003 9.76651C15.8659 4.45713 11.569 0.160255 6.25652 0.0258798Z" fill="#6D7782"/>
</g>
<defs>
<clipPath id="clip0_24_129">
<rect width="16" height="16" fill="white" transform="translate(0 0.0258942)"/>
</clipPath>
</defs>
</svg>
