<svg width="16" height="16" viewBox="0 0 16 16" fill="none" xmlns="http://www.w3.org/2000/svg">
<path d="M5.40254 15.8523L5.16486 15.6146C4.96794 15.4177 4.96794 15.0984 5.16486 14.9014L11.4623 8.60404L8.88321 8.60404C8.60473 8.60404 8.37894 8.37826 8.37894 8.09978L8.37894 7.7636C8.37894 7.48511 8.60473 7.25933 8.88321 7.25933L13.2535 7.25933C13.532 7.25933 13.7578 7.48511 13.7578 7.7636L13.7578 12.1339C13.7578 12.4124 13.532 12.6382 13.2535 12.6382L12.9174 12.6382C12.6389 12.6382 12.4131 12.4124 12.4131 12.1339L12.4131 9.55489L6.1157 15.8523C5.91874 16.0492 5.59946 16.0492 5.40254 15.8523Z" fill="#6D7782"/>
<path d="M10.5975 0.787642L10.8351 1.02532C11.0321 1.22224 11.0321 1.54152 10.8351 1.73848L4.53775 8.03588H7.11679C7.39527 8.03588 7.62106 8.26167 7.62106 8.54015V8.87633C7.62106 9.15481 7.39527 9.3806 7.11679 9.3806H2.74646C2.46797 9.3806 2.24219 9.15481 2.24219 8.87633L2.24219 4.506C2.24219 4.22751 2.46797 4.00173 2.74646 4.00173H3.08264C3.36112 4.00173 3.5869 4.22751 3.5869 4.506L3.5869 7.08504L9.8843 0.787642C10.0813 0.590683 10.4005 0.590683 10.5975 0.787642Z" fill="#6D7782"/>
</svg>
