<svg width="16" height="17" viewBox="0 0 16 17" fill="none" xmlns="http://www.w3.org/2000/svg">
<g clip-path="url(#clip0_24_33)">
<path d="M14.2925 8.24518C14.3625 7.99768 14.4 7.74018 14.4 7.47518C14.4 5.92768 13.1475 4.67518 11.6 4.67518C11.1825 4.67518 10.7775 4.76518 10.4 4.94518C9.61 3.82018 8.2925 3.07518 6.8 3.07518C4.44 3.07518 2.5075 4.93768 2.405 7.28018C0.98 7.78018 0 9.13268 0 10.6752C0 12.6652 1.61 14.2752 3.6 14.2752H12.8C14.5675 14.2752 16 12.8452 16 11.0752C16 9.90018 15.355 8.80518 14.2925 8.24518ZM12.8 13.4752H3.6C2.0525 13.4752 0.8 12.2227 0.8 10.6752C0.8 9.25518 1.855 8.08268 3.225 7.90018C3.2075 7.76018 3.2 7.61768 3.2 7.47518C3.2 5.48768 4.8125 3.87518 6.8 3.87518C8.3075 3.87518 9.5975 4.80018 10.135 6.11518C10.5 5.72268 11.02 5.47518 11.6 5.47518C12.705 5.47518 13.6 6.37018 13.6 7.47518C13.6 7.93768 13.4425 8.36518 13.1775 8.70518C14.325 8.88518 15.2 9.87768 15.2 11.0752C15.2 12.4002 14.125 13.4752 12.8 13.4752ZM10.13 8.63768C10.0125 8.52018 9.8225 8.52018 9.705 8.63768L8 10.3427V6.57518C8 6.41018 7.865 6.27518 7.7 6.27518H7.5C7.335 6.27518 7.2 6.41018 7.2 6.57518V10.3427L5.495 8.63768C5.3775 8.52018 5.1875 8.52018 5.07 8.63768L4.9275 8.78018C4.81 8.89768 4.81 9.08768 4.9275 9.20518L7.385 11.6627C7.5025 11.7802 7.6925 11.7802 7.81 11.6627L10.2675 9.20518C10.385 9.08768 10.385 8.89768 10.2675 8.78018L10.13 8.63768V8.63768Z" fill="#6D7782"/>
</g>
<defs>
<clipPath id="clip0_24_33">
<rect width="16" height="16" fill="white" transform="translate(0 0.675179)"/>
</clipPath>
</defs>
</svg>
