<svg width="16" height="16" viewBox="0 0 16 16" fill="none" xmlns="http://www.w3.org/2000/svg">
<path d="M14.4812 2.69047L13.3096 1.51891C12.5286 0.737875 11.2623 0.737843 10.4812 1.51891L1.33428 10.6657L0.937807 14.2339C0.884744 14.7116 1.28843 15.1153 1.76606 15.0622L5.33431 14.6657L14.4812 5.51891C15.2622 4.73784 15.2622 3.4715 14.4812 2.69047ZM6.07953 9.9204C6.27481 10.1157 6.59137 10.1157 6.78662 9.9204L10.567 6.14019L11.5063 7.07953L6.37059 12.2152V11.1294H4.87059V9.62937H3.78481L8.92051 4.49375L9.85986 5.43309L6.07953 9.21334C5.88424 9.40859 5.88424 9.72515 6.07953 9.9204ZM4.87518 13.7106L3.03159 13.9154L2.08456 12.9684L2.2894 11.1248L2.90981 10.5044H3.99559V12.0044H5.49559V13.0902L4.87518 13.7106ZM13.774 4.81178L12.2134 6.37244L9.62761 3.78666L11.1883 2.226C11.579 1.83522 12.2116 1.83516 12.6025 2.226L13.774 3.39756C14.1649 3.78837 14.1649 4.42091 13.774 4.81178Z" fill="#6D7782"/>
</svg>
