<svg width="16" height="16" viewBox="0 0 16 16" fill="none" xmlns="http://www.w3.org/2000/svg">
<g clip-path="url(#clip0_24_148)">
<path d="M10.3897 7.40706L10.6274 7.64474C10.8243 7.84165 10.8243 8.16094 10.6274 8.3579L4.32998 14.6553H6.90902C7.18751 14.6553 7.41329 14.8811 7.41329 15.1596V15.4957C7.41329 15.7742 7.18751 16 6.90902 16H2.53869C2.26021 16 2.03442 15.7742 2.03442 15.4957V11.1254C2.03442 10.8469 2.26021 10.6211 2.53869 10.6211H2.87487C3.15335 10.6211 3.37914 10.8469 3.37914 11.1254V13.7045L9.67654 7.40706C9.8735 7.2101 10.1928 7.2101 10.3897 7.40706Z" fill="#6D7782"/>
<path d="M5.6103 8.59294L5.37262 8.35526C5.17571 8.15835 5.17571 7.83906 5.37262 7.6421L11.67 1.34471L9.09098 1.34471C8.81249 1.34471 8.58671 1.11892 8.58671 0.840438L8.58671 0.504259C8.58671 0.225776 8.81249 -1.05311e-05 9.09098 -1.05067e-05L13.4613 -1.01246e-05C13.7398 -1.01003e-05 13.9656 0.225777 13.9656 0.504259L13.9656 4.87459C13.9656 5.15307 13.7398 5.37886 13.4613 5.37886L13.1251 5.37886C12.8466 5.37886 12.6209 5.15307 12.6209 4.87459L12.6209 2.29555L6.32346 8.59294C6.12651 8.7899 5.80722 8.7899 5.6103 8.59294Z" fill="#6D7782"/>
</g>
<defs>
<clipPath id="clip0_24_148">
<rect width="16" height="16" fill="white"/>
</clipPath>
</defs>
</svg>
