<svg width="16" height="17" viewBox="0 0 16 17" fill="none" xmlns="http://www.w3.org/2000/svg">
<g clip-path="url(#clip0_69_13)">
<path d="M8 1.92518C11.7069 1.92518 14.75 4.92752 14.75 8.67518C14.75 12.403 11.7309 15.4252 8 15.4252C4.27362 15.4252 1.25 12.4076 1.25 8.67518C1.25 4.95008 4.26881 1.92518 8 1.92518ZM8 0.925179C3.72009 0.925179 0.25 4.39652 0.25 8.67518C0.25 12.9563 3.72009 16.4252 8 16.4252C12.2799 16.4252 15.75 12.9563 15.75 8.67518C15.75 4.39652 12.2799 0.925179 8 0.925179Z" fill="#6D7782"/>
<path fill-rule="evenodd" clip-rule="evenodd" d="M6.05469 7.80355C6.05469 7.47218 6.32332 7.20355 6.65469 7.20355H7.99983C8.3312 7.20355 8.59983 7.47218 8.59983 7.80355V12.3762C8.59983 12.7076 8.3312 12.9762 7.99983 12.9762C7.66846 12.9762 7.39983 12.7076 7.39983 12.3762V8.40355H6.65469C6.32332 8.40355 6.05469 8.13492 6.05469 7.80355Z" fill="#6D7782"/>
<path fill-rule="evenodd" clip-rule="evenodd" d="M5.5127 12.3763C5.5127 12.0449 5.78132 11.7763 6.1127 11.7763H9.88715C10.2185 11.7763 10.4871 12.0449 10.4871 12.3763C10.4871 12.7076 10.2185 12.9763 9.88715 12.9763H6.1127C5.78132 12.9763 5.5127 12.7076 5.5127 12.3763Z" fill="#6D7782"/>
<path d="M8.84914 5.29585C8.84914 5.85118 8.39896 6.30135 7.84364 6.30135C7.28831 6.30135 6.83813 5.85118 6.83813 5.29585C6.83813 4.74053 7.28831 4.29035 7.84364 4.29035C8.39896 4.29035 8.84914 4.74053 8.84914 5.29585Z" fill="#6D7782"/>
</g>
<defs>
<clipPath id="clip0_69_13">
<rect width="16" height="16" fill="white" transform="translate(0 0.675179)"/>
</clipPath>
</defs>
</svg>
