<svg width="16" height="17" viewBox="0 0 16 17" fill="none" xmlns="http://www.w3.org/2000/svg">
<g clip-path="url(#clip0_24_60)">
<path d="M9.41089 13.0096L6.93589 15.4843C5.34908 17.0718 2.77849 17.0726 1.19089 15.4843C-0.396574 13.8975 -0.397355 11.3269 1.19089 9.7393L3.66558 7.2643C3.70172 7.22818 3.73851 7.19272 3.77596 7.15796C4.01189 6.93905 4.39455 7.09533 4.40746 7.4169C4.41349 7.56711 4.42614 7.71711 4.44546 7.8664C4.46049 7.98255 4.42214 8.09911 4.3393 8.1819C3.8243 8.69655 1.99111 10.5296 1.98618 10.5346C0.838113 11.6833 0.838332 13.5405 1.98618 14.689C3.13489 15.837 4.99205 15.8368 6.14055 14.689L8.61555 12.214L8.6268 12.2027C9.76121 11.0567 9.75618 9.20052 8.61524 8.05958C8.35855 7.8029 8.06596 7.60396 7.75321 7.46243C7.61052 7.39786 7.52114 7.25408 7.53027 7.09774C7.53968 6.93573 7.56935 6.77553 7.61858 6.62089C7.6843 6.41461 7.91643 6.30961 8.11605 6.39339C8.58708 6.59102 9.02814 6.88152 9.41089 7.26427C10.9949 8.8483 10.9946 11.4258 9.41089 13.0096ZM6.58914 10.0861C6.97189 10.4688 7.41296 10.7593 7.88399 10.9569C8.08361 11.0407 8.31574 10.9357 8.38146 10.7294C8.43069 10.5748 8.46035 10.4146 8.46977 10.2526C8.47889 10.0962 8.38949 9.95246 8.24683 9.8879C7.93408 9.7464 7.64149 9.54746 7.3848 9.29074C6.24386 8.1498 6.23883 6.29361 7.37324 5.14761L7.38449 5.13636L9.85949 2.66136C11.008 1.51352 12.8651 1.5133 14.0139 2.66136C15.1617 3.80986 15.1619 5.66702 14.0139 6.81574C14.009 6.82064 12.1758 8.65377 11.6607 9.16843C11.5779 9.25124 11.5396 9.36777 11.5546 9.48393C11.5739 9.63313 11.5866 9.78311 11.5926 9.93343C11.6055 10.255 11.9882 10.4113 12.2241 10.1924C12.2615 10.1576 12.2983 10.1222 12.3345 10.086L14.8091 7.61102C16.3974 6.02343 16.3966 3.45283 14.8091 1.86602C13.2216 0.277766 10.651 0.278547 9.06414 1.86602L6.58914 4.34071C5.00543 5.92452 5.00514 8.50205 6.58914 10.0861Z" fill="#6D7782"/>
</g>
<defs>
<clipPath id="clip0_24_60">
<rect width="16" height="16" fill="white" transform="translate(0 0.675179)"/>
</clipPath>
</defs>
</svg>
