<svg width="16" height="17" viewBox="0 0 16 17" fill="none" xmlns="http://www.w3.org/2000/svg">
<g clip-path="url(#clip0_24_138)">
<path d="M8.66667 4.37607C8.66667 3.9617 8.36806 3.62607 8 3.62607C7.63194 3.62607 7.33333 3.9617 7.33333 4.37607C7.33333 4.79013 7.63194 5.12607 8 5.12607C8.36806 5.12607 8.66667 4.79045 8.66667 4.37607ZM15.5561 5.37607C15.5017 5.37607 15.4456 5.38763 15.3906 5.41232L10.6669 7.37607H10.6667L10.3814 7.26295C11.0286 6.17357 11.5558 5.03795 11.5558 4.22138C11.5556 2.09763 9.96361 0.376072 8 0.376072C6.03639 0.376072 4.44444 2.09763 4.44444 4.22138C4.44444 4.59013 4.55611 5.02607 4.73306 5.49138L0.558889 7.12482C0.221389 7.27638 0 7.6442 0 8.05326V15.8758C0 16.1626 0.209167 16.3761 0.444167 16.3761C0.498611 16.3761 0.554444 16.3645 0.609722 16.3398L5.33333 14.3761L10.1111 16.2733C10.4719 16.4087 10.8619 16.4104 11.2236 16.2779L15.4411 14.6276C15.6061 14.5534 15.7475 14.4253 15.8471 14.2598C15.9468 14.0944 16 13.8991 16 13.6992V5.8767C16 5.58951 15.7908 5.37607 15.5561 5.37607ZM4.88889 13.4948L0.886389 15.1589L0.850833 8.0692L4.88889 6.48888V13.4948ZM8 1.37607C9.47056 1.37607 10.6667 2.65232 10.6667 4.22138C10.6667 5.06513 9.60861 6.9992 8 9.12045C6.39167 6.9992 5.33333 5.06513 5.33333 4.22138C5.33333 2.65232 6.52944 1.37607 8 1.37607ZM10.2222 15.257L5.77778 13.492V7.5267C6.45611 8.62888 7.22611 9.6517 7.65861 10.2036C7.74861 10.3186 7.87444 10.3761 8 10.3761C8.12556 10.3761 8.25139 10.3186 8.34139 10.2036C8.69583 9.75138 9.2775 8.98138 9.84917 8.1117L10.2219 8.25982V15.257H10.2222ZM11.1111 15.2633V8.25763L15.1136 6.59326L15.1492 13.6829L11.1111 15.2633Z" fill="#6D7782"/>
</g>
<defs>
<clipPath id="clip0_24_138">
<rect width="16" height="16" fill="white" transform="translate(0 0.376072)"/>
</clipPath>
</defs>
</svg>
