<svg width="16" height="16" viewBox="0 0 16 16" fill="none" xmlns="http://www.w3.org/2000/svg">
<path d="M12.625 6H10V4.375C10 4.16875 9.83125 4 9.625 4H3.375C3.16875 4 3 4.16875 3 4.375V9.625C3 9.83125 3.16875 10 3.375 10H6V11.625C6 11.8312 6.16875 12 6.375 12H12.625C12.8312 12 13 11.8312 13 11.625V6.375C13 6.16875 12.8312 6 12.625 6ZM4 9V5H9V9H4ZM12 11H7V10H9.625C9.83125 10 10 9.83125 10 9.625V7H12V11ZM15.625 4C15.8312 4 16 3.83125 16 3.625V1.375C16 1.16875 15.8312 1 15.625 1H13.375C13.1688 1 13 1.16875 13 1.375V2H3V1.375C3 1.16875 2.83125 1 2.625 1H0.375C0.16875 1 0 1.16875 0 1.375V3.625C0 3.83125 0.16875 4 0.375 4H1V12H0.375C0.16875 12 0 12.1688 0 12.375V14.625C0 14.8312 0.16875 15 0.375 15H2.625C2.83125 15 3 14.8312 3 14.625V14H13V14.625C13 14.8312 13.1688 15 13.375 15H15.625C15.8312 15 16 14.8312 16 14.625V12.375C16 12.1688 15.8312 12 15.625 12H15V4H15.625ZM1 2H2V3H1V2ZM2 14H1V13H2V14ZM13 12.375V13H3V12.375C3 12.1688 2.83125 12 2.625 12H2V4H2.625C2.83125 4 3 3.83125 3 3.625V3H13V3.625C13 3.83125 13.1688 4 13.375 4H14V12H13.375C13.1688 12 13 12.1688 13 12.375ZM15 14H14V13H15V14ZM14 3V2H15V3H14Z" fill="#6D7782"/>
</svg>
