<svg width="16" height="17" viewBox="0 0 16 17" fill="none" xmlns="http://www.w3.org/2000/svg">
<path fill-rule="evenodd" clip-rule="evenodd" d="M2.31704 2.20092C2.08326 2.10352 1.81382 2.15683 1.63474 2.33591C1.45566 2.51499 1.40235 2.78443 1.49975 3.01821L6.43519 14.8647C6.53518 15.1047 6.77331 15.2577 7.03316 15.249C7.29301 15.2402 7.5203 15.0715 7.60392 14.8253L9.0329 10.6181L12.8039 14.3891C13.048 14.6332 13.4437 14.6332 13.6878 14.3891C13.9319 14.145 13.9319 13.7493 13.6878 13.5052L9.91672 9.73414L14.1241 8.30509C14.3703 8.22148 14.539 7.99418 14.5478 7.73433C14.5565 7.47448 14.4035 7.23635 14.1635 7.13636L2.31704 2.20092ZM6.95258 12.8562L3.23727 3.93845L12.1551 7.65376L8.56331 8.87369C8.3794 8.93615 8.23498 9.08057 8.17252 9.26448L6.95258 12.8562Z" fill="#6D7782"/>
</svg>
