<svg width="16" height="17" viewBox="0 0 16 17" fill="none" xmlns="http://www.w3.org/2000/svg">
<g clip-path="url(#clip0_24_141)">
<path d="M6.80005 3.74625V4.99625C6.80005 5.20335 6.63214 5.37125 6.42505 5.37125H5.17505C4.96796 5.37125 4.80005 5.20335 4.80005 4.99625V3.74625C4.80005 3.53916 4.96796 3.37125 5.17505 3.37125H6.42505C6.63214 3.37125 6.80005 3.53916 6.80005 3.74625ZM10.425 3.37125H9.17505C8.96796 3.37125 8.80005 3.53916 8.80005 3.74625V4.99625C8.80005 5.20335 8.96796 5.37125 9.17505 5.37125H10.425C10.6321 5.37125 10.8 5.20335 10.8 4.99625V3.74625C10.8 3.53916 10.6321 3.37125 10.425 3.37125ZM6.42505 6.37125H5.17505C4.96796 6.37125 4.80005 6.53916 4.80005 6.74625V7.99625C4.80005 8.20335 4.96796 8.37125 5.17505 8.37125H6.42505C6.63214 8.37125 6.80005 8.20335 6.80005 7.99625V6.74625C6.80005 6.53916 6.63214 6.37125 6.42505 6.37125ZM10.425 6.37125H9.17505C8.96796 6.37125 8.80005 6.53916 8.80005 6.74625V7.99625C8.80005 8.20335 8.96796 8.37125 9.17505 8.37125H10.425C10.6321 8.37125 10.8 8.20335 10.8 7.99625V6.74625C10.8 6.53916 10.6321 6.37125 10.425 6.37125ZM6.42505 9.37125H5.17505C4.96796 9.37125 4.80005 9.53916 4.80005 9.74625V10.9963C4.80005 11.2033 4.96796 11.3713 5.17505 11.3713H6.42505C6.63214 11.3713 6.80005 11.2033 6.80005 10.9963V9.74625C6.80005 9.53916 6.63214 9.37125 6.42505 9.37125ZM10.425 9.37125H9.17505C8.96796 9.37125 8.80005 9.53916 8.80005 9.74625V10.9963C8.80005 11.2033 8.96796 11.3713 9.17505 11.3713H10.425C10.6321 11.3713 10.8 11.2033 10.8 10.9963V9.74625C10.8 9.53916 10.6321 9.37125 10.425 9.37125ZM14.8 15.7775V16.4025H0.800049V15.7775C0.800049 15.5704 0.967955 15.4025 1.17505 15.4025H1.80005V1.1525C1.80005 0.738285 2.13583 0.402504 2.55005 0.402504H13.05C13.4643 0.402504 13.8 0.738285 13.8 1.1525V15.4025H14.425C14.6321 15.4025 14.8 15.5704 14.8 15.7775ZM12.8 15.4025V1.4025H2.80005V15.4025H6.80005V12.7463C6.80005 12.5392 6.96796 12.3713 7.17505 12.3713H8.42505C8.63214 12.3713 8.80005 12.5392 8.80005 12.7463V15.4025H12.8Z" fill="#6D7782"/>
</g>
<defs>
<clipPath id="clip0_24_141">
<rect width="16" height="16" fill="white" transform="translate(0 0.402504)"/>
</clipPath>
</defs>
</svg>
