<svg width="16" height="17" viewBox="0 0 16 17" fill="none" xmlns="http://www.w3.org/2000/svg">
<g clip-path="url(#clip0_24_66)">
<path d="M12.372 16.6751C12.2163 16.6747 12.061 16.6572 11.9089 16.6231C9.01316 16.0105 6.34541 14.5742 4.21268 12.4794C2.12547 10.3801 0.677879 7.70723 0.0450497 4.78416C-0.0295688 4.41986 -0.0112545 4.04205 0.0982308 3.68709C0.207716 3.33212 0.404688 3.01194 0.670195 2.75735L2.52248 0.934158C2.61708 0.842662 2.7295 0.772595 2.85238 0.728532C2.97525 0.684469 3.10584 0.6674 3.2356 0.678438C3.37016 0.692793 3.5 0.737118 3.616 0.808296C3.73201 0.879474 3.83135 0.975777 3.90706 1.09043L6.22241 4.59001C6.30924 4.7258 6.35115 4.8865 6.34198 5.04847C6.33281 5.21044 6.27304 5.36513 6.17147 5.48976L5.00916 6.91043C5.47207 7.95815 6.12764 8.90508 6.94017 9.69967C7.74744 10.5231 8.70161 11.1806 9.75101 11.6365L11.1912 10.4668C11.3121 10.3691 11.4593 10.3113 11.6131 10.3011C11.767 10.291 11.9202 10.329 12.0525 10.41L15.5486 12.721C15.6686 12.7942 15.7708 12.8943 15.8476 13.0137C15.9244 13.1331 15.9738 13.2687 15.9921 13.4104C16.0103 13.552 15.997 13.6961 15.9531 13.8318C15.9092 13.9674 15.8358 14.0912 15.7385 14.1937L13.9325 16.0216C13.7274 16.2304 13.4839 16.3956 13.2161 16.5078C12.9483 16.6199 12.6614 16.6768 12.372 16.6751V16.6751ZM3.16151 1.61608L1.30923 3.43927C1.15987 3.58159 1.0493 3.76123 0.98841 3.9605C0.927516 4.15978 0.91839 4.37183 0.961929 4.5758C1.55036 7.3187 2.90299 9.82862 4.85635 11.8023C6.86339 13.773 9.37389 15.124 12.0988 15.6996C12.305 15.7437 12.5188 15.7348 12.7208 15.6736C12.9228 15.6125 13.1069 15.501 13.2564 15.3492L15.0624 13.5213L11.6866 11.2908L10.14 12.5505C10.0808 12.5984 10.011 12.6308 9.93675 12.6448C9.86249 12.6589 9.78601 12.6541 9.71396 12.631C8.42973 12.1471 7.26592 11.379 6.30576 10.3816C5.31264 9.43316 4.54175 8.26764 4.05061 6.97199C4.02983 6.89355 4.02914 6.81097 4.0486 6.73218C4.06807 6.65339 4.10703 6.58105 4.16175 6.52211L5.41204 4.99253L3.16151 1.61608Z" fill="#6D7782"/>
</g>
<defs>
<clipPath id="clip0_24_66">
<rect width="16" height="16" fill="white" transform="translate(0 0.675179)"/>
</clipPath>
</defs>
</svg>
