<svg width="16" height="17" viewBox="0 0 16 17" fill="none" xmlns="http://www.w3.org/2000/svg">
<g clip-path="url(#clip0_24_42)">
<path d="M15.5233 9.79648H8.54418L13.1921 14.4444C13.2829 14.5348 13.4058 14.5857 13.5339 14.5859C13.6462 14.5859 13.758 14.5462 13.8448 14.4644C14.983 13.3921 15.7659 11.9465 15.9957 10.3215C16.0351 10.0432 15.8042 9.79648 15.5233 9.79648V9.79648ZM13.5259 13.4471L10.8165 10.7377H14.9601C14.7212 11.7424 14.2259 12.6788 13.5259 13.4471ZM6.5883 9.79648V2.81736C6.5883 2.55766 6.37712 2.3406 6.12536 2.3406C6.10506 2.3406 6.08418 2.34207 6.0633 2.34501C2.55859 2.84031 -0.120524 5.90236 0.00418193 9.57207C0.131535 13.3121 3.32889 16.3847 7.06271 16.3847C7.09153 16.3847 7.11948 16.3844 7.1483 16.3841C8.63065 16.3656 10.0004 15.888 11.1265 15.0891C11.3589 14.9244 11.3742 14.5824 11.1727 14.3809L6.5883 9.79648ZM7.13624 15.443L7.06242 15.4435C3.85536 15.4435 1.05359 12.74 0.94477 9.54001C0.84477 6.59501 2.8333 4.03913 5.64712 3.37972V10.1862L5.92271 10.4618L10.0945 14.6335C9.19565 15.1518 8.18389 15.43 7.13624 15.443V15.443ZM15.0577 7.8906C14.8154 4.37707 12.0077 1.56942 8.49418 1.32707C8.48389 1.32619 8.47359 1.32589 8.46359 1.32589C8.20889 1.32589 8.00006 1.54501 8.00006 1.80325V8.38472H14.5815C14.8504 8.38472 15.0762 8.15883 15.0577 7.8906ZM8.94124 7.44354V2.32295C11.5662 2.72913 13.6554 4.81854 14.0618 7.44354H8.94124Z" fill="#6D7782"/>
</g>
<defs>
<clipPath id="clip0_24_42">
<rect width="16" height="16" fill="white" transform="translate(0 0.525894)"/>
</clipPath>
</defs>
</svg>
