<svg width="16" height="17" viewBox="0 0 16 17" fill="none" xmlns="http://www.w3.org/2000/svg">
<g clip-path="url(#clip0_24_92)">
<path d="M11.0001 7.32009L10.6845 4.94821H11.8501C12.2626 4.94821 12.6001 4.61071 12.6001 4.19821V1.69821C12.6001 1.28571 12.2626 0.948212 11.8501 0.948212H3.3501C2.9376 0.948212 2.6001 1.28571 2.6001 1.69821V4.19821C2.6001 4.61071 2.9376 4.94821 3.3501 4.94821H4.51572L4.2001 7.32009C2.69072 8.18259 1.6001 9.64821 1.6001 11.4232C1.6001 11.6982 1.8251 11.9232 2.1001 11.9232H7.1001V15.6982C7.1001 15.7201 7.10322 15.7388 7.10635 15.7576L7.35635 16.7576C7.41885 17.0076 7.77822 17.0107 7.84072 16.7576L8.09072 15.7576C8.09697 15.7388 8.09697 15.717 8.09697 15.6982V11.9232H13.097C13.372 11.9232 13.597 11.6982 13.597 11.4232C13.6001 9.64821 12.5095 8.18259 11.0001 7.32009V7.32009ZM2.64072 10.9232C2.85322 9.58259 3.87822 8.53571 5.1251 7.97009L5.6001 3.94821H3.6001V1.94821H11.6001V3.94821H9.6001L10.0782 7.97321C11.3282 8.54196 12.3501 9.59196 12.5626 10.9263H2.64072V10.9232Z" fill="#6D7782"/>
</g>
<defs>
<clipPath id="clip0_24_92">
<rect width="16" height="16" fill="white" transform="translate(0 0.948212)"/>
</clipPath>
</defs>
</svg>
