<svg width="16" height="17" viewBox="0 0 16 17" fill="none" xmlns="http://www.w3.org/2000/svg">
<g clip-path="url(#clip0_24_77)">
<path d="M15.1016 15.2932L11.4735 11.6651C11.4088 11.6004 11.3244 11.5667 11.2344 11.5667H10.9447C11.9094 10.5232 12.5 9.13103 12.5 7.59821C12.5 4.36665 9.88161 1.74821 6.65005 1.74821C3.41849 1.74821 0.800049 4.36665 0.800049 7.59821C0.800049 10.8298 3.41849 13.4482 6.65005 13.4482C8.18286 13.4482 9.57505 12.8576 10.6185 11.8957V12.1826C10.6185 12.2726 10.655 12.357 10.7169 12.4217L14.345 16.0498C14.4772 16.182 14.691 16.182 14.8232 16.0498L15.1016 15.7713C15.2338 15.6392 15.2338 15.4254 15.1016 15.2932ZM6.65005 12.5482C3.91349 12.5482 1.70005 10.3348 1.70005 7.59821C1.70005 4.86165 3.91349 2.64821 6.65005 2.64821C9.38661 2.64821 11.6 4.86165 11.6 7.59821C11.6 10.3348 9.38661 12.5482 6.65005 12.5482Z" fill="#6D7782"/>
</g>
<defs>
<clipPath id="clip0_24_77">
<rect width="16" height="16" fill="white" transform="translate(0 0.948212)"/>
</clipPath>
</defs>
</svg>
