<svg width="16" height="17" viewBox="0 0 16 17" fill="none" xmlns="http://www.w3.org/2000/svg">
<path fill-rule="evenodd" clip-rule="evenodd" d="M2.67081 11.6576L2.55639 12.1058C2.33981 12.954 1.89603 13.7267 1.50932 14.289C2.70978 14.0263 3.6262 13.4415 4.15409 13.0329L4.50342 12.7625L4.91831 12.9141C5.85437 13.2562 6.89592 13.4545 8 13.4545C12.1637 13.4545 15.2 10.8203 15.2 7.94018C15.2 5.06007 12.1637 2.42589 8 2.42589C3.83626 2.42589 0.8 5.06007 0.8 7.94018C0.8 9.19607 1.35537 10.3761 2.33948 11.3348L2.67081 11.6576ZM0.798258 15.2033C0.783496 15.2045 0.768705 15.2057 0.753882 15.2068C0.663989 15.2136 0.57298 15.2187 0.480891 15.2219C0.475105 15.2221 0.469314 15.2223 0.46352 15.2225C0.392977 15.2247 0.3218 15.2259 0.25 15.2259C0.15 15.2259 0.0625 15.1713 0.021875 15.0802C-0.01875 14.9891 0 14.8859 0.06875 14.8161C0.0722637 14.8127 0.141043 14.7411 0.25 14.6148C0.291944 14.5662 0.339842 14.5094 0.392263 14.4453C0.398091 14.4382 0.403973 14.431 0.409911 14.4237C0.828779 13.9084 1.51604 12.9466 1.78125 11.9079C0.66875 10.8241 0 9.44589 0 7.94018C0 4.45214 3.58125 1.62589 8 1.62589C12.4188 1.62589 16 4.45214 16 7.94018C16 11.4282 12.4188 14.2545 8 14.2545C6.8 14.2545 5.66563 14.0389 4.64375 13.6655C3.9444 14.2068 2.59591 15.0546 0.798258 15.2033Z" fill="#6D7782"/>
<path d="M4.9014 8.7656C4.9014 8.6809 4.89199 8.60562 4.87317 8.53974C4.85623 8.47199 4.82329 8.41082 4.77436 8.35623C4.72542 8.30165 4.65578 8.24801 4.56544 8.19531C4.47698 8.14261 4.36217 8.08897 4.22101 8.03439C4.05914 7.97228 3.90763 7.90452 3.76647 7.83112C3.62719 7.75583 3.50391 7.67113 3.39663 7.57703C3.29123 7.48104 3.20841 7.36905 3.14818 7.24106C3.08796 7.11308 3.05784 6.96439 3.05784 6.79499C3.05784 6.62748 3.08701 6.47503 3.14536 6.33763C3.20559 6.19835 3.29029 6.07884 3.39945 5.97908C3.5105 5.87745 3.64225 5.79934 3.7947 5.74476C3.94715 5.68829 4.11561 5.66006 4.30006 5.66006C4.56544 5.66006 4.79224 5.71653 4.98045 5.82945C5.17055 5.94238 5.31547 6.0939 5.41523 6.28399C5.51686 6.47409 5.56768 6.68489 5.56768 6.91639H4.88446C4.88446 6.78276 4.86376 6.66419 4.82235 6.56067C4.78095 6.45715 4.71695 6.37622 4.63037 6.31787C4.5438 6.25952 4.43181 6.23035 4.29441 6.23035C4.16831 6.23035 4.06385 6.25482 3.98103 6.30375C3.9001 6.35269 3.83987 6.41951 3.80035 6.5042C3.7627 6.5889 3.74388 6.68583 3.74388 6.79499C3.74388 6.87028 3.75988 6.93898 3.79188 7.00109C3.82387 7.06132 3.86999 7.11684 3.93022 7.16766C3.99044 7.21848 4.06385 7.26647 4.15043 7.31164C4.23701 7.35682 4.33676 7.4001 4.44969 7.44151C4.64167 7.51115 4.80918 7.58832 4.95222 7.67302C5.09526 7.75771 5.2129 7.85276 5.30512 7.95816C5.39923 8.06168 5.46887 8.17931 5.51404 8.31106C5.56109 8.44281 5.58462 8.59244 5.58462 8.75995C5.58462 8.92935 5.55545 9.08368 5.4971 9.22296C5.44064 9.36036 5.35782 9.47799 5.24866 9.57586C5.13949 9.67374 5.00774 9.74996 4.85341 9.80455C4.69907 9.85725 4.52591 9.8836 4.33394 9.8836C4.15701 9.8836 3.98668 9.85725 3.82293 9.80455C3.66107 9.75185 3.51614 9.67185 3.38816 9.56457C3.26017 9.45541 3.15854 9.31895 3.08325 9.15521C3.00985 8.99146 2.97314 8.79948 2.97314 8.57927H3.65919C3.65919 8.71102 3.67518 8.82395 3.70718 8.91805C3.73918 9.01028 3.78529 9.08651 3.84552 9.14674C3.90763 9.20508 3.98009 9.24837 4.06291 9.2766C4.1476 9.30295 4.24171 9.31613 4.34523 9.31613C4.47321 9.31613 4.57767 9.29354 4.65861 9.24837C4.74142 9.20132 4.80259 9.13638 4.84212 9.05357C4.88164 8.97075 4.9014 8.87477 4.9014 8.7656Z" fill="#6D7782"/>
<path d="M6.43441 5.71653H7.05834L8.00412 8.77407L8.94707 5.71653H9.52583L8.26103 9.82713H7.74438L6.43441 5.71653ZM6.20008 5.71653H6.77602L6.86919 8.33365V9.82713H6.20008V5.71653ZM9.22657 5.71653H9.80533V9.82713H9.13623V8.33365L9.22657 5.71653Z" fill="#6D7782"/>
<path d="M12.3434 8.7656C12.3434 8.6809 12.334 8.60562 12.3152 8.53974C12.2982 8.47199 12.2653 8.41082 12.2164 8.35623C12.1674 8.30165 12.0978 8.24801 12.0074 8.19531C11.919 8.14261 11.8042 8.08897 11.663 8.03439C11.5011 7.97228 11.3496 7.90452 11.2085 7.83112C11.0692 7.75583 10.9459 7.67113 10.8386 7.57703C10.7332 7.48104 10.6504 7.36905 10.5902 7.24106C10.53 7.11308 10.4998 6.96439 10.4998 6.79499C10.4998 6.62748 10.529 6.47503 10.5874 6.33763C10.6476 6.19835 10.7323 6.07884 10.8415 5.97908C10.9525 5.87745 11.0843 5.79934 11.2367 5.74476C11.3892 5.68829 11.5576 5.66006 11.7421 5.66006C12.0074 5.66006 12.2342 5.71653 12.4225 5.82945C12.6126 5.94238 12.7575 6.0939 12.8572 6.28399C12.9589 6.47409 13.0097 6.68489 13.0097 6.91639H12.3265C12.3265 6.78276 12.3058 6.66419 12.2644 6.56067C12.2229 6.45715 12.159 6.37622 12.0724 6.31787C11.9858 6.25952 11.8738 6.23035 11.7364 6.23035C11.6103 6.23035 11.5059 6.25482 11.423 6.30375C11.3421 6.35269 11.2819 6.41951 11.2424 6.5042C11.2047 6.5889 11.1859 6.68583 11.1859 6.79499C11.1859 6.87028 11.2019 6.93898 11.2339 7.00109C11.2659 7.06132 11.312 7.11684 11.3722 7.16766C11.4324 7.21848 11.5059 7.26647 11.5924 7.31164C11.679 7.35682 11.7788 7.4001 11.8917 7.44151C12.0837 7.51115 12.2512 7.58832 12.3942 7.67302C12.5373 7.75771 12.6549 7.85276 12.7471 7.95816C12.8412 8.06168 12.9109 8.17931 12.956 8.31106C13.0031 8.44281 13.0266 8.59244 13.0266 8.75995C13.0266 8.92935 12.9975 9.08368 12.9391 9.22296C12.8826 9.36036 12.7998 9.47799 12.6907 9.57586C12.5815 9.67374 12.4497 9.74996 12.2954 9.80455C12.1411 9.85725 11.9679 9.8836 11.7759 9.8836C11.599 9.8836 11.4287 9.85725 11.2649 9.80455C11.1031 9.75185 10.9581 9.67185 10.8302 9.56457C10.7022 9.45541 10.6005 9.31895 10.5253 9.15521C10.4519 8.99146 10.4151 8.79948 10.4151 8.57927H11.1012C11.1012 8.71102 11.1172 8.82395 11.1492 8.91805C11.1812 9.01028 11.2273 9.08651 11.2875 9.14674C11.3496 9.20508 11.4221 9.24837 11.5049 9.2766C11.5896 9.30295 11.6837 9.31613 11.7872 9.31613C11.9152 9.31613 12.0197 9.29354 12.1006 9.24837C12.1834 9.20132 12.2446 9.13638 12.2841 9.05357C12.3236 8.97075 12.3434 8.87477 12.3434 8.7656Z" fill="#6D7782"/>
</svg>
