<svg width="16" height="17" viewBox="0 0 16 17" fill="none" xmlns="http://www.w3.org/2000/svg">
<g clip-path="url(#clip0_24_80)">
<path d="M8 0.925179C3.71875 0.925179 0.25 4.39393 0.25 8.67518C0.25 12.9564 3.71875 16.4252 8 16.4252C12.2812 16.4252 15.75 12.9564 15.75 8.67518C15.75 4.39393 12.2812 0.925179 8 0.925179ZM14.75 8.67518C14.75 12.3846 11.7469 15.4252 8 15.4252C4.29063 15.4252 1.25 12.4221 1.25 8.67518C1.25 4.9658 4.25312 1.92518 8 1.92518C11.7094 1.92518 14.75 4.9283 14.75 8.67518ZM10.0969 11.4346L7.55937 9.5908C7.4625 9.51893 7.40625 9.40643 7.40625 9.28768V4.30018C7.40625 4.09393 7.575 3.92518 7.78125 3.92518H8.21875C8.425 3.92518 8.59375 4.09393 8.59375 4.30018V8.87205L10.7969 10.4752C10.9656 10.5971 11 10.8314 10.8781 11.0002L10.6219 11.3533C10.5 11.5189 10.2656 11.5564 10.0969 11.4346V11.4346Z" fill="#6D7782"/>
</g>
<defs>
<clipPath id="clip0_24_80">
<rect width="16" height="16" fill="white" transform="translate(0 0.675179)"/>
</clipPath>
</defs>
</svg>
