<svg width="16" height="17" viewBox="0 0 16 17" fill="none" xmlns="http://www.w3.org/2000/svg">
<path d="M8.44279 9.53865C7.67013 9.53865 7.2986 9.95743 6.03057 9.95743C4.76253 9.95743 4.3937 9.53865 3.61834 9.53865C1.62071 9.53865 0 11.1143 0 13.0565V14.1453C0 14.8389 0.578827 15.4017 1.29226 15.4017H10.7689C11.4823 15.4017 12.0611 14.8389 12.0611 14.1453V13.0565C12.0611 11.1143 10.4404 9.53865 8.44279 9.53865ZM11.1996 14.1453C11.1996 14.3757 11.0058 14.5641 10.7689 14.5641H1.29226C1.05535 14.5641 0.861509 14.3757 0.861509 14.1453V13.0565C0.861509 11.5776 2.09724 10.3762 3.61834 10.3762C4.14601 10.3762 4.671 10.795 6.03057 10.795C7.38744 10.795 7.91512 10.3762 8.44279 10.3762C9.9639 10.3762 11.1996 11.5776 11.1996 13.0565V14.1453ZM6.03057 8.70107C7.93396 8.70107 9.4766 7.20128 9.4766 5.35075C9.4766 3.50023 7.93396 2.00044 6.03057 2.00044C4.12717 2.00044 2.58453 3.50023 2.58453 5.35075C2.58453 7.20128 4.12717 8.70107 6.03057 8.70107ZM6.03057 2.83802C7.45475 2.83802 8.61509 3.96613 8.61509 5.35075C8.61509 6.73537 7.45475 7.86349 6.03057 7.86349C4.60638 7.86349 3.44604 6.73537 3.44604 5.35075C3.44604 3.96613 4.60638 2.83802 6.03057 2.83802Z" fill="#6D7782"/>
<path fill-rule="evenodd" clip-rule="evenodd" d="M9.96944 4.52742C10.2135 4.28334 10.6092 4.28334 10.8533 4.52742L14.1533 7.82742C14.3974 8.0715 14.3974 8.46722 14.1533 8.7113C13.9092 8.95538 13.5135 8.95538 13.2694 8.7113L9.96943 5.4113C9.72536 5.16722 9.72536 4.77149 9.96944 4.52742Z" fill="#6D7782"/>
<path fill-rule="evenodd" clip-rule="evenodd" d="M14.1531 4.52744C14.3972 4.77152 14.3972 5.16725 14.1531 5.41133L10.8531 8.71131C10.609 8.95539 10.2133 8.95539 9.96924 8.71131C9.72516 8.46723 9.72517 8.0715 9.96924 7.82742L13.2692 4.52744C13.5133 4.28336 13.909 4.28337 14.1531 4.52744Z" fill="#6D7782"/>
</svg>
