<svg width="700" height="746" style="width: 100%; max-width: 700px;" viewBox="0 0 700 746" fill="none" xmlns="http://www.w3.org/2000/svg">
	<style>
		rect, circle
		{
			fill: url(#skyGradient);
			animation: flashing 2s linear infinite;
		}

		@keyframes flashing {
  0% {	
    fill: #F7F9FB;
  }
  50% {
    fill: #E3E9EC;
  }
  100% {
    fill: #F7F9FB;
  }
}
	</style>
<rect y="98.7206" width="700" height="64" rx="6" />
<rect y="565.746" width="700" height="64" rx="6" />
<rect x="527.735" y="681.85" width="172.265" height="64" rx="6" />
<rect y="0.310623" width="347.062" height="33" rx="16.5" />
<rect y="240.358" width="478.825" height="33" rx="16.5" />
<rect y="469.336" width="526.599" height="33" rx="16.5" />
<rect x="55.977" y="347.29" width="130.585" height="18" rx="9" />
<rect x="322.957" y="347.29" width="130.585" height="18" rx="9" />
<rect x="569.415" y="347.29" width="130.585" height="18" rx="9" />
<rect y="64.7656" width="700" height="4" rx="2" />
<rect y="303.313" width="700" height="4" rx="2" />
<rect y="531.791" width="700" height="4" rx="2" />
<circle cx="20" cy="356.446" r="20" />
<circle cx="286.98" cy="356.446" r="20" />
<circle cx="533.438" cy="356.446" r="20" />
</svg>
