<svg width="16" height="16" viewBox="0 0 16 16" fill="none" xmlns="http://www.w3.org/2000/svg">
<path fill-rule="evenodd" clip-rule="evenodd" d="M8.18884 7.98384V12.8349H12.8196V9.28306L8.18884 7.98384ZM7.94262 6.24604C7.25949 6.05438 6.58215 6.56784 6.58215 7.27734V13.3704C6.58215 13.962 7.06171 14.4415 7.65327 14.4415H13.3552C13.9468 14.4415 14.4263 13.962 14.4263 13.3704V8.87707C14.4263 8.39694 14.1068 7.97547 13.6445 7.84577L7.94262 6.24604Z" fill="#2A3843"/>
<path fill-rule="evenodd" clip-rule="evenodd" d="M1.60889 2.3905C1.60889 1.94683 1.96855 1.58716 2.41223 1.58716H10.3551C10.7988 1.58716 11.1585 1.94683 11.1585 2.3905V7.61877H9.55179V3.19384H3.21557V12.82H7.75972V14.4266H2.41223C1.96855 14.4266 1.60889 14.067 1.60889 13.6233V2.3905Z" fill="#2A3843"/>
<rect x="4.31293" y="4.19623" width="1.41868" height="1.41868" fill="#2A3843"/>
<rect x="4.31293" y="7.16613" width="1.41868" height="1.41868" fill="#2A3843"/>
<rect x="4.31293" y="10.2608" width="1.41868" height="1.41868" fill="#2A3843"/>
<path d="M9.79486 10.2608H11.2135V11.6795H9.79486V10.2608Z" fill="#2A3843"/>
<rect x="6.97321" y="4.19623" width="1.41868" height="1.41868" fill="#2A3843"/>
</svg>
