<svg width="16" height="16" viewBox="0 0 16 16" fill="none" xmlns="http://www.w3.org/2000/svg">
<path d="M7.99997 0.978485C4.10967 0.978485 0.978455 4.1097 0.978455 8C0.978455 11.8903 4.10967 15.0215 7.99997 15.0215C11.8903 15.0215 15.0215 11.8903 15.0215 8C15.0215 4.1097 11.7954 0.978485 7.99997 0.978485ZM7.99997 13.5982C4.96364 13.5982 2.40173 11.1312 2.40173 8C2.40173 4.86878 4.86875 2.40177 7.99997 2.40177C11.1312 2.40177 13.5982 4.86878 13.5982 8C13.5982 11.1312 11.0363 13.5982 7.99997 13.5982Z" fill="#2A3843"/>
<path d="M11.2261 7.24091H8.66415V4.679C8.66415 4.29946 8.3795 3.91992 7.90507 3.91992C7.43064 3.91992 7.24087 4.29946 7.24087 4.679V7.24091H4.67897C4.29943 7.24091 4.01477 7.62045 4.01477 7.99999C4.01477 8.37953 4.29943 8.75907 4.77385 8.75907H7.33576V11.321C7.33576 11.7005 7.62041 12.0801 8.09484 12.0801C8.56927 12.0801 8.85392 11.7954 8.85392 11.321V8.66419H11.4158C11.7954 8.66419 12.1749 8.37953 12.1749 7.90511C12.1749 7.43068 11.6056 7.24091 11.2261 7.24091Z" fill="#2A3843"/>
</svg>
