<svg width="16" height="16" viewBox="0 0 16 16" fill="none" xmlns="http://www.w3.org/2000/svg">
<path d="M15.2198 4.6762H0.780234C0.574141 4.67889 0.377247 4.76196 0.231505 4.9077C0.0857624 5.05344 0.00269437 5.25034 0 5.45643V10.5436C0.00269437 10.7497 0.0857624 10.9465 0.231505 11.0923C0.377247 11.238 0.574141 11.3211 0.780234 11.3238H15.2198C15.4259 11.3211 15.6228 11.238 15.7685 11.0923C15.9142 10.9465 15.9973 10.7497 16 10.5436V5.45643C15.9973 5.25034 15.9142 5.05344 15.7685 4.9077C15.6228 4.76196 15.4259 4.67889 15.2198 4.6762ZM10.0806 8.0052L9.36281 9.76332H6.3355L6.95969 8.29648C7.03249 8.10553 7.03249 7.89446 6.95969 7.7035L6.3355 6.23667H9.36281L10.0806 8.0052ZM1.56047 6.23667H4.6814L5.39922 8.0052L4.6502 9.76332H1.52926L1.56047 6.23667ZM14.4395 9.76332H11.0481L11.6411 8.29648C11.6821 8.20301 11.7032 8.10205 11.7032 7.99999C11.7032 7.89793 11.6821 7.79698 11.6411 7.7035L11.0481 6.23667H14.4395V9.76332Z" fill="#2A3843"/>
</svg>
