<svg width="16" height="16" viewBox="0 0 16 16" fill="none" xmlns="http://www.w3.org/2000/svg">
<g clip-path="url(#clip0_168_558)">
<path d="M9.65721 6.07737C9.77658 6.28412 10.051 6.40135 10.3094 6.25214C10.5679 6.10293 10.6334 5.85834 10.4842 5.59991C10.0963 4.92797 9.1696 4.63598 8.32661 4.84702L8.26693 4.74364C8.14756 4.53689 7.87314 4.41967 7.6147 4.56888C7.35626 4.71809 7.32057 5.01436 7.43994 5.22111C7.10797 5.48169 6.88737 5.8158 6.7483 6.17176C6.55754 6.55756 6.61137 7.00889 6.82026 7.3707C7.4171 8.40445 8.34161 8.21526 8.9917 7.90885L9.67806 9.09765C9.49316 9.13549 9.30825 9.17333 9.09351 9.15948C8.93045 9.11579 8.73755 9.02041 8.67787 8.91704C8.5585 8.71029 8.28407 8.59306 8.02564 8.74227C7.7672 8.89148 7.70166 9.13607 7.85087 9.3945C8.05976 9.75631 8.42372 10.0286 8.88305 10.108C9.26085 10.1655 9.63066 10.0899 10.0223 9.93265C10.1417 10.1394 10.4161 10.2566 10.6745 10.1074C10.933 9.9582 10.9985 9.71362 10.8493 9.45518L10.7896 9.35181C11.3939 8.72727 11.6043 7.77877 11.2164 7.10683C10.7389 6.27984 9.94763 6.46103 9.29754 6.76744L8.70071 5.7337C9.20373 5.65002 9.508 5.81894 9.65721 6.07737ZM7.59557 6.92308C7.50605 6.76802 7.49805 6.6348 7.59343 6.4419C7.63712 6.27884 7.76234 6.13763 7.9174 6.0481L8.57392 7.18522C8.04905 7.35043 7.8343 7.33658 7.59557 6.92308ZM10.5525 7.62799C10.6718 7.83474 10.6441 8.26423 10.4235 8.59834L9.82669 7.5646C10.3516 7.3994 10.4331 7.42124 10.5525 7.62799Z" fill="#2A3843"/>
<path fill-rule="evenodd" clip-rule="evenodd" d="M8.88431 10.1083C8.42498 10.0289 8.06103 9.75663 7.85213 9.39482C7.70293 9.13638 7.76846 8.89179 8.0269 8.74258C8.28534 8.59338 8.55976 8.7106 8.67913 8.91735C8.73881 9.02072 8.93171 9.1161 9.09477 9.15979C9.291 9.17245 9.46231 9.14195 9.63147 9.10772C9.64743 9.10449 9.66338 9.10123 9.67932 9.09797L8.99297 7.90916C8.34288 8.21557 7.41836 8.40476 6.82153 7.37102C6.61263 7.00921 6.5588 6.55787 6.74956 6.17207C6.88863 5.81611 7.10923 5.482 7.4412 5.22142C7.32183 5.01467 7.35753 4.7184 7.61596 4.56919C7.8744 4.41998 8.14883 4.53721 8.2682 4.74396L8.32788 4.84733C9.17087 4.6363 10.0975 4.92829 10.4855 5.60022C10.6347 5.85866 10.5691 6.10324 10.3107 6.25245C10.0523 6.40166 9.77784 6.28444 9.65847 6.07769C9.51419 5.82778 9.22492 5.66159 8.75115 5.72654C8.73497 5.72876 8.71858 5.73125 8.70197 5.73401L9.2988 6.76776C9.94889 6.46134 10.7402 6.28015 11.2177 7.10715C11.6056 7.77908 11.3951 8.72759 10.7909 9.35212L10.8506 9.45549C10.9998 9.71393 10.9342 9.95852 10.6758 10.1077C10.4174 10.2569 10.1429 10.1397 10.0236 9.93296C9.63192 10.0902 9.26212 10.1658 8.88431 10.1083ZM10.0049 9.99016C9.62178 10.1396 9.2544 10.2115 8.87734 10.1541C8.40408 10.0723 8.02759 9.79136 7.81202 9.41798C7.73277 9.28072 7.70799 9.14233 7.74191 9.01575C7.77582 8.88917 7.86648 8.78172 8.00374 8.70247C8.28755 8.53861 8.58903 8.66864 8.71925 8.89419C8.74264 8.9347 8.79662 8.97934 8.87067 9.02045C8.94178 9.05993 9.02536 9.09284 9.10235 9.11386C9.28458 9.12499 9.44494 9.09789 9.60703 9.06539L8.97403 7.96901C8.65308 8.11548 8.26597 8.23195 7.88209 8.18868C7.47932 8.14328 7.08658 7.92274 6.78141 7.39418C6.5667 7.02228 6.50928 6.55527 6.70714 6.15335C6.8445 5.80256 7.06024 5.4715 7.38239 5.20914C7.27542 4.98603 7.32355 4.68453 7.5928 4.52908C7.87661 4.36522 8.17809 4.49525 8.30831 4.7208L8.35067 4.79415C9.19887 4.59566 10.1299 4.89166 10.5256 5.57706C10.6048 5.71432 10.6296 5.8527 10.5957 5.97928C10.5618 6.10587 10.4711 6.21332 10.3339 6.29257C10.0501 6.45642 9.74858 6.32639 9.61836 6.10085C9.54861 5.98005 9.44299 5.88045 9.29546 5.82047C9.16121 5.76589 8.98998 5.74322 8.77622 5.76997L9.31771 6.70786C9.63505 6.56203 9.98885 6.44652 10.3257 6.46618C10.6804 6.48688 11.0114 6.6573 11.2578 7.08399C11.6535 7.76938 11.4443 8.72365 10.8483 9.35897L10.8907 9.43233C10.9699 9.5696 10.9947 9.70798 10.9608 9.83456C10.9269 9.96114 10.8362 10.0686 10.699 10.1478C10.4298 10.3033 10.1447 10.1943 10.0049 9.99016ZM7.63622 6.46274C7.59056 6.55508 7.57163 6.62916 7.57274 6.69623C7.57384 6.76294 7.59484 6.8273 7.63695 6.90023C7.75388 7.10276 7.8586 7.19615 7.98915 7.22635C8.11477 7.25541 8.27329 7.22869 8.50603 7.1584L7.90242 6.11292C7.7743 6.19771 7.6756 6.31924 7.63944 6.4542L7.63622 6.46274ZM7.87922 6.07273C7.89212 6.06426 7.90528 6.05615 7.91867 6.04842L8.57518 7.18554C8.5598 7.19038 8.54468 7.19507 8.52981 7.1996C8.0377 7.34958 7.82857 7.32477 7.59684 6.92339C7.50731 6.76833 7.49931 6.63511 7.59469 6.44221C7.63461 6.29323 7.7426 6.16248 7.87922 6.07273ZM10.5707 8.06057C10.5897 7.89096 10.5665 7.74307 10.5136 7.65147C10.4843 7.60062 10.4599 7.56608 10.4333 7.54281C10.4082 7.5209 10.3795 7.50757 10.338 7.50319C10.2948 7.49863 10.2373 7.50377 10.1558 7.52133C10.0864 7.53628 10.0019 7.5597 9.89704 7.59192L10.4259 8.50801C10.5072 8.36412 10.5544 8.20653 10.5707 8.06057ZM10.4527 8.55427C10.4437 8.56923 10.4344 8.58403 10.4248 8.59866L9.82796 7.56491C9.84345 7.56003 9.85855 7.55532 9.87328 7.55077C10.3577 7.40116 10.4379 7.42766 10.5537 7.6283C10.6679 7.82601 10.6475 8.22738 10.4527 8.55427Z" fill="#2A3843"/>
<path fill-rule="evenodd" clip-rule="evenodd" d="M6.67935 3.32263C5.13503 4.21425 4.59381 6.7519 5.98581 9.16292C7.37781 11.5739 9.84609 12.3741 11.3904 11.4824C12.9348 10.5908 13.476 8.05316 12.084 5.64214C10.692 3.23113 8.22368 2.43101 6.67935 3.32263ZM4.68677 9.91292C3.06271 7.09996 3.38833 3.49065 5.92935 2.02359C8.47038 0.556525 11.7589 2.07919 13.383 4.89214C15.0071 7.7051 14.6815 11.3144 12.1404 12.7815C9.59939 14.2485 6.31083 12.7259 4.68677 9.91292Z" fill="#2A3843"/>
<path fill-rule="evenodd" clip-rule="evenodd" d="M4.60965 4.51757C3.06532 5.40919 2.52411 7.94684 3.91611 10.3579C5.30811 12.7689 7.77639 13.569 9.32072 12.6774L11.3904 11.4824L12.1404 12.7815L10.0707 13.9764C7.52969 15.4435 4.24113 13.9208 2.61707 11.1079C0.993007 8.2949 1.31862 4.6856 3.85965 3.21853L5.92934 2.0236L6.67934 3.32264L4.60965 4.51757Z" fill="#2A3843"/>
</g>
<defs>
<clipPath id="clip0_168_558">
<rect width="16" height="16" fill="white"/>
</clipPath>
</defs>
</svg>
