<svg width="16" height="16" viewBox="0 0 16 16" fill="none" xmlns="http://www.w3.org/2000/svg">
<rect x="5" y="6.75" width="7" height="1.5" rx="0.75" fill="#2A3843"/>
<path fill-rule="evenodd" clip-rule="evenodd" d="M1.17675 4.17676C0.79449 4.34963 0.476285 4.63919 0.267564 5C0.0973943 5.29418 0 5.63572 0 6V11C0 12.1046 0.89543 13 2 13H13C13.3643 13 13.7058 12.9026 14 12.7324C14.3608 12.5237 14.6504 12.2055 14.8232 11.8233C14.5722 11.9368 14.2935 12 14 12H3C1.89543 12 1 11.1046 1 10V5C1 4.70654 1.06321 4.42783 1.17675 4.17676Z" fill="#2AACE2"/>
<path fill-rule="evenodd" clip-rule="evenodd" d="M14 4H3C2.44772 4 2 4.44772 2 5V10C2 10.5523 2.44772 11 3 11H14C14.5523 11 15 10.5523 15 10V5C15 4.44772 14.5523 4 14 4ZM3 3C1.89543 3 1 3.89543 1 5V10C1 11.1046 1.89543 12 3 12H14C15.1046 12 16 11.1046 16 10V5C16 3.89543 15.1046 3 14 3H3Z" fill="#2A3843"/>
</svg>
