<svg width="16" height="16" viewBox="0 0 16 16" fill="none" xmlns="http://www.w3.org/2000/svg">
<path d="M8 1C4.19118 1 1 4.19118 1 8C1 11.8088 4.19118 15 8 15C11.8088 15 15 11.8088 15 8C15 4.19118 11.9118 1 8 1ZM8 13.4559C5.01471 13.4559 2.54412 10.9853 2.54412 8C2.54412 5.01471 5.01471 2.54412 8 2.54412C10.9853 2.54412 13.4559 5.01471 13.4559 8C13.4559 10.9853 10.9853 13.4559 8 13.4559Z" fill="#2A3843"/>
<path d="M10.9656 8.85028L8.5086 7.76271V5.29096C8.5086 4.89548 8.17355 4.5 7.61513 4.5C7.05671 4.5 6.83334 4.89548 6.83334 5.29096V8.25706C6.83334 8.55367 7.05671 8.75141 7.28008 8.94915L10.2955 10.2345C10.4072 10.3333 10.5189 10.3333 10.6306 10.3333C10.9656 10.3333 11.189 10.1356 11.4124 9.93785C11.6357 9.54237 11.4124 9.04802 10.9656 8.85028Z" fill="#2A3843"/>
</svg>
