<svg width="16" height="16" viewBox="0 0 16 16" fill="none" xmlns="http://www.w3.org/2000/svg">
<path fill-rule="evenodd" clip-rule="evenodd" d="M2.16667 8C2.16667 11.2217 4.77834 13.8333 8 13.8333C8.66614 13.8333 8.91045 13.7032 8.97616 13.6567C9.0104 13.6324 9.05197 13.5988 9.08951 13.4333C9.12742 13.2661 9.13492 13.1077 9.14647 12.864C9.15062 12.7764 9.1553 12.6776 9.16211 12.5634C9.1729 12.3823 9.19203 12.1446 9.24775 11.9058C9.30391 11.6652 9.41321 11.3504 9.65454 11.0649C9.90441 10.7694 10.2263 10.602 10.4372 10.5063C10.668 10.4015 10.9244 10.3147 11.1511 10.2414C11.2431 10.2117 11.3336 10.183 11.4228 10.1547C11.8113 10.0315 12.1751 9.91607 12.5348 9.75511C12.9659 9.56223 13.283 9.34721 13.4916 9.09297C13.6801 8.8633 13.8333 8.53876 13.8333 8C13.8333 4.77834 11.2217 2.16667 8 2.16667C4.77834 2.16667 2.16667 4.77834 2.16667 8ZM11.7534 11.2739C13.0964 10.849 15 10.2466 15 8C15 4.13401 11.866 1 8 1C4.13401 1 1 4.13401 1 8C1 11.866 4.13401 15 8 15C10.2174 15 10.2714 13.8203 10.3158 12.8503C10.3351 12.4285 10.3526 12.0463 10.5455 11.8182C10.7325 11.597 11.1944 11.4508 11.7534 11.2739Z" fill="#2A3843"/>
<path fill-rule="evenodd" clip-rule="evenodd" d="M2.36665 8C2.36665 11.1112 4.88878 13.6333 7.99999 13.6333C8.64372 13.6333 8.84138 13.5071 8.86054 13.4935L8.86079 13.4939L8.86054 13.4935C8.86081 13.4933 8.86106 13.4931 8.8613 13.493C8.86629 13.484 8.87926 13.456 8.89445 13.389C8.92773 13.2423 8.93494 13.1024 8.94668 12.8546L8.9467 12.8542C8.95084 12.7667 8.95557 12.6669 8.96245 12.5515C8.9734 12.3678 8.99325 12.1162 9.05297 11.8604C9.11321 11.6023 9.23272 11.2541 9.5018 10.9358C9.78074 10.6059 10.1355 10.4236 10.3545 10.3242C10.5964 10.2143 10.8623 10.1246 11.0895 10.0511C11.1821 10.0212 11.273 9.99235 11.362 9.96412L11.3623 9.96403C11.7526 9.84026 12.1055 9.7281 12.4531 9.57256C12.8694 9.38627 13.1557 9.18706 13.337 8.96609C13.4948 8.77385 13.6333 8.49468 13.6333 8C13.6333 4.8888 11.1112 2.36667 7.99999 2.36667C4.88878 2.36667 2.36665 4.8888 2.36665 8ZM11.827 11.4604L11.8137 11.4646C11.5317 11.5539 11.2855 11.6319 11.0863 11.7143C10.8819 11.7988 10.7587 11.8757 10.6982 11.9473C10.6349 12.0222 10.5908 12.1342 10.5625 12.2961C10.5343 12.4578 10.5254 12.6452 10.5155 12.8595L10.5144 12.8837C10.4931 13.3519 10.4663 13.9404 10.1357 14.4049C9.78639 14.8956 9.14086 15.2 7.99999 15.2C4.02354 15.2 0.799988 11.9765 0.799988 8C0.799988 4.02355 4.02354 0.800003 7.99999 0.800003C11.9764 0.800003 15.2 4.02355 15.2 8C15.2 9.19244 14.6893 9.96153 14.0006 10.4799C13.3294 10.985 12.4907 11.2504 11.827 11.4604ZM7.99999 13.8333C4.77833 13.8333 2.16665 11.2217 2.16665 8C2.16665 4.77834 4.77833 2.16667 7.99999 2.16667C11.2216 2.16667 13.8333 4.77834 13.8333 8C13.8333 8.53876 13.6801 8.8633 13.4916 9.09297C13.283 9.34721 12.9659 9.56223 12.5348 9.75512C12.1751 9.91607 11.8113 10.0315 11.4228 10.1547C11.3336 10.183 11.2431 10.2117 11.151 10.2414C10.9244 10.3147 10.668 10.4015 10.4372 10.5063C10.2263 10.602 9.9044 10.7694 9.65453 11.0649C9.41319 11.3504 9.30389 11.6652 9.24773 11.9058C9.19201 12.1446 9.17289 12.3823 9.16209 12.5634C9.15529 12.6776 9.15061 12.7764 9.14645 12.8641C9.13491 13.1077 9.12741 13.2661 9.0895 13.4333C9.05195 13.5988 9.01039 13.6324 8.97615 13.6567C8.91043 13.7033 8.66613 13.8333 7.99999 13.8333ZM15 8C15 10.2466 13.0964 10.849 11.7534 11.2739C11.1944 11.4508 10.7325 11.597 10.5454 11.8182C10.3526 12.0463 10.3351 12.4285 10.3158 12.8503C10.2714 13.8203 10.2174 15 7.99999 15C4.13399 15 0.999988 11.866 0.999988 8C0.999988 4.13401 4.13399 1 7.99999 1C11.866 1 15 4.13401 15 8Z" fill="#2A3843"/>
<path d="M7.36363 6.0909C7.36363 6.79381 6.79381 7.36363 6.0909 7.36363C5.388 7.36363 4.81818 6.79381 4.81818 6.0909C4.81818 5.388 5.388 4.81818 6.0909 4.81818C6.79381 4.81818 7.36363 5.388 7.36363 6.0909Z" fill="#2A3843"/>
<path fill-rule="evenodd" clip-rule="evenodd" d="M7.56362 6.09091C7.56362 6.90427 6.90426 7.56363 6.09089 7.56363C5.27753 7.56363 4.61816 6.90427 4.61816 6.09091C4.61816 5.27754 5.27753 4.61818 6.09089 4.61818C6.90426 4.61818 7.56362 5.27754 7.56362 6.09091ZM6.09089 7.36363C6.7938 7.36363 7.36362 6.79381 7.36362 6.09091C7.36362 5.388 6.7938 4.81818 6.09089 4.81818C5.38798 4.81818 4.81816 5.388 4.81816 6.09091C4.81816 6.79381 5.38798 7.36363 6.09089 7.36363Z" fill="#2A3843"/>
<path d="M11.1818 6.0909C11.1818 6.79381 10.612 7.36363 9.90908 7.36363C9.20617 7.36363 8.63635 6.79381 8.63635 6.0909C8.63635 5.388 9.20617 4.81818 9.90908 4.81818C10.612 4.81818 11.1818 5.388 11.1818 6.0909Z" fill="#2A3843"/>
<path fill-rule="evenodd" clip-rule="evenodd" d="M11.3818 6.09091C11.3818 6.90427 10.7224 7.56363 9.90907 7.56363C9.0957 7.56363 8.43634 6.90427 8.43634 6.09091C8.43634 5.27754 9.0957 4.61818 9.90907 4.61818C10.7224 4.61818 11.3818 5.27754 11.3818 6.09091ZM9.90907 7.36363C10.612 7.36363 11.1818 6.79381 11.1818 6.09091C11.1818 5.388 10.612 4.81818 9.90907 4.81818C9.20616 4.81818 8.63634 5.388 8.63634 6.09091C8.63634 6.79381 9.20616 7.36363 9.90907 7.36363Z" fill="#2A3843"/>
<path d="M7.36363 9.9091C7.36363 10.612 6.79381 11.1818 6.0909 11.1818C5.388 11.1818 4.81818 10.612 4.81818 9.9091C4.81818 9.20619 5.388 8.63637 6.0909 8.63637C6.79381 8.63637 7.36363 9.20619 7.36363 9.9091Z" fill="#2A3843"/>
<path fill-rule="evenodd" clip-rule="evenodd" d="M7.56362 9.9091C7.56362 10.7225 6.90426 11.3818 6.09089 11.3818C5.27753 11.3818 4.61816 10.7225 4.61816 9.9091C4.61816 9.09573 5.27753 8.43637 6.09089 8.43637C6.90426 8.43637 7.56362 9.09573 7.56362 9.9091ZM6.09089 11.1818C6.7938 11.1818 7.36362 10.612 7.36362 9.9091C7.36362 9.20619 6.7938 8.63637 6.09089 8.63637C5.38798 8.63637 4.81816 9.20619 4.81816 9.9091C4.81816 10.612 5.38798 11.1818 6.09089 11.1818Z" fill="#2A3843"/>
</svg>
