<svg width="16" height="16" viewBox="0 0 16 16" fill="none" xmlns="http://www.w3.org/2000/svg">
<path d="M6.67289 6.05003C6.19085 6.05003 5.94983 6.41156 5.94983 6.77309V11.5935C5.94983 12.0755 6.31136 12.3165 6.67289 12.3165C7.03442 12.3165 7.39595 11.955 7.39595 11.5935V6.77309C7.51646 6.41156 7.15493 6.05003 6.67289 6.05003Z" fill="#2A3843"/>
<path d="M9.68567 12.3165C10.0472 12.3165 10.4087 12.0755 10.4087 11.5935V6.77309C10.4087 6.29105 10.0472 6.05003 9.68567 6.05003C9.20363 6.05003 8.8421 6.41156 8.8421 6.77309V11.5935C8.8421 12.0755 9.20363 12.3165 9.68567 12.3165Z" fill="#2A3843"/>
<path d="M13.7829 4.12184C12.9394 3.88082 12.2163 3.76031 11.3727 3.6398C11.1317 2.19368 9.80611 0.988586 8.23949 0.988586C6.55235 0.988586 5.22674 2.19368 4.98572 3.76031C3.53961 3.88082 2.69604 4.12184 2.57553 4.12184C2.214 4.12184 1.85247 4.60388 1.97298 4.96541C2.09349 5.32694 2.45502 5.68847 2.93706 5.56796C2.93706 5.56796 3.05757 5.56796 3.29859 5.44745V13.1601C3.29859 14.1241 4.14215 14.9677 5.10623 14.9677H11.2522C12.2163 14.9677 13.0599 14.1241 13.0599 13.1601V5.44745C13.1804 5.44745 13.3009 5.44745 13.4214 5.56796H13.5419C13.9034 5.56796 14.265 5.32694 14.265 4.96541C14.3855 4.60388 14.1445 4.12184 13.7829 4.12184ZM8.23949 2.55521C8.96254 2.55521 9.56509 2.91674 9.80611 3.51929C8.60101 3.51929 7.51643 3.51929 6.67286 3.51929C6.91388 2.91674 7.51643 2.55521 8.23949 2.55521ZM11.4932 13.1601C11.4932 13.2806 11.3727 13.4011 11.2522 13.4011H5.10623C4.98572 13.4011 4.86521 13.2806 4.86521 13.1601V5.32694C6.43184 5.08592 8.96254 4.96541 11.4932 5.32694V13.1601Z" fill="#2A3843"/>
</svg>
