<svg width="16" height="16" viewBox="0 0 16 16" fill="none" xmlns="http://www.w3.org/2000/svg">
<g clip-path="url(#clip0_168_549)">
<path d="M13.4643 2.047H2.62452C1.73601 2.047 1.02521 2.7578 1.02521 3.64631V10.399C1.02521 11.2875 1.73601 11.9983 2.62452 11.9983H7.33362V12.7091H5.2012C4.8458 12.7091 4.49039 12.9757 4.49039 13.4199C4.49039 13.8642 4.75695 14.1307 5.2012 14.1307H10.71C11.0654 14.1307 11.4208 13.8642 11.4208 13.4199C11.4208 12.9757 11.1542 12.7091 10.71 12.7091H8.66639V11.9983H13.4643C14.3528 11.9983 15.0637 11.2875 15.0637 10.399V3.64631C14.9748 2.7578 14.264 2.047 13.4643 2.047ZM13.642 10.3101C13.642 10.399 13.5532 10.5767 13.3755 10.5767H2.62452C2.53567 10.5767 2.35797 10.4878 2.35797 10.3101V3.64631C2.35797 3.55746 2.44682 3.37976 2.62452 3.37976H13.4643C13.5532 3.37976 13.7309 3.46861 13.7309 3.64631V10.3101H13.642Z" fill="#2A3843"/>
</g>
<defs>
<clipPath id="clip0_168_549">
<rect width="13.9496" height="11.906" fill="white" transform="translate(1.02521 2.047)"/>
</clipPath>
</defs>
</svg>
