<svg width="16" height="16" viewBox="0 0 16 16" fill="none" xmlns="http://www.w3.org/2000/svg">
<path d="M12.1902 9.78493C12.3256 9.78533 12.4595 9.81323 12.5838 9.86693C12.708 9.92062 12.8201 9.999 12.9132 10.0973C13.1341 10.0548 13.3456 9.97316 13.5379 9.85633C13.4642 10.0878 13.3087 10.2845 13.1006 10.4097C13.2979 10.3847 13.4904 10.3306 13.6718 10.249C13.5388 10.4457 13.3727 10.6178 13.1809 10.7577V10.8916C13.1798 11.3907 13.0449 11.8804 12.7904 12.3097C12.5359 12.739 12.171 13.0923 11.7337 13.3328C11.2963 13.5734 10.8026 13.6923 10.3037 13.6774C9.80484 13.6624 9.31908 13.5141 8.89696 13.2478H9.12901C9.57343 13.2481 10.0047 13.097 10.3517 12.8194C10.1512 12.8122 9.95774 12.7432 9.79796 12.6217C9.63818 12.5003 9.51986 12.3324 9.45923 12.1411H9.64665C9.73268 12.1504 9.81945 12.1504 9.90548 12.1411C9.68178 12.0976 9.48019 11.9776 9.33527 11.8018C9.19034 11.6259 9.11111 11.4051 9.11116 11.1772V11.1772C9.24901 11.2509 9.40132 11.2936 9.5574 11.3022C9.34911 11.1634 9.2017 10.9503 9.1453 10.7064C9.0889 10.4626 9.12776 10.2064 9.25396 9.9902C9.50416 10.2922 9.81405 10.5393 10.1642 10.7159C10.5144 10.8925 10.8973 10.9949 11.2888 11.0166C11.2801 10.9424 11.2801 10.8676 11.2888 10.7934C11.2888 10.5322 11.392 10.2816 11.5758 10.0961C11.7597 9.91055 12.0094 9.80513 12.2706 9.80278L12.1902 9.78493ZM12.1902 8.89244C11.846 8.89503 11.5089 8.99104 11.215 9.17023C10.921 9.34942 10.6813 9.60507 10.5213 9.90988C10.277 9.79014 10.0633 9.61613 9.89655 9.40116C9.81168 9.29925 9.70516 9.21753 9.58474 9.16195C9.46432 9.10637 9.33303 9.07833 9.20041 9.07987H9.12901C8.98642 9.09162 8.84874 9.13749 8.72759 9.2136C8.60644 9.28971 8.50535 9.39383 8.43287 9.51719C8.26375 9.8038 8.17439 10.1304 8.17405 10.4632C8.17514 10.6012 8.19009 10.7388 8.21867 10.8738C8.19145 10.9578 8.1735 11.0446 8.16512 11.1326C8.16419 11.5382 8.2889 11.9342 8.52212 12.266C8.51859 12.3166 8.51859 12.3673 8.52212 12.4178C8.40161 12.4625 8.29217 12.5326 8.20129 12.6235C8.11041 12.7144 8.04023 12.8238 7.99555 12.9443C7.92794 13.1353 7.92733 13.3437 7.99384 13.5351C8.06034 13.7265 8.18999 13.8895 8.36147 13.9975C8.89842 14.3445 9.51637 14.5458 10.1547 14.5818C10.793 14.6178 11.4296 14.4871 12.0021 14.2026C12.5747 13.9182 13.0634 13.4897 13.4202 12.9593C13.7771 12.4288 13.9899 11.8147 14.0377 11.1772C14.1543 11.0575 14.2617 10.9292 14.359 10.7934C14.4733 10.6348 14.5357 10.4446 14.5375 10.249C14.537 10.078 14.4875 9.91073 14.3947 9.76708C14.3827 9.64905 14.3474 9.53459 14.2907 9.43039C14.234 9.32618 14.1571 9.23433 14.0645 9.16019C13.9233 9.0477 13.7514 8.98066 13.5713 8.96791C13.3912 8.95517 13.2116 8.99731 13.056 9.08879V9.08879C12.7799 8.94691 12.4738 8.87345 12.1635 8.87459L12.1902 8.89244Z" fill="#2A3843"/>
<path d="M11.1103 7.00929C10.5302 7.00929 9.96794 7.00929 9.41459 6.95574L8.96835 6.90219C8.72672 6.86693 8.50274 6.75518 8.32927 6.58331C8.1558 6.41145 8.04197 6.18852 8.00446 5.94723C7.90564 5.41171 7.86376 4.86723 7.87951 4.3229C7.88691 3.94799 7.92874 3.57455 8.00446 3.20729C8.04699 2.96275 8.16568 2.73789 8.34358 2.56479C8.52148 2.3917 8.74951 2.27922 8.99512 2.2434C9.39458 2.19058 9.79705 2.16375 10.2 2.16308C10.5481 2.16308 12.4044 2.16308 13.0381 2.2077C13.1613 2.21615 13.2836 2.23406 13.404 2.26125C13.6245 2.30478 13.8271 2.41286 13.986 2.57178C14.1449 2.73069 14.253 2.93326 14.2965 3.15374C14.3858 3.6062 14.4247 4.06715 14.4125 4.52817C14.4258 5.00992 14.3869 5.49169 14.2965 5.96508C14.2497 6.19609 14.1314 6.40655 13.9584 6.5667C13.7855 6.72685 13.5665 6.87322 13.3325 6.90219C12.9337 6.96215 12.5352 7.00983 12.132 7.00929H11.1103ZM10.6819 3.04664H10.2089C9.84185 3.04734 9.4752 3.07118 9.11115 3.11804C9.04294 3.12202 8.97841 3.15032 8.92929 3.19781C8.88016 3.2453 8.84969 3.30883 8.8434 3.37686C8.7838 3.69168 8.75392 4.01141 8.75415 4.33182C8.75066 4.81745 8.79853 5.30209 8.89695 5.77766C8.90292 5.84192 8.93116 5.90207 8.9768 5.9477C9.02243 5.99334 9.08259 6.02158 9.14685 6.02755H9.51277C10.3071 6.0811 11.1282 6.09895 12.0296 6.02755H12.1545C12.5186 6.02718 12.8823 6.00333 13.2434 5.95615C13.3028 5.94772 13.3581 5.92076 13.4014 5.87911C13.4446 5.83745 13.4737 5.78321 13.4843 5.72411C13.5572 5.31182 13.5871 4.89308 13.5736 4.47462C13.5835 4.07697 13.5536 3.67932 13.4843 3.28761C13.4765 3.22968 13.4494 3.1761 13.4072 3.13559C13.3651 3.09507 13.3105 3.07002 13.2523 3.06449H13.0024C12.5205 3.06449 11.3781 3.04664 10.6819 3.04664Z" fill="#2A3843"/>
<path d="M10.7712 5.66164C10.6923 5.66318 10.6147 5.64145 10.548 5.59916C10.4806 5.56022 10.4245 5.50431 10.3854 5.43699C10.3462 5.36966 10.3254 5.29327 10.3249 5.21539V3.93021C10.3254 3.85233 10.3462 3.77594 10.3854 3.70861C10.4245 3.64128 10.4806 3.58537 10.548 3.54644C10.6159 3.50727 10.6928 3.48665 10.7712 3.48665C10.8495 3.48665 10.9264 3.50727 10.9943 3.54644L12.101 4.18903C12.1697 4.22652 12.2268 4.2821 12.2661 4.34976C12.3055 4.41741 12.3255 4.49455 12.3241 4.5728C12.3265 4.65123 12.3069 4.72878 12.2675 4.79662C12.228 4.86446 12.1703 4.91988 12.101 4.95657L10.9943 5.59916C10.9277 5.64145 10.8501 5.66318 10.7712 5.66164V5.66164Z" fill="#2A3843"/>
<path d="M4.29171 14.5776H3.08685C2.85171 14.5736 2.6191 14.5282 2.39964 14.4437C2.21204 14.3787 2.04342 14.2683 1.90877 14.1224C1.77082 13.9846 1.66161 13.8208 1.58747 13.6405C1.51267 13.4187 1.47058 13.1872 1.46252 12.9533C1.46252 12.623 1.46252 10.8738 1.46252 10.5435C1.4694 10.3095 1.51152 10.0778 1.58747 9.85633C1.65921 9.67211 1.76865 9.50491 1.90877 9.36546C2.04662 9.22338 2.21427 9.11365 2.39964 9.04416C2.6194 8.96068 2.85182 8.91541 3.08685 8.91029C3.3903 8.91029 5.1842 8.91029 5.49657 8.91029C5.74375 8.90984 5.98886 8.95523 6.21949 9.04416C6.40484 9.10939 6.57276 9.21625 6.71036 9.35653C6.85451 9.49616 6.96447 9.66721 7.03165 9.85633C7.11533 10.0729 7.16063 10.3025 7.16552 10.5346C7.16552 10.8648 7.16552 12.6141 7.16552 12.9443C7.16041 13.1794 7.11513 13.4118 7.03165 13.6316C6.96216 13.8169 6.85243 13.9846 6.71036 14.1224C6.57276 14.2627 6.40484 14.3696 6.21949 14.4348C6.00288 14.5185 5.77335 14.5638 5.5412 14.5687L4.29171 14.5776ZM4.29171 9.79385H3.12255C2.98558 9.79448 2.84973 9.81863 2.72093 9.86525C2.65339 9.88986 2.59235 9.92954 2.54244 9.98128C2.4874 10.032 2.44728 10.0968 2.42641 10.1687C2.37731 10.2968 2.35308 10.4331 2.35501 10.5703C2.35501 10.8648 2.35501 12.6052 2.35501 12.8908C2.35308 13.028 2.37731 13.1643 2.42641 13.2924C2.44728 13.3643 2.4874 13.4291 2.54244 13.4798C2.59147 13.5326 2.65278 13.5725 2.72093 13.5959C2.85282 13.6425 2.9916 13.6666 3.13148 13.6673C3.41707 13.6673 5.15743 13.6673 5.45195 13.6673C5.58914 13.6692 5.72545 13.645 5.85357 13.5959C5.92372 13.5768 5.98614 13.5362 6.03206 13.4798C6.08653 13.4269 6.12912 13.363 6.15701 13.2924C6.20196 13.1665 6.22315 13.0333 6.21949 12.8997C6.21949 12.6052 6.21949 10.8738 6.21949 10.5792C6.22142 10.442 6.19719 10.3057 6.14809 10.1776C6.1202 10.107 6.07761 10.0431 6.02314 9.9902C5.97488 9.9365 5.91331 9.89648 5.84464 9.87418C5.71652 9.82508 5.58022 9.80085 5.44302 9.80278H4.32741L4.29171 9.79385Z" fill="#2A3843"/>
<path d="M4.29171 13.1585C4.01104 13.1585 3.73668 13.0753 3.50332 12.9194C3.26996 12.7635 3.08808 12.5418 2.98067 12.2825C2.87326 12.0232 2.84516 11.7379 2.89992 11.4626C2.95467 11.1874 3.08982 10.9345 3.28828 10.7361C3.48674 10.5376 3.73959 10.4024 4.01486 10.3477C4.29013 10.2929 4.57546 10.321 4.83476 10.4284C5.09406 10.5358 5.31568 10.7177 5.47161 10.9511C5.62754 11.1845 5.71076 11.4588 5.71076 11.7395C5.70842 12.1151 5.55816 12.4747 5.29255 12.7403C5.02693 13.0059 4.66734 13.1562 4.29171 13.1585V13.1585ZM4.29171 11.2129C4.18756 11.2129 4.08576 11.2438 3.99916 11.3017C3.91257 11.3595 3.84508 11.4417 3.80522 11.538C3.76537 11.6342 3.75494 11.7401 3.77526 11.8422C3.79557 11.9443 3.84573 12.0382 3.91937 12.1118C3.99301 12.1855 4.08683 12.2356 4.18898 12.2559C4.29112 12.2762 4.397 12.2658 4.49322 12.226C4.58943 12.1861 4.67167 12.1186 4.72953 12.032C4.78739 11.9454 4.81828 11.8436 4.81828 11.7395C4.81828 11.5998 4.7628 11.4659 4.66405 11.3671C4.5653 11.2684 4.43136 11.2129 4.29171 11.2129V11.2129Z" fill="#2A3843"/>
<path d="M5.67508 10.7488C5.59346 10.7356 5.5192 10.6938 5.4656 10.6308C5.412 10.5679 5.38257 10.4879 5.38257 10.4052C5.38257 10.3225 5.412 10.2425 5.4656 10.1796C5.5192 10.1166 5.59346 10.0748 5.67508 10.0616C5.75671 10.0748 5.83097 10.1166 5.88456 10.1796C5.93816 10.2425 5.9676 10.3225 5.9676 10.4052C5.9676 10.4879 5.93816 10.5679 5.88456 10.6308C5.83097 10.6938 5.75671 10.7356 5.67508 10.7488V10.7488Z" fill="#2A3843"/>
<path d="M4.63086 2.30588H5.32701V3.08234H4.82721C4.79901 3.08208 4.77109 3.08789 4.74533 3.09939C4.71958 3.11089 4.69661 3.1278 4.67798 3.14897C4.65935 3.17014 4.64549 3.19508 4.63736 3.22208C4.62923 3.24909 4.62702 3.27752 4.63086 3.30546V3.76956H5.32701L5.24668 4.5728H4.63086V6.85757H3.68483V4.58172H3.22966V3.77848H3.68483V3.26084C3.67567 3.13384 3.69378 3.00636 3.73796 2.88695C3.78214 2.76753 3.85135 2.65895 3.94096 2.5685C4.03057 2.47805 4.13849 2.40781 4.25749 2.36252C4.37648 2.31722 4.50379 2.29791 4.63086 2.30588V2.30588ZM4.63086 1.41339C4.18621 1.39813 3.75275 1.55463 3.4204 1.85043C3.08805 2.14622 2.88232 2.5586 2.84589 3.00202C2.7047 3.07718 2.58631 3.1889 2.50309 3.3255C2.41988 3.4621 2.3749 3.61855 2.37287 3.77848V4.58172C2.36308 4.74234 2.39689 4.90261 2.47074 5.04558C2.54458 5.18855 2.6557 5.3089 2.79234 5.39389V6.85757C2.79234 7.09427 2.88637 7.32128 3.05374 7.48865C3.22112 7.65602 3.44812 7.75005 3.68483 7.75005H4.63086C4.86757 7.75005 5.09458 7.65602 5.26195 7.48865C5.42932 7.32128 5.52335 7.09427 5.52335 6.85757V5.43851C5.6903 5.38708 5.83849 5.28779 5.94954 5.15294C6.0606 5.01809 6.12963 4.85361 6.14809 4.67989L6.21949 3.93913C6.22392 3.88567 6.22392 3.83194 6.21949 3.77848C6.21903 3.65598 6.19478 3.53474 6.14809 3.42149C6.18982 3.31606 6.21394 3.20451 6.21949 3.09127V2.3148C6.21949 2.0781 6.12546 1.85109 5.95809 1.68372C5.79072 1.51634 5.56371 1.42231 5.32701 1.42231H4.63086V1.41339Z" fill="#2A3843"/>
</svg>
