<svg width="16" height="16" viewBox="0 0 16 16" fill="none" xmlns="http://www.w3.org/2000/svg">
<path d="M14.9234 7.84795C14.9234 7.48394 14.6504 7.11993 14.2864 6.93792L13.3764 6.48291L14.3774 5.84589C14.7414 5.66388 14.9234 5.29987 14.9234 4.93586C14.9234 4.57185 14.6504 4.20784 14.2864 4.02584L8.82623 1.20476C8.28021 0.931748 7.55219 0.931748 7.09718 1.20476L1.63702 4.02584C1.27301 4.20784 1 4.57185 1 4.93586C1 5.29987 1.18201 5.66388 1.54602 5.84589L2.54704 6.48291L1.63702 6.93792C1.27301 7.21093 1 7.48394 1 7.84795C1 8.21196 1.18201 8.57597 1.54602 8.75797L2.54704 9.39499L1.63702 9.85C1.27301 10.032 1 10.396 1 10.76C1 11.124 1.18201 11.4881 1.54602 11.6701L7.09718 14.9462C7.37018 15.1282 7.64319 15.2192 8.0072 15.2192C8.28021 15.2192 8.64422 15.1282 8.91723 14.9462L14.4684 11.6701C14.8324 11.4881 15.0144 11.124 15.0144 10.76C15.0144 10.396 14.7414 10.032 14.3774 9.85L13.3764 9.39499L14.3774 8.75797C14.7414 8.57597 14.9234 8.21196 14.9234 7.84795ZM7.73419 2.38779C7.8252 2.29679 8.0982 2.29679 8.18921 2.38779L13.1033 4.93586L11.7383 5.75489L8.0982 7.93895C8.0072 8.02995 7.8252 8.02995 7.73419 7.93895L2.72905 5.02687L7.73419 2.38779ZM7.09718 9.12198C7.37018 9.30399 7.64319 9.39499 8.0072 9.39499C8.28021 9.39499 8.64422 9.30399 8.91723 9.12198L12.0113 7.30193L13.1944 7.93895L8.18921 10.942C8.0982 11.033 7.9162 11.033 7.8252 10.942L2.72905 7.93895L3.91208 7.30193L7.09718 9.12198ZM13.1944 10.851L8.18921 13.7631C8.0982 13.8541 7.9162 13.8541 7.8252 13.7631L2.82005 10.76L4.00309 10.123L7.09718 12.0341C7.37018 12.2161 7.64319 12.3071 8.0072 12.3071C8.28021 12.3071 8.64422 12.2161 8.91723 12.0341L12.0113 10.123L13.1944 10.851Z" fill="#2A3843"/>
</svg>
