<svg width="16" height="16" viewBox="0 0 16 16" fill="none" xmlns="http://www.w3.org/2000/svg">
<path fill-rule="evenodd" clip-rule="evenodd" d="M8.34762 2.59874C9.02102 1.94706 9.92294 1.58647 10.8591 1.59462C11.7953 1.60277 12.6908 1.97901 13.3528 2.64232C14.0148 3.30562 14.3903 4.20292 14.3985 5.14094C14.4066 6.07896 14.0467 6.98265 13.3963 7.65738L13.3877 7.6662L11.6715 9.38573C11.3096 9.74854 10.8739 10.0291 10.3942 10.2084C9.91454 10.3877 9.40196 10.4615 8.89127 10.4249C8.38059 10.3882 7.88374 10.242 7.43443 9.99601C6.98512 9.75005 6.59386 9.41015 6.28719 8.99935C6.05228 8.68468 6.11643 8.23879 6.43048 8.00341C6.74453 7.76804 7.18955 7.83232 7.42447 8.14699C7.60915 8.39438 7.84478 8.59908 8.11537 8.74721C8.38596 8.89533 8.68518 8.98342 8.99273 9.00549C9.30028 9.02756 9.60897 8.9831 9.89786 8.87512C10.1868 8.76714 10.4491 8.59817 10.6671 8.37968L12.3787 6.66465C12.7679 6.25875 12.9832 5.71629 12.9783 5.1533C12.9734 4.5884 12.7472 4.04802 12.3486 3.64855C11.9499 3.24909 11.4106 3.0225 10.8468 3.01759C10.2846 3.0127 9.74288 3.22863 9.3377 3.619L8.35763 4.59529C8.0795 4.87234 7.62988 4.87103 7.35338 4.59235C7.07687 4.31368 7.07818 3.86318 7.3563 3.58612L8.34028 2.60594L8.34762 2.59874ZM5.60574 5.79159C6.08545 5.61229 6.59802 5.53846 7.10871 5.57511C7.61939 5.61175 8.11624 5.75802 8.56555 6.00398C9.01486 6.24994 9.40612 6.58985 9.71279 7.00064C9.9477 7.31531 9.88355 7.7612 9.5695 7.99658C9.25545 8.23195 8.81043 8.16767 8.57552 7.853C8.39083 7.60561 8.1552 7.40091 7.88461 7.25278C7.61402 7.10466 7.31481 7.01657 7.00725 6.9945C6.6997 6.97243 6.39101 7.0169 6.10212 7.12487C5.81323 7.23285 5.55089 7.40182 5.3329 7.62032L3.62125 9.33534C3.23207 9.74124 3.01681 10.2837 3.02169 10.8467C3.02659 11.4116 3.25274 11.952 3.65141 12.3514C4.05009 12.7509 4.58941 12.9775 5.15321 12.9824C5.71509 12.9873 6.25648 12.7716 6.66158 12.3817L7.63517 11.4062C7.91248 11.1283 8.3621 11.1283 8.63942 11.4062C8.91674 11.684 8.91674 12.1345 8.63942 12.4124L7.66117 13.3926L7.65237 13.4013C6.97896 14.0529 6.07704 14.4135 5.14086 14.4054C4.20469 14.3972 3.30916 14.021 2.64716 13.3577C1.98516 12.6944 1.60965 11.7971 1.60151 10.8591C1.59338 9.92104 1.95327 9.01734 2.60366 8.34261L2.61231 8.33379L4.32846 6.61426C4.32849 6.61423 4.32843 6.6143 4.32846 6.61426C4.69041 6.2515 5.12608 5.97087 5.60574 5.79159Z" fill="#2A3843"/>
</svg>
