<svg width="16" height="16" viewBox="0 0 16 16" fill="none" xmlns="http://www.w3.org/2000/svg">
<path d="M13.9915 3.12026L11.281 1.7183C10.6268 1.34444 9.59869 1.34444 8.94444 1.7183L6.32745 3.12026C6.04706 3.21373 5.57974 3.21373 5.39281 3.12026L2.86928 1.7183C2.40196 1.43791 1.93464 1.43791 1.56078 1.7183C1.18693 1.90523 1 2.27908 1 2.83987V10.317C1 11.0647 1.46732 11.9059 2.21503 12.2797L4.73856 13.6817C5.11242 13.8686 5.48627 13.9621 5.95359 13.9621C6.32745 13.9621 6.79477 13.8686 7.07516 13.6817L9.78562 12.2797C10.066 12.1863 10.5333 12.1863 10.8137 12.2797L13.4307 13.6817C13.898 13.9621 14.3654 13.9621 14.7392 13.6817C15.1131 13.4948 15.3 13.0275 15.3 12.5601V5.08301C15.2065 4.33529 14.6458 3.49412 13.9915 3.12026ZM2.86928 11.0647C2.68235 10.9712 2.40196 10.5039 2.40196 10.317V3.12026L4.73856 4.33529C4.83203 4.42876 5.01895 4.42876 5.20588 4.52222V12.3732L2.86928 11.0647ZM6.60784 12.3732V4.52222C6.79477 4.52222 6.88824 4.42876 7.07516 4.33529L9.50523 3.0268V10.8778C9.41177 10.8778 9.22484 10.9712 9.13137 10.9712L6.60784 12.3732ZM13.8046 12.2797L11.3745 10.9712C11.1876 10.8778 11.0007 10.7843 10.8137 10.7843V3.0268L13.2438 4.33529C13.4307 4.42876 13.7111 4.80261 13.7111 5.08301V12.2797H13.8046Z" fill="#2A3843"/>
</svg>
