<svg width="16" height="16" viewBox="0 0 16 16" fill="none" xmlns="http://www.w3.org/2000/svg">
<path d="M14.2329 2H4.35616C3.9726 2 3.68493 2.28767 3.68493 2.76712V3.91781H1.76712C1.28767 3.91781 1 4.30137 1 4.68493V7.36986V8.13699V10.0548C1 10.2466 1 10.4384 1.09589 10.6301C1.38356 12.2603 2.82192 13.5068 4.64384 13.5068H11.3562C13.3699 13.5068 15 11.9726 15 10.1507V8.0411V7.36986V2.76712C14.9041 2.28767 14.6164 2 14.2329 2ZM2.43836 5.35616H3.68493V9.9589C3.68493 10.4384 3.49315 10.726 3.10959 10.726C2.82192 10.8219 2.43836 10.6301 2.43836 9.9589V8.0411V7.36986V5.35616ZM13.4658 9.9589C13.4658 11.0137 12.5068 11.8767 11.2603 11.8767H4.54795C4.45205 11.8767 4.26027 11.8767 4.16438 11.8767C4.73973 11.4932 5.12329 10.9178 5.12329 9.9589V3.43836H13.4658V7.36986V8.0411V9.9589Z" fill="#2A3843"/>
<path d="M6.56162 7.84931H8.67121C9.05477 7.84931 9.43833 7.56164 9.43833 7.08219V5.06849C9.43833 4.68493 9.15066 4.30136 8.67121 4.30136H6.56162C6.17806 4.39726 5.79449 4.68493 5.79449 5.06849V7.17808C5.79449 7.56164 6.17806 7.84931 6.56162 7.84931ZM7.23285 5.83561H7.90408V6.50684H7.23285V5.83561Z" fill="#2A3843"/>
<path d="M12.1233 4.30136H10.589C10.2055 4.30136 9.8219 4.58904 9.8219 5.06849C9.8219 5.54794 10.1096 5.83561 10.589 5.83561H12.1233C12.5068 5.83561 12.8904 5.54794 12.8904 5.06849C12.8904 4.58904 12.5068 4.30136 12.1233 4.30136Z" fill="#2A3843"/>
<path d="M12.1233 6.41096H10.589C10.2055 6.41096 9.91779 6.79453 9.91779 7.17809C9.91779 7.56165 10.2055 7.94521 10.6849 7.94521H12.2192C12.6027 7.94521 12.9863 7.65754 12.9863 7.17809C12.9863 6.69864 12.5068 6.41096 12.1233 6.41096Z" fill="#2A3843"/>
<path d="M12.1233 8.52055H6.56162C6.17806 8.52055 5.79449 8.80822 5.79449 9.28767C5.79449 9.76712 6.08217 10.0548 6.56162 10.0548H12.1233C12.5068 10.0548 12.8904 9.76712 12.8904 9.28767C12.8904 8.80822 12.5068 8.52055 12.1233 8.52055Z" fill="#2A3843"/>
</svg>
