<svg width="16" height="16" viewBox="0 0 16 16" fill="none" xmlns="http://www.w3.org/2000/svg">
<path d="M1.8 9.6C2.79411 9.6 3.6 8.79411 3.6 7.8C3.6 6.80589 2.79411 6 1.8 6C0.805887 6 0 6.80589 0 7.8C0 8.79411 0.805887 9.6 1.8 9.6Z" fill="#2A3843"/>
<path d="M8.00001 9.6C8.99412 9.6 9.80001 8.79411 9.80001 7.8C9.80001 6.80589 8.99412 6 8.00001 6C7.0059 6 6.20001 6.80589 6.20001 7.8C6.20001 8.79411 7.0059 9.6 8.00001 9.6Z" fill="#2A3843"/>
<path d="M14.2 9.6C15.1941 9.6 16 8.79411 16 7.8C16 6.80589 15.1941 6 14.2 6C13.2059 6 12.4 6.80589 12.4 7.8C12.4 8.79411 13.2059 9.6 14.2 9.6Z" fill="#2A3843"/>
</svg>
