<svg width="16" height="16" viewBox="0 0 16 16" fill="none" xmlns="http://www.w3.org/2000/svg">
<g clip-path="url(#clip0_826_144)">
<path d="M6.19999 1.8C6.19999 2.79411 7.00588 3.6 7.99999 3.6C8.9941 3.6 9.79999 2.79411 9.79999 1.8C9.79999 0.805887 8.9941 -3.52265e-08 7.99999 -7.86805e-08C7.00588 -1.22135e-07 6.19999 0.805887 6.19999 1.8Z" fill="#2A3843"/>
<path d="M6.19999 8C6.19999 8.99411 7.00588 9.8 7.99999 9.8C8.9941 9.8 9.79999 8.99411 9.79999 8C9.79999 7.00588 8.9941 6.2 7.99999 6.2C7.00588 6.2 6.19999 7.00588 6.19999 8Z" fill="#2A3843"/>
<path d="M6.19999 14.2C6.19999 15.1941 7.00588 16 7.99999 16C8.9941 16 9.79999 15.1941 9.79999 14.2C9.79999 13.2059 8.9941 12.4 7.99999 12.4C7.00588 12.4 6.19999 13.2059 6.19999 14.2Z" fill="#2A3843"/>
</g>
<defs>
<clipPath id="clip0_826_144">
<rect width="16" height="16" fill="white"/>
</clipPath>
</defs>
</svg>
