<svg width="16" height="16" viewBox="0 0 16 16" fill="none" xmlns="http://www.w3.org/2000/svg">
<path d="M8.98114 2C6.08114 2 3.68114 4 2.98114 6.7L2.28114 5.9C2.08114 5.5 1.58114 5.5 1.28114 5.8C0.981139 6 0.881139 6.5 1.18114 6.8L2.88114 9C2.98114 9.2 3.18114 9.3 3.38114 9.3H3.48114C3.68114 9.3 3.78114 9.2 3.98114 9.1L6.18114 7.3C6.48114 7 6.58114 6.6 6.28114 6.2C6.08114 6 5.58114 5.9 5.28114 6.2L4.48114 6.8C5.08114 4.9 6.88114 3.5 8.98114 3.5C11.5811 3.5 13.6811 5.6 13.6811 8.2C13.6811 10.8 11.5811 12.9 8.98114 12.9C7.28114 12.9 5.78114 12 4.98114 10.6C4.78114 10.2 4.28114 10.1 3.98114 10.3C3.58114 10.5 3.38114 11 3.68114 11.4C4.78114 13.3 6.78114 14.4 8.98114 14.4C12.3811 14.4 15.1811 11.6 15.1811 8.2C15.1811 4.8 12.3811 2 8.98114 2Z" fill="#2A3843"/>
<path d="M10.7811 7.4C10.7811 7.3 10.6811 7.3 10.7811 7.4C10.6811 7.2 10.5811 7.1 10.4811 7L10.3811 6.9C10.3811 6.8 10.2811 6.7 10.1811 6.6C10.1811 6.6 10.0811 6.6 10.0811 6.5C9.98114 6.5 9.88114 6.4 9.68114 6.3H9.58114C9.48114 6.3 9.38114 6.2 9.18114 6.2C9.18114 6.2 9.18114 6.2 9.08114 6.2H8.98114H8.88114H8.78114C8.68114 6.2 8.68114 6.2 8.58114 6.2C8.48114 6.2 8.48114 6.2 8.38114 6.2C8.28114 6.2 8.28114 6.2 8.18114 6.3C8.08114 6.3 8.08114 6.3 7.98114 6.4C7.98114 6.4 7.98114 6.4 7.88114 6.5C7.78114 6.5 7.78114 6.6 7.68114 6.6C7.58114 6.6 7.58114 6.7 7.58114 6.7L7.48114 6.8L7.38114 6.9C7.38114 7 7.28114 7 7.28114 7.1C7.28114 7.2 7.18114 7.2 7.18114 7.3C7.18114 7.4 7.08114 7.4 7.08114 7.5C7.08114 7.6 7.08114 7.6 6.98114 7.7C6.98114 7.8 6.98114 7.8 6.98114 7.9V8V8.1V8.2C6.98114 8.6 7.08114 8.9 7.28114 9.2C7.28114 9.2 7.28114 9.2 7.38114 9.3C7.48114 9.4 7.48114 9.5 7.58114 9.6L7.68114 9.7C7.78114 9.8 7.88114 9.9 7.98114 9.9C7.98114 9.9 7.98114 9.9 8.08114 9.9C8.08114 10 8.28114 10.1 8.38114 10.1H8.48114C8.58114 10.1 8.68114 10.1 8.68114 10.1H8.78114H8.88114H8.98114C9.08114 10.1 9.08114 10.1 9.18114 10.1C9.28114 10.1 9.28114 10.1 9.38114 10.1C9.48114 10.1 9.48114 10.1 9.58114 10C9.68114 10 9.78114 10 9.78114 10C9.88114 10 9.88114 9.9 9.98114 9.9C10.0811 9.9 10.0811 9.8 10.1811 9.8C10.2811 9.8 10.2811 9.7 10.2811 9.7L10.3811 9.6L10.4811 9.5C10.4811 9.4 10.5811 9.4 10.5811 9.3C10.5811 9.2 10.6811 9.2 10.6811 9.1C10.6811 9 10.7811 9 10.7811 8.9C10.7811 8.8 10.7811 8.8 10.8811 8.7C10.8811 8.6 10.8811 8.6 10.8811 8.5V8.4C10.8811 8.3 10.8811 8.3 10.8811 8.2C10.9811 7.9 10.8811 7.6 10.7811 7.4Z" fill="#2A3843"/>
</svg>
