<svg width="16" height="16" viewBox="0 0 16 16" fill="none" xmlns="http://www.w3.org/2000/svg">
<path d="M14.3289 5.96337L9.85484 1.48935C9.20238 0.836885 8.17708 0.836885 7.52462 1.48935L1.83888 7.17508C1.55925 7.45471 1 8.20038 1 8.75963V9.22568V12.2084C1 13.6065 2.11851 14.725 3.60985 14.725H6.12649H6.77895C7.43141 14.725 8.17708 14.259 8.64312 13.8861L14.3289 8.20038C14.6085 7.92076 14.7949 7.45471 14.7949 7.08188C14.7949 6.70904 14.6085 6.243 14.3289 5.96337ZM13.3968 7.26829L7.71104 12.954C7.43141 13.2337 6.96537 13.4201 6.87216 13.4201H6.49932H3.70306C3.05059 13.4201 2.49134 12.8608 2.49134 12.2084V9.13247V8.85284C2.49134 8.75963 2.67776 8.3868 2.95739 8.20038L8.64312 2.51464C8.73633 2.42143 8.92275 2.42143 9.01596 2.51464L13.49 6.98867C13.3968 7.08188 13.3968 7.17508 13.3968 7.26829Z" fill="#2A3843"/>
<path d="M3.70305 10.5306C3.237 10.9966 3.237 11.7423 3.70305 12.2084C3.88947 12.3948 4.2623 12.5812 4.54193 12.5812C4.82155 12.5812 5.10118 12.488 5.38081 12.2084C5.84685 11.7423 5.84685 10.9966 5.38081 10.5306C4.91476 10.0645 4.16909 10.0645 3.70305 10.5306Z" fill="#2A3843"/>
</svg>
