<svg width="16" height="16" viewBox="0 0 16 16" fill="none" xmlns="http://www.w3.org/2000/svg">
<path fill-rule="evenodd" clip-rule="evenodd" d="M8 13.5C11.0376 13.5 13.5 11.0376 13.5 8C13.5 4.96243 11.0376 2.5 8 2.5C4.96243 2.5 2.5 4.96243 2.5 8C2.5 11.0376 4.96243 13.5 8 13.5ZM8 15C11.866 15 15 11.866 15 8C15 4.13401 11.866 1 8 1C4.13401 1 1 4.13401 1 8C1 11.866 4.13401 15 8 15Z" fill="#2A3843"/>
<path fill-rule="evenodd" clip-rule="evenodd" d="M8.31038 2.49045C6.84183 3.97354 5.96716 5.90225 5.96716 7.99998C5.96716 10.0977 6.84183 12.0264 8.31038 13.5095L7.24451 14.5649C5.5261 12.8295 4.46716 10.5314 4.46716 7.99998C4.46716 5.46857 5.5261 3.17045 7.24451 1.43503L8.31038 2.49045Z" fill="#2A3843"/>
<path fill-rule="evenodd" clip-rule="evenodd" d="M7.6901 13.5095C9.15866 12.0264 10.0333 10.0977 10.0333 7.99997C10.0333 5.90224 9.15866 3.97353 7.69011 2.49044L8.75598 1.43502C10.4744 3.17044 11.5333 5.46855 11.5333 7.99997C11.5333 10.5314 10.4744 12.8295 8.75598 14.5649L7.6901 13.5095Z" fill="#2A3843"/>
<path fill-rule="evenodd" clip-rule="evenodd" d="M2.4385 6.8308C3.9514 7.37279 5.97667 7.71314 8.2228 7.71314C10.4689 7.71314 12.4942 7.37279 14.0071 6.8308L14.513 8.24293C12.8074 8.85394 10.6058 9.21314 8.2228 9.21314C5.83978 9.21314 3.63822 8.85394 1.93262 8.24293L2.4385 6.8308Z" fill="#2A3843"/>
</svg>
