<svg width="16" height="16" viewBox="0 0 16 16" fill="none" xmlns="http://www.w3.org/2000/svg">
<path d="M12.209 9.13805L10.6866 8.60074C11.3134 7.88432 11.6716 6.80969 11.6716 5.46641C11.7612 2.51119 9.34328 1.70522 8 1.70522C6.65672 1.70522 4.23881 2.51119 4.23881 5.46641C4.23881 6.80969 4.68657 7.88432 5.22388 8.60074L3.79104 9.13805C2.71642 9.49626 2 10.5709 2 11.7351V12.7201C2 13.0784 2.1791 13.347 2.53731 13.347C2.62687 13.347 4.77612 13.7948 7.91045 13.7948C9.52239 13.7948 11.403 13.7052 13.4627 13.347C13.8209 13.2575 14 12.9888 14 12.7201V11.7351C13.9104 10.5709 13.194 9.58581 12.209 9.13805ZM8 3.0485C8.44776 3.0485 10.4179 3.13805 10.4179 5.46641C10.4179 7.88432 8.71642 8.69029 8 8.69029C7.28358 8.69029 5.58209 7.88432 5.58209 5.46641C5.58209 3.13805 7.55224 3.0485 8 3.0485ZM12.5672 12.1828C8.26866 12.8097 4.68657 12.3619 3.34328 12.1828V11.7351C3.34328 11.1082 3.70149 10.6604 4.23881 10.3918L6.38806 9.58581C6.92537 9.85447 7.46269 10.0336 8 10.0336C8.53731 10.0336 9.07463 9.85447 9.61194 9.58581L11.7612 10.3918C12.2985 10.5709 12.6567 11.1082 12.6567 11.7351V12.1828H12.5672Z" fill="#2A3843"/>
</svg>
