<svg width="16" height="16" viewBox="0 0 16 16" fill="none" xmlns="http://www.w3.org/2000/svg">
<path d="M13.0174 2.89608H2.98263C2.78071 2.89603 2.58083 2.93632 2.39471 3.01462C2.20858 3.09292 2.04 3.20764 1.89884 3.35202C1.75768 3.49641 1.64678 3.66755 1.57271 3.8554C1.49863 4.04324 1.46285 4.244 1.46747 4.44587V11.5888C1.46747 11.9906 1.62711 12.376 1.91126 12.6602C2.1954 12.9443 2.58078 13.1039 2.98263 13.1039H13.0174C13.4192 13.1039 13.8046 12.9443 14.0887 12.6602C14.3729 12.376 14.5325 11.9906 14.5325 11.5888V4.44587C14.5371 4.244 14.5013 4.04324 14.4272 3.8554C14.3532 3.66755 14.2423 3.49641 14.1011 3.35202C13.96 3.20764 13.7914 3.09292 13.6053 3.01462C13.4192 2.93632 13.2193 2.89603 13.0174 2.89608V2.89608ZM13.2338 11.5541C13.2338 11.6116 13.211 11.6666 13.1704 11.7072C13.1298 11.7478 13.0748 11.7706 13.0174 11.7706H2.98263C2.92522 11.7706 2.87018 11.7478 2.82959 11.7072C2.789 11.6666 2.76618 11.6116 2.76618 11.5541V4.44587C2.76618 4.38846 2.789 4.33341 2.82959 4.29282C2.87018 4.25222 2.92522 4.22942 2.98263 4.22942H13.0174C13.0748 4.22942 13.1298 4.25222 13.1704 4.29282C13.211 4.33341 13.2338 4.38846 13.2338 4.44587V11.5541Z" fill="#2A3843"/>
<path d="M10.1169 7.39827L6.82681 5.74458C6.73073 5.6891 6.62174 5.65989 6.5108 5.65989C6.39985 5.65989 6.29087 5.6891 6.19479 5.74458C6.1014 5.80151 6.02437 5.8817 5.97125 5.9773C5.91814 6.07291 5.89075 6.18067 5.89175 6.29004V9.64071C5.89093 9.75122 5.91833 9.86012 5.97136 9.95709C6.02439 10.0541 6.1013 10.1359 6.19479 10.1948C6.29985 10.2565 6.4193 10.2893 6.54111 10.2901C6.64035 10.2888 6.73801 10.2651 6.82681 10.2208L10.1169 8.55845C10.2239 8.50402 10.3137 8.42099 10.3764 8.31859C10.439 8.21618 10.4721 8.09842 10.4719 7.97836C10.4711 7.85851 10.4377 7.74113 10.3751 7.6389C10.3126 7.53667 10.2233 7.45346 10.1169 7.39827V7.39827Z" fill="#2A3843"/>
</svg>
