<svg width="16" height="16" viewBox="0 0 16 16" fill="none" xmlns="http://www.w3.org/2000/svg">
<path d="M15 8.20425V8.11275C15 8.02124 15 8.02124 14.9085 7.92974V7.83824C14.085 6.55719 13.0784 5.45915 11.8889 4.72713C11.6144 4.54412 11.1569 4.54412 10.9739 4.91013L10.0588 6.09967L7.31372 9.39379C7.13072 9.5768 7.13072 9.85131 7.22222 10.1258C7.31372 10.4003 7.58823 10.4918 7.86274 10.5833C7.95425 10.5833 7.95425 10.5833 8.04575 10.5833C9.96732 10.5833 11.6144 9.02778 11.6144 7.01471C11.6144 6.8317 11.6144 6.64869 11.5229 6.46569L11.7059 6.28268C12.3464 6.8317 12.9869 7.47222 13.5359 8.29575C11.8889 10.4918 9.96732 11.6814 7.95425 11.6814C7.31372 11.6814 7.03921 11.6814 6.4902 11.4984C6.12418 11.4069 5.75817 11.5899 5.57516 11.8644C5.48366 12.2304 5.66667 12.5964 5.94118 12.7794C6.6732 13.0539 7.13072 13.0539 7.86274 13.0539C10.4248 13.0539 12.8954 11.4984 14.7255 8.66176V8.57026C14.7255 8.47876 14.817 8.47876 14.817 8.38725C15 8.29575 15 8.29575 15 8.20425Z" fill="#2A3843"/>
<path d="M9.32679 4.72712C9.41829 4.63562 9.41829 4.45261 9.5098 4.36111C9.6013 3.99509 9.32679 3.62908 8.96078 3.53758C8.59476 3.44608 8.41176 3.44608 8.13725 3.44608H7.95424C5.39215 3.44608 3.01307 5.00163 1.0915 7.83823V7.92973C1 8.02124 1 8.02123 1 8.11274V8.20424V8.29574C1 8.38725 1 8.38725 1.0915 8.47875V8.57025C1.73203 9.48529 2.18954 10.1258 2.92157 10.8578C3.01307 10.9493 3.19608 11.0408 3.37908 11.0408C3.56209 11.0408 3.7451 10.9493 3.9281 10.7663C4.20261 10.4918 4.20261 10.1258 3.8366 9.8513C3.28758 9.39378 2.92157 8.84476 2.46405 8.29574C3.10457 7.38071 3.8366 6.64869 4.56862 6.09967C4.47712 6.37418 4.38562 6.74019 4.38562 7.0147C4.38562 7.56372 4.56862 8.11274 4.84313 8.66176C4.93464 8.84476 5.11764 9.02777 5.39215 9.02777H5.48366C5.66666 9.02777 5.84967 8.93627 6.03268 8.75326L9.32679 4.72712Z" fill="#2A3843"/>
</svg>
