<svg width="16" height="16" viewBox="0 0 16 16" fill="none" xmlns="http://www.w3.org/2000/svg">
<path d="M14.2042 12.9167H1.7077C1.52076 12.9143 1.34215 12.8389 1.20995 12.7067C1.07775 12.5745 1.00241 12.3959 1 12.209V8.25145C1 8.06622 1.07358 7.88859 1.20455 7.75761C1.33553 7.62664 1.51317 7.55306 1.69839 7.55306C1.88361 7.55306 2.06125 7.62664 2.19223 7.75761C2.3232 7.88859 2.39678 8.06622 2.39678 8.25145V11.5199H13.571V8.25145C13.571 8.06622 13.6446 7.88859 13.7756 7.75761C13.9065 7.62664 14.0842 7.55306 14.2694 7.55306C14.4546 7.55306 14.6323 7.62664 14.7632 7.75761C14.8942 7.88859 14.9678 8.06622 14.9678 8.25145V12.209C14.9667 12.3064 14.9458 12.4026 14.9064 12.4917C14.8669 12.5807 14.8097 12.6608 14.7382 12.7271C14.6668 12.7933 14.5826 12.8443 14.4908 12.8769C14.3989 12.9095 14.3014 12.923 14.2042 12.9167Z" fill="#2A3843"/>
<path d="M14.2042 8.94984H1.7077C1.52076 8.94743 1.34215 8.87209 1.20995 8.73989C1.07775 8.60769 1.00241 8.42908 1 8.24214V3.96799C1.00241 3.78105 1.07775 3.60244 1.20995 3.47024C1.34215 3.33804 1.52076 3.2627 1.7077 3.26029H14.2042C14.3912 3.2627 14.5698 3.33804 14.702 3.47024C14.8342 3.60244 14.9095 3.78105 14.9119 3.96799V8.24214C14.9095 8.42908 14.8342 8.60769 14.702 8.73989C14.5698 8.87209 14.3912 8.94743 14.2042 8.94984V8.94984ZM2.35953 7.55306H13.5338V4.67569H2.35953V7.55306Z" fill="#2A3843"/>
<path d="M11.0196 10.9519H4.83648C4.65126 10.9519 4.47362 10.8783 4.34265 10.7473C4.21167 10.6164 4.13809 10.4387 4.13809 10.2535C4.13809 10.0683 4.21167 9.89063 4.34265 9.75966C4.47362 9.62868 4.65126 9.5551 4.83648 9.5551H11.0196C11.2048 9.5551 11.3824 9.62868 11.5134 9.75966C11.6444 9.89063 11.718 10.0683 11.718 10.2535C11.718 10.4387 11.6444 10.6164 11.5134 10.7473C11.3824 10.8783 11.2048 10.9519 11.0196 10.9519V10.9519Z" fill="#2A3843"/>
</svg>
