<svg width="16" height="16" viewBox="0 0 16 16" fill="none" xmlns="http://www.w3.org/2000/svg">
<path d="M14.786 12.1084H1.21402C1.02578 12.106 0.84593 12.0302 0.712811 11.897C0.579692 11.7639 0.503833 11.5841 0.501404 11.3958V4.60417C0.503833 4.41593 0.579692 4.23608 0.712811 4.10296C0.84593 3.96984 1.02578 3.89398 1.21402 3.89155H14.786C14.9742 3.89398 15.1541 3.96984 15.2872 4.10296C15.4203 4.23608 15.4962 4.41593 15.4986 4.60417V11.3958C15.4962 11.5841 15.4203 11.7639 15.2872 11.897C15.1541 12.0302 14.9742 12.106 14.786 12.1084ZM1.89851 10.702H14.1015V5.29803H1.89851V10.702Z" fill="#2A3843"/>
<path d="M5.64648 8.60985H3.65865C3.47214 8.60985 3.29327 8.53576 3.16139 8.40387C3.02951 8.27199 2.95541 8.09312 2.95541 7.90661C2.95541 7.7201 3.02951 7.54122 3.16139 7.40934C3.29327 7.27746 3.47214 7.20337 3.65865 7.20337H5.64648C5.83299 7.20337 6.01187 7.27746 6.14375 7.40934C6.27563 7.54122 6.34972 7.7201 6.34972 7.90661C6.34972 8.09312 6.27563 8.27199 6.14375 8.40387C6.01187 8.53576 5.83299 8.60985 5.64648 8.60985Z" fill="#2A3843"/>
<path d="M7.99999 12.1084C7.81424 12.106 7.63677 12.0311 7.50541 11.8998C7.37405 11.7684 7.29918 11.591 7.29675 11.4052V5.38546C7.29675 5.19895 7.37084 5.02008 7.50273 4.8882C7.63461 4.75631 7.81348 4.68222 7.99999 4.68222C8.18651 4.68222 8.36538 4.75631 8.49726 4.8882C8.62914 5.02008 8.70324 5.19895 8.70324 5.38546V11.4052C8.70081 11.591 8.62594 11.7684 8.49457 11.8998C8.36321 12.0311 8.18575 12.106 7.99999 12.1084V12.1084Z" fill="#2A3843"/>
</svg>
