<svg width="16" height="16" viewBox="0 0 16 16" fill="none" xmlns="http://www.w3.org/2000/svg">
<path d="M13.1333 2.30667H11.7333V1.74667C11.7333 1.37333 11.4533 1 10.9867 1C10.52 1 10.3333 1.28 10.3333 1.74667V2.30667H5.66667V1.74667C5.66667 1.28 5.29333 1 4.92 1C4.54667 1 4.26667 1.28 4.26667 1.74667V2.30667H2.86667C1.84 2.30667 1 3.14667 1 4.17333V12.5733C1 13.6 1.84 14.44 2.86667 14.44H13.1333C14.16 14.44 15 13.6 15 12.5733V4.17333C15 3.14667 14.16 2.30667 13.1333 2.30667ZM2.86667 3.70667H4.26667V3.8C4.26667 4.17333 4.54667 4.54667 5.01333 4.54667C5.48 4.54667 5.66667 4.17333 5.66667 3.8V3.70667H10.3333V3.8C10.3333 4.17333 10.6133 4.54667 11.08 4.54667C11.5467 4.54667 11.8267 4.26667 11.8267 3.8V3.70667H13.1333C13.4133 3.70667 13.6 3.89333 13.6 4.17333V5.29333H2.4V4.17333C2.4 3.89333 2.58667 3.70667 2.86667 3.70667ZM13.1333 13.04H2.86667C2.58667 13.04 2.4 12.8533 2.4 12.5733V6.69333H13.6V12.5733C13.6 12.76 13.4133 13.04 13.1333 13.04Z" fill="#2A3843"/>
<circle cx="4.75576" cy="11.08" r="0.825613" fill="#2A3843"/>
<circle cx="7.99999" cy="11.08" r="0.825613" fill="#2A3843"/>
<circle cx="11.2442" cy="11.08" r="0.825613" fill="#2A3843"/>
<circle cx="4.75576" cy="8.56" r="0.825613" fill="#2A3843"/>
<circle cx="7.99999" cy="8.56" r="0.825613" fill="#2A3843"/>
<circle cx="11.2442" cy="8.56" r="0.825613" fill="#2A3843"/>
</svg>
