<svg width="16" height="16" viewBox="0 0 16 16" fill="none" xmlns="http://www.w3.org/2000/svg">
<path fill-rule="evenodd" clip-rule="evenodd" d="M12.5134 3.00616H6.00784C5.7317 3.00616 5.50784 3.23002 5.50784 3.50616V10.0117C5.50784 10.2879 5.7317 10.5117 6.00784 10.5117H12.5134C12.7895 10.5117 13.0134 10.2879 13.0134 10.0117V3.50616C13.0134 3.23002 12.7895 3.00616 12.5134 3.00616ZM6.00784 1.50616C4.90327 1.50616 4.00784 2.40159 4.00784 3.50616V10.0117C4.00784 11.1163 4.90327 12.0117 6.00784 12.0117H12.5134C13.618 12.0117 14.5134 11.1163 14.5134 10.0117V3.50616C14.5134 2.4016 13.618 1.50616 12.5134 1.50616H6.00784Z" fill="#2A3843"/>
<path fill-rule="evenodd" clip-rule="evenodd" d="M4.24689 5.11023C3.55653 5.11023 2.99689 5.66987 2.99689 6.36023V11.7937C2.99689 12.4841 3.55653 13.0437 4.24689 13.0437H9.6804C10.3708 13.0437 10.9304 12.4841 10.9304 11.7937V11.5055H12.4304V11.7937C12.4304 13.3125 11.1992 14.5437 9.6804 14.5437H4.24689C2.7281 14.5437 1.49689 13.3125 1.49689 11.7937V6.36023C1.49689 4.84145 2.7281 3.61023 4.24689 3.61023H4.76192V5.11023H4.24689Z" fill="#2A3843"/>
</svg>
