<svg width="16" height="16" viewBox="0 0 16 16" fill="none" xmlns="http://www.w3.org/2000/svg">
<path d="M12.5032 3.49729C11.9536 2.94768 11.1291 2.94768 10.5795 3.49729L8.00023 6.0766L5.42092 3.49729C4.87131 2.94768 4.0469 2.94768 3.49729 3.49729C2.94768 4.0469 2.94768 4.87131 3.49729 5.42092L6.0766 8.00023L3.49729 10.5795C2.94768 11.1291 2.94768 11.9536 3.49729 12.5032C3.77209 12.778 4.0469 12.9154 4.4591 12.9154C4.87131 12.9154 5.14612 12.778 5.42092 12.5032L8.00023 9.92386L10.5839 12.5075C10.8587 12.7823 11.1335 12.9197 11.5457 12.9197C11.9579 12.9197 12.2327 12.7823 12.5075 12.5075C13.0571 11.9579 13.0571 11.1335 12.5075 10.5839L9.92386 8.00023L12.5032 5.42092C13.0528 4.87131 13.0528 4.0469 12.5032 3.49729Z" fill="#2A3843"/>
</svg>
