<svg width="16" height="16" viewBox="0 0 16 16" fill="none" xmlns="http://www.w3.org/2000/svg">
<g clip-path="url(#clip0_454_371)">
<path d="M13.5571 6.42389C13.3726 6.48453 13.1715 6.46939 12.9982 6.38179C12.8248 6.29418 12.6933 6.1413 12.6327 5.95677C11.8218 3.4891 11.1394 2.72655 10.8717 2.50617C10.085 3.80289 7.45769 6.56788 6.49288 6.88495C6.30835 6.94559 6.10729 6.93044 5.93393 6.84284C5.76056 6.75524 5.6291 6.60236 5.56846 6.41783C5.50781 6.2333 5.52296 6.03223 5.61056 5.85887C5.69816 5.68551 5.85105 5.55404 6.03558 5.4934C7.43709 4.42791 8.64845 3.13322 9.61846 1.664C9.7244 1.42911 9.89932 1.23201 10.12 1.09891C10.3406 0.965807 10.5965 0.903007 10.8537 0.918852C11.9712 1.00388 13.0241 2.4875 14.009 5.45308C14.067 5.63765 14.0506 5.83758 13.9634 6.01025C13.8761 6.18293 13.7249 6.31471 13.5419 6.37751L13.5571 6.42389Z" fill="#2A3843"/>
<path d="M13.753 11.2111C13.5795 11.2686 13.396 11.29 13.2139 11.2738C13.0318 11.2576 12.8549 11.2043 12.6942 11.1171C11.0497 10.5084 9.31318 10.1857 7.5598 10.1628C7.37308 10.2086 7.17594 10.1821 7.00795 10.0886C6.83996 9.99506 6.71354 9.84149 6.65406 9.65867C6.598 9.47987 6.6146 9.28619 6.70026 9.11953C6.78592 8.95288 6.93375 8.82665 7.11177 8.76817C8.03947 8.4633 11.872 9.11567 13.2467 9.73293C13.3407 9.39364 13.4254 8.36878 12.6175 5.91038C12.5568 5.72585 12.572 5.52479 12.6596 5.35143C12.7472 5.17806 12.9001 5.0466 13.0846 4.98596C13.2691 4.92531 13.4702 4.94046 13.6435 5.02806C13.8169 5.11567 13.9484 5.26855 14.009 5.45308C14.9693 8.37532 15.0324 10.2562 14.1678 10.972C14.045 11.076 13.9045 11.157 13.753 11.2111V11.2111Z" fill="#2A3843"/>
<path d="M3.86017 11.6664C3.60645 11.7477 3.33494 11.7557 3.07684 11.6897C2.81875 11.6236 2.58454 11.486 2.40112 11.2927C1.93918 10.8129 1.59132 10.2351 1.38336 9.60227C1.17541 8.96948 1.11271 8.29796 1.19994 7.63761C1.23996 7.37745 1.34845 7.13262 1.51427 6.9282C1.6801 6.72379 1.89731 6.56715 2.14362 6.47434L5.98429 5.21218C6.09027 5.17919 6.20224 5.17008 6.31216 5.1855C6.42208 5.20091 6.52722 5.24047 6.62004 5.30133C6.71155 5.36339 6.7876 5.44561 6.84233 5.54167C6.89707 5.63773 6.92903 5.74507 6.93576 5.85543C7.06397 7.0834 7.45381 8.26965 8.07902 9.33429C8.13602 9.42905 8.17142 9.53521 8.1827 9.64521C8.19398 9.75521 8.18085 9.86635 8.14426 9.9707C8.10688 10.0755 8.04612 10.1703 7.9666 10.2481C7.88709 10.3259 7.7909 10.3845 7.68533 10.4196L3.86017 11.6664ZM5.60667 6.8781L2.60093 7.86588C2.55623 8.27724 2.60513 8.69338 2.74399 9.08317C2.85031 9.54274 3.09803 9.95742 3.4523 10.2689L6.40238 9.29939C6.03515 8.52946 5.76775 7.71578 5.60667 6.8781V6.8781Z" fill="#2A3843"/>
<path d="M7.50212 14.3036C7.17154 14.421 6.81542 14.4472 6.47121 14.3795C6.12699 14.3117 5.80737 14.1525 5.54595 13.9185C4.63349 13.1502 3.90072 12.191 3.39934 11.1086C3.36317 11.0197 3.34507 10.9245 3.34608 10.8286C3.34709 10.7327 3.3672 10.6379 3.40523 10.5498C3.44326 10.4617 3.49845 10.3821 3.56758 10.3156C3.63671 10.249 3.7184 10.1969 3.80788 10.1623C3.9868 10.0893 4.18732 10.09 4.36574 10.1642C4.54415 10.2385 4.68601 10.3802 4.76039 10.5585C5.18405 11.427 5.78702 12.1957 6.52953 12.8141C6.59541 12.8775 6.67808 12.9207 6.76776 12.9386C6.85744 12.9565 6.95037 12.9483 7.03554 12.9151C7.23035 12.853 7.41046 12.7518 7.56485 12.6178C6.68333 12.1028 6.03844 11.2632 5.76827 10.2787C5.70763 10.0942 5.72278 9.8931 5.81038 9.71974C5.89798 9.54637 6.05086 9.41491 6.23539 9.35427C6.41997 9.29627 6.61989 9.31265 6.79257 9.3999C6.96524 9.48716 7.09702 9.6384 7.15982 9.82139C7.36713 10.4522 7.93772 11.344 8.33027 11.2561C8.53909 11.1874 8.76564 11.1958 8.96873 11.28C9.17182 11.3642 9.33795 11.5184 9.43693 11.7147C9.80726 12.4976 8.96958 13.4204 8.42438 13.8257C8.14787 14.0387 7.83555 14.2005 7.50212 14.3036Z" fill="#2A3843"/>
<path d="M13.6488 11.0192C13.5457 11.0555 13.4355 11.0669 13.3272 11.0525C13.2188 11.0381 13.1154 10.9983 13.0254 10.9363C11.6715 9.83467 10.6999 8.33382 10.2489 6.64764C9.6243 5.05074 9.49399 3.30298 9.87493 1.63111C9.90481 1.53951 9.95246 1.45471 10.0152 1.38156C10.0779 1.30841 10.1544 1.24836 10.2404 1.20483C10.3263 1.1613 10.42 1.13517 10.5161 1.12791C10.6122 1.12066 10.7087 1.13244 10.8002 1.16257C10.9723 1.22582 11.1139 1.35212 11.1964 1.51588C11.2788 1.67964 11.2959 1.86862 11.2443 2.04453C10.9747 3.43635 11.1056 4.8761 11.6219 6.19643C11.9741 7.56413 12.7361 8.79143 13.8057 9.71367C13.9675 9.81897 14.0812 9.98391 14.122 10.1726C14.1629 10.3613 14.1276 10.5585 14.0238 10.7213C13.9375 10.8614 13.8048 10.9669 13.6488 11.0192Z" fill="#2A3843"/>
</g>
<defs>
<clipPath id="clip0_454_371">
<rect width="16" height="16" fill="white"/>
</clipPath>
</defs>
</svg>
