<svg width="16" height="16" viewBox="0 0 16 16" fill="none" xmlns="http://www.w3.org/2000/svg">
<path d="M13.635 3H2.35375C1.45125 3 1 3.63175 1 4.17325V10.22C1 10.942 1.63175 11.5737 2.35375 11.5737H2.444V12.386C2.444 12.6567 2.53425 12.8372 2.805 13.0177C2.89525 13.108 2.9855 13.108 3.166 13.108C3.25625 13.108 3.43674 13.108 3.52699 13.0177L5.87349 11.5737H13.635C14.357 11.5737 14.9887 10.942 14.9887 10.22V4.17325C15.079 3.63175 14.6277 3 13.635 3ZM13.7252 10.22H5.78324C5.69299 10.22 5.51249 10.22 5.42224 10.3102L3.88799 11.2127V10.942C3.88799 10.7615 3.79774 10.581 3.70749 10.4907C3.52699 10.3102 3.34649 10.3102 3.166 10.3102L2.35375 10.22V4.35375H13.635V10.22H13.7252Z" fill="#2A3843"/>
<path d="M11.7397 5.43674H4.06852C3.70752 5.43674 3.43677 5.70749 3.43677 6.06849C3.43677 6.42948 3.70752 6.79048 4.06852 6.79048H11.7397C12.1007 6.79048 12.4617 6.51973 12.4617 6.06849C12.4617 5.61724 12.1007 5.43674 11.7397 5.43674Z" fill="#2A3843"/>
<path d="M8.40051 7.60275H4.06852C3.70752 7.60275 3.43677 7.96375 3.43677 8.32475C3.43677 8.68575 3.70752 8.9565 4.06852 8.9565H8.40051C8.76151 8.9565 9.12251 8.68575 9.12251 8.2345C9.12251 7.78325 8.76151 7.60275 8.40051 7.60275Z" fill="#2A3843"/>
</svg>
