<svg width="16" height="16" viewBox="0 0 16 16" fill="none" xmlns="http://www.w3.org/2000/svg">
<path fill-rule="evenodd" clip-rule="evenodd" d="M11.1784 5.00062C11.4343 4.76503 11.7693 4.63454 12.1168 4.63454C12.4643 4.63454 12.7992 4.76509 13.055 5.00062C13.3108 5.23617 13.4686 5.55932 13.4972 5.90563C13.4984 5.91934 13.4989 5.93309 13.4989 5.94684V9.97556C13.4989 10.2517 13.2751 10.4756 12.9989 10.4756C12.7228 10.4756 12.4989 10.2517 12.4989 9.97556V5.97171C12.4876 5.88146 12.4447 5.79798 12.3777 5.73628C12.3066 5.67087 12.2136 5.63454 12.1168 5.63454C12.0199 5.63454 11.9267 5.67093 11.8557 5.73628C11.7887 5.79798 11.7458 5.88146 11.7345 5.97171V7.78947C11.7345 8.06562 11.5106 8.28947 11.2345 8.28947C10.9584 8.28947 10.7345 8.06562 10.7345 7.78947V5.94684C10.7345 5.93309 10.7351 5.91934 10.7362 5.90563C10.7648 5.55932 10.9226 5.23617 11.1784 5.00062Z" fill="#2A3843"/>
<path fill-rule="evenodd" clip-rule="evenodd" d="M3.66251 8.35489C3.56978 8.40627 3.35102 8.66093 3.6536 9.19218C3.96213 9.73506 4.3725 10.4112 4.70757 10.9543C4.87468 11.2252 5.02233 11.4618 5.12817 11.6307C5.18109 11.7151 5.22353 11.7826 5.2527 11.8289L5.29757 11.8999L5.30812 11.9173C5.73237 12.6515 6.3869 13.2254 7.17028 13.5498C7.95365 13.8743 8.82224 13.9313 9.64136 13.7121C10.4605 13.4929 11.1844 13.0097 11.7011 12.3373C12.2177 11.665 12.4981 10.8411 12.4989 9.99311C12.4992 9.71697 12.7233 9.49334 12.9995 9.49362C13.2756 9.4939 13.4992 9.71799 13.4989 9.99413C13.4979 11.062 13.1447 12.0997 12.494 12.9466C11.8433 13.7934 10.9315 14.402 9.89987 14.6781C8.86825 14.9542 7.7743 14.8824 6.78762 14.4737C5.80411 14.0663 4.98189 13.347 4.44744 12.4266L4.40675 12.3621C4.37717 12.3152 4.33426 12.247 4.28085 12.1618C4.17404 11.9914 4.02511 11.7527 3.85649 11.4794C3.52009 10.9341 3.1022 10.2458 2.78443 9.68668C2.2984 8.83297 2.45012 7.88344 3.17782 7.4802C3.91612 7.07109 4.81484 7.45316 5.39529 8.37912C5.41056 8.40348 5.4255 8.42706 5.4401 8.44988C5.44158 8.31886 5.44141 8.17783 5.44124 8.02803C5.44118 7.97762 5.44111 7.9262 5.44111 7.87385C5.44111 7.5977 5.66497 7.37385 5.94111 7.37385C6.21726 7.37385 6.44111 7.5977 6.44111 7.87385C6.44111 7.92268 6.44118 7.97179 6.44125 8.02093C6.44161 8.29051 6.44198 8.56098 6.43138 8.79283C6.42507 8.93111 6.41443 9.06772 6.39521 9.19158C6.3771 9.30834 6.34638 9.44906 6.283 9.57584C6.22027 9.70133 6.07722 9.90229 5.80268 9.94661C5.55257 9.98699 5.35459 9.8675 5.2476 9.78626C5.02847 9.6199 4.79961 9.31163 4.548 8.91025C4.11675 8.2223 3.74476 8.30931 3.66251 8.35489Z" fill="#2A3843"/>
<path fill-rule="evenodd" clip-rule="evenodd" d="M9.80568 4.26293C9.98016 4.18548 10.1688 4.14539 10.3598 4.14539C10.5507 4.14539 10.7395 4.18544 10.914 4.26293C11.0883 4.34029 11.2446 4.45315 11.3732 4.59444C11.5016 4.73565 11.5993 4.9019 11.6606 5.08236C11.7194 5.25578 11.7435 5.4391 11.7315 5.62167V7.44632C11.7315 7.72246 11.5077 7.94632 11.2315 7.94632C10.9554 7.94632 10.7315 7.72246 10.7315 7.44632V5.60353C10.7315 5.58995 10.7321 5.57636 10.7332 5.56282C10.7376 5.50887 10.7309 5.45466 10.7136 5.4037C10.6963 5.35264 10.6688 5.30625 10.6335 5.26737C10.5982 5.22857 10.5555 5.19788 10.5083 5.17692C10.4614 5.15608 10.4108 5.14539 10.3598 5.14539C10.3089 5.14539 10.2584 5.15605 10.2114 5.17692C10.1642 5.19789 10.1216 5.22857 10.0863 5.26737C10.0509 5.30625 10.0235 5.35264 10.0061 5.4037C9.98885 5.45466 9.98214 5.50887 9.98654 5.56282C9.98765 5.57636 9.9882 5.58995 9.9882 5.60353V7.44632C9.9882 7.72246 9.76435 7.94632 9.4882 7.94632C9.21206 7.94632 8.9882 7.72246 8.9882 7.44632V5.62167C8.97627 5.4391 9.00033 5.25578 9.05917 5.08236C9.12041 4.9019 9.2181 4.73565 9.34656 4.59444C9.47509 4.45315 9.6314 4.34029 9.80568 4.26293Z" fill="#2A3843"/>
<path fill-rule="evenodd" clip-rule="evenodd" d="M8.03993 3.92452C8.21557 3.84774 8.40517 3.80812 8.5969 3.80812C8.78853 3.80812 8.97829 3.84771 9.15401 3.92452C9.32979 4.00135 9.48765 4.11374 9.61768 4.25449C9.74774 4.39527 9.84724 4.56147 9.90975 4.74286C9.96974 4.91693 9.99433 5.10112 9.98218 5.28466V7.10905C9.98218 7.38519 9.75832 7.60905 9.48218 7.60905C9.20603 7.60905 8.98218 7.38519 8.98218 7.10905V5.26627C8.98218 5.25247 8.98275 5.23868 8.98389 5.22493C8.98827 5.17208 8.98162 5.11888 8.96432 5.06867C8.94704 5.01854 8.91948 4.97239 8.88316 4.93308C8.84681 4.89374 8.80266 4.8623 8.7535 4.84081C8.70427 4.81929 8.65089 4.80812 8.5969 4.80812C8.54299 4.80812 8.48975 4.81926 8.44044 4.84081C8.39128 4.8623 8.34713 4.89374 8.31078 4.93308C8.27446 4.97239 8.2469 5.01854 8.22962 5.06867C8.21232 5.11888 8.20566 5.17208 8.21005 5.22493C8.21119 5.23868 8.21176 5.25247 8.21176 5.26627V7.10905C8.21176 7.38519 7.9879 7.60905 7.71176 7.60905C7.43562 7.60905 7.21176 7.38519 7.21176 7.10905V5.28466C7.19961 5.10111 7.2242 4.91693 7.28419 4.74286C7.3467 4.56147 7.4462 4.39527 7.57626 4.25449C7.70629 4.11374 7.86415 4.00135 8.03993 3.92452Z" fill="#2A3843"/>
<path fill-rule="evenodd" clip-rule="evenodd" d="M6.27376 1.26776C6.44769 1.19446 6.63475 1.15689 6.82344 1.15689C7.01212 1.15689 7.19919 1.19446 7.37311 1.26776C7.54721 1.34113 7.70487 1.449 7.83562 1.58545C7.96633 1.72187 8.06768 1.88429 8.13156 2.06301C8.19269 2.23403 8.21799 2.4155 8.20572 2.59661V7.13735C8.20572 7.41349 7.98186 7.63735 7.70572 7.63735C7.42958 7.63735 7.20572 7.41349 7.20572 7.13735V2.57769C7.20572 2.56338 7.20633 2.54908 7.20756 2.53482C7.21147 2.48944 7.2056 2.44349 7.1899 2.39959C7.17427 2.35584 7.14868 2.31394 7.11358 2.27731C7.07852 2.24071 7.03485 2.21038 6.98476 2.18927C6.9345 2.16809 6.87955 2.15689 6.82344 2.15689C6.76732 2.15689 6.71237 2.16809 6.66211 2.18927C6.6118 2.21047 6.56805 2.24088 6.53314 2.27731C6.4983 2.31368 6.47273 2.3555 6.45697 2.39959C6.44128 2.44349 6.43541 2.48944 6.43931 2.53482C6.44054 2.54908 6.44115 2.56338 6.44115 2.57769V7.83169C6.44115 8.10784 6.21729 8.33169 5.94115 8.33169C5.66501 8.33169 5.44115 8.10784 5.44115 7.83169V2.59662C5.42889 2.41551 5.45418 2.23403 5.51531 2.06301C5.57907 1.88463 5.68014 1.72213 5.81111 1.58545C5.94202 1.44883 6.09988 1.34104 6.27376 1.26776Z" fill="#2A3843"/>
</svg>
