<svg width="16" height="16" viewBox="0 0 16 16" fill="none" xmlns="http://www.w3.org/2000/svg">
<path d="M15.2028 11.2999C15.187 10.8835 15.0828 10.5482 14.8502 10.2024C14.6175 9.85662 14.293 9.58259 13.9132 9.41108C14.6266 7.83788 15.0199 5.75248 14.151 4.37136C13.4924 3.31036 12.3217 2.77072 10.5747 2.77072C9.58359 2.72075 8.60258 2.99004 7.77588 3.53902C7.10503 3.04589 6.28412 2.80027 5.45266 2.84389C4.97945 2.80162 4.50268 2.8614 4.05456 3.01919C3.60643 3.17698 3.19739 3.42911 2.85506 3.75854C2.63335 4.0051 2.46523 4.29499 2.36132 4.60986C2.25741 4.92474 2.21998 5.25775 2.25139 5.58784L2.45261 6.75859C2.46125 7.5645 2.69919 8.35129 3.1386 9.02693L2.22395 9.36535C1.79737 9.528 1.43008 9.81607 1.17047 10.1916C0.910862 10.5671 0.771118 11.0125 0.769653 11.469V12.1916C0.769752 12.3464 0.822226 12.4967 0.918542 12.6179C1.01486 12.7391 1.14935 12.8242 1.30015 12.8593C2.63152 13.1212 3.98609 13.2468 5.34291 13.2343C6.31203 13.227 7.27999 13.1659 8.24235 13.0514C8.97781 13.1258 9.7166 13.1624 10.4558 13.1611C11.8572 13.1622 13.2559 13.0397 14.6358 12.7953C14.7941 12.7656 14.9371 12.6819 15.0406 12.5585C15.144 12.435 15.2014 12.2795 15.2028 12.1184V11.3318V11.2999ZM12.9802 5.08478C13.3016 5.71763 13.3828 6.44547 13.2089 7.1336C13.2019 6.95803 13.1278 6.79185 13.0018 6.66932C12.8759 6.54679 12.7078 6.47725 12.5321 6.47505C11.215 6.47505 10.4558 4.97502 10.4467 4.96588C10.3717 4.81642 10.2453 4.69901 10.0907 4.63517C9.93618 4.57133 9.76379 4.56534 9.60518 4.61831C9.26101 4.74824 8.94899 4.95105 8.69053 5.21283C8.67887 5.02955 8.64509 4.84836 8.58992 4.67319C9.18373 4.27912 9.89124 4.0926 10.6021 4.14269C11.0459 4.08565 11.4968 4.14216 11.9127 4.30693C12.3287 4.4717 12.696 4.73934 12.9802 5.08478ZM3.83373 6.69457C4.26841 6.60968 4.66891 6.3999 4.98619 6.0909C5.63359 6.44635 6.36048 6.63201 7.09904 6.63054C7.09904 8.56046 6.01975 9.02693 5.45266 9.02693C4.88558 9.02693 3.85203 8.46899 3.82459 6.69457H3.83373ZM8.15088 8.44155C8.21216 8.61564 8.28868 8.78397 8.37955 8.94461L7.92222 9.11839H7.82161C7.95731 8.90635 8.06781 8.6792 8.15088 8.44155ZM11.8095 7.74642C11.7759 8.06699 11.6362 8.36715 11.4125 8.59917C11.1887 8.83119 10.8939 8.98176 10.5747 9.02693C10.1723 9.02693 9.2942 8.56046 9.2942 7.19763C9.28262 6.86341 9.39686 6.53702 9.61433 6.28298C10.1505 6.99789 10.9103 7.51301 11.7729 7.74642H11.8095ZM3.87947 4.69148C4.32063 4.3317 4.88606 4.16075 5.45266 4.21586C5.73334 4.18655 6.01705 4.21351 6.28718 4.29518C6.55731 4.37685 6.80844 4.51158 7.02586 4.69148C7.16536 4.84141 7.25761 5.0291 7.29111 5.23113C6.56823 5.27813 5.85206 5.0675 5.26973 4.6366C5.18959 4.57313 5.09611 4.52863 4.99632 4.50645C4.89652 4.48427 4.79299 4.48499 4.69351 4.50855C4.59247 4.53175 4.49801 4.57755 4.41721 4.6425C4.33642 4.70745 4.2714 4.78987 4.22703 4.88356C4.16703 5.00461 4.08095 5.11086 3.975 5.19467C3.86904 5.27849 3.74583 5.3378 3.61422 5.36832C3.6143 5.11737 3.70901 4.87567 3.87947 4.69148ZM2.16907 11.652V11.5056C2.17353 11.3282 2.22952 11.1559 2.33021 11.0097C2.4309 10.8635 2.57195 10.7498 2.73615 10.6824L4.27277 10.0971C4.63324 10.3028 5.03792 10.4189 5.45266 10.4355C5.88021 10.4232 6.29935 10.3137 6.6783 10.1154L8.17832 10.6916C8.34537 10.7521 8.48958 10.8628 8.59112 11.0086C8.69267 11.1543 8.74657 11.328 8.74541 11.5056V11.6428C6.56588 11.972 4.34951 11.975 2.16907 11.652ZM13.8583 11.5697C12.5965 11.7618 11.3201 11.8414 10.0442 11.8075C10.092 11.714 10.1171 11.6106 10.1174 11.5056C10.0986 11.0118 9.91503 10.5385 9.59603 10.1611C9.89812 10.3234 10.2323 10.4171 10.5747 10.4355C10.9804 10.4181 11.3745 10.2952 11.718 10.0788L13.2912 10.6824C13.454 10.7492 13.5941 10.8615 13.6947 11.0059C13.7953 11.1503 13.8521 11.3206 13.8583 11.4965V11.5697Z" fill="#2A3843"/>
</svg>
