<svg width="16" height="16" viewBox="0 0 16 16" fill="none" xmlns="http://www.w3.org/2000/svg">
<g clip-path="url(#clip0_269_103)">
<path fill-rule="evenodd" clip-rule="evenodd" d="M4.95923 3.7092C4.26887 3.7092 3.70923 4.26884 3.70923 4.9592V11.0408C3.70923 11.7312 4.26887 12.2908 4.95923 12.2908H11.0408C11.7312 12.2908 12.2908 11.7312 12.2908 11.0408V10.6555C12.2908 10.2413 12.6266 9.90553 13.0408 9.90553C13.4551 9.90553 13.7908 10.2413 13.7908 10.6555V11.0408C13.7908 12.5596 12.5596 13.7908 11.0408 13.7908H4.95923C3.44045 13.7908 2.20923 12.5596 2.20923 11.0408V4.9592C2.20923 3.44042 3.44044 2.2092 4.95923 2.2092L5.3549 2.2092C5.76912 2.2092 6.1049 2.54498 6.1049 2.9592C6.1049 3.37341 5.76912 3.7092 5.3549 3.7092H4.95923Z" fill="#2A3843"/>
<path fill-rule="evenodd" clip-rule="evenodd" d="M13.0042 8.32512C12.5582 8.32512 12.1966 7.96358 12.1966 7.5176L12.1966 3.75709L8.43612 3.75709C7.99013 3.75709 7.62859 3.39555 7.62859 2.94956C7.62859 2.50358 7.99013 2.14204 8.43612 2.14204L13.0042 2.14204C13.4501 2.14204 13.8117 2.50358 13.8117 2.94956L13.8117 7.5176C13.8117 7.96358 13.4501 8.32512 13.0042 8.32512Z" fill="#2A3843"/>
<path fill-rule="evenodd" clip-rule="evenodd" d="M12.2206 3.71748C12.5623 4.05919 12.5623 4.61321 12.2206 4.95492L8.55677 8.61872C8.21506 8.96043 7.66104 8.96043 7.31933 8.61872C6.97762 8.27701 6.97762 7.723 7.31933 7.38129L10.9831 3.71748C11.3248 3.37577 11.8789 3.37577 12.2206 3.71748Z" fill="#2A3843"/>
</g>
<defs>
<clipPath id="clip0_269_103">
<rect width="16" height="16" fill="white"/>
</clipPath>
</defs>
</svg>
