<svg width="16" height="16" viewBox="0 0 16 16" fill="none" xmlns="http://www.w3.org/2000/svg">
<path d="M9.4 14.2889C9.3 14.2889 9.1 14.2889 9 14.1889L6.1 12.4889C5.9 12.3889 5.7 12.0889 5.7 11.8889V7.88889L2.2 3.68889C2 3.48889 2 3.18889 2 2.98889C2.1 2.68889 2.3 2.58889 2.6 2.48889C2.8 2.48889 8 1.38889 13.2 2.48889C13.5 2.58889 13.7 2.68889 13.8 2.98889C13.9 3.28889 13.8 3.48889 13.7 3.68889L10.1 7.78889V13.4889C10.1 13.7889 10 13.9889 9.7 14.1889C9.6 14.2889 9.5 14.2889 9.4 14.2889ZM7.2 11.3889L8.6 12.1889V7.48889C8.6 7.28889 8.7 7.08889 8.8 6.98889L11.7 3.68889C8.7 3.28889 5.8 3.48889 4.2 3.68889L7.1 6.98889C7.2 7.08889 7.3 7.28889 7.3 7.48889V11.3889H7.2Z" fill="#2A3843"/>
</svg>
