<svg width="16" height="16" viewBox="0 0 16 16" fill="none" xmlns="http://www.w3.org/2000/svg">
<path d="M13.7645 11.6119H2.23556C2.15338 11.6131 2.07181 11.5977 1.99567 11.5668C1.91953 11.5358 1.85036 11.49 1.79225 11.4318C1.73414 11.3737 1.68826 11.3046 1.65732 11.2284C1.62639 11.1523 1.61103 11.0707 1.61215 10.9885V2.93406C1.61103 2.85188 1.62639 2.77032 1.65732 2.69418C1.68826 2.61803 1.73414 2.54886 1.79225 2.49075C1.85036 2.43264 1.91953 2.38676 1.99567 2.35583C2.07181 2.32489 2.15338 2.30953 2.23556 2.31065H13.7645C13.9299 2.31065 14.0884 2.37633 14.2053 2.49324C14.3222 2.61015 14.3879 2.76872 14.3879 2.93406V10.9885C14.3879 11.1539 14.3222 11.3124 14.2053 11.4294C14.0884 11.5463 13.9299 11.6119 13.7645 11.6119V11.6119ZM2.85897 10.3651H13.1411V3.55747H2.85897V10.3651Z" fill="#2A3843"/>
<circle cx="3.54893" cy="12.994" r="0.695442" fill="#2A3843"/>
<circle cx="12.4511" cy="12.994" r="0.695442" fill="#2A3843"/>
<path d="M13.3407 10.6403L10.3566 7.5066L9.23445 8.63705C9.12101 8.74102 8.97272 8.7987 8.81884 8.7987C8.66497 8.7987 8.51668 8.74102 8.40324 8.63705L5.80153 6.30133L2.73435 10.5572L1.72858 9.834L5.19475 4.99632C5.24794 4.92565 5.31537 4.86694 5.39269 4.82398C5.47002 4.78102 5.5555 4.75478 5.6436 4.74696C5.73067 4.73518 5.81928 4.74326 5.90277 4.77062C5.98627 4.79797 6.06249 4.84387 6.12571 4.90489L8.76897 7.33204L9.91605 6.17665C10.0449 6.07233 10.2004 6.00611 10.3649 5.98547C10.4492 5.98753 10.5322 6.00621 10.6092 6.04044C10.6863 6.07468 10.7558 6.12379 10.8138 6.18496L14.2467 9.77581L13.3407 10.6403Z" fill="#2A3843"/>
<path d="M8.67783 6.12663C8.48013 6.12662 8.28689 6.06788 8.12262 5.95787C7.95836 5.84786 7.83048 5.69153 7.7552 5.50872C7.67993 5.32591 7.66066 5.12486 7.69984 4.93108C7.73902 4.7373 7.83489 4.55952 7.97526 4.42031C8.11564 4.2811 8.29421 4.18673 8.48831 4.14918C8.68241 4.11162 8.8833 4.13257 9.06547 4.20937C9.24765 4.28617 9.4029 4.41535 9.51153 4.58053C9.62017 4.74571 9.67729 4.93944 9.67564 5.13713C9.67564 5.26778 9.64978 5.39713 9.59953 5.51773C9.54928 5.63832 9.47565 5.74778 9.38289 5.83977C9.29012 5.93176 9.18006 6.00447 9.05905 6.05371C8.93803 6.10294 8.80847 6.12773 8.67783 6.12663Z" fill="#2A3843"/>
<path d="M10.7432 13.6174H5.2572C5.09186 13.6174 4.93329 13.5517 4.81638 13.4348C4.69947 13.3179 4.63379 13.1593 4.63379 12.994C4.63379 12.8286 4.69947 12.6701 4.81638 12.5531C4.93329 12.4362 5.09186 12.3706 5.2572 12.3706H10.7432C10.9086 12.3706 11.0671 12.4362 11.184 12.5531C11.301 12.6701 11.3666 12.8286 11.3666 12.994C11.3666 13.1593 11.301 13.3179 11.184 13.4348C11.0671 13.5517 10.9086 13.6174 10.7432 13.6174Z" fill="#2A3843"/>
</svg>
