<svg width="16" height="16" viewBox="0 0 16 16" fill="none" xmlns="http://www.w3.org/2000/svg">
<path d="M4.75875 9.17095H1.65106C1.47393 9.17095 1.30407 9.10059 1.17882 8.97534C1.05358 8.8501 0.983215 8.68023 0.983215 8.50311V2.93776C0.985522 2.76136 1.05662 2.59282 1.18137 2.46808C1.30612 2.34333 1.47465 2.27223 1.65106 2.26992H4.75875C4.93515 2.27223 5.10368 2.34333 5.22843 2.46808C5.35318 2.59282 5.42428 2.76136 5.42659 2.93776V8.50311C5.42659 8.68023 5.35622 8.8501 5.23098 8.97534C5.10574 9.10059 4.93587 9.17095 4.75875 9.17095ZM2.3189 7.83526H4.09981V3.6056H2.3189V7.83526Z" fill="#2A3843"/>
<path d="M9.54939 13.7301H6.44171C6.2653 13.7278 6.09677 13.6567 5.97202 13.5319C5.84727 13.4072 5.77617 13.2386 5.77386 13.0622V7.49688C5.77617 7.32048 5.84727 7.15195 5.97202 7.0272C6.09677 6.90245 6.2653 6.83135 6.44171 6.82904H9.54939C9.72652 6.82904 9.89638 6.8994 10.0216 7.02465C10.1469 7.14989 10.2172 7.31976 10.2172 7.49688V13.0622C10.2172 13.2393 10.1469 13.4092 10.0216 13.5345C9.89638 13.6597 9.72652 13.7301 9.54939 13.7301ZM7.12736 12.4033H8.90827V8.16472H7.12736V12.4033Z" fill="#2A3843"/>
<path d="M9.54939 6.48177H6.44171C6.26458 6.48177 6.09472 6.41141 5.96947 6.28616C5.84423 6.16092 5.77386 5.99105 5.77386 5.81393V2.93776C5.77617 2.76135 5.84727 2.59282 5.97202 2.46807C6.09677 2.34332 6.2653 2.27222 6.44171 2.26992H9.54939C9.72652 2.26992 9.89638 2.34028 10.0216 2.46552C10.1469 2.59077 10.2172 2.76064 10.2172 2.93776V5.81393C10.2184 5.90196 10.202 5.98934 10.1688 6.07091C10.1357 6.15248 10.0866 6.22658 10.0243 6.28883C9.96204 6.35109 9.88794 6.40024 9.80638 6.43337C9.72481 6.46651 9.63743 6.48297 9.54939 6.48177V6.48177ZM7.12736 5.14609H8.90827V3.6056H7.12736V5.14609Z" fill="#2A3843"/>
<path d="M14.349 12.3232H11.2413C11.0649 12.3209 10.8963 12.2498 10.7716 12.125C10.6468 12.0003 10.5757 11.8317 10.5734 11.6553V8.77024C10.5757 8.59384 10.6468 8.42531 10.7716 8.30056C10.8963 8.17581 11.0649 8.10471 11.2413 8.1024H14.349C14.5254 8.10471 14.6939 8.17581 14.8186 8.30056C14.9434 8.42531 15.0145 8.59384 15.0168 8.77024V11.6553C15.0145 11.8317 14.9434 12.0003 14.8186 12.125C14.6939 12.2498 14.5254 12.3209 14.349 12.3232V12.3232ZM11.9091 10.9875H13.69V9.43808H11.9091V10.9875Z" fill="#2A3843"/>
<path d="M4.75875 13.7301H1.65106C1.47465 13.7278 1.30612 13.6567 1.18137 13.5319C1.05662 13.4072 0.985522 13.2386 0.983215 13.0622V10.1861C0.983215 10.0089 1.05358 9.83907 1.17882 9.71382C1.30407 9.58858 1.47393 9.51822 1.65106 9.51822H4.75875C4.93587 9.51822 5.10574 9.58858 5.23098 9.71382C5.35622 9.83907 5.42659 10.0089 5.42659 10.1861V13.0622C5.42428 13.2386 5.35318 13.4072 5.22843 13.5319C5.10368 13.6567 4.93515 13.7278 4.75875 13.7301V13.7301ZM2.3189 12.4033H4.09981V10.8539H2.3189V12.4033Z" fill="#2A3843"/>
<path d="M14.349 7.78183H11.2413C11.0649 7.77953 10.8963 7.70843 10.7716 7.58368C10.6468 7.45893 10.5757 7.2904 10.5734 7.11399V2.93776C10.5757 2.76135 10.6468 2.59282 10.7716 2.46807C10.8963 2.34332 11.0649 2.27222 11.2413 2.26992H14.349C14.5254 2.27222 14.6939 2.34332 14.8186 2.46807C14.9434 2.59282 15.0145 2.76135 15.0168 2.93776V7.11399C15.0145 7.2904 14.9434 7.45893 14.8186 7.58368C14.6939 7.70843 14.5254 7.77953 14.349 7.78183V7.78183ZM11.9091 6.44615H13.69V3.6056H11.9091V6.44615Z" fill="#2A3843"/>
</svg>
