<svg width="12" height="15" viewBox="0 0 12 15" fill="none" xmlns="http://www.w3.org/2000/svg">
<path d="M10.5175 9.31866V5.28994C10.4992 5.06854 10.3984 4.86203 10.235 4.71155C10.0715 4.56108 9.85755 4.47764 9.6354 4.47764C9.41324 4.47764 9.19912 4.56108 9.03569 4.71155C8.87226 4.86203 8.77142 5.06854 8.75311 5.28994V7.13258" stroke="#2A3843" stroke-linecap="round" stroke-linejoin="round"/>
<path d="M10.5176 9.33672C10.5166 10.2946 10.1998 11.2254 9.61616 11.985C9.0325 12.7446 8.2146 13.2906 7.28923 13.5382C6.36386 13.7858 5.38259 13.7214 4.49756 13.3548C3.61254 12.9883 2.87309 12.34 2.39381 11.5106C2.39381 11.5106 1.36404 9.88477 0.737748 8.78273C-0.051141 7.39766 1.47855 6.37387 2.49026 7.98778C3.50196 9.60169 3.45973 8.5177 3.45973 7.21694" stroke="#2A3843" stroke-linecap="round" stroke-linejoin="round"/>
<path d="M8.75014 6.78942V4.94663C8.7601 4.82465 8.74497 4.7019 8.70569 4.58613C8.6664 4.47037 8.60384 4.36405 8.52193 4.27401C8.44001 4.18396 8.34055 4.11219 8.2298 4.06303C8.11905 4.01387 7.99934 3.98849 7.87841 3.98849C7.75747 3.98849 7.63791 4.01387 7.52716 4.06303C7.41641 4.11219 7.31695 4.18396 7.23503 4.27401C7.15312 4.36405 7.09055 4.47037 7.05127 4.58613C7.01199 4.7019 6.99685 4.82465 7.00682 4.94663V6.78942" stroke="#2A3843" stroke-linecap="round" stroke-linejoin="round"/>
<path d="M7.00079 6.45216V4.60938C7.01091 4.48739 6.99554 4.36464 6.95565 4.24888C6.91576 4.13311 6.85222 4.02694 6.76904 3.9369C6.68585 3.84685 6.58484 3.77493 6.47237 3.72577C6.35989 3.67661 6.23833 3.65123 6.11551 3.65123C5.9927 3.65123 5.87128 3.67661 5.7588 3.72577C5.64633 3.77493 5.54532 3.84685 5.46214 3.9369C5.37895 4.02694 5.31541 4.13311 5.27552 4.24888C5.23563 4.36464 5.22026 4.48739 5.23038 4.60938V6.45216" stroke="#2A3843" stroke-linecap="round" stroke-linejoin="round"/>
<path d="M5.22434 6.48045V1.9208C5.23442 1.80358 5.2191 1.68563 5.17935 1.5744C5.13959 1.46317 5.07612 1.361 4.99322 1.27448C4.91031 1.18796 4.80965 1.11886 4.69755 1.07162C4.58546 1.02438 4.46445 0.999992 4.34205 0.999992C4.21965 0.999992 4.09864 1.02438 3.98655 1.07162C3.87446 1.11886 3.77365 1.18796 3.69074 1.27448C3.60783 1.361 3.54451 1.46317 3.50476 1.5744C3.465 1.68563 3.44968 1.80358 3.45977 1.9208V7.1748" stroke="#2A3843" stroke-linecap="round" stroke-linejoin="round"/>
</svg>
