<svg width="16" height="16" viewBox="0 0 16 16" fill="none" xmlns="http://www.w3.org/2000/svg">
<path d="M11.2877 4.55862H2.25913C1.45466 4.55862 1.05243 5.12175 1.05243 5.60443V11.4836C1.05243 12.1272 1.61556 12.6903 2.25913 12.6903H2.33957V13.7614C2.33957 14.0027 2.38371 14.162 2.54618 14.3245C2.63616 14.4145 2.76554 14.4557 2.92223 14.4557C3.0441 14.4557 3.19382 14.3756 3.30493 14.3245L5.39654 12.6903H11.2877C11.9313 12.6903 12.4944 12.1272 12.4944 11.4836V5.60443C12.5748 5.12175 12.1726 4.55862 11.2877 4.55862ZM11.3681 11.4836H5.3161C5.23565 11.4836 5.07476 11.4836 4.99431 11.5641L3.62672 12.6903V12.1272C3.62672 11.9663 3.54627 11.8054 3.46583 11.725C3.30493 11.5641 3.14404 11.4836 2.98315 11.4836H2.25913V5.76532H11.2877V11.4836H11.3681Z" fill="#2A3843"/>
<path fill-rule="evenodd" clip-rule="evenodd" d="M0.927429 5.60443C0.927429 5.05271 1.38563 4.43362 2.25913 4.43362H11.2877C12.2221 4.43362 12.7083 5.03841 12.6194 5.61437V11.4836C12.6194 12.1962 12.0003 12.8153 11.2877 12.8153H5.43959L3.37041 14.432L3.35718 14.4381C3.34417 14.4441 3.32963 14.4509 3.31399 14.4583C3.26945 14.4794 3.216 14.5047 3.16372 14.5255C3.0931 14.5535 3.00734 14.5807 2.92223 14.5807C2.74481 14.5807 2.57873 14.5338 2.45779 14.4129C2.36524 14.3203 2.30228 14.2242 2.26386 14.1135C2.22608 14.0047 2.21457 13.8889 2.21457 13.7614V12.8145C1.52091 12.7894 0.927429 12.1813 0.927429 11.4836V5.60443ZM2.25913 4.68362C1.5237 4.68362 1.17743 5.19078 1.17743 5.60443V11.4836C1.17743 12.0582 1.68459 12.5653 2.25913 12.5653H2.46457V13.7614C2.46457 13.8752 2.47514 13.9598 2.50004 14.0315C2.52432 14.1015 2.56466 14.1662 2.63457 14.2361C2.69358 14.2951 2.78628 14.3307 2.92223 14.3307C2.95899 14.3307 3.00903 14.3179 3.07151 14.2931C3.11574 14.2755 3.15757 14.2557 3.19988 14.2357C3.21295 14.2295 3.22607 14.2233 3.23933 14.2171L5.3535 12.5653H11.2877C11.8622 12.5653 12.3694 12.0582 12.3694 11.4836V5.59408L12.3711 5.58388C12.4355 5.19763 12.1174 4.68362 11.2877 4.68362H2.25913ZM2.13413 5.64032H11.4127V11.4836H11.3681V11.6086H5.3161C5.27515 11.6086 5.22455 11.6088 5.17576 11.617C5.12409 11.6256 5.09521 11.6399 5.0827 11.6525L5.07415 11.661L3.50172 12.9552V12.1272C3.50172 12.0016 3.43602 11.8719 3.37744 11.8134C3.23017 11.6661 3.0992 11.6086 2.98315 11.6086H2.13413V5.64032ZM11.1627 11.3586H5.31397C5.27412 11.3586 5.20526 11.3586 5.13465 11.3704C5.06729 11.3816 4.97822 11.4065 4.91082 11.4709L3.75172 12.4255V12.1272C3.75172 11.931 3.65653 11.7389 3.55421 11.6366C3.3797 11.4621 3.18888 11.3586 2.98315 11.3586H2.38413V5.89032H11.1627V11.3586Z" fill="#2A3843"/>
<path fill-rule="evenodd" clip-rule="evenodd" d="M4.11923 3.0899L4.11921 4.82227C4.11921 5.15408 3.85022 5.42307 3.51841 5.42307C3.18659 5.42307 2.9176 5.15408 2.9176 4.82227L2.91763 2.7895C2.91763 2.29178 3.32111 1.8883 3.81883 1.8883H14.0464C14.5441 1.8883 14.9476 2.29178 14.9476 2.7895V9.9262C14.9476 10.4239 14.5441 10.8274 14.0464 10.8274H12.5214C12.1896 10.8274 11.9206 10.5584 11.9206 10.2266C11.9206 9.89479 12.1896 9.6258 12.5214 9.6258H13.746V3.0899H4.11923Z" fill="#2A3843"/>
<path fill-rule="evenodd" clip-rule="evenodd" d="M2.79263 2.7895C2.79263 2.22274 3.25207 1.7633 3.81883 1.7633H14.0464C14.6131 1.7633 15.0726 2.22274 15.0726 2.7895V9.9262C15.0726 10.493 14.6131 10.9524 14.0464 10.9524H12.5214C12.1206 10.9524 11.7956 10.6275 11.7956 10.2266C11.7956 9.82575 12.1206 9.5008 12.5214 9.5008H13.621V3.2149H4.24423L4.24421 4.82227C4.24421 5.22312 3.91926 5.54807 3.51841 5.54807C3.11756 5.54807 2.7926 5.22312 2.7926 4.82227L2.79263 2.7895L2.91497 2.7895ZM3.81883 2.0133C3.39014 2.0133 3.04263 2.36081 3.04263 2.7895L3.0426 4.82227C3.0426 5.08505 3.25563 5.29807 3.51841 5.29807C3.78118 5.29807 3.99421 5.08505 3.99421 4.82227L3.99423 3.0899C3.99423 3.02086 4.0502 2.9649 4.11923 2.9649H13.746C13.815 2.9649 13.871 3.02087 13.871 3.0899V9.6258C13.871 9.69483 13.815 9.7508 13.746 9.7508H12.5214C12.2587 9.7508 12.0456 9.96382 12.0456 10.2266C12.0456 10.4894 12.2587 10.7024 12.5214 10.7024H14.0464C14.4751 10.7024 14.8226 10.3549 14.8226 9.9262V2.7895C14.8226 2.36081 14.4751 2.0133 14.0464 2.0133H3.81883Z" fill="#2A3843"/>
</svg>
