<svg width="16" height="16" viewBox="0 0 16 16" fill="none" xmlns="http://www.w3.org/2000/svg">
<g clip-path="url(#clip0_1808_210)">
<path d="M12.2446 6.13065C11.816 5.58054 10.8373 5.45907 9.61075 5.87389C9.52378 5.16158 9.20282 4.30916 8.5692 3.85637C8.13711 3.47537 7.52903 3.42912 6.91404 3.72109C6.16238 4.07794 6.27834 5.02769 6.35841 6.07821C6.50336 7.26539 6.51855 8.17925 6.13409 8.78044C6.00088 8.67621 5.83177 8.67276 5.62678 8.77008L3.44015 9.80819C3.09849 9.97039 2.99081 10.2727 3.15301 10.6144L5.2941 15.1243C5.42386 15.3976 5.75862 15.5736 6.10028 15.4114L8.28691 14.3733C8.42358 14.3084 8.5278 14.1752 8.59958 13.9737C8.70036 14.0096 8.83702 13.9447 8.93779 13.9806C9.71499 14.0303 10.6288 14.0151 11.4488 13.6258C12.8155 12.977 13.1744 11.9693 13.26 11.0913C13.525 9.70946 13.1702 7.19843 12.2446 6.13065ZM7.28954 13.5071L6.05956 14.091L4.40508 10.6061L5.63506 10.0222L7.28954 13.5071ZM12.148 10.8656C11.9617 11.7077 11.7822 12.2115 10.9622 12.6008C10.4156 12.8603 9.63837 12.8107 8.96195 12.7968C8.69207 12.7575 8.3863 12.8189 8.2172 12.8155L6.78981 9.80887C7.82514 8.81494 7.62221 7.15288 7.47726 5.9657C7.45172 5.55916 7.3972 4.91518 7.46898 4.71363C7.74231 4.58387 7.87552 4.68809 7.97629 4.72398C8.47671 5.07255 8.65755 6.15896 8.61476 6.59794C8.6113 6.76705 8.64029 7.00448 8.87428 7.1446C9.10827 7.28471 9.27737 7.28817 9.48237 7.19084C10.7807 6.57447 11.3529 6.72149 11.4861 6.82571C11.9796 7.51248 12.3413 9.68531 12.148 10.8656Z" fill="#2A3843"/>
<path fill-rule="evenodd" clip-rule="evenodd" d="M6.69978 0.397268C6.97227 0.352505 7.22945 0.537115 7.27421 0.809605L7.55226 2.50218C7.59702 2.77467 7.41241 3.03185 7.13992 3.07661C6.86743 3.12138 6.61024 2.93677 6.56548 2.66428L6.28744 0.971704C6.24268 0.699214 6.42729 0.44203 6.69978 0.397268Z" fill="#2A3843"/>
<path fill-rule="evenodd" clip-rule="evenodd" d="M3.65536 2.78214C3.77123 2.53148 4.06836 2.42222 4.31902 2.53809L5.64177 3.14956C5.89243 3.26544 6.00169 3.56256 5.88582 3.81322C5.76995 4.06388 5.47282 4.17314 5.22216 4.05727L3.89941 3.4458C3.64875 3.32992 3.53949 3.0328 3.65536 2.78214Z" fill="#2A3843"/>
<path fill-rule="evenodd" clip-rule="evenodd" d="M3.95004 5.85706C3.87634 5.59094 4.03233 5.31546 4.29845 5.24176L5.06819 5.02859C5.33432 4.95489 5.6098 5.11088 5.6835 5.37701C5.7572 5.64313 5.60121 5.91861 5.33509 5.99231L4.56534 6.20548C4.29922 6.27918 4.02374 6.12319 3.95004 5.85706Z" fill="#2A3843"/>
<path fill-rule="evenodd" clip-rule="evenodd" d="M10.1637 1.65497C10.3853 1.81981 10.4312 2.13304 10.2664 2.35458L9.61029 3.23632C9.44545 3.45786 9.13222 3.50382 8.91068 3.33898C8.68913 3.17413 8.64317 2.8609 8.80802 2.63936L9.4641 1.75763C9.62894 1.53609 9.94217 1.49012 10.1637 1.65497Z" fill="#2A3843"/>
</g>
<defs>
<clipPath id="clip0_1808_210">
<rect width="16" height="16" fill="white"/>
</clipPath>
</defs>
</svg>
