<svg width="16" height="16" viewBox="0 0 16 16" fill="none" xmlns="http://www.w3.org/2000/svg">
<path fill-rule="evenodd" clip-rule="evenodd" d="M8.00001 2.39561C4.87817 2.39561 2.39562 4.87816 2.39562 7.99999C2.39562 11.1218 4.87817 13.6044 8.00001 13.6044C11.1218 13.6044 13.6044 11.1218 13.6044 7.99999C13.6044 4.877 11.0424 2.39561 8.00001 2.39561ZM3.81978 7.99999C3.81978 5.72072 5.72074 3.81976 8.00001 3.81976C10.2793 3.81976 12.1802 5.72072 12.1802 7.99999C12.1802 10.2793 10.2793 12.1802 8.00001 12.1802C5.72074 12.1802 3.81978 10.2793 3.81978 7.99999Z" fill="#2A3843"/>
<path fill-rule="evenodd" clip-rule="evenodd" d="M8.00001 1.19147C8.41422 1.19147 8.75001 1.52726 8.75001 1.94147L8.75001 4.14718C8.75001 4.56139 8.41422 4.89718 8.00001 4.89718C7.5858 4.89718 7.25001 4.56139 7.25001 4.14718L7.25001 1.94147C7.25001 1.52726 7.5858 1.19147 8.00001 1.19147Z" fill="#2A3843"/>
<path fill-rule="evenodd" clip-rule="evenodd" d="M8.00001 10.8033C8.41422 10.8033 8.75001 11.1391 8.75001 11.5533L8.75001 13.759C8.75001 14.1732 8.41422 14.509 8.00001 14.509C7.5858 14.509 7.25001 14.1732 7.25001 13.759L7.25001 11.5533C7.25001 11.1391 7.5858 10.8033 8.00001 10.8033Z" fill="#2A3843"/>
<path fill-rule="evenodd" clip-rule="evenodd" d="M8.00001 1.19147C8.41422 1.19147 8.75001 1.52726 8.75001 1.94147L8.75001 4.14718C8.75001 4.56139 8.41422 4.89718 8.00001 4.89718C7.5858 4.89718 7.25001 4.56139 7.25001 4.14718L7.25001 1.94147C7.25001 1.52726 7.5858 1.19147 8.00001 1.19147Z" fill="#2A3843"/>
<path fill-rule="evenodd" clip-rule="evenodd" d="M14.6588 7.85023C14.6588 8.26445 14.323 8.60023 13.9088 8.60023L11.7031 8.60023C11.2889 8.60023 10.9531 8.26445 10.9531 7.85023C10.9531 7.43602 11.2889 7.10023 11.7031 7.10023L13.9088 7.10023C14.323 7.10023 14.6588 7.43602 14.6588 7.85023Z" fill="#2A3843"/>
<path fill-rule="evenodd" clip-rule="evenodd" d="M8.00001 10.8033C8.41422 10.8033 8.75001 11.1391 8.75001 11.5533L8.75001 13.759C8.75001 14.1732 8.41422 14.509 8.00001 14.509C7.5858 14.509 7.25001 14.1732 7.25001 13.759L7.25001 11.5533C7.25001 11.1391 7.5858 10.8033 8.00001 10.8033Z" fill="#2A3843"/>
<path fill-rule="evenodd" clip-rule="evenodd" d="M5.04695 7.85023C5.04695 8.26445 4.71116 8.60023 4.29695 8.60023L2.09125 8.60023C1.67704 8.60023 1.34125 8.26445 1.34125 7.85023C1.34125 7.43602 1.67704 7.10023 2.09125 7.10023L4.29695 7.10023C4.71116 7.10023 5.04695 7.43602 5.04695 7.85023Z" fill="#2A3843"/>
</svg>
