<svg width="16" height="16" viewBox="0 0 16 16" fill="none" xmlns="http://www.w3.org/2000/svg">
<path d="M11.3654 6.32692V5.46154C11.3654 3.53846 9.82692 2 7.90385 2C5.98077 2 4.44231 3.53846 4.44231 5.46154V6.32692C3.67308 6.42308 3 7.09615 3 7.96154V12.0962C3 13.0577 3.76923 13.8269 4.73077 13.8269H11.2692C12.2308 13.8269 13 13.0577 13 12.0962V7.96154C12.9038 7.09615 12.2308 6.42308 11.3654 6.32692ZM8 3.44231C9.05769 3.44231 10.0192 4.30769 10.0192 5.46154V6.32692H5.98077V5.46154C5.98077 4.30769 6.84615 3.44231 8 3.44231ZM11.4615 12.1923C11.4615 12.2885 11.3654 12.4808 11.1731 12.4808H4.73077C4.63462 12.4808 4.44231 12.3846 4.44231 12.1923V7.96154C4.44231 7.86538 4.53846 7.76923 4.73077 7.76923H11.2692C11.3654 7.76923 11.5577 7.86538 11.5577 8.05769V12.1923H11.4615Z" fill="#2A3843"/>
</svg>
