<svg width="16" height="16" viewBox="0 0 16 16" fill="none" xmlns="http://www.w3.org/2000/svg">
<path d="M14.8 8.2C14.8 8.1 14.9 8 14.9 7.9C14.9 7.8 14.9 7.7 14.8 7.6C14.8 7.6 14.8 7.5 14.7 7.5C14.7 7.5 14.7 7.4 14.6 7.4L13 5.5C12.7 5.2 12.3 5.1 11.9 5.4C11.6 5.7 11.5 6.1 11.8 6.5L12.4 7.2H9.60002C9.20002 7.2 8.90002 7.5 8.90002 8C8.90002 8.4 9.20002 8.7 9.70002 8.7H12.5L11.9 9.4C11.6 9.7 11.7 10.2 12 10.5C12.1 10.6 12.3 10.7 12.5 10.7C12.7 10.7 12.9 10.6 13.1 10.4L14.7 8.5C14.7 8.3 14.7 8.3 14.8 8.2C14.8 8.2 14.7 8.2 14.8 8.2Z" fill="#2A3843"/>
<path d="M3.3 8.7H6.1C6.5 8.7 6.8 8.4 6.8 7.9C6.8 7.5 6.5 7.2 6 7.2H3.2L3.8 6.5C4.1 6.2 4 5.7 3.7 5.4C3.5 5.1 3 5.2 2.7 5.5L1.2 7.5C1.2 7.5 1.2 7.6 1.1 7.6V7.7C1 7.8 1 7.8 1 7.9C1 8 1 8.1 1.1 8.2C1.1 8.2 1.1 8.3 1.2 8.3C1.2 8.3 1.2 8.4 1.3 8.4L2.9 10.3C3 10.5 3.3 10.6 3.5 10.6C3.7 10.6 3.8 10.5 4 10.4C4.3 10.1 4.4 9.7 4.1 9.3L3.3 8.7Z" fill="#2A3843"/>
<path d="M9.40001 11.9L8.70001 12.5V9.7C8.70001 9.3 8.40001 9 7.90001 9C7.50001 9 7.20001 9.3 7.20001 9.8V12.6L6.50001 12C6.20001 11.7 5.70001 11.8 5.40001 12.1C5.10001 12.4 5.20001 12.9 5.50001 13.2L7.40001 14.8C7.40001 14.8 7.50001 14.8 7.50001 14.9C7.50001 14.9 7.60001 14.9 7.60001 15C7.70001 15 7.80001 15.1 7.90001 15.1C8.00001 15.1 8.10001 15.1 8.10001 15C8.10001 15 8.20001 15 8.20001 14.9C8.20001 14.9 8.30001 14.9 8.30001 14.8L10.2 13.2C10.5 12.9 10.6 12.5 10.3 12.1C10.2 11.7 9.70001 11.6 9.40001 11.9Z" fill="#2A3843"/>
<path d="M6.00001 4.1C6.20001 4.1 6.30001 4 6.50001 3.9L7.20001 3.3V6.1C7.20001 6.5 7.50001 6.8 8.00001 6.8C8.40001 6.8 8.70001 6.5 8.70001 6V3.2L9.40001 3.8C9.70001 4.1 10.2 4 10.5 3.7C10.7 3.5 10.6 3 10.3 2.7L8.40001 1.2C8.20001 1.1 8.10001 1 7.90001 1C7.80001 1 7.70001 1 7.60001 1.1C7.60001 1.1 7.50001 1.1 7.50001 1.2C7.50001 1.2 7.40001 1.2 7.40001 1.3L5.50001 2.8C5.20001 3 5.10001 3.5 5.40001 3.8C5.60001 4 5.80001 4.1 6.00001 4.1Z" fill="#2A3843"/>
</svg>
