<svg width="16" height="16" viewBox="0 0 16 16" fill="none" xmlns="http://www.w3.org/2000/svg">
<path d="M14.2 10.6C14.1 10.5 14 10.5 13.9 10.4C13.5 10.2 12.8 9.7 12.8 8.2C12.8 5 11.6 3 9.60002 2.4V2.1C9.60002 1.5 9.00002 1 8.20002 1C7.40002 1 6.90002 1.5 6.90002 2.1V2.3C4.80002 3 3.70002 5 3.70002 8.2C3.70002 9.7 3.00002 10.2 2.60002 10.4C2.50002 10.4 2.40002 10.5 2.30002 10.6C2.00002 10.9 1.90002 11.3 2.10002 11.7C2.40002 12.4 3.80002 12.8 5.20002 13C5.20002 13 5.20002 13 5.20002 13.1C5.60002 14.5 6.80002 15.4 8.30002 15.4C9.80002 15.4 11 14.5 11.4 13.1C11.4 13.1 11.4 13.1 11.4 13C12.8 12.8 14.2 12.4 14.5 11.7C14.6 11.3 14.5 10.9 14.2 10.6ZM8.20002 13.9C7.60002 13.9 7.10002 13.6 6.80002 13.2C7.50002 13.2 8.10002 13.2 8.20002 13.2C8.30002 13.2 8.80002 13.2 9.60002 13.2C9.30002 13.6 8.80002 13.9 8.20002 13.9ZM8.20002 11.7C6.30002 11.7 4.70002 11.4 3.90002 11.2C4.50002 10.7 5.10002 9.8 5.10002 8.2C5.10002 5.2 6.10002 3.7 8.10002 3.7C10.1 3.7 11.1 5.2 11.1 8.2C11.1 9.8 11.8 10.7 12.3 11.2C11.7 11.4 10.2 11.7 8.20002 11.7Z" fill="#2A3843"/>
</svg>
