<svg width="16" height="16" viewBox="0 0 16 16" fill="none" xmlns="http://www.w3.org/2000/svg">
<path d="M7.99996 2.02831C5.55658 2.0283 4.94346 2.40913 4.94346 2.40913L6.22551 4.05613L5.59477 7.91348C5.59477 7.91348 3.60809 8.43449 3.60809 9.90101C3.60809 9.90101 3.98095 10.7661 7.99996 10.7661" stroke="#2A3843" stroke-width="1.5" stroke-linejoin="round"/>
<path d="M8.00004 2.02831C10.4434 2.0283 11.0565 2.40913 11.0565 2.40913L9.77449 4.05613L10.4052 7.91348C10.4052 7.91348 12.3919 8.43449 12.3919 9.90101C12.3919 9.90101 12.0191 10.7661 8.00004 10.7661" stroke="#2A3843" stroke-width="1.5" stroke-linejoin="round"/>
<path d="M7.25 13.9717C7.25 14.3859 7.58579 14.7217 8 14.7217C8.41421 14.7217 8.75 14.3859 8.75 13.9717H7.25ZM7.25 11.3037V13.9717H8.75V11.3037H7.25Z" fill="#2A3843"/>
</svg>
