<svg width="16" height="16" viewBox="0 0 16 16" fill="none" xmlns="http://www.w3.org/2000/svg">
<path d="M14.2025 6.13924H13.9367L11.8987 2.77215V1.70886C11.8987 1.26582 11.6329 1 11.1899 1H9.86076C9.50633 1 9.24051 1.26582 9.24051 1.70886V2.06329L4.89873 3.12658C4.81013 3.03797 4.63291 3.03797 4.5443 3.03797H3.21519C2.86076 3.03797 2.50633 3.3038 2.50633 3.65823V4.98734C2.50633 5.25316 2.59494 5.43038 2.77215 5.51899L1.88608 9.24051H1.70886C1.26582 9.24051 1 9.50633 1 9.86076V11.1899C1 11.5443 1.26582 11.8987 1.70886 11.8987H2.77215L7.55696 14.0253C7.55696 14.3797 7.91139 14.6456 8.17722 14.6456H9.50633C9.86076 14.6456 10.2152 14.3797 10.2152 13.9367V13.7595L13.9367 8.88608H14.2911C14.6456 8.88608 15 8.62025 15 8.17722V6.8481C14.9114 6.49367 14.6456 6.13924 14.2025 6.13924ZM3.21519 9.24051L4.18987 5.6962H4.5443C4.89873 5.6962 5.25316 5.43038 5.25316 4.98734V4.4557L9.41772 3.39241C9.50633 3.48101 9.68354 3.65823 9.86076 3.65823H10.8354L12.519 6.31646C12.3418 6.40506 12.2532 6.58228 12.2532 6.8481V8.17722C12.2532 8.35443 12.3418 8.53165 12.4304 8.62025L9.86076 12.0759C9.77215 11.9873 9.68354 11.9873 9.59494 11.9873H8.17722C7.82278 11.9873 7.55696 12.2532 7.55696 12.6076L3.65823 10.8354V9.86076C3.65823 9.59494 3.48101 9.32911 3.21519 9.24051Z" fill="#2A3843"/>
</svg>
