<svg width="16" height="16" viewBox="0 0 16 16" fill="none" xmlns="http://www.w3.org/2000/svg">
<path d="M2.5 2.55666C2.5 2.00437 2.94772 1.55666 3.5 1.55666H12.5C13.0523 1.55666 13.5 2.00437 13.5 2.55666V7.55666C13.5 8.10894 13.0523 8.55666 12.5 8.55666H3.5C2.94771 8.55666 2.5 8.10894 2.5 7.55666V2.55666Z" fill="#2A3843"/>
<path fill-rule="evenodd" clip-rule="evenodd" d="M3.25 10.3268C3.25 9.9126 3.58579 9.57681 4 9.57681H12C12.4142 9.57681 12.75 9.9126 12.75 10.3268C12.75 10.741 12.4142 11.0768 12 11.0768H4C3.58579 11.0768 3.25 10.741 3.25 10.3268Z" fill="#2A3843"/>
<path fill-rule="evenodd" clip-rule="evenodd" d="M4.75 12.6427C4.75 12.2285 5.08579 11.8927 5.5 11.8927H10.5C10.9142 11.8927 11.25 12.2285 11.25 12.6427C11.25 13.0569 10.9142 13.3927 10.5 13.3927H5.5C5.08579 13.3927 4.75 13.0569 4.75 12.6427Z" fill="#2A3843"/>
</svg>
