<svg width="16" height="16" viewBox="0 0 16 16" fill="none" xmlns="http://www.w3.org/2000/svg">
<path d="M2.5 8.02939C2.5 7.4771 2.94772 7.02939 3.5 7.02939H12.5C13.0523 7.02939 13.5 7.4771 13.5 8.02939V13.0294C13.5 13.5817 13.0523 14.0294 12.5 14.0294H3.5C2.94771 14.0294 2.5 13.5817 2.5 13.0294V8.02939Z" fill="#2A3843"/>
<path fill-rule="evenodd" clip-rule="evenodd" d="M3.25 2.97061C3.25 2.5564 3.58579 2.22061 4 2.22061H12C12.4142 2.22061 12.75 2.5564 12.75 2.97061C12.75 3.38483 12.4142 3.72061 12 3.72061H4C3.58579 3.72061 3.25 3.38483 3.25 2.97061Z" fill="#2A3843"/>
<path fill-rule="evenodd" clip-rule="evenodd" d="M4.75 5.2865C4.75 4.87229 5.08579 4.5365 5.5 4.5365H10.5C10.9142 4.5365 11.25 4.87229 11.25 5.2865C11.25 5.70071 10.9142 6.0365 10.5 6.0365H5.5C5.08579 6.0365 4.75 5.70071 4.75 5.2865Z" fill="#2A3843"/>
</svg>
