<svg width="16" height="16" viewBox="0 0 16 16" fill="none" xmlns="http://www.w3.org/2000/svg">
<path d="M10.9045 11.4598C10.6856 11.2987 10.3967 11.2687 10.1493 11.3813C9.90195 11.4939 9.73487 11.7315 9.71258 12.0024C9.6604 12.6365 9.50569 13.0571 9.32328 13.341C9.14397 13.62 8.91375 13.805 8.64457 13.9339C8.06431 14.2118 7.33386 14.2241 6.5917 14.2241H6.58707H6.58244H6.57781H6.57317H6.56852H6.56387H6.55922H6.55456H6.5499H6.54523H6.54056H6.53588H6.5312H6.52651H6.52182H6.51712H6.51242H6.50772H6.50301H6.4983H6.49358H6.48886H6.48413H6.4794H6.47467H6.46993H6.46519H6.46044H6.45569H6.45093H6.44617H6.44141H6.43664H6.43187H6.42709H6.42231H6.41752H6.41274H6.40794H6.40315H6.39835H6.39354H6.38873H6.38392H6.3791H6.37428H6.36946H6.36463H6.3598H6.35497H6.35013H6.34529H6.34044H6.33559H6.33074H6.32588H6.32102H6.31615H6.31128H6.30641H6.30154H6.29666H6.29178H6.28689H6.282H6.27711H6.27221H6.26731H6.26241H6.25751H6.2526H6.24768H6.24277H6.23785H6.23293H6.228H6.22307H6.21814H6.21321H6.20827H6.20333H6.19838H6.19344H6.18848H6.18353H6.17857H6.17362H6.16865H6.16369H6.15872H6.15375H6.14877H6.1438H6.13882H6.13384H6.12885H6.12386H6.11887H6.11388H6.10888H6.10388H6.09888H6.09388H6.08887H6.08386H6.07885H6.07384H6.06882H6.0638H6.05878H6.05375H6.04873H6.0437H6.03867H6.03363H6.0286H6.02356H6.01852H6.01347H6.00843H6.00338H5.99833H5.99328H5.98822H5.98317H5.97811H5.97305H5.96798H5.96292H5.95785H5.95278H5.94771H5.94264H5.93756H5.93249H5.92741H5.92233H5.91724H5.91216H5.90707H5.90198H5.89689H5.8918H5.88671H5.88161H5.87652H5.87142H5.86632H5.86121H5.85611H5.851H5.8459H5.84079H5.83568H5.83057H5.82545H5.82034H5.81522H5.81011H5.80499H5.79987H5.79475H5.78962H5.7845H5.77937H5.77425H5.76912H5.76399H5.75886H5.75373H5.74859H5.74346H5.73832H5.73319H5.72805H5.72291H5.71777H5.71263H5.70749H5.70235H5.6972H5.69206H5.68691H5.68177H5.67662H5.67147H5.66632H5.66117H5.65602H5.65087H5.64572H5.64056H5.63541H5.63026H5.6251H5.61995H5.61479H5.60963H5.60447H5.59932H5.59416H5.589H5.58384H5.57868H5.57352H5.56836H5.5632H5.55803H5.55287H5.54771H5.54255H5.53738H5.53222H5.52706H5.52189H5.51673H5.51156H5.5064H5.50124H5.49607H5.49091H5.48574H5.48058H5.47541H5.47025H5.46508H5.45992H5.45475H5.44958H5.44442H5.43925H5.43409H5.42893H5.42376H5.4186H5.41343H5.40827H5.40311H5.39794H5.39278H5.38762H5.38245H5.37729H5.37213H5.36697H5.36181H5.35665H5.35149H5.34633H5.34117H5.33601H5.33085H5.3257H5.32054H5.31538H5.31023H5.30507H5.29992H5.29476H5.28961H5.28446H5.27931H5.27416H5.26901H5.26386H5.25871H5.25356H5.24842H5.24327H5.23813H5.23298H5.22784H5.2227H5.21756H5.21242H5.20728H5.20214H5.19701H5.19187H5.18674H5.18161H5.17647H5.17134H5.16622H5.16109H5.15596H5.15084H5.14571H5.14059H5.13547H5.13035H5.12523H5.12011H5.115H5.10988H5.10477H5.09966H5.09455H5.08944H5.08433H5.07923H5.07412H5.06902H5.06392H5.05882H5.05373H5.04863H5.04354H5.03845H5.03336H5.02827H5.02318H5.0181H5.01302H5.00794H5.00286H4.99778H4.99271H4.98763H4.98256H4.97749H4.97243H4.96736H4.9623H4.95724H4.95218H4.94713H4.94207H4.93702H4.93197H4.92692H4.92188H4.91684H4.91179H4.90676H4.90172H4.89669H4.89166H4.88663H4.8816H4.87658H4.87156H4.86654H4.86152H4.85651H4.8515H4.84649H4.84148H4.83648H4.83148H4.82648H4.82148H4.81649H4.8115H4.80651H4.80153H4.79655H4.79157H4.78659H4.78162H4.77665H4.77168H4.76671H4.76175H4.75679H4.75184H4.74688H4.74193H4.73699H4.73204H4.7271H4.72217H4.71723H4.7123H4.70737H4.70245H4.69753H4.69261H4.68769H4.68278H4.67787H4.67297H4.66806H4.66317H4.65827H4.65338H4.64849H4.64361H4.63872H4.63385H4.62897H4.6241H4.61923H4.61437H4.60951H4.60465H4.5998H4.59495H4.59011H4.58526H4.58043H4.57559H4.57076H4.56593H4.56111H4.55629H4.55148H4.54666H4.54186H4.53705H4.53225H4.52746H4.52267H4.51788H4.51309H4.50832H4.50354H4.49877H4.494H4.48924H4.48448H4.47972H4.47497H4.47023H4.46548H4.46075H4.45601H4.45128H4.44656H4.44184H4.43712H4.43241H4.4277H4.423H4.4183H4.4136H4.40891H4.40423H4.39955H4.39487H4.3902H4.38553H4.38087H4.37621H4.37156H4.36691H4.36227H4.35763H4.35299H4.34836H4.34374H4.33912H4.3345H4.32989H4.32529H4.32069H4.31609H4.3115H4.30692H4.30234H4.29776H4.29319H4.28862H4.28406H4.27951H4.27496H4.27041H4.26587H4.26134H4.25681H4.25228H4.24776H4.24325H4.23874H4.23424H4.22974H4.22525H4.22076H4.21628H4.2118H4.20733H4.20287H4.19841H4.19395H4.1895H4.18506H4.18062H4.17619H4.17176H4.16734H4.16292H4.15851H4.15411H4.14971H4.14532H4.14093H4.13655H4.13218H4.12781H4.12344H4.11908H4.11473H4.11039H4.10605H4.10171H4.09738H4.09306H4.08874H4.08443H4.08013H4.07583H4.07154C3.93388 14.2241 3.82196 14.1126 3.82196 13.9741V1.88914C3.82196 1.75107 3.93389 1.63914 4.07196 1.63914H12.7822C12.9208 1.63914 13.0322 1.75106 13.0322 1.88857V1.89577V1.903V1.91026V1.91753V1.92483V1.93215V1.9395V1.94687V1.95426V1.96167V1.96911V1.97657V1.98405V1.99156V1.99908V2.00664V2.01421V2.0218V2.02942V2.03706V2.04473V2.05241V2.06012V2.06785V2.07561V2.08338V2.09118V2.099V2.10685V2.11471V2.1226V2.13051V2.13844V2.1464V2.15437V2.16237V2.17039V2.17844V2.1865V2.19459V2.2027V2.21083V2.21898V2.22715V2.23535V2.24357V2.25181V2.26007V2.26835V2.27666V2.28498V2.29333V2.3017V2.31009V2.3185V2.32694V2.33539V2.34387V2.35237V2.36089V2.36943V2.37799V2.38658V2.39518V2.40381V2.41246V2.42113V2.42982V2.43853V2.44726V2.45601V2.46479V2.47358V2.4824V2.49124V2.50009V2.50897V2.51787V2.52679V2.53573V2.5447V2.55368V2.56268V2.57171V2.58075V2.58982V2.5989V2.60801V2.61714V2.62628V2.63545V2.64464V2.65385V2.66308V2.67233V2.68159V2.69088V2.70019V2.70952V2.71888V2.72825V2.73764V2.74705V2.75648V2.76593V2.7754V2.78489V2.7944V2.80393V2.81348V2.82305V2.83264V2.84225V2.85188V2.86153V2.8712V2.88089V2.8906V2.90032V2.91007V2.91984V2.92963V2.93943V2.94926V2.9591V2.96897V2.97885V2.98875V2.99867V3.00861V3.01858V3.02856V3.03855V3.04857V3.05861V3.06867V3.07874V3.08884V3.09895V3.10908V3.11923V3.1294V3.13959V3.1498V3.16003V3.17027V3.18054V3.19082V3.20112V3.21144V3.22178V3.23214V3.24251V3.25291V3.26332V3.27375V3.2842V3.29467V3.30516V3.31566V3.32618V3.33673V3.34729V3.35786V3.36846V3.37908V3.38971V3.40036V3.41103V3.42171V3.43242V3.44314V3.45388V3.46464V3.47542V3.48621V3.49703V3.50786V3.5187V3.52957V3.54045V3.55135V3.56227V3.57321V3.58416V3.59514V3.60612V3.61713V3.62816V3.6392V3.65026V3.66133V3.67243V3.68354V3.69467V3.70581V3.71697V3.72815V3.73935V3.75057V3.7618V3.77305V3.78431V3.79559V3.80689V3.81821V3.82954V3.84089V3.85226V3.86364V3.87505V3.88646V3.8979V3.90935V3.92082V3.9323V3.9438V3.95532V3.96685V3.9784V3.98997V4.00156V4.01316V4.02477V4.03641V4.04805V4.05972V4.0714V4.0831V4.09481V4.10655V4.11829V4.13006V4.14183V4.15363V4.16544V4.17727V4.18911V4.20097V4.21285V4.22474V4.23664V4.24857V4.2605V4.27246V4.28443V4.29641V4.30842V4.32043V4.33247V4.34451V4.35658V4.36866V4.38075V4.39286V4.40499V4.41713V4.42929V4.44146V4.45365V4.46585V4.47807V4.4903V4.50255V4.51481V4.52709V4.53938V4.55169V4.56402V4.57636V4.58871V4.60108V4.61346V4.62586V4.63827V4.6507V4.66315V4.6756V4.68808V4.70056V4.71307V4.72558V4.73812V4.75066V4.76322V4.7758V4.78839V4.80099V4.81361V4.82624V4.83889V4.85155V4.86423V4.87692V4.88962V4.90234V4.91507V4.92782V4.94058V4.95336V4.96615V4.97895V4.99177V5.0046V5.01745V5.03031V5.04318V5.05607V5.06897V5.08188V5.09481V5.10775V5.12071V5.13368V5.14666V5.15966V5.17267V5.1857V5.19873V5.21179V5.22485V5.23793V5.25102V5.26413V5.27724V5.29038V5.30352V5.31668V5.32985V5.34304V5.35623V5.36944V5.38267V5.39591V5.40916V5.42242V5.4357V5.44899V5.46229V5.4756V5.48893V5.50227V5.51563V5.52899V5.54237V5.55576V5.56917V5.58258V5.59601V5.60946V5.62291V5.63638V5.64986V5.66335V5.67686V5.69038V5.70391V5.71745V5.731V5.74457V5.75815V5.77174V5.78534V5.79896V5.81259V5.82623V5.83988V5.85354V5.86722V5.88091V5.89461V5.90832V5.92204V5.93578V5.94953V5.96329V5.97706V5.99084V6.00463V6.01844V6.03226V6.04609V6.05993V6.07378V6.08765V6.10152V6.11541V6.12931V6.14322V6.15714V6.17107V6.18502V6.19898V6.21294V6.22692V6.24091V6.25491V6.26892V6.28294V6.29698V6.31102V6.32508V6.33915V6.35322V6.36731V6.38141V6.39552V6.40964V6.42378V6.43792V6.45207V6.46624V6.48041V6.4946V6.5088V6.523V6.53722V6.55145V6.56569V6.57994V6.5942V6.60847V6.62275V6.63704V6.65134V6.66565V6.67997V6.6943V6.70865V6.723V6.73736V6.75173V6.76612V6.78051V6.79491V6.80932V6.82375V6.83818V6.85262V6.86708V6.88154V6.89601V6.91049V6.92498V6.93948V6.954V6.96852V6.98305V6.99759V7.01214V7.0267V7.04126V7.05584V7.07043V7.08503V7.09963V7.11425V7.12887V7.14351V7.15815V7.1728V7.18747V7.20214V7.21682V7.23151V7.24621V7.26091V7.27563V7.29036V7.30509V7.31983V7.33459V7.34935V7.36412V7.3789V7.39368V7.40848V7.42329V7.4381V7.45292V7.46775V7.48259V7.49744V7.5123V7.52716V7.54204V7.55692V7.57181V7.58671V7.60162V7.61653V7.63146V7.64639V7.66133V7.67628V7.69124V7.7062V7.72118V7.73616V7.75115V7.76614V7.78115V7.79616V7.81118V7.82621V7.84125V7.8563V7.87135V7.88641V7.90148V7.91655V7.93164C13.0322 8.89852 13.003 9.74122 12.92 10.4312C12.8349 11.1383 12.7016 11.6038 12.5449 11.8709C12.4721 11.995 12.4106 12.0476 12.3735 12.0704C12.3429 12.0892 12.2984 12.1074 12.2111 12.1043C11.9969 12.0964 11.5845 11.96 10.9045 11.4598Z" stroke="#2A3843" stroke-width="1.5" stroke-linecap="round" stroke-linejoin="round"/>
<rect x="2.2179" y="3.55889" width="3.20207" height="1.60103" rx="0.800517" fill="#2A3843"/>
<rect x="2.2179" y="10.4391" width="3.20207" height="1.60103" rx="0.800517" fill="#2A3843"/>
<rect x="2.2179" y="6.99898" width="3.20207" height="1.60103" rx="0.800517" fill="#2A3843"/>
<path fill-rule="evenodd" clip-rule="evenodd" d="M6.03033 5.57498C6.03033 5.11714 6.40149 4.74598 6.85933 4.74598H10.4835C10.9414 4.74598 11.3125 5.11714 11.3125 5.57498C11.3125 6.03283 10.9414 6.40398 10.4835 6.40398H6.85933C6.40149 6.40398 6.03033 6.03283 6.03033 5.57498Z" fill="#2A3843"/>
</svg>
