<svg width="16" height="16" viewBox="0 0 16 16" fill="none" xmlns="http://www.w3.org/2000/svg">
<path fill-rule="evenodd" clip-rule="evenodd" d="M5.858 6.64679C6.27222 6.64679 6.608 6.98258 6.608 7.39679L6.608 10.6025C6.608 11.0167 6.27222 11.3525 5.858 11.3525C5.44379 11.3525 5.108 11.0167 5.108 10.6025L5.108 7.39679C5.108 6.98258 5.44379 6.64679 5.858 6.64679Z" fill="#2A3843"/>
<path fill-rule="evenodd" clip-rule="evenodd" d="M8.67906 2.44443C9.09327 2.44443 9.42906 2.78021 9.42906 3.19443L9.42906 10.6025C9.42906 11.0167 9.09327 11.3525 8.67906 11.3525C8.26484 11.3525 7.92906 11.0167 7.92906 10.6025L7.92906 3.19443C7.92906 2.78021 8.26484 2.44443 8.67906 2.44443Z" fill="#2A3843"/>
<path fill-rule="evenodd" clip-rule="evenodd" d="M11.5001 4.91562C11.9143 4.91562 12.2501 5.25141 12.2501 5.66562L12.2501 10.6025C12.2501 11.0167 11.9143 11.3525 11.5001 11.3525C11.0859 11.3525 10.7501 11.0167 10.7501 10.6025L10.7501 5.66562C10.7501 5.25141 11.0859 4.91562 11.5001 4.91562Z" fill="#2A3843"/>
<path fill-rule="evenodd" clip-rule="evenodd" d="M14.4357 12.8056C14.4357 13.2198 14.0999 13.5556 13.6857 13.5556L4.124 13.5556C3.15751 13.5556 2.374 12.7721 2.374 11.8056L2.37401 3.19443C2.37401 2.78021 2.70979 2.44443 3.12401 2.44443C3.53822 2.44443 3.87401 2.78021 3.87401 3.19443L3.874 11.8056C3.874 11.9436 3.98593 12.0556 4.124 12.0556L13.6857 12.0556C14.0999 12.0556 14.4357 12.3913 14.4357 12.8056Z" fill="#2A3843"/>
</svg>
