<svg width="16" height="16" viewBox="0 0 16 16" fill="none" xmlns="http://www.w3.org/2000/svg">
<path d="M7.99999 1.04958C4.12761 1.04958 1.04956 4.12762 1.04956 8C1.04956 11.8724 4.12761 14.9504 7.99999 14.9504C11.8724 14.9504 14.9504 11.8724 14.9504 8C14.9504 4.12762 11.7731 1.04958 7.99999 1.04958ZM7.99999 13.4611C5.02123 13.4611 2.53894 10.9788 2.53894 8C2.53894 5.02125 5.02123 2.53895 7.99999 2.53895C10.9787 2.53895 13.461 5.02125 13.461 8C13.461 10.9788 10.9787 13.4611 7.99999 13.4611Z" fill="#2A3843"/>
<path d="M8.00171 4.02249C6.56107 4.02249 5.42914 5.15442 5.42914 6.59506C5.42914 7.00667 5.73785 7.41829 6.25236 7.41829C6.76688 7.41829 6.97268 7.00667 6.97268 6.59506C6.97268 5.97765 7.4872 5.56603 8.00171 5.56603C8.51622 5.56603 9.03074 6.08055 9.03074 6.59506C9.03074 7.00667 8.92784 7.10958 8.51622 7.31538C8.00171 7.52119 7.17849 7.84299 7.17849 9.07782C7.17849 9.48943 7.4872 9.90105 8.00171 9.90105C8.51622 9.90105 8.72203 9.48943 8.72203 9.07782C8.72203 8.87202 8.72203 8.85893 9.13364 8.65312C9.64816 8.34441 10.4714 7.9328 10.4714 6.59506C10.5743 5.15442 9.44235 4.02249 8.00171 4.02249Z" fill="#2A3843"/>
<circle cx="7.9535" cy="11.1837" r="0.927006" fill="#2A3843"/>
</svg>
