<svg width="16" height="16" viewBox="0 0 16 16" fill="none" xmlns="http://www.w3.org/2000/svg">
<path fill-rule="evenodd" clip-rule="evenodd" d="M2 8C2 4.68966 4.68966 2 8 2C11.2069 2 14 4.68966 14 8C14 11.3103 11.3103 14 8 14C4.68966 14 2 11.3103 2 8ZM3.55172 7.89655C3.55172 10.3793 5.62069 12.3448 8 12.3448C8.92651 12.3448 9.79028 12.0625 10.4997 11.5711L4.31345 5.38483C3.83157 6.09656 3.55172 6.95973 3.55172 7.89655ZM11.564 10.5141C12.0553 9.81427 12.3448 8.95284 12.3448 8C12.3448 5.51724 10.4828 3.44828 8 3.44828C7.00359 3.44828 6.0905 3.76485 5.35433 4.30439L11.564 10.5141Z" fill="#2A3843"/>
</svg>
