<svg width="16" height="16" viewBox="0 0 16 16" fill="none" xmlns="http://www.w3.org/2000/svg">
<path d="M15.1 7.9C15.1 7.8 15 7.8 15 7.7C15 7.7 15 7.6 14.9 7.6L12.1 4.5C11.6 4 10.9 3.9 10.3 4.4C9.80004 4.8 9.80004 5.5 10.2 6.1L12.2 8.4L10.2 10.7C9.80004 11.2 9.80004 12 10.3 12.4C10.5 12.6 10.8 12.7 11.1 12.7C11.4 12.7 11.8 12.6 12 12.3L14.8 9.2L14.9 9.1C15 9 15 8.9 15.1 8.8C15.1 8.7 15.1 8.7 15.2 8.6C15.2 8.5 15.2 8.4 15.2 8.4V8.2C15.1 8.1 15.1 8 15.1 7.9Z" fill="#2A3843"/>
<path d="M1.1 8.8C1.1 8.9 1.2 8.9 1.2 9C1.2 9 1.2 9.1 1.3 9.1L4.1 12.2C4.6 12.7 5.3 12.8 5.9 12.3C6.3 12 6.4 11.2 5.9 10.7L3.9 8.4L5.9 6.1C6.4 5.6 6.3 4.8 5.8 4.3C5.6 4.1 5.3 4 5 4C4.6 4 4.3 4.1 4.1 4.4L1.3 7.6L1.2 7.7C1.2 7.8 1.1 7.8 1.1 7.9C1.1 8 1 8.1 1 8.1C1 8.2 1 8.3 1 8.3V8.5C1 8.7 1.1 8.8 1.1 8.8Z" fill="#2A3843"/>
</svg>
