<svg width="16" height="16" viewBox="0 0 16 16" fill="none" xmlns="http://www.w3.org/2000/svg">
<path d="M13.0661 3H2.79247C2.2736 3 1.96228 3.31132 1.96228 3.83019V4.86792C1.96228 5.28302 2.2736 5.69811 2.79247 5.69811C3.31134 5.69811 3.62266 5.38679 3.62266 4.86792V4.5566H7.15096V12.3396H5.49058C4.97171 12.3396 4.66039 12.7547 4.66039 13.1698C4.66039 13.5849 4.97171 14 5.49058 14H10.6793C11.0944 14 11.5094 13.6887 11.5094 13.1698C11.5094 12.6509 11.0944 12.3396 10.6793 12.3396H8.70756V4.5566H12.3396V4.86792C12.3396 5.28302 12.651 5.69811 13.1698 5.69811C13.6887 5.69811 14 5.38679 14 4.86792V3.83019C13.7925 3.31132 13.4811 3 13.0661 3Z" fill="#2A3843"/>
</svg>
