<svg width="16" height="16" viewBox="0 0 16 16" fill="none" xmlns="http://www.w3.org/2000/svg">
<path d="M13.8 9.6L11.8 9.3C11.4 9.3 11.1 9.6 11 10C10.9 10.4 11.2 10.8 11.6 10.8L13 11V12.4H3.5V11L4.9 10.8C5.3 10.8 5.5 10.4 5.5 10C5.5 9.6 5.1 9.3 4.6 9.3L2.6 9.6C2.3 9.7 2 10 2 10.3V13.1C2 13.5 2.3 13.9 2.8 13.9H13.8C14.2 13.9 14.6 13.6 14.6 13.1V10.3C14.5 10 14.2 9.7 13.8 9.6Z" fill="#2A3843"/>
<path d="M5.19996 6C5.39996 6 5.49996 6 5.69996 5.8L7.49996 4.3V9.6C7.49996 10 7.79996 10.3 8.29996 10.3C8.69996 10.4 8.99996 10.1 8.99996 9.6V4.3L10.8 5.8C11.1 6 11.6 6 11.8 5.7C12.1 5.4 12 4.9 11.7 4.6L8.69996 2.2C8.49996 2.1 8.39996 2 8.19996 2C8.09996 2 7.99996 2 7.89996 2.1C7.89996 2.1 7.79996 2.1 7.79996 2.2C7.79996 2.2 7.69996 2.2 7.69996 2.3L4.69996 4.8C4.39996 4.9 4.39996 5.4 4.59996 5.7C4.79996 5.9 4.99996 6 5.19996 6Z" fill="#2A3843"/>
</svg>
