<svg width="16" height="16" viewBox="0 0 16 16" fill="none" xmlns="http://www.w3.org/2000/svg">
<g clip-path="url(#clip0_168_550)">
<path d="M14.8328 7.46694L11.7314 3.784C11.4406 3.49324 11.053 3.39632 10.6653 3.68708C10.4714 3.97784 10.3745 4.46244 10.6653 4.75319L13.379 7.95154L10.6653 11.2468C10.3745 11.5376 10.4714 12.0222 10.7622 12.3129C10.8591 12.4098 11.053 12.5068 11.2468 12.5068C11.4406 12.5068 11.6345 12.4098 11.8283 12.216L14.9297 8.53305C15.1236 8.14538 15.1236 7.7577 14.8328 7.46694Z" fill="#2A3843"/>
<path d="M5.23779 3.68708C4.94703 3.49324 4.46243 3.49324 4.26859 3.784L1.16717 7.46694C0.97333 7.7577 0.97333 8.14538 1.16717 8.43613L4.26859 12.1191C4.36551 12.3129 4.65627 12.4098 4.85011 12.4098C5.04395 12.4098 5.14087 12.3129 5.33471 12.216C5.62546 11.9252 5.72238 11.5376 5.43163 11.1499L2.62096 7.95154L5.33471 4.75319C5.62546 4.46244 5.62546 3.97784 5.23779 3.68708Z" fill="#2A3843"/>
<path d="M9.50223 2.3302C9.11456 2.23328 8.62996 2.52404 8.53304 2.91172L6.01313 12.7006C5.91621 13.0883 6.11005 13.4759 6.49773 13.5729C6.59465 13.5729 6.59465 13.5729 6.69157 13.5729C6.98233 13.5729 7.27309 13.379 7.37001 12.9913L9.98683 3.20248C10.0838 2.8148 9.88991 2.42712 9.50223 2.3302Z" fill="#2A3843"/>
</g>
<defs>
<clipPath id="clip0_168_550">
<rect width="14.0533" height="11.3396" fill="white" transform="translate(0.973328 2.3302)"/>
</clipPath>
</defs>
</svg>
