<svg width="16" height="16" viewBox="0 0 16 16" fill="none" xmlns="http://www.w3.org/2000/svg">
<path fill-rule="evenodd" clip-rule="evenodd" d="M9.41052 7.72298L10.9922 6.14127L9.91856 5.0676L8.33685 6.64931L9.41052 7.72298ZM5.27377 13.981C4.88325 14.3716 4.25008 14.3716 3.85956 13.981L2.07878 12.2003C1.68826 11.8097 1.68826 11.1766 2.07878 10.7861L9.21145 3.65338C9.60198 3.26286 10.2351 3.26286 10.6257 3.65338L12.4064 5.43416C12.797 5.82468 12.797 6.45785 12.4064 6.84837L5.27377 13.981Z" fill="#2A3843"/>
<path fill-rule="evenodd" clip-rule="evenodd" d="M14.4701 1.00606C14.4701 0.798951 14.3022 0.631058 14.0951 0.631058H14.0951C13.888 0.631058 13.7201 0.798951 13.7201 1.00606V1.00907C13.7193 1.22873 13.6408 1.33757 13.5687 1.39905C13.4934 1.46319 13.4016 1.494 13.3404 1.50345H13.3399C13.1372 1.50345 12.9712 1.66453 12.965 1.86714C12.9649 1.87121 12.9649 1.87527 12.9649 1.87931C12.9649 1.88379 12.9649 1.88829 12.9651 1.8928C12.9717 2.09501 13.1376 2.25549 13.3399 2.25549H13.3439C13.4102 2.26471 13.5052 2.29468 13.5807 2.35381C13.6513 2.40912 13.7201 2.49917 13.7201 2.68188C13.7201 2.88899 13.888 3.05688 14.0951 3.05688C14.0951 3.05688 14.0951 3.05688 14.0951 3.05688C14.0951 3.05688 14.0951 3.05688 14.0951 3.05688C14.3022 3.05688 14.4701 2.88899 14.4701 2.68188C14.4701 2.49917 14.5388 2.40912 14.6095 2.35381C14.685 2.29468 14.7799 2.26471 14.8463 2.25549H14.8502C15.0526 2.25549 15.2184 2.09501 15.225 1.8928L15.2252 1.88654C15.2253 1.88011 15.2253 1.87364 15.2251 1.86714C15.219 1.66453 15.053 1.50345 14.8503 1.50345H14.8497C14.7885 1.494 14.6967 1.46319 14.6215 1.39905C14.5493 1.33757 14.4708 1.22873 14.4701 1.00907V1.00606Z" fill="#2A3843"/>
<path fill-rule="evenodd" clip-rule="evenodd" d="M14.4987 7.51961C14.4987 7.24347 14.2748 7.01961 13.9987 7.01961H13.9987C13.8261 7.01961 13.6739 7.10705 13.5841 7.24005C13.5302 7.31985 13.4987 7.41605 13.4987 7.51961V7.52145C13.4983 7.95156 13.3415 8.1854 13.1803 8.32272C13.0195 8.45976 12.8251 8.5236 12.6928 8.54175H12.6811C12.4108 8.54175 12.1895 8.75651 12.1813 9.02666C12.1811 9.03402 12.181 9.04136 12.1811 9.04866C12.1811 9.05299 12.1812 9.05733 12.1814 9.06168C12.1902 9.33129 12.4113 9.54526 12.6811 9.54526H12.6978C12.8373 9.56276 13.0355 9.62374 13.1963 9.74965C13.3552 9.87406 13.4987 10.0752 13.4987 10.4435C13.4987 10.7197 13.7225 10.9435 13.9987 10.9435C14.0019 10.9435 14.0051 10.9435 14.0084 10.9434C14.2801 10.9383 14.4987 10.7164 14.4987 10.4435C14.4987 10.0752 14.6421 9.87406 14.801 9.74965C14.9619 9.62374 15.1601 9.56276 15.2996 9.54526H15.3163C15.5861 9.54526 15.8072 9.33129 15.816 9.06168C15.8162 9.0556 15.8163 9.04953 15.8163 9.04349L15.8161 9.02666C15.8079 8.75651 15.5866 8.54175 15.3163 8.54175H15.3046C15.1723 8.5236 14.9779 8.45976 14.8171 8.32272C14.656 8.1854 14.4991 7.95156 14.4987 7.52145V7.51961Z" fill="#2A3843"/>
<path fill-rule="evenodd" clip-rule="evenodd" d="M6.74532 1.08115C6.74532 0.805004 6.52146 0.581146 6.24532 0.581146C6.16872 0.581146 6.09615 0.598368 6.03127 0.629151C5.8622 0.709343 5.74528 0.881599 5.74528 1.08116V1.09172C5.74274 1.51627 5.58697 1.74787 5.42692 1.88425C5.26609 2.0213 5.07174 2.08514 4.93942 2.10329H4.92768C4.65741 2.10329 4.43606 2.31805 4.42791 2.5882C4.42768 2.59556 4.42762 2.60289 4.42772 2.61019C4.42775 2.61452 4.42784 2.61887 4.42798 2.62322C4.43684 2.89283 4.65796 3.1068 4.92771 3.1068H4.94441C5.08388 3.1243 5.28213 3.18528 5.44295 3.31119C5.60186 3.4356 5.74528 3.63675 5.74529 4.00507C5.74529 4.02232 5.74616 4.03938 5.74787 4.05619C5.77347 4.30832 5.9864 4.50507 6.24528 4.50507C6.52143 4.50507 6.74529 4.28121 6.74529 4.00507C6.74529 3.63675 6.88871 3.4356 7.04762 3.31119C7.20839 3.18531 7.40658 3.12434 7.54604 3.10681H7.56289C7.83264 3.10681 8.05376 2.89284 8.06262 2.62324C8.06282 2.61715 8.06291 2.61108 8.06289 2.60504L8.06266 2.5882C8.05451 2.31805 7.83316 2.10329 7.56289 2.10329H7.55106C7.41875 2.08512 7.22446 2.02128 7.06368 1.88427C6.90363 1.74789 6.74786 1.51629 6.74532 1.09175V1.08115Z" fill="#2A3843"/>
</svg>
