<svg width="16" height="16" viewBox="0 0 16 16" fill="none" xmlns="http://www.w3.org/2000/svg">
<path d="M8 1C6.61553 1 5.26216 1.41054 4.11101 2.17971C2.95987 2.94888 2.06266 4.04213 1.53285 5.32122C1.00303 6.6003 0.86441 8.00777 1.13451 9.36563C1.4046 10.7235 2.07129 11.9708 3.05026 12.9497C4.02922 13.9287 5.2765 14.5954 6.63437 14.8655C7.99224 15.1356 9.3997 14.997 10.6788 14.4672C11.9579 13.9373 13.0511 13.0401 13.8203 11.889C14.5895 10.7378 15 9.38447 15 8C15 6.14348 14.2625 4.36301 12.9497 3.05025C11.637 1.7375 9.85652 1 8 1V1ZM8 13.48C6.91616 13.48 5.85666 13.1586 4.95548 12.5565C4.0543 11.9543 3.35191 11.0984 2.93714 10.0971C2.52238 9.09577 2.41385 7.99392 2.6253 6.9309C2.83675 5.86789 3.35867 4.89145 4.12506 4.12505C4.89145 3.35866 5.86789 2.83674 6.93091 2.6253C7.99392 2.41385 9.09577 2.52237 10.0971 2.93714C11.0984 3.35191 11.9543 4.05429 12.5565 4.95548C13.1586 5.85666 13.48 6.91616 13.48 8C13.4774 9.45257 12.8992 10.8449 11.872 11.872C10.8449 12.8992 9.45258 13.4774 8 13.48V13.48Z" fill="#2A3843"/>
<path d="M8.59207 4.02666H7.40815C7.28937 4.02481 7.17167 4.04943 7.06359 4.09873C6.95551 4.14803 6.85976 4.22077 6.78329 4.31168C6.70332 4.40157 6.64495 4.50855 6.61265 4.62444C6.58035 4.74034 6.57498 4.86209 6.59694 4.98038L7.1889 8.56505C7.22061 8.75731 7.31958 8.93206 7.46815 9.05813C7.61673 9.18421 7.80525 9.25341 8.00011 9.25341C8.19497 9.25341 8.38349 9.18421 8.53206 9.05813C8.68064 8.93206 8.77961 8.75731 8.81132 8.56505L9.40328 4.98038C9.42287 4.86207 9.41633 4.74091 9.38414 4.6254C9.35195 4.50988 9.29487 4.40281 9.21692 4.31168C9.14046 4.22077 9.04471 4.14803 8.93663 4.09873C8.82855 4.04943 8.71085 4.02481 8.59207 4.02666V4.02666Z" fill="#2A3843"/>
<path d="M8.77842 10.1404C8.57303 9.93621 8.29519 9.82161 8.00558 9.82161C7.71597 9.82161 7.43813 9.93621 7.23274 10.1404C7.12695 10.2377 7.0445 10.3576 6.99157 10.4912C6.93634 10.6271 6.90661 10.772 6.90387 10.9187C6.9056 11.062 6.9354 11.2035 6.99157 11.3353C7.10936 11.5987 7.32011 11.8094 7.58353 11.9272C7.71532 11.9834 7.85685 12.0132 8.0001 12.0149C8.14705 12.0147 8.29244 11.9848 8.42763 11.9272C8.69105 11.8094 8.9018 11.5987 9.01959 11.3353C9.07201 11.2027 9.09807 11.0612 9.09633 10.9187C9.09359 10.772 9.06386 10.6271 9.00863 10.4912C8.9552 10.3605 8.87703 10.2414 8.77842 10.1404V10.1404Z" fill="#2A3843"/>
</svg>
